<svg width="432" height="314" xmlns="http://www.w3.org/2000/svg" xmlns:xlink="http://www.w3.org/1999/xlink" overflow="hidden"><defs><clipPath id="clip0"><rect x="324" y="383" width="432" height="314"/></clipPath></defs><g clip-path="url(#clip0)" transform="translate(-324 -383)"><path d="M180.926 544.628 180.926 279.002C180.926 279.002 179.088 261.395 225.6 262.903L225.6 230.706C225.6 230.706 277.416 232.719 305.59 230.706L327.725 260.89 475.126 266.927C475.126 266.927 513.86 268.585 511.35 295.1 508.835 321.615 510.943 544.626 510.943 544.626L180.926 544.626Z" fill="#EFB054" transform="matrix(1.0027 0 0 1 144.612 152.332)"/><path d="M208.832 278.333 465.065 278.333 465.065 526.517 208.832 526.517Z" fill="#FFFFFF" transform="matrix(1.0027 0 0 1 144.612 152.332)"/><path d="M180.926 544.628C180.926 544.628 251.353 345.409 281.541 333.334 311.724 321.261 571.314 317.235 593.449 333.334 593.449 333.334 609.547 351.445 510.945 544.628L180.926 544.628Z" fill="#F4DB73" transform="matrix(1.0027 0 0 1 144.612 152.332)"/></g></svg>