<?xml version="1.0" encoding="UTF-8"?>
<svg width="730px" height="199px" viewBox="0 0 730 199" version="1.1" xmlns="http://www.w3.org/2000/svg" xmlns:xlink="http://www.w3.org/1999/xlink">
    <!-- Generator: Sketch 53.2 (72643) - https://sketchapp.com -->
    <title>NiuAce logo grey</title>
    <desc>Created with Sketch.</desc>
    <defs>
        <path d="M75.5634839,0.48234 C75.3776129,0.48508 75.1889677,0.49056 75.0003226,0.49878 L75.0003226,0.49878 C66.6805161,0.82758 61.8728387,5.97604 58.2830323,12.65616 L58.2830323,12.65616 C55.6336774,17.58816 53.2145806,22.6462 50.4930968,27.53984 L50.4930968,27.53984 C40.261871,45.91428 29.8198065,64.17638 19.7217419,82.61932 L19.7217419,82.61932 C13.9347742,93.1875 8.4696129,103.93652 3.24580645,114.78144 L3.24580645,114.78144 C1.5896129,118.22288 0.618645161,122.2041 0.332903226,126.0127 L0.332903226,126.0127 C-0.0693548387,131.42146 4.31387097,135.40542 9.76516129,134.59164 L9.76516129,134.59164 C13.9486452,133.96418 18.4234194,132.9723 21.9743871,130.84332 L21.9743871,130.84332 C37.0687742,121.79584 51.9134839,112.33462 66.7609677,102.8871 L66.7609677,102.8871 C78.6123226,95.3521 90.5025161,87.85272 102.079226,79.92042 L102.079226,79.92042 C115.500774,70.72772 128.447935,60.92674 144.901677,57.2113 L144.901677,57.2113 C152.386452,55.52072 159.865677,56.4304 165.49729,60.29928 L165.49729,60.29928 C176.668968,67.98224 186.744839,77.21604 197.245161,85.8443 L197.245161,85.8443 C199.608774,87.78696 199.589355,90.0776 198.809806,92.9957 L198.809806,92.9957 C197.8,96.75224 197.239613,100.791 197.492065,104.64618 L197.492065,104.64618 C197.600258,106.26552 200.280129,107.71498 201.792065,109.24116 L201.792065,109.24116 C203.173613,107.75334 204.677226,106.35868 205.867355,104.7366 L205.867355,104.7366 C206.308452,104.14202 206.019935,103.01862 206.047677,102.13634 L206.047677,102.13634 C206.233548,96.15218 208.433484,92.82308 214.314774,91.86408 L214.314774,91.86408 C219.685613,90.98728 225.245097,91.2421 230.724129,90.99824 L230.724129,90.99824 C230.732452,91.18182 230.740774,91.36814 230.751871,91.55172 L230.751871,91.55172 C235.653871,91.20922 240.550323,90.82836 245.457871,90.53244 L245.457871,90.53244 C250.229484,90.24748 253.331032,87.21978 256.169032,84.00028 L256.169032,84.00028 C258.147032,81.75074 257.514516,76.33924 255.339548,75.19392 L255.339548,75.19392 C251.871806,73.36634 249.841097,74.8843 247.616194,77.87364 L247.616194,77.87364 C246.187484,79.79164 243.06929,81.38358 240.622452,81.51236 L240.622452,81.51236 C230.663097,82.05214 220.667677,82.07954 210.686129,82.022 L210.686129,82.022 C208.777484,82.00556 206.488774,81.20274 205.037871,79.98618 L205.037871,79.98618 C197.553097,73.72254 190.35129,67.13832 182.935871,60.79522 L182.935871,60.79522 C175.775677,54.67132 168.16329,49.35298 158.253871,48.55838 L158.253871,48.55838 C145.97529,47.56924 134.143355,48.80772 123.293484,55.15904 L123.293484,55.15904 C120.45271,56.82496 118.105742,56.08516 116.346903,53.53148 L116.346903,53.53148 C114.760065,51.2381 113.264774,48.87074 111.916516,46.43762 L111.916516,46.43762 C105.513677,34.8529 99.2356774,23.19968 92.7856774,11.63688 L92.7856774,11.63688 C89.1320645,5.09102 84.0025806,0.59468 76.1654839,0.48234 L76.1654839,0.48234 L75.5634839,0.48234 Z M12.4783226,116.07198 C15.8600645,109.24664 19.7494839,102.6679 23.3892258,95.9686 L23.3892258,95.9686 C35.9452258,72.87862 48.3985806,49.73384 61.0627742,26.70414 L61.0627742,26.70414 C63.7343226,21.84886 66.9718065,17.26484 70.2952903,12.80412 L70.2952903,12.80412 C71.5103871,11.1793 73.7352903,10.2888 76.4151613,8.4256 L76.4151613,8.4256 C79.1810323,10.99846 82.388,12.88906 84.0164516,15.67564 L84.0164516,15.67564 C91.8091613,29.00026 99.171871,42.57148 106.684387,56.05228 L106.684387,56.05228 C107.180968,56.94826 107.530516,57.95384 108.149161,58.75392 L108.149161,58.75392 C110.374065,61.63914 109.711032,63.8969 106.781484,65.76558 L106.781484,65.76558 C84.8625806,79.77246 62.965871,93.82044 41.0053548,107.76978 L41.0053548,107.76978 C33.526129,112.52368 25.9498065,117.14058 18.2514194,121.53554 L18.2514194,121.53554 C17.2055484,122.1356 15.8018065,122.1219 14.3980645,122.1082 L14.3980645,122.1082 C13.7516774,122.09998 13.1052903,122.09724 12.4949677,122.1493 L12.4949677,122.1493 C12.4478065,120.10252 11.6654839,117.70228 12.4783226,116.07198 L12.4783226,116.07198 Z" id="path-1"></path>
        <path d="M126.774986,1.01515758 C116.909975,2.42016212 106.905863,3.27092424 97.2550665,5.57657273 L97.2550665,5.57657273 C88.4917317,7.67160909 79.9899059,11.0774288 71.6049245,14.4777061 L71.6049245,14.4777061 C60.4379322,19.0086379 49.2125176,23.5534258 38.5379411,29.0903076 L38.5379411,29.0903076 C27.6018557,34.7602076 17.2694666,41.5967879 6.73955476,48.0287712 L6.73955476,48.0287712 C4.74763484,49.2425621 2.78631705,50.7390167 1.34245331,52.5292197 L1.34245331,52.5292197 C0.546798147,53.5185424 0.246340953,55.7216561 0.824999253,56.7774879 L0.824999253,56.7774879 C1.45373375,57.9275409 3.33715524,58.9390333 4.71425071,58.9944576 L4.71425071,58.9944576 C6.36954729,59.0637379 8.33364709,58.4291303 9.70796056,57.4564348 L9.70796056,57.4564348 C30.0110772,43.1652939 51.9249783,31.8199515 74.9516838,22.7054348 L74.9516838,22.7054348 C94.2755326,15.0568894 114.16413,9.4119303 135.338016,10.7254848 L135.338016,10.7254848 C141.021664,10.7254848 146.763735,10.1961833 152.366706,10.8529606 L152.366706,10.8529606 C159.936558,11.7425197 167.228209,14.2116697 173.340287,18.9227303 L173.340287,18.9227303 C181.001945,24.8309545 180.2202,32.4656439 171.760105,37.0187455 L171.760105,37.0187455 C163.497532,41.4693121 155.140371,45.7480636 146.919528,50.2789955 L146.919528,50.2789955 C145.650931,50.9773409 144.360078,52.4821091 144.054056,53.8316894 L144.054056,53.8316894 C143.745253,55.1951258 144.526998,58.0827288 145.044452,58.1353818 L145.044452,58.1353818 C147.737439,58.4014182 150.936752,58.8060152 153.165143,57.6448773 L153.165143,57.6448773 C162.13991,52.9864697 170.825349,47.7738197 179.61094,42.7551545 L179.61094,42.7551545 C187.077857,38.4902591 190.655524,29.2094697 187.433955,22.1373364 L187.433955,22.1373364 C183.578088,13.6740545 176.881787,8.05680758 168.238079,5.21077273 L168.238079,5.21077273 C158.512168,2.01002273 148.577606,0.189336364 138.467778,0.189336364 L138.467778,0.189336364 C134.595219,0.189336364 130.694839,0.455372727 126.774986,1.01515758" id="path-3"></path>
        <path d="M71.4290625,7.53464242 C69.688125,7.63643636 67.9415625,7.63643636 66.195,7.63375758 C64.918125,7.63375758 63.64125,7.63107879 62.3671875,7.67126061 C55.209375,7.88556364 51.15375,10.9956364 48.380625,17.301503 C43.965,27.3603515 39.313125,37.3308 34.486875,47.2155273 C31.876875,52.5677455 25.801875,52.8222303 22.5196875,47.9521939 C18.950625,42.6481939 15.114375,37.4593818 12.1471875,31.8580364 C11.0953125,29.8757333 11.964375,26.7629818 12.5240625,24.2770667 C12.9740625,22.2545818 14.7825,20.4678303 15.06375,18.4614182 C15.5109375,15.2897333 12.245625,13.0797333 9.478125,14.4084121 C3.954375,17.0657697 -2.4215625,28.4747273 2.7759375,35.7422788 C8.5190625,43.7706061 13.4240625,52.3507636 18.5371875,60.7782303 C20.4103125,63.8668727 22.7165625,64.6812242 26.0521875,63.1864606 C27.275625,62.6373091 28.5721875,62.2274545 29.77875,61.6488364 C36.241875,58.5468 42.44625,55.6778182 45.106875,48.1048848 C48.25125,39.149697 52.8721875,30.6740121 56.739375,21.9465212 C58.1090625,18.8525212 60.42375,17.5586667 63.8184375,17.6631394 C65.3259375,17.7086788 66.83625,17.6711758 68.349375,17.6711758 C68.41125,17.9283394 68.47875,18.1881818 68.5434375,18.4480242 C73.0125,17.3122182 77.630625,16.5353697 81.9196875,14.9495273 C86.9821875,13.0797333 89.960625,8.6892 89.1871875,4.63351515 C88.9003125,3.10660606 87.3703125,0.94750303 86.04,0.671587879 C85.815,0.626048485 85.5675,0.601939394 85.3059375,0.601939394 C83.7084375,0.601939394 81.5428125,1.41629091 80.85375,2.47441212 C78.5728125,5.98362424 75.3778125,7.30962424 71.4290625,7.53464242 Z" id="path-5"></path>
        <polygon id="path-7" points="0 0.521267645 68.4247055 0.521267645 68.4247055 66.8799835 0 66.8799835"></polygon>
        <polygon id="path-9" points="0 179 713.321977 179 713.321977 0.475454545 0 0.475454545"></polygon>
    </defs>
    <g id="NiuAce-logo-grey" stroke="none" stroke-width="1" fill="none" fill-rule="evenodd">
        <g id="Group-43" transform="translate(8.000000, 6.000000)">
            <g id="Group-3" transform="translate(450.000000, 0.000000)">
                <mask id="mask-2" fill="white">
                    <use xlink:href="#path-1"></use>
                </mask>
                <g id="Clip-2"></g>
                <path d="M75.5634839,0.48234 C75.3776129,0.48508 75.1889677,0.49056 75.0003226,0.49878 L75.0003226,0.49878 C66.6805161,0.82758 61.8728387,5.97604 58.2830323,12.65616 L58.2830323,12.65616 C55.6336774,17.58816 53.2145806,22.6462 50.4930968,27.53984 L50.4930968,27.53984 C40.261871,45.91428 29.8198065,64.17638 19.7217419,82.61932 L19.7217419,82.61932 C13.9347742,93.1875 8.4696129,103.93652 3.24580645,114.78144 L3.24580645,114.78144 C1.5896129,118.22288 0.618645161,122.2041 0.332903226,126.0127 L0.332903226,126.0127 C-0.0693548387,131.42146 4.31387097,135.40542 9.76516129,134.59164 L9.76516129,134.59164 C13.9486452,133.96418 18.4234194,132.9723 21.9743871,130.84332 L21.9743871,130.84332 C37.0687742,121.79584 51.9134839,112.33462 66.7609677,102.8871 L66.7609677,102.8871 C78.6123226,95.3521 90.5025161,87.85272 102.079226,79.92042 L102.079226,79.92042 C115.500774,70.72772 128.447935,60.92674 144.901677,57.2113 L144.901677,57.2113 C152.386452,55.52072 159.865677,56.4304 165.49729,60.29928 L165.49729,60.29928 C176.668968,67.98224 186.744839,77.21604 197.245161,85.8443 L197.245161,85.8443 C199.608774,87.78696 199.589355,90.0776 198.809806,92.9957 L198.809806,92.9957 C197.8,96.75224 197.239613,100.791 197.492065,104.64618 L197.492065,104.64618 C197.600258,106.26552 200.280129,107.71498 201.792065,109.24116 L201.792065,109.24116 C203.173613,107.75334 204.677226,106.35868 205.867355,104.7366 L205.867355,104.7366 C206.308452,104.14202 206.019935,103.01862 206.047677,102.13634 L206.047677,102.13634 C206.233548,96.15218 208.433484,92.82308 214.314774,91.86408 L214.314774,91.86408 C219.685613,90.98728 225.245097,91.2421 230.724129,90.99824 L230.724129,90.99824 C230.732452,91.18182 230.740774,91.36814 230.751871,91.55172 L230.751871,91.55172 C235.653871,91.20922 240.550323,90.82836 245.457871,90.53244 L245.457871,90.53244 C250.229484,90.24748 253.331032,87.21978 256.169032,84.00028 L256.169032,84.00028 C258.147032,81.75074 257.514516,76.33924 255.339548,75.19392 L255.339548,75.19392 C251.871806,73.36634 249.841097,74.8843 247.616194,77.87364 L247.616194,77.87364 C246.187484,79.79164 243.06929,81.38358 240.622452,81.51236 L240.622452,81.51236 C230.663097,82.05214 220.667677,82.07954 210.686129,82.022 L210.686129,82.022 C208.777484,82.00556 206.488774,81.20274 205.037871,79.98618 L205.037871,79.98618 C197.553097,73.72254 190.35129,67.13832 182.935871,60.79522 L182.935871,60.79522 C175.775677,54.67132 168.16329,49.35298 158.253871,48.55838 L158.253871,48.55838 C145.97529,47.56924 134.143355,48.80772 123.293484,55.15904 L123.293484,55.15904 C120.45271,56.82496 118.105742,56.08516 116.346903,53.53148 L116.346903,53.53148 C114.760065,51.2381 113.264774,48.87074 111.916516,46.43762 L111.916516,46.43762 C105.513677,34.8529 99.2356774,23.19968 92.7856774,11.63688 L92.7856774,11.63688 C89.1320645,5.09102 84.0025806,0.59468 76.1654839,0.48234 L76.1654839,0.48234 L75.5634839,0.48234 Z M12.4783226,116.07198 C15.8600645,109.24664 19.7494839,102.6679 23.3892258,95.9686 L23.3892258,95.9686 C35.9452258,72.87862 48.3985806,49.73384 61.0627742,26.70414 L61.0627742,26.70414 C63.7343226,21.84886 66.9718065,17.26484 70.2952903,12.80412 L70.2952903,12.80412 C71.5103871,11.1793 73.7352903,10.2888 76.4151613,8.4256 L76.4151613,8.4256 C79.1810323,10.99846 82.388,12.88906 84.0164516,15.67564 L84.0164516,15.67564 C91.8091613,29.00026 99.171871,42.57148 106.684387,56.05228 L106.684387,56.05228 C107.180968,56.94826 107.530516,57.95384 108.149161,58.75392 L108.149161,58.75392 C110.374065,61.63914 109.711032,63.8969 106.781484,65.76558 L106.781484,65.76558 C84.8625806,79.77246 62.965871,93.82044 41.0053548,107.76978 L41.0053548,107.76978 C33.526129,112.52368 25.9498065,117.14058 18.2514194,121.53554 L18.2514194,121.53554 C17.2055484,122.1356 15.8018065,122.1219 14.3980645,122.1082 L14.3980645,122.1082 C13.7516774,122.09998 13.1052903,122.09724 12.4949677,122.1493 L12.4949677,122.1493 C12.4478065,120.10252 11.6654839,117.70228 12.4783226,116.07198 L12.4783226,116.07198 Z" id="Fill-1" fill="#999999" mask="url(#mask-2)"></path>
            </g>
            <g id="Group-6" transform="translate(427.000000, 120.000000)">
                <mask id="mask-4" fill="white">
                    <use xlink:href="#path-3"></use>
                </mask>
                <g id="Clip-5"></g>
                <path d="M126.774986,1.01515758 C116.909975,2.42016212 106.905863,3.27092424 97.2550665,5.57657273 L97.2550665,5.57657273 C88.4917317,7.67160909 79.9899059,11.0774288 71.6049245,14.4777061 L71.6049245,14.4777061 C60.4379322,19.0086379 49.2125176,23.5534258 38.5379411,29.0903076 L38.5379411,29.0903076 C27.6018557,34.7602076 17.2694666,41.5967879 6.73955476,48.0287712 L6.73955476,48.0287712 C4.74763484,49.2425621 2.78631705,50.7390167 1.34245331,52.5292197 L1.34245331,52.5292197 C0.546798147,53.5185424 0.246340953,55.7216561 0.824999253,56.7774879 L0.824999253,56.7774879 C1.45373375,57.9275409 3.33715524,58.9390333 4.71425071,58.9944576 L4.71425071,58.9944576 C6.36954729,59.0637379 8.33364709,58.4291303 9.70796056,57.4564348 L9.70796056,57.4564348 C30.0110772,43.1652939 51.9249783,31.8199515 74.9516838,22.7054348 L74.9516838,22.7054348 C94.2755326,15.0568894 114.16413,9.4119303 135.338016,10.7254848 L135.338016,10.7254848 C141.021664,10.7254848 146.763735,10.1961833 152.366706,10.8529606 L152.366706,10.8529606 C159.936558,11.7425197 167.228209,14.2116697 173.340287,18.9227303 L173.340287,18.9227303 C181.001945,24.8309545 180.2202,32.4656439 171.760105,37.0187455 L171.760105,37.0187455 C163.497532,41.4693121 155.140371,45.7480636 146.919528,50.2789955 L146.919528,50.2789955 C145.650931,50.9773409 144.360078,52.4821091 144.054056,53.8316894 L144.054056,53.8316894 C143.745253,55.1951258 144.526998,58.0827288 145.044452,58.1353818 L145.044452,58.1353818 C147.737439,58.4014182 150.936752,58.8060152 153.165143,57.6448773 L153.165143,57.6448773 C162.13991,52.9864697 170.825349,47.7738197 179.61094,42.7551545 L179.61094,42.7551545 C187.077857,38.4902591 190.655524,29.2094697 187.433955,22.1373364 L187.433955,22.1373364 C183.578088,13.6740545 176.881787,8.05680758 168.238079,5.21077273 L168.238079,5.21077273 C158.512168,2.01002273 148.577606,0.189336364 138.467778,0.189336364 L138.467778,0.189336364 C134.595219,0.189336364 130.694839,0.455372727 126.774986,1.01515758" id="Fill-4" fill="#999999" mask="url(#mask-4)"></path>
            </g>
            <g id="Group-9" transform="translate(624.000000, 97.000000)">
                <mask id="mask-6" fill="white">
                    <use xlink:href="#path-5"></use>
                </mask>
                <g id="Clip-8"></g>
                <path d="M71.4290625,7.53464242 C69.688125,7.63643636 67.9415625,7.63643636 66.195,7.63375758 C64.918125,7.63375758 63.64125,7.63107879 62.3671875,7.67126061 C55.209375,7.88556364 51.15375,10.9956364 48.380625,17.301503 C43.965,27.3603515 39.313125,37.3308 34.486875,47.2155273 C31.876875,52.5677455 25.801875,52.8222303 22.5196875,47.9521939 C18.950625,42.6481939 15.114375,37.4593818 12.1471875,31.8580364 C11.0953125,29.8757333 11.964375,26.7629818 12.5240625,24.2770667 C12.9740625,22.2545818 14.7825,20.4678303 15.06375,18.4614182 C15.5109375,15.2897333 12.245625,13.0797333 9.478125,14.4084121 C3.954375,17.0657697 -2.4215625,28.4747273 2.7759375,35.7422788 C8.5190625,43.7706061 13.4240625,52.3507636 18.5371875,60.7782303 C20.4103125,63.8668727 22.7165625,64.6812242 26.0521875,63.1864606 C27.275625,62.6373091 28.5721875,62.2274545 29.77875,61.6488364 C36.241875,58.5468 42.44625,55.6778182 45.106875,48.1048848 C48.25125,39.149697 52.8721875,30.6740121 56.739375,21.9465212 C58.1090625,18.8525212 60.42375,17.5586667 63.8184375,17.6631394 C65.3259375,17.7086788 66.83625,17.6711758 68.349375,17.6711758 C68.41125,17.9283394 68.47875,18.1881818 68.5434375,18.4480242 C73.0125,17.3122182 77.630625,16.5353697 81.9196875,14.9495273 C86.9821875,13.0797333 89.960625,8.6892 89.1871875,4.63351515 C88.9003125,3.10660606 87.3703125,0.94750303 86.04,0.671587879 C85.815,0.626048485 85.5675,0.601939394 85.3059375,0.601939394 C83.7084375,0.601939394 81.5428125,1.41629091 80.85375,2.47441212 C78.5728125,5.98362424 75.3778125,7.30962424 71.4290625,7.53464242 Z" id="Fill-7" fill="#999999" mask="url(#mask-6)"></path>
            </g>
            <g id="Group-42">
                <path d="M388.854363,68.7630909 C395.803409,68.7630909 402.749688,68.7521818 409.698735,68.7658182 C414.403386,68.774 415.322177,69.6685455 415.413502,74.2394545 C415.551874,81.7312727 414.807433,82.5058182 407.260619,82.4349091 C396.8412,82.3394545 386.421781,82.1867273 376.002363,82.0967273 C368.85406,82.0312727 365.80434,84.2676364 365.231479,89.6867273 C364.85234,93.2649091 366.1392,95.1685455 369.997014,95.1576364 C379.721805,95.1303636 389.449363,95.1849091 399.174153,95.2067273 C401.399177,95.2121818 403.6242,95.2067273 405.846456,95.2449091 C408.173874,95.2858182 409.485642,96.3521818 409.424758,98.7794545 C409.388781,100.148545 409.430293,101.517636 409.402619,102.886727 C409.327898,106.424 407.556735,108.044 403.900944,108.014 C393.755502,107.921273 383.607293,107.948545 373.464619,107.964909 C366.952828,107.973091 365.350479,108.949455 365.137386,112.890364 C364.849572,118.181273 367.932502,121.661273 373.7552,121.745818 C384.866479,121.901273 395.980526,121.694 407.094572,121.650364 C408.624967,121.644909 410.373991,121.241273 411.622107,121.838545 C413.088851,122.544909 414.627549,123.941273 415.197642,125.397636 C415.800944,126.941273 415.432874,128.915818 415.261293,130.677636 C414.995619,133.347636 413.495665,134.986727 410.650735,134.986727 C400.228549,134.989455 389.811898,134.984 379.389712,134.894 C374.964572,134.853091 370.484084,134.989455 366.130898,134.356727 C358.54534,133.254909 354.659851,129.245818 354.513177,121.729455 C354.241967,107.924 354.38034,94.1049091 354.659851,80.2967273 C354.776084,74.4303636 360.778665,68.9921818 366.761874,68.8830909 C374.12327,68.7467273 381.4902,68.8503636 388.854363,68.8503636 L388.854363,68.7630909 Z" id="Fill-10" fill="#999999"></path>
                <g id="Group-14" transform="translate(0.000000, 68.181818)">
                    <mask id="mask-8" fill="white">
                        <use xlink:href="#path-7"></use>
                    </mask>
                    <g id="Clip-13"></g>
                    <path d="M68.4175279,39.9936364 C68.4175279,46.9809091 68.4369,53.9654545 68.411993,60.9527273 C68.3953884,65.4636364 67.1002256,66.8381818 62.9601326,66.8790909 C58.4879465,66.9254545 56.5230628,65.1690909 56.4843186,60.7809091 C56.4068302,51.3309091 56.4843186,41.8781818 56.3957605,32.4309091 C56.3625512,28.8745455 56.2075744,25.3045455 55.8284349,21.77 C55.2389698,16.2390909 52.4300163,13.6672727 46.8093419,13.6018182 C38.7505512,13.5118182 30.6862256,13.5063636 22.6302023,13.6918182 C15.4791326,13.8609091 13.0991326,15.9118182 12.7919465,23.0709091 C12.3657605,33.0527273 12.5290395,43.0590909 12.4460163,53.0545455 C12.4266442,55.52 12.5013651,57.9881818 12.4266442,60.4509091 C12.2744349,65.4909091 11.0899698,66.8354545 6.93880698,66.8627273 C1.70003953,66.8981818 0.119830233,65.5045455 0.0949232558,60.4154545 C0.0229697674,46.7190909 -0.0628209302,33.0172727 0.0672488372,19.3236364 C0.158574419,9.69909091 9.00608605,0.876363636 18.744714,0.688181818 C28.8873884,0.494545455 39.0383651,0.459090909 49.1810395,0.636363636 C60.1235047,0.827272727 68.4092256,9.44545455 68.4147605,20.2727273 C68.4175279,26.8454545 68.4147605,33.4209091 68.4175279,39.9936364" id="Fill-12" fill="#999999" mask="url(#mask-8)"></path>
                </g>
                <path d="M183.871605,95.6043636 C183.450953,104.200727 183.295977,112.821636 182.515558,121.390727 C181.96207,127.480727 177.545233,131.031636 172.098907,133.014364 C169.015977,134.138 165.581581,134.893455 162.313233,134.855273 C151.655814,134.727091 140.965186,134.566182 130.363116,133.619818 C122.381814,132.910727 117.278651,127.756182 116.741767,119.964364 C116.005628,109.194364 116.135698,98.3670909 115.947512,87.5643636 C115.875558,83.3207273 115.836814,79.0716364 115.972419,74.8334545 C116.124628,70.148 117.558163,68.7843636 121.911349,68.7543636 C126.704558,68.7216364 128.168535,69.9543636 128.221116,74.8089091 C128.351186,87.5398182 128.301372,100.273455 128.353953,113.004364 C128.381628,119.544364 130.678605,122.039818 137.234674,122.170727 C145.290698,122.331636 153.352256,122.334364 161.408279,122.187091 C168.072279,122.067091 171.003,119.560727 171.182884,113.056182 C171.542651,100.333455 171.476233,87.5998182 171.503907,74.8689091 C171.512209,71.1652727 172.696674,68.8361818 176.925326,68.7352727 C181.60507,68.6261818 183.232326,69.7907273 183.36793,74.6398182 C183.569953,81.6161818 183.420512,88.6034545 183.420512,95.5852727 C183.572721,95.5907273 183.719395,95.5961818 183.871605,95.6043636" id="Fill-15" fill="#999999"></path>
                <path d="M310.13614,68.726 C316.949581,68.726 323.771326,68.8950909 330.576465,68.666 C334.614163,68.5296364 336.191605,70.1932727 335.953605,73.9678182 C335.934233,74.2378182 335.970209,74.5132727 335.978512,74.7887273 C336.194372,81.5878182 335.629814,82.3214545 328.608814,82.3923636 C317.353628,82.5041818 306.095674,82.2069091 294.846023,82.4469091 C289.153395,82.5696364 287.418209,84.3778182 287.227256,90.0178182 C286.961581,97.8150909 287.036302,105.631455 287.216186,113.439636 C287.354558,119.526909 289.803744,121.684182 296.085837,121.695091 C307.072581,121.714182 318.056558,121.583273 329.043302,121.730545 C331.226814,121.757818 335.101233,122.431455 335.272814,123.347818 C335.912093,126.718727 335.461,130.326909 335.051419,133.801455 C334.987767,134.338727 332.986907,135.006909 331.877163,135.012364 C318.388651,135.075091 304.894605,135.206 291.411628,134.949636 C281.462674,134.761455 276.378884,129.898727 276.107674,120.219636 C275.778349,108.443273 275.894581,96.6505455 275.985907,84.866 C276.008047,82.2941818 276.495116,79.6569091 277.217419,77.1750909 C278.576233,72.5196364 282.97093,69.1078182 288.029814,68.9687273 C295.393977,68.7669091 302.766442,68.9141818 310.13614,68.9141818 L310.13614,68.726 Z" id="Fill-17" fill="#999999"></path>
                <path d="M228.688665,106.636182 L228.688665,106.663455 C230.210758,106.663455 231.732851,106.693455 233.249409,106.655273 C238.053688,106.532545 239.210479,105.425273 237.84613,100.968909 C236.420898,96.3161818 234.436642,91.7970909 232.355526,87.3761818 C230.26334,82.9361818 229.023526,82.8652727 226.593712,87.3161818 C223.9342,92.1898182 221.692572,97.3034545 219.578247,102.438909 C218.648386,104.697091 219.669572,106.508 222.467456,106.619818 C224.537502,106.701636 226.613084,106.636182 228.688665,106.636182 L228.688665,106.636182 Z M229.543805,118.794364 C225.788386,118.794364 222.032967,118.919818 218.285851,118.761636 C213.725107,118.573455 210.929991,120.556182 209.587781,124.805273 C209.092409,126.365273 208.383944,127.865273 207.697619,129.359818 C205.558386,134.012545 202.564014,135.708909 197.507898,134.923455 C194.732153,134.489818 193.218363,133.194364 194.67127,130.074364 C199.342712,120.065273 203.972642,110.037091 208.480805,99.9570909 C212.222386,91.5925455 215.844967,83.1789091 219.367921,74.7270909 C221.526526,69.5343636 222.597526,68.6834545 228.328898,68.8170909 C228.885153,68.8307273 229.455247,68.9234545 229.994898,68.8361818 C234.087944,68.1707273 236.642293,69.6352727 238.3332,73.5489091 C242.503735,83.1898182 247.050642,92.6752727 251.40106,102.242545 C255.081758,110.337091 258.701572,118.458909 262.351828,126.569818 C262.465293,126.815273 262.678386,127.025273 262.772479,127.273455 C263.699572,129.771636 265.650619,132.425273 262.70606,134.710727 C260.600037,136.347091 253.861316,134.757091 252.519107,132.384364 C250.565293,128.928909 249.128991,125.162545 246.939944,121.873455 C245.996247,120.452545 243.787828,119.244364 242.038805,119.075273 C237.909781,118.668909 233.711572,118.944364 229.543805,118.944364 L229.543805,118.794364 Z" id="Fill-19" fill="#999999"></path>
                <path d="M98.140407,102.164273 C98.140407,110.935182 98.1819186,119.708818 98.1238023,128.477 C98.0933605,133.200636 96.1699884,135.063364 91.6147791,135.057909 C87.2477558,135.047 85.0171977,132.974273 84.9978256,128.414273 C84.9258721,110.736091 84.9148023,93.0551818 84.9950581,75.377 C85.0171977,70.5333636 86.9488721,68.7688182 91.501314,68.7606364 C96.662593,68.747 98.0822907,70.0533636 98.1431744,75.4397273 C98.2400349,84.347 98.1708488,93.2542727 98.1708488,102.164273 L98.140407,102.164273 Z" id="Fill-21" fill="#999999"></path>
                <path d="M228.688665,106.636182 C226.613084,106.636182 224.537502,106.701636 222.467456,106.619818 C219.669572,106.508 218.648386,104.697091 219.578247,102.438909 C221.692572,97.3034545 223.9342,92.1898182 226.593712,87.3161818 C229.023526,82.8652727 230.26334,82.9361818 232.355526,87.3761818 C234.436642,91.7970909 236.420898,96.3161818 237.84613,100.968909 C239.210479,105.425273 238.053688,106.532545 233.249409,106.655273 C231.732851,106.693455 230.210758,106.663455 228.688665,106.663455 L228.688665,106.636182 Z" id="Fill-23" fill="#FFFFFF"></path>
                <polygon id="Fill-25" fill="#999999" points="170.748119 151.612182 156.172002 151.612182 156.172002 160.080364 169.198351 160.080364 169.198351 162.521273 156.172002 162.521273 156.172002 172.852182 153.457142 172.852182 153.457142 149.141273 170.748119 149.141273"></polygon>
                <path d="M195.446984,157.202545 C194.976519,156.005273 194.317867,154.966182 193.468263,154.085273 C192.621426,153.204364 191.619612,152.503455 190.462821,151.985273 C189.303263,151.464364 188.035774,151.205273 186.663123,151.205273 C185.287705,151.205273 184.020216,151.461636 182.863426,151.968909 C181.706635,152.476182 180.718658,153.168909 179.891193,154.052545 C179.066495,154.933455 178.421681,155.964364 177.951216,157.150727 C177.480751,158.337091 177.245519,159.608 177.245519,160.963455 C177.245519,162.316182 177.480751,163.592545 177.951216,164.789818 C178.421681,165.987091 179.077565,167.026182 179.92717,167.907091 C180.77124,168.788 181.778588,169.488909 182.935379,170.007091 C184.089402,170.528 185.356891,170.784364 186.735077,170.784364 C188.107728,170.784364 189.372449,170.533455 190.532007,170.023455 C191.688798,169.516182 192.679542,168.820727 193.50424,167.942545 C194.328937,167.058909 194.976519,166.025273 195.446984,164.841636 C195.917449,163.655273 196.149914,162.384364 196.149914,161.028909 C196.149914,159.673455 195.917449,158.397091 195.446984,157.202545 M198.076053,165.654364 C197.478286,167.135273 196.642519,168.436182 195.565984,169.565273 C194.489449,170.694364 193.194286,171.591636 191.683263,172.259818 C190.17224,172.925273 188.49517,173.260727 186.663123,173.260727 C184.831077,173.260727 183.162309,172.933455 181.665123,172.276182 C180.162402,171.621636 178.872774,170.735273 177.793472,169.617091 C176.716937,168.501636 175.886705,167.200727 175.302774,165.722545 C174.718844,164.241636 174.425495,162.678909 174.425495,161.028909 C174.425495,159.381636 174.724379,157.818909 175.319379,156.338 C175.914379,154.859818 176.750147,153.553455 177.829449,152.424364 C178.905984,151.295273 180.198379,150.398 181.71217,149.732545 C183.22596,149.067091 184.897495,148.734364 186.735077,148.734364 C188.567123,148.734364 190.230356,149.061636 191.733077,149.716182 C193.235798,150.370727 194.522658,151.254364 195.60196,152.372545 C196.678495,153.493455 197.508728,154.791636 198.092658,156.269818 C198.679356,157.748 198.969937,159.313455 198.969937,160.963455 C198.969937,162.610727 198.671053,164.176182 198.076053,165.654364" id="Fill-27" fill="#999999"></path>
                <path d="M219.418842,152.853364 C218.336772,152.024273 216.822981,151.612455 214.8664,151.612455 L207.424749,151.612455 L207.424749,161.267 L214.835958,161.267 C215.729842,161.267 216.557307,161.152455 217.315586,160.926091 C218.073865,160.699727 218.726981,160.377909 219.277702,159.957909 C219.828423,159.537909 220.262912,159.025182 220.572865,158.411545 C220.882819,157.797909 221.037795,157.110636 221.037795,156.336091 C221.037795,154.841545 220.498144,153.679727 219.418842,152.853364 L219.418842,152.853364 Z M221.278563,172.852455 L214.299074,163.637 L207.424749,163.637 L207.424749,172.852455 L204.709888,172.852455 L204.709888,149.141545 L215.057353,149.141545 C216.385726,149.141545 217.58126,149.307909 218.649493,149.648818 C219.712191,149.987 220.625447,150.467 221.380958,151.088818 C222.13647,151.710636 222.7204,152.455182 223.132749,153.325182 C223.547865,154.195182 223.752656,155.163364 223.752656,156.221545 C223.752656,157.217 223.592144,158.106091 223.273888,158.883364 C222.950098,159.663364 222.499005,160.339727 221.912307,160.917909 C221.328377,161.493364 220.633749,161.973364 219.833958,162.357909 C219.0314,162.742455 218.159656,163.015182 217.221493,163.170636 L224.61333,172.852455 L221.278563,172.852455 Z" id="Fill-29" fill="#999999"></path>
                <path d="M254.96857,169.358 C256.020198,168.610727 256.546012,167.555273 256.546012,166.194364 C256.546012,164.879818 256.00636,163.865273 254.932593,163.153455 C253.861593,162.436182 252.270314,162.078909 250.169826,162.078909 L242.589802,162.078909 L242.589802,170.481636 L250.645826,170.481636 C252.477872,170.481636 253.914174,170.105273 254.96857,169.358 M253.65957,158.618 C254.689058,157.895273 255.20657,156.828909 255.20657,155.424364 C255.20657,154.218909 254.747174,153.269818 253.833919,152.566182 C252.920663,151.862545 251.606128,151.510727 249.893081,151.510727 L242.589802,151.510727 L242.589802,159.708909 L249.688291,159.708909 C251.310012,159.708909 252.632849,159.346182 253.65957,158.618 M253.321942,149.563455 C254.282244,149.847091 255.106942,150.239818 255.793267,150.749818 C256.479593,151.254364 257.005407,151.878909 257.370709,152.609818 C257.736012,153.346182 257.918663,154.164364 257.918663,155.067091 C257.918663,155.858 257.810733,156.548 257.594872,157.134364 C257.379012,157.720727 257.08843,158.241636 256.72036,158.691636 C256.355058,159.144364 255.948244,159.523455 255.502686,159.826182 C255.057128,160.131636 254.594965,160.385273 254.11343,160.589818 C254.821895,160.791636 255.491616,161.058909 256.119826,161.386182 C256.75357,161.713455 257.293221,162.103455 257.752616,162.553455 C258.209244,163.006182 258.574547,163.548909 258.848523,164.181636 C259.125267,164.811636 259.260872,165.537091 259.260872,166.347091 C259.260872,167.364364 259.056081,168.278 258.643733,169.090727 C258.234151,169.903455 257.644686,170.588 256.875337,171.141636 C256.108756,171.695273 255.189965,172.120727 254.11343,172.412545 C253.039663,172.707091 251.849663,172.851636 250.546198,172.851636 L239.872174,172.851636 L239.872174,149.140727 L250.097872,149.140727 C251.287872,149.140727 252.364407,149.282545 253.321942,149.563455" id="Fill-31" fill="#999999"></path>
                <path d="M284.356312,162.723636 C284.356312,164.463636 284.112777,165.985455 283.631242,167.297273 C283.149707,168.606364 282.468916,169.702727 281.58887,170.583636 C280.706056,171.464545 279.65166,172.124545 278.425684,172.563636 C277.199707,173.005455 275.829823,173.226364 274.3188,173.226364 C272.827149,173.226364 271.471102,173.005455 270.242358,172.563636 C269.016381,172.124545 267.961986,171.47 267.08194,170.6 C266.199126,169.73 265.518335,168.652727 265.039567,167.362727 C264.558033,166.075455 264.314498,164.597273 264.314498,162.925455 L264.314498,149.141818 L267.029358,149.141818 L267.029358,162.759091 C267.029358,165.330909 267.67694,167.308182 268.972102,168.688182 C270.264498,170.062727 272.071637,170.75 274.385219,170.75 C276.610242,170.75 278.373102,170.098182 279.682102,168.789091 C280.985567,167.477273 281.641451,165.521818 281.641451,162.925455 L281.641451,149.141818 L284.356312,149.141818 L284.356312,162.723636 Z" id="Fill-33" fill="#999999"></path>
                <mask id="mask-10" fill="white">
                    <use xlink:href="#path-9"></use>
                </mask>
                <g id="Clip-36"></g>
                <polygon id="Fill-35" fill="#999999" mask="url(#mask-10)" points="291.021419 172.852727 293.739047 172.852727 293.739047 149.141818 291.021419 149.141818"></polygon>
                <polygon id="Fill-37" fill="#999999" mask="url(#mask-10)" points="300.78274 149.140455 303.500367 149.140455 303.500367 170.377727 317.044228 170.377727 317.044228 172.851364 300.78274 172.851364"></polygon>
                <path d="M339.680795,157.338364 C339.21033,156.184727 338.546144,155.186545 337.68547,154.338364 C336.827563,153.492909 335.778702,152.827455 334.544423,152.339273 C333.304609,151.853818 331.926423,151.611091 330.4154,151.611091 L324.778121,151.611091 L324.778121,170.377455 L330.4154,170.377455 C331.926423,170.377455 333.304609,170.140182 334.544423,169.668364 C335.778702,169.193818 336.827563,168.531091 337.68547,167.685636 C338.546144,166.837455 339.21033,165.850182 339.680795,164.721091 C340.148493,163.592 340.386493,162.362 340.386493,161.031091 C340.386493,159.719273 340.148493,158.489273 339.680795,157.338364 M342.273888,165.653818 C341.656749,167.110182 340.77947,168.370182 339.644819,169.431091 C338.510167,170.492 337.159656,171.329273 335.587749,171.940182 C334.018609,172.548364 332.294493,172.851091 330.4154,172.851091 L322.06326,172.851091 L322.06326,149.140182 L330.4154,149.140182 C332.294493,149.140182 334.018609,149.440182 335.587749,150.037455 C337.159656,150.634727 338.510167,151.466545 339.644819,152.524727 C340.77947,153.588364 341.656749,154.842909 342.273888,156.285636 C342.893795,157.733818 343.200981,159.291091 343.200981,160.962909 C343.200981,162.632 342.893795,164.197455 342.273888,165.653818" id="Fill-38" fill="#999999" mask="url(#mask-10)"></path>
                <polygon id="Fill-39" fill="#999999" mask="url(#mask-10)" points="366.336519 151.577545 351.658007 151.577545 351.658007 159.674818 364.789519 159.674818 364.789519 162.113 351.658007 162.113 351.658007 170.412091 366.5081 170.412091 366.5081 172.853 348.943147 172.853 348.943147 149.139364 366.336519 149.139364"></polygon>
                <path d="M386.681367,152.853364 C385.602065,152.024273 384.088274,151.612455 382.13446,151.612455 L374.690042,151.612455 L374.690042,161.267 L382.098484,161.267 C382.995135,161.267 383.8226,161.152455 384.578112,160.926091 C385.339158,160.699727 385.995042,160.377909 386.545763,159.957909 C387.096484,159.537909 387.528205,159.025182 387.838158,158.411545 C388.145344,157.797909 388.303088,157.110636 388.303088,156.336091 C388.303088,154.841545 387.763437,153.679727 386.681367,152.853364 L386.681367,152.853364 Z M388.543856,172.852455 L381.564367,163.637 L374.690042,163.637 L374.690042,172.852455 L371.975181,172.852455 L371.975181,149.141545 L382.319879,149.141545 C383.648251,149.141545 384.849321,149.307909 385.914786,149.648818 C386.977484,149.987 387.89074,150.467 388.646251,151.088818 C389.401763,151.710636 389.985693,152.455182 390.400809,153.325182 C390.810391,154.195182 391.015181,155.163364 391.015181,156.221545 C391.015181,157.217 390.860205,158.106091 390.536414,158.883364 C390.215391,159.663364 389.76153,160.339727 389.1776,160.917909 C388.59367,161.493364 387.901809,161.973364 387.096484,162.357909 C386.296693,162.742455 385.427716,163.015182 384.486786,163.170636 L391.875856,172.852455 L388.543856,172.852455 Z" id="Fill-40" fill="#999999" mask="url(#mask-10)"></path>
                <path d="M399.199891,156.566 C399.382542,157.018727 399.714635,157.430545 400.193402,157.804182 C400.677705,158.177818 401.339123,158.518727 402.188728,158.821455 C403.038333,159.126909 404.125937,159.416 405.454309,159.688727 C408.13596,160.275091 410.111914,161.090545 411.384937,162.129636 C412.65796,163.171455 413.291705,164.606 413.291705,166.438727 C413.291705,167.456 413.089681,168.386 412.6801,169.223273 C412.276053,170.057818 411.711495,170.772364 411.000263,171.358727 C410.280728,171.947818 409.420053,172.400545 408.409937,172.716909 C407.405356,173.033273 406.301147,173.191455 405.113914,173.191455 C403.187774,173.191455 401.427681,172.883273 399.833635,172.272364 C398.242356,171.661455 396.72303,170.712364 395.281193,169.430545 L396.963798,167.466909 C398.225751,168.596 399.496007,169.438727 400.7801,169.989636 C402.064193,170.543273 403.53924,170.821455 405.216309,170.821455 C406.843565,170.821455 408.141495,170.447818 409.118402,169.700545 C410.092542,168.953273 410.576844,167.971455 410.576844,166.746909 C410.576844,166.182364 410.485519,165.680545 410.302867,165.238727 C410.117449,164.799636 409.796426,164.396 409.33703,164.033273 C408.874867,163.670545 408.241123,163.343273 407.427495,163.051455 C406.6111,162.756909 405.570542,162.473273 404.308588,162.200545 C402.930402,161.908727 401.729333,161.567818 400.705379,161.183273 C399.681426,160.801455 398.837356,160.337818 398.17317,159.795091 C397.508984,159.249636 397.010844,158.616909 396.692588,157.891455 C396.368798,157.171455 396.211053,156.309636 396.211053,155.314182 C396.211053,154.365091 396.402007,153.495091 396.794984,152.701455 C397.182426,151.910545 397.733147,151.226 398.444379,150.650545 C399.150077,150.072364 399.988612,149.619636 400.951681,149.292364 C401.911984,148.965091 402.966379,148.798727 404.1121,148.798727 C405.880495,148.798727 407.42196,149.038727 408.739263,149.518727 C410.056565,149.998727 411.335123,150.716 412.57217,151.678727 L410.989193,153.746 C409.865612,152.843273 408.739263,152.188727 407.604612,151.782364 C406.46996,151.376 405.282728,151.171455 404.048449,151.171455 C403.26803,151.171455 402.562333,151.275091 401.931356,151.476909 C401.303147,151.681455 400.760728,151.954182 400.31517,152.292364 C399.869612,152.633273 399.523681,153.036909 399.285681,153.514182 C399.042147,153.988727 398.923147,154.496 398.923147,155.038727 C398.923147,155.603273 399.01724,156.113273 399.199891,156.566" id="Fill-41" fill="#999999" mask="url(#mask-10)"></path>
            </g>
        </g>
    </g>
</svg>