<svg viewBox="0 0 512 512" width="48" height="48" xmlns="http://www.w3.org/2000/svg"><g><g><path d="m128 288h80v80h-80z" fill="#f98800"/><path d="m128 320h80v32h-80z" fill="#ffec00"/><path d="m128 328h80v16h-80z" fill="#dff1fc"/></g><path d="m168 416-16 40-24-24v-16z" fill="#00587e"/><path d="m128 432-32 32 24 24h24v-8l-8-8 16-16z" fill="#8e4b19"/><path d="m208 368 8 72h-40l-8-24h-40v-48z" fill="#007bb1"/><path d="m176 440v48h48v-8l-16-16 8-24z" fill="#c1641f"/><g><path d="m264 80h32v48h-32z" fill="#dff1fc"/><path d="m264 104h8a24 24 0 0 0 24-24v48h-32z" fill="#aedef8"/><circle cx="168" cy="200" fill="#fac8b2" r="104"/><circle cx="208" cy="256" fill="#f05a29" r="16"/><path d="m208.07 296a104.012 104.012 0 1 1 -40.14-200 104.018 104.018 0 0 0 40.07 200z" fill="#f4b7a2"/><path d="m264.03 160h-32.03l-48 48-16-16a22.627 22.627 0 0 0 -32 32l16 16-44.56 44.56a104.012 104.012 0 1 1 156.59-124.56z" fill="#683b11"/><path d="m104 192a103.6 103.6 0 0 0 26.57 69.43l-23.13 23.13a104.007 104.007 0 0 1 60.49-188.56 104.021 104.021 0 0 0 -63.93 96z" fill="#381b05"/><circle cx="240" cy="224" fill="#2c3f51" r="8"/><path d="m213.656 290.343-21.656-21.657v-76.686a8 8 0 0 0 -16 0v60.686l-66.342-66.343a8 8 0 0 0 -11.314 11.314l104 104a8 8 0 1 0 11.314-11.314z" fill="#c1641f"/><path d="m256 264a7.974 7.974 0 0 1 -5.657-2.343 3.312 3.312 0 0 0 -4.686 0 8 8 0 0 1 -11.314 0 3.312 3.312 0 0 0 -4.686 0 8 8 0 0 1 -11.314-11.314 19.351 19.351 0 0 1 21.657-3.933 19.351 19.351 0 0 1 21.657 3.933 8 8 0 0 1 -5.657 13.657z" fill="#683b11"/><path d="m40 160a16 16 0 1 0 0 32h256a16 16 0 1 0 0-32h-8a119.4 119.4 0 0 0 -24-72v-40s-32-24-96-24c-72 0-128 56-128 136z" fill="#ff0"/><g><path d="m24 176a15.979 15.979 0 0 0 16 16h256a16 16 0 0 0 16-16z" fill="#fcc200"/><g><path d="m168 160h120a119.4 119.4 0 0 0 -24-72c-32 48-96 72-96 72z" fill="#ffce00"/><path d="m307.32 164.68a15.987 15.987 0 0 0 -11.32-4.68h-128s64-24 96-72v-40s-12.713-9.523-38.115-16.572a174.331 174.331 0 0 1 -68.947 83.839 174.334 174.334 0 0 1 -115.7 24.6 163.8 163.8 0 0 0 -1.238 20.133 16 16 0 0 0 -16 16h288a15.987 15.987 0 0 0 -4.68-11.32z" fill="#ffec00"/></g></g><g fill="#fcc200"><path d="m264.006 95.989a7.985 7.985 0 0 1 -6.4-3.2 112.528 112.528 0 0 0 -44.806-35.474 8 8 0 1 1 6.4-14.661 128.561 128.561 0 0 1 51.2 40.53 8 8 0 0 1 -6.39 12.805z"/><path d="m48 168a8 8 0 0 1 -8-8 127.776 127.776 0 0 1 32.6-85.335 8 8 0 1 1 11.917 10.669 111.809 111.809 0 0 0 -28.517 74.666 8 8 0 0 1 -8 8z"/><path d="m96 168h-56a8 8 0 0 1 0-16h56a8 8 0 0 1 0 16z"/></g><path d="m288 168h-48a8 8 0 0 1 0-16h48a8 8 0 0 1 0 16z" fill="#fff"/><path d="m120.006 72.418a8 8 0 0 1 -4.322-14.738c2.787-1.784 5.686-3.463 8.618-4.991a8 8 0 1 1 7.398 14.189c-2.511 1.309-4.995 2.747-7.383 4.277a7.963 7.963 0 0 1 -4.311 1.263z" fill="#fff"/><path d="m80 120a8.005 8.005 0 0 1 -7.378-11.086 111.666 111.666 0 0 1 22.557-34.385 8 8 0 1 1 11.544 11.078 95.717 95.717 0 0 0 -19.343 29.476 8 8 0 0 1 -7.38 4.917z" fill="#fff"/></g><path d="m224 352h-40v-48h-32v80h72z" fill="#e22526"/><path d="m488 384h-192l56 56h80z" fill="#f98800"/><g><circle cx="464" cy="464" fill="#ffec00" r="24"/><path d="m464 496a32 32 0 1 1 32-32 32.036 32.036 0 0 1 -32 32zm0-48a16 16 0 1 0 16 16 16.019 16.019 0 0 0 -16-16z" fill="#2c3f51"/></g><path d="m328 384 64-64 64 64z" fill="#fbe2bc"/><path d="m224 352h32v32h-32z" fill="#fbe2bc"/><path d="m469.657 458.343-24-24a8 8 0 0 0 -5.657-2.343h-84.686l-69.657-69.657a8 8 0 0 0 -5.657-2.343h-40a8 8 0 0 0 0 16h36.687l67.313 67.314v44.686a8 8 0 0 0 13.657 5.657l45.657-45.657h33.373l21.656 21.657a8 8 0 0 0 11.314-11.314zm-109.657 10.344v-20.687h20.687z" fill="#00587e"/></g></svg>