<?xml version="1.0" encoding="utf-8"?>
<!-- Generator: Adobe Illustrator 19.0.0, SVG Export Plug-In . SVG Version: 6.00 Build 0)  -->
<svg version="1.1" id="Layer_1" xmlns="http://www.w3.org/2000/svg" xmlns:xlink="http://www.w3.org/1999/xlink" x="0px" y="0px"
	 viewBox="0 0 1920 1080" style="enable-background:new 0 0 1920 1080;" xml:space="preserve">
<style type="text/css">
	.st0{opacity:0.8;}
	.st1{fill:#FFFFFF;}
</style>
<g id="XMLID_86_" class="st0">
	<path id="XMLID_305_" class="st1" d="M932,475.6c2.7,0,5.4,0,8,0c0.3,0.1,0.7,0.1,1,0.2c5.4,0.7,10.5,2.4,14.9,5.8
		c4,3.2,6.2,7.2,6.1,12.5c-0.1,5.7,0,11.5,0,17.2c0,0.4-0.2,0.9,0.2,1.1c0.4,0.2,0.7-0.3,0.9-0.5c1.7-1.4,3.5-2.5,5.6-3.4
		c6.9-3,14-3.6,21.4-2.3c5.1,0.9,9.8,2.7,13.8,6.1c3.5,3,5.4,6.9,5.3,11.6c0,2.4,0,4.8,0,7.2c0,5.9,0,11.8,0,17.7
		c0,0.4-0.2,0.9,0.2,1.2c0.5,0.3,0.7-0.2,1.1-0.5c1.2-0.9,2.4-1.8,3.6-2.7c3-2.1,6.5-1.4,8.6,1.5c0.6,0.8,0.9,1.7,1.3,2.6
		c0,2.7,0,5.4,0,8c-0.7,1.9-2.1,3.3-3.7,4.4c-3.3,2.3-6.5,4.7-9.8,7c-0.9,0.6-1.3,1.4-1.3,2.5c0,4.5,0,9,0,13.6
		c0,4.3-1.6,7.8-4.6,10.8c-1.9,1.9-4.1,3.2-6.5,4.4c-3.3,1.6-6.9,2.3-10.5,2.9c-2.8,0-5.7,0-8.5,0c-0.8-0.1-1.6-0.3-2.5-0.4
		c-6.3-1.2-12.1-3.5-16.3-8.7c-0.6-0.7-0.9-0.5-1.3,0.1c-2.5,3.1-5.7,5.1-9.3,6.6c-3,1.2-6.2,1.8-9.3,2.4c-2.8,0-5.7,0-8.5,0
		c-0.3-0.1-0.6-0.1-0.9-0.2c-4.9-0.7-9.5-2.1-13.6-4.9c-4.8-3.3-7.3-7.8-7.3-13.8c0.1-19.2,0-38.4,0.1-57.6c0-1.3-0.4-2.1-1.4-2.8
		c-3.4-2.3-6.7-4.8-10-7.1c-1.6-1.1-2.8-2.5-3.4-4.4c0-2.6,0-5.2,0-7.8c0.1-0.3,0.2-0.6,0.3-0.8c1.8-4.6,6.2-5.8,10.2-2.9
		c1,0.7,2,1.5,3,2.3c0.3,0.2,0.6,0.7,1.1,0.5c0.5-0.2,0.3-0.7,0.3-1.1c0-3.4,0-6.8,0-10.2c0-4.1,1.5-7.6,4.4-10.5
		c2.6-2.6,5.7-4.3,9.1-5.5C926.3,476.5,929.2,476,932,475.6z M957.2,503.2c-0.4,0-0.7,0.4-0.9,0.6c-1.8,1.5-3.8,2.8-6,3.6
		c-12.2,4.4-23.8,4.1-34.6-3.9c-0.2-0.1-0.4-0.4-0.6-0.3c-0.3,0.1-0.2,0.4-0.2,0.7c0,1.8,0,3.6,0,5.4c0,1.1-0.2,2.1-1.3,2.7
		c-1.1,0.5-2,0.1-2.9-0.6c-2.4-1.8-4.8-3.6-7.2-5.4c-0.7-0.5-1.4-1.2-2.4-0.7c-1,0.5-1.2,1.5-1.2,2.6c0,1.1,0.1,2.3,0,3.4
		c-0.1,1.3,0.4,2.2,1.5,3c3.8,2.7,7.6,5.5,11.5,8.1c1.4,1,2,2.1,2,3.9c0,19.8,0,39.6-0.1,59.5c0,4.2,1.7,7.1,4.9,9.5
		c0.3,0.2,0.6,0.7,1.1,0.4c0.3-0.2,0.2-0.7,0.2-1.1c0-6.3,0-12.7,0-19c0-0.6,0-1.2,0.1-1.7c0.3-1,1-1.7,2.1-1.7
		c1.2,0,1.9,0.6,2.3,1.6c0.2,0.6,0.2,1.2,0.2,1.9c0,7,0,14,0,21c0,1.2,0.4,1.8,1.6,2.1c5.9,1.6,11.7,1.6,17.6,0.1
		c1.9-0.5,1.9-0.5,1.9-2.5c0-10.6,0-21.1,0-31.7c0-2.1,0.9-3.3,2.3-3.2c1.5,0,2.3,1.1,2.3,3.3c0,9.8,0,19.6,0,29.4c0,0.3,0,0.7,0,1
		c0,0.7,0.2,0.9,0.8,0.5c3.1-2.2,5.3-4.8,5.3-8.8c0-27.4,0-54.7,0-82.1C957.3,504,957.5,503.6,957.2,503.2z M1004.4,533
		c-2,1.7-4,3-6.3,4.1c-5.5,2.5-11.2,3.2-17.2,3c-1.8-0.1-1.8,0-1.8,1.8c0,7.6,0,15.2,0,22.7c0,0.5,0,0.9,0,1.4c-0.2,1.1-1,1.9-2.1,2
		c-1.1,0.1-2-0.6-2.3-1.7c-0.1-0.6-0.2-1.3-0.2-2c0-7.9,0-15.8,0-23.6c0-1.1-0.3-1.6-1.4-1.8c-3.7-0.9-7-2.6-9.9-5
		c-0.3-0.2-0.5-0.6-1-0.7c-0.3,0.4-0.2,0.8-0.2,1.2c0,17.4,0,34.8,0,52.2c0,2.7,1,5,2.8,6.9c2.2,2.3,5,3.7,8,4.8
		c1.6,0.5,1.6,0.5,1.6-1.1c0-7.1,0-14.2,0-21.2c0-0.7,0-1.4,0.2-2.1c0.4-1.1,1.1-1.7,2.3-1.6c1.2,0,1.9,0.7,2.1,1.8
		c0.1,0.5,0.1,1,0.1,1.5c0,7.6,0,15.2,0,22.7c0,1.2,0.4,1.6,1.6,1.6c2,0.1,4,0.1,6-0.1c4.6-0.5,8.9-1.7,12.7-4.3
		c3.4-2.4,5.4-5.4,5.2-9.8c-0.2-4.7,0-9.5-0.1-14.2c0-1.9,0.6-3,2.1-4.1c3.8-2.6,7.6-5.4,11.4-8.1c0.8-0.6,1.5-1.2,1.5-2.3
		c0-1.4,0.1-2.8,0.1-4.3c0-1-0.3-1.9-1.2-2.3c-0.9-0.5-1.6,0.2-2.3,0.7c-2.5,1.9-5,3.8-7.5,5.6c-1.2,0.9-2.5,0.9-3.3,0
		c-0.6-0.6-0.7-1.4-0.7-2.2c0-6.6,0-13.2,0-19.9C1004.6,534,1004.7,533.5,1004.4,533z M962,522.7c0,1.7,0.6,3.3,1.5,4.7
		c1.4,2,3.2,3.5,5.3,4.5c9.4,4.7,18.8,4.7,28.3,0.3c2.3-1,4.2-2.6,5.7-4.6c2.2-3.1,2.3-6.4,0.2-9.6c-1-1.5-2.3-2.7-3.9-3.7
		c-7.4-4.6-15.3-5.3-23.6-3.4c-3.9,0.9-7.6,2.5-10.5,5.3C963.2,518.1,962,520.1,962,522.7z M936.1,505.4c2.5,0.1,5-0.2,7.5-0.8
		c4.4-1.1,8.5-2.8,11.6-6.3c2.9-3.3,2.9-7.2,0.3-10.7c-0.9-1.3-2.1-2.3-3.4-3.1c-9.2-5.5-18.8-5.7-28.6-1.9
		c-2.7,1.1-5.1,2.7-6.9,5.1c-2.4,3.2-2.4,6.8-0.1,10c0.9,1.3,2.1,2.3,3.3,3.2C924.8,504.2,930.3,505.4,936.1,505.4z"/>
	<path id="XMLID_304_" class="st1" d="M938.4,553.9c0,7.2,0,14.3,0,21.5c0,2.1-0.8,3.3-2.3,3.3c-1.5,0-2.4-1.1-2.4-3.3
		c0-14.3,0-28.6,0-43c0-2.1,0.8-3.3,2.3-3.3c1.5,0,2.4,1.1,2.4,3.3C938.4,539.6,938.4,546.7,938.4,553.9z"/>
	<path id="XMLID_303_" class="st1" d="M925.5,533.5c0,5.2,0,10.5,0,15.7c0,0.5,0,1-0.1,1.5c-0.2,1.4-1.1,2.2-2.4,2.1
		c-1.2,0-2-0.8-2.2-2.2c-0.1-0.4,0-0.8,0-1.3c0-10.7,0-21.4,0-32c0-2.2,0.8-3.4,2.3-3.4c1.5,0,2.3,1.2,2.3,3.4
		C925.5,522.8,925.5,528.2,925.5,533.5z"/>
	<path id="XMLID_302_" class="st1" d="M951.2,545.3c0,1.7,0,3.3,0,5c0,1.6-0.8,2.5-2.2,2.6c-1.3,0.1-2.3-0.8-2.4-2.4
		c-0.1-3.5-0.1-7,0-10.5c0-1.5,1.1-2.4,2.4-2.4c1.3,0.1,2.1,1.1,2.1,2.6C951.2,542,951.2,543.6,951.2,545.3z"/>
	<path id="XMLID_301_" class="st1" d="M1000.6,556.1c0,3.3,0,6.7,0,10c0,0.7,0,1.4-0.2,2.1c-0.2,1.1-1.2,1.8-2.2,1.8
		c-1.1,0-2-0.9-2.1-1.9c0-0.2,0-0.4,0-0.6c0-7.7,0-15.3,0-23c0-0.2,0-0.4,0-0.6c0.2-1.1,1-1.9,2.1-2c1-0.1,2.1,0.7,2.3,1.8
		c0.1,0.7,0.2,1.4,0.2,2.1C1000.6,549.3,1000.6,552.7,1000.6,556.1z"/>
	<path id="XMLID_300_" class="st1" d="M996,578.5c0-0.7,0-1.4,0-2.1c0.1-1.3,0.9-2.2,2.1-2.3c1.1-0.1,2.2,0.8,2.3,2
		c0.2,1.6,0.2,3.3,0,4.9c-0.2,1.2-1.1,2-2.2,2c-1.2,0-2.1-0.9-2.2-2.2C996,580,996.1,579.3,996,578.5
		C996.1,578.5,996.1,578.5,996,578.5z"/>
	<path id="XMLID_299_" class="st1" d="M998.3,587c1.3,0,2.2,1,2.2,2.2c0,1.3-0.9,2.2-2.2,2.3c-1.3,0-2.3-1-2.3-2.3
		C996.1,588,997.1,587,998.3,587z"/>
	<path id="XMLID_298_" class="st1" d="M983.8,531.5c-3.9,0.1-7.5-0.4-10.9-1.8c-2.6-1.1-4.8-2.7-6.3-5.1c-0.3-0.6-0.7-1.2-0.6-1.9
		c0.1-1,0.6-1.7,1.6-2c0.9-0.3,1.9-0.1,2.3,0.7c2.1,3.8,5.6,4.9,9.5,5.3c4,0.4,7.9,0.4,11.9-0.6c1.2-0.3,2.3-0.8,3.3-1.5
		c0.8-0.6,1.3-1.3,1.5-2.2c0.3-1.3,1.3-1.9,2.5-1.8c1.2,0.2,1.9,1.1,1.9,2.4c-0.1,2.2-1.3,3.8-2.9,5.1c-2.6,2-5.7,2.8-8.9,3.2
		C987,531.4,985.2,531.6,983.8,531.5z"/>
	<path id="XMLID_297_" class="st1" d="M984.4,514c2.3,0.1,4.6,0.8,6.4,2.5c1.2,1.1,1.5,2.4,0.6,3.4c-0.8,1-2.2,1.2-3.5,0.2
		c-2.6-2.1-5.4-1.5-8.2-0.5c-0.5,0.2-1,0.5-1.6,0.8c-1.3,0.7-2.6,0.5-3.3-0.6c-0.7-1.1-0.3-2.5,1-3.3
		C978.5,514.7,981.3,514.1,984.4,514z"/>
	<path id="XMLID_296_" class="st1" d="M936.6,501.5c-4.2-0.1-8.1-0.5-11.7-2.3c-2.1-1-4-2.5-5.3-4.5c-0.4-0.6-0.7-1.2-0.7-1.9
		c0-1.1,0.4-1.9,1.5-2.2c1-0.3,2-0.2,2.6,0.8c1.8,3.3,4.8,4.4,8.1,5c4.3,0.8,8.5,0.6,12.7-0.4c1.1-0.3,2.2-0.6,3.1-1.3
		c0.9-0.6,1.7-1.3,2-2.5c0.4-1.5,1.5-2.2,2.8-1.8c1.3,0.4,1.9,1.5,1.6,3c-0.4,2.2-1.7,3.8-3.6,5c-2.8,1.8-6,2.5-9.3,2.8
		C939.1,501.4,937.7,501.5,936.6,501.5z"/>
	<path id="XMLID_295_" class="st1" d="M935.2,493c-2.5-0.1-4.8-0.8-6.7-2.5c-1.2-1.1-1.5-2.5-0.6-3.5c0.9-1.1,2.2-1.1,3.4-0.1
		c2.5,2.1,5.2,1.6,8,0.6c0.6-0.2,1.2-0.6,1.8-0.9c1.4-0.8,2.7-0.5,3.4,0.7c0.7,1.2,0.3,2.4-1.1,3.3
		C940.9,492.2,938.1,492.9,935.2,493z"/>
</g>
</svg>
