<?xml version="1.0" encoding="utf-8"?>
<!-- Generator: Adobe Illustrator 19.0.0, SVG Export Plug-In . SVG Version: 6.00 Build 0)  -->
<svg version="1.1" id="Layer_1" xmlns="http://www.w3.org/2000/svg" xmlns:xlink="http://www.w3.org/1999/xlink" x="0px" y="0px"
	 viewBox="0 0 142.2 142.2" style="enable-background:new 0 0 142.2 142.2;" xml:space="preserve">
<style type="text/css">
	.st0{opacity:0.8;}
	.st1{fill:#FFFFFF;}
</style>
<g id="XMLID_53_" class="st0">
	<path id="XMLID_305_" class="st1" d="M43.5,6.7c2.7,0,5.4,0,8,0c0.3,0.1,0.7,0.1,1,0.2c5.4,0.7,10.5,2.4,14.9,5.8
		c4,3.2,6.2,7.2,6.1,12.5c-0.1,5.7,0,11.5,0,17.2c0,0.4-0.2,0.9,0.2,1.1c0.4,0.2,0.7-0.3,0.9-0.5c1.7-1.4,3.5-2.5,5.6-3.4
		c6.9-3,14-3.6,21.4-2.3c5.1,0.9,9.8,2.7,13.8,6.1c3.5,3,5.4,6.9,5.3,11.6c0,2.4,0,4.8,0,7.2c0,5.9,0,11.8,0,17.7
		c0,0.4-0.2,0.9,0.2,1.2c0.5,0.3,0.7-0.2,1.1-0.5c1.2-0.9,2.4-1.8,3.6-2.7c3-2.1,6.5-1.4,8.6,1.5c0.6,0.8,0.9,1.7,1.3,2.6
		c0,2.7,0,5.4,0,8c-0.7,1.9-2.1,3.3-3.7,4.4c-3.3,2.3-6.5,4.7-9.8,7c-0.9,0.6-1.3,1.4-1.3,2.5c0,4.5,0,9,0,13.6
		c0,4.3-1.6,7.8-4.6,10.8c-1.9,1.9-4.1,3.2-6.5,4.4c-3.3,1.6-6.9,2.3-10.5,2.9c-2.8,0-5.7,0-8.5,0c-0.8-0.1-1.6-0.3-2.5-0.4
		c-6.3-1.2-12.1-3.5-16.3-8.7c-0.6-0.7-0.9-0.5-1.3,0.1c-2.5,3.1-5.7,5.1-9.3,6.6c-3,1.2-6.2,1.8-9.3,2.4c-2.8,0-5.7,0-8.5,0
		c-0.3-0.1-0.6-0.1-0.9-0.2c-4.9-0.7-9.5-2.1-13.6-4.9c-4.8-3.3-7.3-7.8-7.3-13.8c0.1-19.2,0-38.4,0.1-57.6c0-1.3-0.4-2.1-1.4-2.8
		c-3.4-2.3-6.7-4.8-10-7.1c-1.6-1.1-2.8-2.5-3.4-4.4c0-2.6,0-5.2,0-7.8c0.1-0.3,0.2-0.6,0.3-0.8c1.8-4.6,6.2-5.8,10.2-2.9
		c1,0.7,2,1.5,3,2.3c0.3,0.2,0.6,0.7,1.1,0.5c0.5-0.2,0.3-0.7,0.3-1.1c0-3.4,0-6.8,0-10.2c0-4.1,1.5-7.6,4.4-10.5
		c2.6-2.6,5.7-4.3,9.1-5.5C37.8,7.7,40.6,7.2,43.5,6.7z M68.6,34.3c-0.4,0-0.7,0.4-0.9,0.6c-1.8,1.5-3.8,2.8-6,3.6
		c-12.2,4.4-23.8,4.1-34.6-3.9c-0.2-0.1-0.4-0.4-0.6-0.3c-0.3,0.1-0.2,0.4-0.2,0.7c0,1.8,0,3.6,0,5.4c0,1.1-0.2,2.1-1.3,2.7
		c-1.1,0.5-2,0.1-2.9-0.6c-2.4-1.8-4.8-3.6-7.2-5.4c-0.7-0.5-1.4-1.2-2.4-0.7c-1,0.5-1.2,1.5-1.2,2.6c0,1.1,0.1,2.3,0,3.4
		c-0.1,1.3,0.4,2.2,1.5,3c3.8,2.7,7.6,5.5,11.5,8.1c1.4,1,2,2.1,2,3.9c0,19.8,0,39.6-0.1,59.5c0,4.2,1.7,7.1,4.9,9.5
		c0.3,0.2,0.6,0.7,1.1,0.4c0.3-0.2,0.2-0.7,0.2-1.1c0-6.3,0-12.7,0-19c0-0.6,0-1.2,0.1-1.7c0.3-1,1-1.7,2.1-1.7
		c1.2,0,1.9,0.6,2.3,1.6c0.2,0.6,0.2,1.2,0.2,1.9c0,7,0,14,0,21c0,1.2,0.4,1.8,1.6,2.1c5.9,1.6,11.7,1.6,17.6,0.1
		c1.9-0.5,1.9-0.5,1.9-2.5c0-10.6,0-21.1,0-31.7c0-2.1,0.9-3.3,2.3-3.2c1.5,0,2.3,1.1,2.3,3.3c0,9.8,0,19.6,0,29.4c0,0.3,0,0.7,0,1
		c0,0.7,0.2,0.9,0.8,0.5c3.1-2.2,5.3-4.8,5.3-8.8c0-27.4,0-54.7,0-82.1C68.8,35.2,68.9,34.7,68.6,34.3z M115.8,64.1
		c-2,1.7-4,3-6.3,4.1c-5.5,2.5-11.2,3.2-17.2,3c-1.8-0.1-1.8,0-1.8,1.8c0,7.6,0,15.2,0,22.7c0,0.5,0,0.9,0,1.4c-0.2,1.1-1,1.9-2.1,2
		c-1.1,0.1-2-0.6-2.3-1.7c-0.1-0.6-0.2-1.3-0.2-2c0-7.9,0-15.8,0-23.6c0-1.1-0.3-1.6-1.4-1.8c-3.7-0.9-7-2.6-9.9-5
		c-0.3-0.2-0.5-0.6-1-0.7c-0.3,0.4-0.2,0.8-0.2,1.2c0,17.4,0,34.8,0,52.2c0,2.7,1,5,2.8,6.9c2.2,2.3,5,3.7,8,4.8
		c1.6,0.5,1.6,0.5,1.6-1.1c0-7.1,0-14.2,0-21.2c0-0.7,0-1.4,0.2-2.1c0.4-1.1,1.1-1.7,2.3-1.6c1.2,0,1.9,0.7,2.1,1.8
		c0.1,0.5,0.1,1,0.1,1.5c0,7.6,0,15.2,0,22.7c0,1.2,0.4,1.6,1.6,1.6c2,0.1,4,0.1,6-0.1c4.6-0.5,8.9-1.7,12.7-4.3
		c3.4-2.4,5.4-5.4,5.2-9.8c-0.2-4.7,0-9.5-0.1-14.2c0-1.9,0.6-3,2.1-4.1c3.8-2.6,7.6-5.4,11.4-8.1c0.8-0.6,1.5-1.2,1.5-2.3
		c0-1.4,0.1-2.8,0.1-4.3c0-1-0.3-1.9-1.2-2.3c-0.9-0.5-1.6,0.2-2.3,0.7c-2.5,1.9-5,3.8-7.5,5.6c-1.2,0.9-2.5,0.9-3.3,0
		c-0.6-0.6-0.7-1.4-0.7-2.2c0-6.6,0-13.2,0-19.9C116,65.2,116.1,64.7,115.8,64.1z M73.4,53.9c0,1.7,0.6,3.3,1.5,4.7
		c1.4,2,3.2,3.5,5.3,4.5c9.4,4.7,18.8,4.7,28.3,0.3c2.3-1,4.2-2.6,5.7-4.6c2.2-3.1,2.3-6.4,0.2-9.6c-1-1.5-2.3-2.7-3.9-3.7
		c-7.4-4.6-15.3-5.3-23.6-3.4c-3.9,0.9-7.6,2.5-10.5,5.3C74.7,49.3,73.5,51.3,73.4,53.9z M47.5,36.6c2.5,0.1,5-0.2,7.5-0.8
		c4.4-1.1,8.5-2.8,11.6-6.3c2.9-3.3,2.9-7.2,0.3-10.7c-0.9-1.3-2.1-2.3-3.4-3.1c-9.2-5.5-18.8-5.7-28.6-1.9
		c-2.7,1.1-5.1,2.7-6.9,5.1c-2.4,3.2-2.4,6.8-0.1,10c0.9,1.3,2.1,2.3,3.3,3.2C36.2,35.4,41.7,36.6,47.5,36.6z"/>
	<path id="XMLID_304_" class="st1" d="M49.8,85.1c0,7.2,0,14.3,0,21.5c0,2.1-0.8,3.3-2.3,3.3c-1.5,0-2.4-1.1-2.4-3.3
		c0-14.3,0-28.6,0-43c0-2.1,0.8-3.3,2.3-3.3c1.5,0,2.4,1.1,2.4,3.3C49.8,70.7,49.8,77.9,49.8,85.1z"/>
	<path id="XMLID_303_" class="st1" d="M37,64.7c0,5.2,0,10.5,0,15.7c0,0.5,0,1-0.1,1.5c-0.2,1.4-1.1,2.2-2.4,2.1
		c-1.2,0-2-0.8-2.2-2.2c-0.1-0.4,0-0.8,0-1.3c0-10.7,0-21.4,0-32c0-2.2,0.8-3.4,2.3-3.4c1.5,0,2.3,1.2,2.3,3.4
		C37,54,37,59.4,37,64.7z"/>
	<path id="XMLID_302_" class="st1" d="M62.7,76.5c0,1.7,0,3.3,0,5c0,1.6-0.8,2.5-2.2,2.6c-1.3,0.1-2.3-0.8-2.4-2.4
		c-0.1-3.5-0.1-7,0-10.5c0-1.5,1.1-2.4,2.4-2.4c1.3,0.1,2.1,1.1,2.1,2.6C62.7,73.2,62.7,74.8,62.7,76.5z"/>
	<path id="XMLID_301_" class="st1" d="M112.1,87.3c0,3.3,0,6.7,0,10c0,0.7,0,1.4-0.2,2.1c-0.2,1.1-1.2,1.8-2.2,1.8
		c-1.1,0-2-0.9-2.1-1.9c0-0.2,0-0.4,0-0.6c0-7.7,0-15.3,0-23c0-0.2,0-0.4,0-0.6c0.2-1.1,1-1.9,2.1-2c1-0.1,2.1,0.7,2.3,1.8
		c0.1,0.7,0.2,1.4,0.2,2.1C112.1,80.5,112.1,83.9,112.1,87.3z"/>
	<path id="XMLID_300_" class="st1" d="M107.5,109.7c0-0.7,0-1.4,0-2.1c0.1-1.3,0.9-2.2,2.1-2.3c1.1-0.1,2.2,0.8,2.3,2
		c0.2,1.6,0.2,3.3,0,4.9c-0.2,1.2-1.1,2-2.2,2c-1.2,0-2.1-0.9-2.2-2.2C107.4,111.2,107.5,110.5,107.5,109.7
		C107.5,109.7,107.5,109.7,107.5,109.7z"/>
	<path id="XMLID_299_" class="st1" d="M109.7,118.2c1.3,0,2.2,1,2.2,2.2c0,1.3-0.9,2.2-2.2,2.3c-1.3,0-2.3-1-2.3-2.3
		C107.5,119.2,108.5,118.2,109.7,118.2z"/>
	<path id="XMLID_298_" class="st1" d="M95.2,62.6c-3.9,0.1-7.5-0.4-10.9-1.8c-2.6-1.1-4.8-2.7-6.3-5.1c-0.3-0.6-0.7-1.2-0.6-1.9
		c0.1-1,0.6-1.7,1.6-2c0.9-0.3,1.9-0.1,2.3,0.7c2.1,3.8,5.6,4.9,9.5,5.3c4,0.4,7.9,0.4,11.9-0.6c1.2-0.3,2.3-0.8,3.3-1.5
		c0.8-0.6,1.3-1.3,1.5-2.2c0.3-1.3,1.3-1.9,2.5-1.8c1.2,0.2,1.9,1.1,1.9,2.4c-0.1,2.2-1.3,3.8-2.9,5.1c-2.6,2-5.7,2.8-8.9,3.2
		C98.4,62.6,96.7,62.7,95.2,62.6z"/>
	<path id="XMLID_297_" class="st1" d="M95.8,45.1c2.3,0.1,4.6,0.8,6.4,2.5c1.2,1.1,1.5,2.4,0.6,3.4c-0.8,1-2.2,1.2-3.5,0.2
		c-2.6-2.1-5.4-1.5-8.2-0.5c-0.5,0.2-1,0.5-1.6,0.8c-1.3,0.7-2.6,0.5-3.3-0.6c-0.7-1.1-0.3-2.5,1-3.3C89.9,45.9,92.7,45.3,95.8,45.1
		z"/>
	<path id="XMLID_296_" class="st1" d="M48,32.7c-4.2-0.1-8.1-0.5-11.7-2.3c-2.1-1-4-2.5-5.3-4.5c-0.4-0.6-0.7-1.2-0.7-1.9
		c0-1.1,0.4-1.9,1.5-2.2c1-0.3,2-0.2,2.6,0.8c1.8,3.3,4.8,4.4,8.1,5c4.3,0.8,8.5,0.6,12.7-0.4c1.1-0.3,2.2-0.6,3.1-1.3
		c0.9-0.6,1.7-1.3,2-2.5c0.4-1.5,1.5-2.2,2.8-1.8c1.3,0.4,1.9,1.5,1.6,3c-0.4,2.2-1.7,3.8-3.6,5c-2.8,1.8-6,2.5-9.3,2.8
		C50.5,32.6,49.1,32.6,48,32.7z"/>
	<path id="XMLID_295_" class="st1" d="M46.6,24.1c-2.5-0.1-4.8-0.8-6.7-2.5c-1.2-1.1-1.5-2.5-0.6-3.5c0.9-1.1,2.2-1.1,3.4-0.1
		c2.5,2.1,5.2,1.6,8,0.6c0.6-0.2,1.2-0.6,1.8-0.9c1.4-0.8,2.7-0.5,3.4,0.7c0.7,1.2,0.3,2.4-1.1,3.3C52.3,23.4,49.6,24,46.6,24.1z"/>
</g>
</svg>
