<?xml version="1.0" encoding="utf-8"?>
<!-- Generator: Adobe Illustrator 19.0.0, SVG Export Plug-In . SVG Version: 6.00 Build 0)  -->
<svg version="1.1" id="Layer_1" xmlns="http://www.w3.org/2000/svg" xmlns:xlink="http://www.w3.org/1999/xlink" x="0px" y="0px"
	 viewBox="0 0 491.1 457.8" style="enable-background:new 0 0 491.1 457.8;" xml:space="preserve">
<style type="text/css">
	.st0{fill:none;stroke:url(#XMLID_54_);stroke-width:5;stroke-miterlimit:10;}
	.st1{fill:url(#XMLID_55_);}
	.st2{fill:#FFFFFF;}
	.st3{fill:url(#XMLID_56_);}
	.st4{fill:url(#XMLID_57_);}
	.st5{fill:url(#XMLID_58_);}
	.st6{fill:url(#XMLID_59_);}
	.st7{fill:url(#XMLID_60_);}
	.st8{opacity:0.7;}
	.st9{fill:url(#XMLID_61_);}
	.st10{fill:url(#XMLID_62_);}
	.st11{fill:url(#XMLID_63_);}
	.st12{fill:url(#XMLID_64_);}
	.st13{fill:url(#XMLID_65_);}
	.st14{fill:url(#XMLID_66_);}
	.st15{fill:url(#XMLID_67_);}
	.st16{fill:url(#XMLID_68_);}
	.st17{fill:url(#XMLID_69_);}
	.st18{fill:url(#XMLID_70_);}
	.st19{fill:url(#XMLID_71_);}
	.st20{opacity:0.66;fill:none;stroke:url(#XMLID_72_);stroke-width:7;stroke-miterlimit:10;}
</style>
<g id="XMLID_191_">
	<linearGradient id="XMLID_54_" gradientUnits="userSpaceOnUse" x1="19.4905" y1="230.2657" x2="468.7919" y2="230.2657">
		<stop  offset="0" style="stop-color:#EB1F3C"/>
		<stop  offset="2.217722e-02" style="stop-color:#E71F40"/>
		<stop  offset="0.2876" style="stop-color:#C3255E"/>
		<stop  offset="0.5274" style="stop-color:#A72873"/>
		<stop  offset="0.7335" style="stop-color:#932981"/>
		<stop  offset="0.8979" style="stop-color:#862B8B"/>
		<stop  offset="1" style="stop-color:#812B8E"/>
	</linearGradient>
	<path id="XMLID_1649_" class="st0" d="M244.1,452.4C121.6,452.4,22,352.8,22,230.3S121.6,8.1,244.1,8.1s222.2,99.7,222.2,222.2
		S366.6,452.4,244.1,452.4z M244.1,10.3C122.9,10.3,24.2,109,24.2,230.3c0,121.3,98.7,219.9,219.9,219.9
		c121.3,0,219.9-98.7,219.9-219.9C464.1,109,365.4,10.3,244.1,10.3z"/>
	<g id="XMLID_581_">
		<g id="XMLID_1419_">
			<linearGradient id="XMLID_55_" gradientUnits="userSpaceOnUse" x1="94.2538" y1="410.5305" x2="137.2655" y2="410.5305">
				<stop  offset="0" style="stop-color:#EB1F3C"/>
				<stop  offset="2.217722e-02" style="stop-color:#E71F40"/>
				<stop  offset="0.2876" style="stop-color:#C3255E"/>
				<stop  offset="0.5274" style="stop-color:#A72873"/>
				<stop  offset="0.7335" style="stop-color:#932981"/>
				<stop  offset="0.8979" style="stop-color:#862B8B"/>
				<stop  offset="1" style="stop-color:#812B8E"/>
			</linearGradient>
			<circle id="XMLID_1425_" class="st1" cx="115.8" cy="410.5" r="21.5"/>
			<circle id="XMLID_1420_" class="st2" cx="115.8" cy="410.5" r="7.5"/>
		</g>
		<g id="XMLID_1408_">
			<linearGradient id="XMLID_56_" gradientUnits="userSpaceOnUse" x1="1.4785" y1="230.2661" x2="44.4905" y2="230.2661">
				<stop  offset="0" style="stop-color:#EB1F3C"/>
				<stop  offset="2.217722e-02" style="stop-color:#E71F40"/>
				<stop  offset="0.2876" style="stop-color:#C3255E"/>
				<stop  offset="0.5274" style="stop-color:#A72873"/>
				<stop  offset="0.7335" style="stop-color:#932981"/>
				<stop  offset="0.8979" style="stop-color:#862B8B"/>
				<stop  offset="1" style="stop-color:#812B8E"/>
			</linearGradient>
			<circle id="XMLID_1414_" class="st3" cx="23" cy="230.3" r="21.5"/>
			<circle id="XMLID_1413_" class="st2" cx="23" cy="230.3" r="7.5"/>
		</g>
		<g id="XMLID_1382_">
			<linearGradient id="XMLID_57_" gradientUnits="userSpaceOnUse" x1="94.2538" y1="48.1397" x2="137.2655" y2="48.1397">
				<stop  offset="0" style="stop-color:#EB1F3C"/>
				<stop  offset="2.217722e-02" style="stop-color:#E71F40"/>
				<stop  offset="0.2876" style="stop-color:#C3255E"/>
				<stop  offset="0.5274" style="stop-color:#A72873"/>
				<stop  offset="0.7335" style="stop-color:#932981"/>
				<stop  offset="0.8979" style="stop-color:#862B8B"/>
				<stop  offset="1" style="stop-color:#812B8E"/>
			</linearGradient>
			<circle id="XMLID_1386_" class="st4" cx="115.8" cy="48.1" r="21.5"/>
			<circle id="XMLID_1384_" class="st2" cx="115.8" cy="48.1" r="7.5"/>
		</g>
		<g id="XMLID_1226_">
			<linearGradient id="XMLID_58_" gradientUnits="userSpaceOnUse" x1="351.2039" y1="410.5305" x2="394.2159" y2="410.5305">
				<stop  offset="0" style="stop-color:#EB1F3C"/>
				<stop  offset="2.217722e-02" style="stop-color:#E71F40"/>
				<stop  offset="0.2876" style="stop-color:#C3255E"/>
				<stop  offset="0.5274" style="stop-color:#A72873"/>
				<stop  offset="0.7335" style="stop-color:#932981"/>
				<stop  offset="0.8979" style="stop-color:#862B8B"/>
				<stop  offset="1" style="stop-color:#812B8E"/>
			</linearGradient>
			<circle id="XMLID_1319_" class="st5" cx="372.7" cy="410.5" r="21.5"/>
			<circle id="XMLID_1247_" class="st2" cx="372.7" cy="410.5" r="7.5"/>
		</g>
		<g id="XMLID_949_">
			<linearGradient id="XMLID_59_" gradientUnits="userSpaceOnUse" x1="443.979" y1="230.2661" x2="486.991" y2="230.2661">
				<stop  offset="0" style="stop-color:#EB1F3C"/>
				<stop  offset="2.217722e-02" style="stop-color:#E71F40"/>
				<stop  offset="0.2876" style="stop-color:#C3255E"/>
				<stop  offset="0.5274" style="stop-color:#A72873"/>
				<stop  offset="0.7335" style="stop-color:#932981"/>
				<stop  offset="0.8979" style="stop-color:#862B8B"/>
				<stop  offset="1" style="stop-color:#812B8E"/>
			</linearGradient>
			<circle id="XMLID_225_" class="st6" cx="465.5" cy="230.3" r="21.5"/>
			<circle id="XMLID_955_" class="st2" cx="465.5" cy="230.3" r="7.5"/>
		</g>
		<g id="XMLID_879_">
			<linearGradient id="XMLID_60_" gradientUnits="userSpaceOnUse" x1="351.2039" y1="48.1397" x2="394.2159" y2="48.1397">
				<stop  offset="0" style="stop-color:#EB1F3C"/>
				<stop  offset="2.217722e-02" style="stop-color:#E71F40"/>
				<stop  offset="0.2876" style="stop-color:#C3255E"/>
				<stop  offset="0.5274" style="stop-color:#A72873"/>
				<stop  offset="0.7335" style="stop-color:#932981"/>
				<stop  offset="0.8979" style="stop-color:#862B8B"/>
				<stop  offset="1" style="stop-color:#812B8E"/>
			</linearGradient>
			<circle id="XMLID_948_" class="st7" cx="372.7" cy="48.1" r="21.5"/>
			<circle id="XMLID_880_" class="st2" cx="372.7" cy="48.1" r="7.5"/>
		</g>
	</g>
</g>
<g id="XMLID_156_" class="st8">
	<linearGradient id="XMLID_61_" gradientUnits="userSpaceOnUse" x1="241.8097" y1="111.1686" x2="246.6602" y2="111.1686">
		<stop  offset="0" style="stop-color:#EB1F3C"/>
		<stop  offset="2.217722e-02" style="stop-color:#E71F40"/>
		<stop  offset="0.2876" style="stop-color:#C3255E"/>
		<stop  offset="0.5274" style="stop-color:#A72873"/>
		<stop  offset="0.7335" style="stop-color:#932981"/>
		<stop  offset="0.8979" style="stop-color:#862B8B"/>
		<stop  offset="1" style="stop-color:#812B8E"/>
	</linearGradient>
	<path id="XMLID_959_" class="st9" d="M245.4,105.2c0.9,0.7,1.3,1.6,1.2,2.7c0,2.2,0,4.4,0,6.6c0,1.7-1.1,2.8-2.5,2.7
		c-1.4-0.1-2.3-1.1-2.3-2.7c0-2.2,0-4.4,0-6.6c0-1.1,0.3-2,1.2-2.7C243.8,105.2,244.6,105.2,245.4,105.2z"/>
	<linearGradient id="XMLID_62_" gradientUnits="userSpaceOnUse" x1="199.5674" y1="188.6474" x2="288.4938" y2="188.6474">
		<stop  offset="0" style="stop-color:#EB1F3C"/>
		<stop  offset="2.217722e-02" style="stop-color:#E71F40"/>
		<stop  offset="0.2876" style="stop-color:#C3255E"/>
		<stop  offset="0.5274" style="stop-color:#A72873"/>
		<stop  offset="0.7335" style="stop-color:#932981"/>
		<stop  offset="0.8979" style="stop-color:#862B8B"/>
		<stop  offset="1" style="stop-color:#812B8E"/>
	</linearGradient>
	<path id="XMLID_947_" class="st10" d="M244.3,220.7c4.1,0,8.3,0,12.4,0c1.2,0,1.6-0.4,1.6-1.6c0-3.4-0.3-6.8,0.2-10.1
		c0.7-4.1,2.9-7.3,6.3-9.6c6.3-4.1,11.4-9.3,14.8-16.1c2.1-4.1,3.3-8.4,4-12.9c0.2-1.5,1.3-2.4,2.6-2.2c1.3,0.1,2.2,1.2,2.2,2.7
		c0,0.5-0.1,1.1-0.2,1.6c-0.3,1.7-0.8,3.4-1.2,5.2c-2,7.4-5.9,13.7-11.2,19.1c-2.1,2.2-4.5,4.1-7.1,5.7c-3.9,2.4-6,5.7-5.7,10.4
		c0.1,2.3,0,4.6,0,6.9c0,0.8,0.2,1.4,1,1.8c2,1.3,3,3.2,2.9,5.6c0,2,0.2,3.9-0.9,5.7c-0.2,0.3-0.1,0.7,0.1,1c1.1,2.2,1,4.5,0.7,6.8
		c-0.3,3.1-2.7,5.2-5.9,5.3c-1.2,0.1-2.4,0-3.5,0c-3.5,0-3.2-0.4-3.2,3.1c0,0.9-0.1,1.8-0.2,2.6c-0.4,2.6-2.4,4.3-5,4.3
		c-3.2,0-6.4,0-9.6,0c-2.7,0-4.6-1.7-5.1-4.4c-0.3-1.4-0.2-2.8-0.2-4.3c0-1-0.4-1.4-1.4-1.4c-1.7,0-3.3,0-5,0
		c-3.8-0.1-6.3-2.5-6.3-6.3c0-2-0.2-4,0.9-5.9c0.2-0.3,0.2-0.7,0-1c-1.2-2.1-0.9-4.4-0.8-6.6c0.1-1.9,1.1-3.5,2.7-4.5
		c0.9-0.6,1.1-1.2,1.1-2.2c0-2.6,0-5.1,0-7.7c0-3.8-1.7-6.7-4.8-8.7c-4.5-2.9-8.4-6.3-11.6-10.5c-5.7-7.4-8.8-15.8-9.3-25.2
		c-0.5-8.2,1.3-15.9,5.2-23c7.2-13.1,18.3-21,33.2-23.4c1.9-0.3,3.3,0.5,3.5,2c0.2,1.4-0.9,2.6-2.9,2.9c-6.4,0.8-12.2,3.1-17.4,6.9
		c-9.6,7-15.3,16.3-16.5,28.2c-1.1,10,1.4,19.2,7.2,27.4c3.2,4.5,7.3,7.9,11.8,10.9c4.2,2.8,6.3,6.9,6.4,12c0.1,2.5,0.1,4.9,0,7.4
		c-0.1,1.5,0.5,1.9,1.9,1.9C236.2,220.7,240.2,220.7,244.3,220.7z M244.3,235.9c-5.3,0-10.5,0-15.8,0c-1.8,0-2,0.3-2.1,2.1
		c0,0.3,0,0.7,0,1c0,2.2,0.2,2.3,2.4,2.3c10,0,19.9,0,29.9,0c3.2,0,3.2,0,3.2-3.3c0-1.9-0.3-2.1-2.1-2.1
		C254.7,235.9,249.5,235.9,244.3,235.9z M244.3,225.8c-5.3,0-10.5,0-15.8,0c-0.6,0-1.5-0.2-1.7,0.5c-0.5,1.3-0.5,2.7-0.1,4
		c0.3,1.1,1.5,0.7,2.3,0.7c9.9,0,19.9,0,29.8,0c3.2,0,3.2,0,3.1-3.2c0-1.9-0.2-2-2-2C254.7,225.8,249.5,225.8,244.3,225.8z
		 M244.2,246.2C244.2,246.2,244.2,246.1,244.2,246.2c-0.5,0-1,0-1.5,0c-4.4,0.1-3.7-0.8-3.8,4c0,1.1,0.5,1.5,1.5,1.5
		c1.7,0,3.3,0,5,0c4.4,0,3.9,0.6,3.9-4.4c0-0.8-0.4-1-1.1-1C247,246.2,245.6,246.2,244.2,246.2z"/>
	<linearGradient id="XMLID_63_" gradientUnits="userSpaceOnUse" x1="211.736" y1="165.5801" x2="276.7393" y2="165.5801">
		<stop  offset="0" style="stop-color:#EB1F3C"/>
		<stop  offset="2.217722e-02" style="stop-color:#E71F40"/>
		<stop  offset="0.2876" style="stop-color:#C3255E"/>
		<stop  offset="0.5274" style="stop-color:#A72873"/>
		<stop  offset="0.7335" style="stop-color:#932981"/>
		<stop  offset="0.8979" style="stop-color:#862B8B"/>
		<stop  offset="1" style="stop-color:#812B8E"/>
	</linearGradient>
	<path id="XMLID_882_" class="st11" d="M244.2,198.1c-1.2,0-2.4,0-3.5,0c-2.4-0.1-3.7-1.4-3.8-3.8c-0.1-1.6-0.1-3.2,0-4.9
		c0.1-1.7-1.4-1.6-2.3-2.2c-0.8-0.5-1.5-0.2-2.1,0.4c-1.1,1.2-2.3,2.3-3.4,3.4c-1.7,1.6-3.5,1.6-5.2,0c-1.7-1.6-3.4-3.3-5-5
		c-1.7-1.8-1.7-3.6,0-5.4c1.1-1.1,2.2-2.3,3.3-3.3c0.6-0.6,0.9-1.2,0.4-2.1c-0.6-0.9-0.5-2.4-2.3-2.2c-1.5,0.1-3,0-4.6,0
		c-2.5-0.1-3.9-1.4-4-3.9c0-2.3,0-4.6,0-6.9c0.1-2.6,1.3-3.8,4-3.9c1.6,0,3.1,0,4.7,0c0.8,0,1.5-0.2,1.6-1.1c0.2-1.1,1.5-2,0.2-3.2
		c-1.2-1.1-2.4-2.3-3.5-3.5c-1.6-1.7-1.6-3.5,0-5.2c1.6-1.7,3.3-3.4,5-5c1.8-1.7,3.6-1.7,5.5,0c1.2,1.1,2.4,2.2,3.4,3.4
		c0.8,0.9,1.5,0.5,2.4,0.2c0.9-0.4,1.9-0.5,1.8-1.9c-0.1-1.6,0-3.2,0-4.9c0.1-2.5,1.3-3.8,3.8-3.9c2.4-0.1,4.7-0.1,7.1,0
		c2.5,0.1,3.8,1.3,3.8,3.9c0,1.6,0.1,3.2,0,4.9c-0.1,1.6,1.3,1.5,2.1,2c0.8,0.4,1.4,0.4,2.1-0.3c1.1-1.2,2.3-2.3,3.4-3.4
		c1.8-1.7,3.7-1.7,5.5,0c1.7,1.6,3.4,3.3,5,5c1.6,1.7,1.6,3.5,0,5.2c-1.1,1.1-2.1,2.3-3.2,3.2c-1.5,1.2-0.4,2.4-0.1,3.5
		c0.3,1.2,1.2,1.1,2.1,1.1c1.5,0,2.9,0,4.4,0c2.5,0.1,3.7,1.3,3.8,3.8c0.1,2.4,0.1,4.8,0,7.2c-0.1,2.3-1.5,3.7-3.7,3.7
		c-1.7,0.1-3.3,0.1-5,0c-1.7-0.1-1.5,1.4-2.1,2.3c-0.5,0.8-0.3,1.4,0.4,1.9c1.2,1.1,2.3,2.3,3.4,3.4c1.7,1.8,1.7,3.7,0,5.4
		c-1.6,1.7-3.3,3.4-5,5c-1.7,1.6-3.5,1.6-5.2,0c-1.2-1.2-2.4-2.3-3.6-3.5c-0.6-0.6-1.3-0.7-2-0.3c-0.9,0.6-2.4,0.4-2.3,2.1
		c0.1,1.5,0,3,0,4.6c0,2.8-1.4,4.2-4.2,4.2C246.4,198.1,245.3,198.1,244.2,198.1z M246.6,142c0-0.3,0-0.6,0-0.9
		c-0.1-3.5,0.5-3.1-3.3-3.1c-1,0-1.4,0.4-1.4,1.4c0,1.7,0,3.4,0,5.2c0,1.4-0.7,2.3-2.1,2.7c-1.9,0.5-3.6,1.3-5.3,2.2
		c-1.5,0.8-2.5,0.6-3.7-0.6c-0.7-0.7-1.4-1.4-2.1-2.1c-2.6-2.4-2.6-2.4-5,0.3c-0.5,0.6-0.5,1,0,1.5c1.3,1.3,2.6,2.6,3.9,3.9
		c1.1,1,1.2,2.2,0.5,3.5c-1,1.7-1.7,3.4-2.3,5.3c-0.4,1.4-1.4,2.1-2.8,2.1c-1.1,0-2.2,0-3.2,0c-3.5,0-3.1-0.5-3.2,3.3
		c0,1.1,0.4,1.5,1.5,1.4c1.7,0,3.3,0,5,0c1.4,0,2.3,0.7,2.8,2c0.4,1,0.7,2.1,1.1,3c2,4.4,2,4.4-1.5,7.8c-2.7,2.6-2.6,2.8,0.1,5.3
		c0.6,0.6,1,0.5,1.6-0.1c1.3-1.3,2.6-2.6,3.9-3.9c0.9-0.9,1.9-1.2,3.1-0.6c1.8,1,3.7,1.7,5.7,2.3c1.3,0.4,2,1.4,2,2.8
		c0,1.1,0,2.2,0,3.2c0.1,3.4-0.7,3.2,3.5,3.1c0.9,0,1.2-0.4,1.2-1.3c0-1.6,0-3.2,0-4.9c0-1.7,0.7-2.6,2.4-3.1
		c1.8-0.5,3.5-1.2,5.2-2.1c1.2-0.7,2.3-0.5,3.2,0.5c0.8,0.8,1.5,1.5,2.3,2.3c2.5,2.5,2.5,2.5,4.9-0.1c0.6-0.7,0.7-1.1,0.1-1.8
		c-1.2-1.3-2.5-2.5-3.8-3.7c-1-1-1.3-2.1-0.6-3.3c1-1.8,1.8-3.6,2.4-5.5c0.4-1.3,1.3-1.9,2.6-1.9c1.1,0,2.3,0,3.4,0
		c3.6-0.1,3.2,0.6,3.2-3.4c0-0.9-0.4-1.3-1.3-1.3c-1.7,0-3.3,0-5,0c-1.5,0-2.5-0.7-3-2.2c-0.6-1.8-1.3-3.6-2.3-5.3
		c-0.7-1.3-0.5-2.4,0.5-3.5c0.7-0.7,1.5-1.5,2.2-2.2c2.4-2.5,2.4-2.5-0.1-4.9c-0.6-0.6-1-0.8-1.7-0.1c-1.2,1.2-2.5,2.4-3.7,3.6
		c-1.2,1.2-2.1,1.4-3.7,0.6c-1.2-0.6-2.4-1.3-3.7-1.8c-3.6-1.2-3.6-1.2-3.6-4.9C246.6,142.5,246.6,142.2,246.6,142z"/>
	<linearGradient id="XMLID_64_" gradientUnits="userSpaceOnUse" x1="246.9456" y1="141.9411" x2="288.5507" y2="141.9411">
		<stop  offset="0" style="stop-color:#EB1F3C"/>
		<stop  offset="2.217722e-02" style="stop-color:#E71F40"/>
		<stop  offset="0.2876" style="stop-color:#C3255E"/>
		<stop  offset="0.5274" style="stop-color:#A72873"/>
		<stop  offset="0.7335" style="stop-color:#932981"/>
		<stop  offset="0.8979" style="stop-color:#862B8B"/>
		<stop  offset="1" style="stop-color:#812B8E"/>
	</linearGradient>
	<path id="XMLID_881_" class="st12" d="M249.8,121c4.4,0.4,8.6,1.7,12.6,3.5c14.9,7,23.5,18.6,26.2,34.8c0.3,1.9-0.7,3.3-2.1,3.5
		c-1.4,0.2-2.5-0.9-2.7-2.8c-1.1-7.9-4.2-14.9-9.5-20.9c-6.3-7.2-14.3-11.6-23.8-13c-0.5-0.1-1-0.1-1.4-0.3c-1.3-0.4-2.2-1.6-2-2.7
		C247.2,121.8,248.3,121,249.8,121z"/>
	<linearGradient id="XMLID_65_" gradientUnits="userSpaceOnUse" x1="200.6355" y1="126.9893" x2="210.6635" y2="126.9893">
		<stop  offset="0" style="stop-color:#EB1F3C"/>
		<stop  offset="2.217722e-02" style="stop-color:#E71F40"/>
		<stop  offset="0.2876" style="stop-color:#C3255E"/>
		<stop  offset="0.5274" style="stop-color:#A72873"/>
		<stop  offset="0.7335" style="stop-color:#932981"/>
		<stop  offset="0.8979" style="stop-color:#862B8B"/>
		<stop  offset="1" style="stop-color:#812B8E"/>
	</linearGradient>
	<path id="XMLID_878_" class="st13" d="M210.7,129.7c-0.1,0.8-0.4,1.5-1.2,2c-0.9,0.5-1.8,0.5-2.5-0.1c-2.1-1.8-4.1-3.7-5.8-5.9
		c-0.9-1.1-0.6-2.2,0.5-3.1c1-0.9,2.1-0.8,3.1,0.1c1.8,1.7,3.6,3.5,5.3,5.3C210.4,128.4,210.7,129,210.7,129.7z"/>
	<linearGradient id="XMLID_66_" gradientUnits="userSpaceOnUse" x1="277.7694" y1="126.9718" x2="287.8295" y2="126.9718">
		<stop  offset="0" style="stop-color:#EB1F3C"/>
		<stop  offset="2.217722e-02" style="stop-color:#E71F40"/>
		<stop  offset="0.2876" style="stop-color:#C3255E"/>
		<stop  offset="0.5274" style="stop-color:#A72873"/>
		<stop  offset="0.7335" style="stop-color:#932981"/>
		<stop  offset="0.8979" style="stop-color:#862B8B"/>
		<stop  offset="1" style="stop-color:#812B8E"/>
	</linearGradient>
	<path id="XMLID_877_" class="st14" d="M280.2,132c-0.9,0-1.6-0.4-2.1-1.2c-0.5-0.8-0.5-1.8,0.1-2.5c1.8-2.1,3.8-4.1,5.9-5.9
		c0.9-0.8,2-0.5,2.9,0.4c1,1,1,2.2,0.1,3.2c-1.4,1.6-2.9,3-4.4,4.5c-0.3,0.3-0.6,0.6-1,0.9C281.4,131.8,280.8,132,280.2,132z"/>
	<linearGradient id="XMLID_67_" gradientUnits="userSpaceOnUse" x1="200.6453" y1="204.0912" x2="210.6674" y2="204.0912">
		<stop  offset="0" style="stop-color:#EB1F3C"/>
		<stop  offset="2.217722e-02" style="stop-color:#E71F40"/>
		<stop  offset="0.2876" style="stop-color:#C3255E"/>
		<stop  offset="0.5274" style="stop-color:#A72873"/>
		<stop  offset="0.7335" style="stop-color:#932981"/>
		<stop  offset="0.8979" style="stop-color:#862B8B"/>
		<stop  offset="1" style="stop-color:#812B8E"/>
	</linearGradient>
	<path id="XMLID_873_" class="st15" d="M210.7,201.5c0,0.8-0.4,1.5-0.9,2c-1.5,1.5-3,3.1-4.6,4.6c-1.3,1.2-2.7,1.3-3.8,0.2
		c-1.1-1.1-1-2.3,0.4-3.7c1.5-1.6,3.1-3.1,4.7-4.7c0.8-0.8,1.8-1,2.8-0.5C210.2,199.8,210.6,200.6,210.7,201.5z"/>
	<linearGradient id="XMLID_68_" gradientUnits="userSpaceOnUse" x1="277.7399" y1="204.0827" x2="287.8322" y2="204.0827">
		<stop  offset="0" style="stop-color:#EB1F3C"/>
		<stop  offset="2.217722e-02" style="stop-color:#E71F40"/>
		<stop  offset="0.2876" style="stop-color:#C3255E"/>
		<stop  offset="0.5274" style="stop-color:#A72873"/>
		<stop  offset="0.7335" style="stop-color:#932981"/>
		<stop  offset="0.8979" style="stop-color:#862B8B"/>
		<stop  offset="1" style="stop-color:#812B8E"/>
	</linearGradient>
	<path id="XMLID_870_" class="st16" d="M287.8,206.5c0,1.1-0.5,1.7-1.3,2.2c-0.9,0.5-1.9,0.5-2.6-0.1c-2-1.8-4-3.6-5.7-5.7
		c-0.8-0.9-0.6-2.1,0.3-2.9c0.9-0.9,2-1.1,2.9-0.3c2.2,1.8,4.2,3.8,6,6C287.7,205.8,287.7,206.3,287.8,206.5z"/>
	<linearGradient id="XMLID_69_" gradientUnits="userSpaceOnUse" x1="292.6462" y1="165.5784" x2="304.7525" y2="165.5784">
		<stop  offset="0" style="stop-color:#EB1F3C"/>
		<stop  offset="2.217722e-02" style="stop-color:#E71F40"/>
		<stop  offset="0.2876" style="stop-color:#C3255E"/>
		<stop  offset="0.5274" style="stop-color:#A72873"/>
		<stop  offset="0.7335" style="stop-color:#932981"/>
		<stop  offset="0.8979" style="stop-color:#862B8B"/>
		<stop  offset="1" style="stop-color:#812B8E"/>
	</linearGradient>
	<path id="XMLID_701_" class="st17" d="M298.8,163.2c1.2,0,2.5,0,3.7,0c1.4,0.1,2.2,0.9,2.3,2.2c0.1,1.3-0.8,2.5-2.1,2.5
		c-2.6,0.1-5.2,0.1-7.8,0c-1.2,0-2.2-1.3-2.2-2.4c0-1.3,0.9-2.3,2.3-2.4C296.2,163.1,297.5,163.2,298.8,163.2z"/>
	<linearGradient id="XMLID_70_" gradientUnits="userSpaceOnUse" x1="183.7169" y1="165.5778" x2="195.8224" y2="165.5778">
		<stop  offset="0" style="stop-color:#EB1F3C"/>
		<stop  offset="2.217722e-02" style="stop-color:#E71F40"/>
		<stop  offset="0.2876" style="stop-color:#C3255E"/>
		<stop  offset="0.5274" style="stop-color:#A72873"/>
		<stop  offset="0.7335" style="stop-color:#932981"/>
		<stop  offset="0.8979" style="stop-color:#862B8B"/>
		<stop  offset="1" style="stop-color:#812B8E"/>
	</linearGradient>
	<path id="XMLID_580_" class="st18" d="M189.7,168c-1.2,0-2.4,0.1-3.5,0c-1.6-0.1-2.5-1.1-2.4-2.6c0.1-1.4,0.9-2.2,2.5-2.2
		c2.3,0,4.6,0,6.9,0c1.6,0,2.6,0.9,2.6,2.3c0,1.3-1.1,2.4-2.6,2.4C192,168,190.9,168,189.7,168C189.7,168,189.7,168,189.7,168z"/>
	<linearGradient id="XMLID_71_" gradientUnits="userSpaceOnUse" x1="232.1179" y1="165.5815" x2="256.3513" y2="165.5815">
		<stop  offset="0" style="stop-color:#EB1F3C"/>
		<stop  offset="2.217722e-02" style="stop-color:#E71F40"/>
		<stop  offset="0.2876" style="stop-color:#C3255E"/>
		<stop  offset="0.5274" style="stop-color:#A72873"/>
		<stop  offset="0.7335" style="stop-color:#932981"/>
		<stop  offset="0.8979" style="stop-color:#862B8B"/>
		<stop  offset="1" style="stop-color:#812B8E"/>
	</linearGradient>
	<path id="XMLID_577_" class="st19" d="M244.3,153.5c6.6,0,12.1,5.6,12.1,12.2c0,6.4-5.6,12-12.1,12.1c-6.5,0-12.2-5.6-12.2-12.1
		C232.1,159,237.7,153.5,244.3,153.5z M244.3,158.5c-4.2,0-7.1,2.8-7.1,6.9c0,4.2,2.9,7.2,7,7.2c4.2,0,7.1-3,7.1-7.1
		C251.3,161.4,248.4,158.5,244.3,158.5z"/>
</g>
<linearGradient id="XMLID_72_" gradientUnits="userSpaceOnUse" x1="62.0285" y1="230.2661" x2="426.2548" y2="230.2661">
	<stop  offset="0" style="stop-color:#EB1F3C"/>
	<stop  offset="2.217722e-02" style="stop-color:#E71F40"/>
	<stop  offset="0.2876" style="stop-color:#C3255E"/>
	<stop  offset="0.5274" style="stop-color:#A72873"/>
	<stop  offset="0.7335" style="stop-color:#932981"/>
	<stop  offset="0.8979" style="stop-color:#862B8B"/>
	<stop  offset="1" style="stop-color:#812B8E"/>
</linearGradient>
<circle id="XMLID_1647_" class="st20" cx="244.1" cy="230.3" r="178.6"/>
</svg>
