<?xml version="1.0" encoding="UTF-8"?>
<svg width="1440px" height="476px" viewBox="0 0 1440 476" version="1.1" xmlns="http://www.w3.org/2000/svg" xmlns:xlink="http://www.w3.org/1999/xlink">
    <!-- Generator: Sketch 53 (72520) - https://sketchapp.com -->
    <title>Group 32</title>
    <desc>Created with Sketch.</desc>
    <defs>
        <rect id="path-1" x="0" y="0" width="1442" height="412"></rect>
        <filter x="-3.5%" y="-11.0%" width="107.0%" height="124.5%" filterUnits="objectBoundingBox" id="filter-2">
            <feOffset dx="0" dy="5" in="SourceAlpha" result="shadowOffsetOuter1"></feOffset>
            <feGaussianBlur stdDeviation="16" in="shadowOffsetOuter1" result="shadowBlurOuter1"></feGaussianBlur>
            <feColorMatrix values="0 0 0 0 0   0 0 0 0 0   0 0 0 0 0  0 0 0 0.1 0" type="matrix" in="shadowBlurOuter1"></feColorMatrix>
        </filter>
    </defs>
    <g id="Landing" stroke="none" stroke-width="1" fill="none" fill-rule="evenodd">
        <g id="Pricing-Page" transform="translate(0.000000, -1644.000000)">
            <g id="Group-32" transform="translate(-1.000000, 1671.000000)">
                <g id="Rectangle-Copy">
                    <use fill="black" fill-opacity="1" filter="url(#filter-2)" xlink:href="#path-1"></use>
                    <use fill="#FFFFFF" fill-rule="evenodd" xlink:href="#path-1"></use>
                </g>
                <g id="Group-4" transform="translate(1103.000000, 151.000000)" fill-rule="nonzero">
                    <polygon id="Path" fill="#FFB742" points="55 76 37 76 37 54 55 54"></polygon>
                    <polygon id="Path" fill="#FE8100" points="55 76 46 76 46 54 55 54"></polygon>
                    <path d="M25,30 L12.5,30 C5.60748931,30 0,24.579427 0,17.9166667 L0,17.0833333 C0,10.420573 5.60748931,5 12.5,5 C19.3925107,5 25,10.420573 25,17.0833333 L25,30 Z M12.5,10 C8.45972517,10 5.17241379,13.1777343 5.17241379,17.0833333 L5.17241379,17.9166667 C5.17241379,21.8222657 8.45972517,25 12.5,25 L19.8275862,25 L19.8275862,17.0833333 C19.8275862,13.1777343 16.5402748,10 12.5,10 Z" id="Shape" fill="#FFB742"></path>
                    <path d="M78.5,30 L66,30 L66,17.0833333 C66,10.420573 71.6074893,5 78.5,5 C85.3925107,5 91,10.420573 91,17.0833333 L91,17.9166667 C91,24.579427 85.3925107,30 78.5,30 Z M71.1724138,25 L78.5,25 C82.5402748,25 85.8275862,21.8222657 85.8275862,17.9166667 L85.8275862,17.0833333 C85.8275862,13.1777343 82.5402748,10 78.5,10 C74.4597252,10 71.1724138,13.1777343 71.1724138,17.0833333 L71.1724138,25 Z" id="Shape" fill="#FE8100"></path>
                    <path d="M45.5,58 C31.4395362,58 20,47.4878895 20,34.5673352 L20,0 L71,0 L71,34.5673352 C71,47.4878895 59.5604638,58 45.5,58 Z" id="Path" fill="#FFE2BA"></path>
                    <path d="M46,0 L46,58 C59.7847684,58 71,47.4878895 71,34.5673352 L71,0 L46,0 Z" id="Path" fill="#FFC474"></path>
                    <path d="M66,86 L26,86 L26,80.8333333 C26,75.4114583 30.6032609,71 36.2608696,71 L55.7391304,71 C61.3967391,71 66,75.4114583 66,80.8333333 L66,86 Z" id="Path" fill="#FFC474"></path>
                    <path d="M55.7391304,71 L46,71 L46,86 L66,86 L66,80.8333333 C66,75.4114583 61.3967391,71 55.7391304,71 Z" id="Path" fill="#FFB742"></path>
                    <path d="M58.8914952,22.1006475 C58.631058,21.3098779 57.9367036,20.7691026 57.1119859,20.6857249 L50.7745368,19.7699583 L47.9532788,14.0821057 C47.562623,13.3744363 46.7813115,13 46,13 C45.2186885,13 44.437377,13.3744363 44.0467212,14.0821057 L41.2254632,19.7699583 L34.8880141,20.6857249 C34.0632964,20.7691026 33.368942,21.3098779 33.1085048,22.1006475 C32.8477782,22.850075 33.0650986,23.6821865 33.672496,24.2232394 L38.2735526,28.5101814 L37.1883977,34.5448627 C37.0583238,35.3356323 37.3621672,36.1264018 38.0565216,36.5844932 C38.7077593,37.0839266 39.6192893,37.1252686 40.3137885,36.7508323 L46,33.8790903 L51.6862115,36.7508323 C52.380566,37.1252686 53.2922407,37.0839266 53.9434784,36.5844932 C54.6378328,36.1265405 54.9416762,35.335771 54.8116023,34.5448627 L53.7264474,28.5101814 L58.327504,24.2233781 C58.9349014,23.6821865 59.1522218,22.850075 58.8914952,22.1006475 Z" id="Path" fill="#CC3E99"></path>
                    <path d="M58.327504,24.2233132 L53.7264474,28.5102304 L54.8116023,34.5448769 C54.9416762,35.3356419 54.6378328,36.1264069 53.9434784,36.5844956 C53.2922407,37.0839261 52.3807107,37.1252679 51.6862115,36.7508337 L46,33.8789696 L46,13 C46.7813115,13 47.562623,13.3744341 47.9532788,14.0820994 L50.7745368,19.7699192 L57.1119859,20.6856805 C57.9367036,20.7690577 58.631058,21.3098299 58.8914952,22.1005949 C59.1522218,22.8500181 58.9349014,23.6821248 58.327504,24.2233132 Z" id="Path" fill="#7B2A86"></path>
                </g>
                <g id="Group-24" transform="translate(398.000000, 114.000000)" opacity="0.525204613" stroke="#CC3E99" stroke-linecap="square" stroke-width="4">
                    <path d="M29.8435256,5 L29.8435256,159" id="Line"></path>
                    <path d="M29.6437432,1 L57.3303019,1" id="Line-2"></path>
                    <path d="M29.6437432,163 L57.3303019,163" id="Line-2-Copy"></path>
                    <path d="M0.035222828,76 L26.1224645,76" id="Line-2-Copy-2"></path>
                </g>
                <g id="Group-25" transform="translate(1005.000000, 114.000000)" opacity="0.525204613" stroke="#CC3E99" stroke-linecap="square" stroke-width="4">
                    <path d="M27.8435256,5 L27.8435256,159" id="Line-Copy"></path>
                    <path d="M0.643743192,1 L28,1" id="Line-2-Copy-5"></path>
                    <path d="M0.643743192,163 L27.8435256,163" id="Line-2-Copy-6"></path>
                    <path d="M32,75 L57.1224645,75" id="Line-2-Copy-7"></path>
                </g>
                <path d="M726.643743,119 L754.330302,119" id="Line-2-Copy-3" stroke="#CC3E99" stroke-width="4" opacity="0.525204613" stroke-linecap="square"></path>
                <path d="M720.643743,271 L748.330302,271" id="Line-2-Copy-4" stroke="#CC3E99" stroke-width="4" opacity="0.525204613" stroke-linecap="square"></path>
                <g id="Group-28" transform="translate(114.000000, 133.000000)">
                    <g id="NiuAce_favicon-07" fill-rule="nonzero">
                        <path d="M109.951571,124 L15.0435277,124 C6.73503,124 -2.27373675e-13,117.292283 -2.27373675e-13,109.01748 L-2.27373675e-13,14.9825197 C-2.27373675e-13,6.70771654 6.73503,0 15.0435277,0 L109.956472,0 C118.26497,0 125,6.70771654 125,14.9825197 L125,109.022362 C124.995098,117.292283 118.260068,124 109.951571,124 Z" id="Path" fill="#FFFFFF"></path>
                        <g id="Group" transform="translate(10.000000, 27.000000)">
                            <path d="M65.4233945,18.7104167 C66.1722018,18.6034722 66.9112844,18.5743056 67.6017431,18.9583333 C67.1738532,19.5416667 66.6098165,20.0326389 66.8918349,20.9173611 C67.0814679,21.525 66.8286239,22.0743056 66.25,22.4145833 C58.4555963,21.7 52.8784404,26.3958333 47.1116514,30.5180556 C39.0887156,36.2493056 30.9685321,41.8152778 22.4933945,46.8513889 C19.736422,48.4895833 17.1399083,50.3951389 14.1300917,51.5618056 C11.2369725,52.6847222 9.2433945,52.1402778 8.09100917,50.0013889 C7.52211009,48.9465278 7.59504587,47.9354167 7.9840367,46.8708333 C9.58862385,42.4423611 11.9809174,38.4027778 14.1495413,34.2659722 C19.2744954,24.4805556 24.506422,14.7534722 29.7286239,5.01666667 C31.0463303,2.56666667 32.7724771,0.495833333 35.7774312,0.243055556 C38.4857798,0.0145833333 40.5766055,1.33680556 41.8943119,3.57291667 C44.1747706,7.45208333 46.2315596,11.4673611 48.3904587,15.4243056 C49.3677982,17.2131944 50.4569725,18.9486111 51.3273394,20.7909722 C52.0226606,22.2736111 52.8492661,21.9284722 53.8995413,21.3451389 C56.9677064,19.6340278 60.2011927,18.4770833 63.7701835,18.5451389 C64.1251376,18.55 64.4752294,18.6375 64.8253211,18.6861111 C65.0100917,18.9534722 65.2143119,18.9583333 65.4233945,18.7104167 Z M36.0983486,4.24861111 C34.4743119,4.48680556 33.7352294,5.83333333 33.0301835,7.15555556 C27.8177064,16.8875 22.6149541,26.6243056 17.4316514,36.3756944 C15.7687156,39.5013889 14.1738532,42.6611111 12.5644037,45.8159722 C12.2969725,46.3409722 11.8788073,46.9972222 12.2629358,47.5027778 C12.7345872,48.1298611 13.3326606,47.5173611 13.8577982,47.3180556 C16.2257798,46.4236111 18.1901835,44.8243056 20.3490826,43.5604167 C29.7334862,38.0479167 38.6219266,31.7819444 47.4763303,25.4673611 C48.4682569,24.7576389 48.6481651,24.1159722 48.0792661,23.0659722 C45.0694495,17.5291667 42.1082569,11.9583333 39.0741284,6.43125 C38.4663303,5.32777778 37.63,4.34097222 36.0983486,4.24861111 Z" id="Shape" fill="#7B2A86"></path>
                            <path d="M48.8621101,46.9729167 C54.6434862,46.8513889 59.9094495,47.4298611 64.5724771,50.4340278 C67.1738532,52.1111111 69.0507339,54.3715278 69.0604587,57.7791667 C69.0653211,60.24375 68.0442202,62.125 66.0166055,63.3354167 C62.5886239,65.3819444 59.1022936,67.3409722 55.586789,69.2319444 C54.4781651,69.8298611 53.0534862,70.2527778 52.3046789,68.7361111 C51.5947706,67.2875 52.5477982,66.4270833 53.7925688,65.75625 C56.7294495,64.1715278 59.6420183,62.5381944 62.5448624,60.8902778 C65.9582569,58.9506944 66.060367,56.2722222 62.8366055,53.9534722 C60.3762385,52.1840278 57.5025688,51.4694444 54.6240367,51.1291667 C47.2283486,50.2493056 40.0174312,51.4305556 32.9329358,53.6326389 C22.4933945,56.875 12.9679817,61.9305556 4.02605505,68.2013889 C3.78779817,68.3715278 3.44743119,68.4006944 3.21889908,68.5756944 C2.15889908,69.3875 1.11834862,69.3097222 0.45706422,68.1965278 C-0.209082569,67.06875 0.106972477,66.0090278 1.28853211,65.2652778 C4.16706422,63.4472222 6.98238532,61.5222222 9.9046789,59.7819444 C18.0977982,54.8916667 26.713945,50.9833333 35.976789,48.6451389 C40.3334862,47.5416667 44.7582569,46.9097222 48.8621101,46.9729167 Z" id="Path" fill="#7B2A86"></path>
                            <path d="M79.8063303,54.4590278 C80.1710092,54.6534722 80.1369725,55.0326389 80.2099083,55.3631944 C80.243945,55.6645833 80.0105505,56 80.3217431,56.2673611 C80.3946789,56.0875 80.4627523,55.9125 80.5356881,55.7326389 C81.7221101,57.2493056 83.6816514,56.9138889 84.6055046,54.8673611 C86.0350459,51.6930556 87.2944037,48.4409722 88.6558716,45.2375 C89.1469725,44.0854167 89.6429358,42.9236111 90.2604587,41.8347222 C91.1940367,40.1965278 92.5992661,39.3604167 94.5442202,39.4479167 C96.2120183,39.5208333 97.8846789,39.4333333 99.5573394,39.4284722 C100.816697,39.4284722 101.716239,39.0104167 102.110092,37.6590278 C102.440734,36.5215278 103.403486,35.9868056 104.473211,36.2930556 C105.538073,36.5944444 106.014587,37.4986111 105.858991,38.7041667 C105.523486,41.25625 102.961009,43.4486111 99.9998165,43.5701389 C98.3320183,43.6381944 96.6593578,43.6236111 94.9866972,43.5944444 C94.0336697,43.5798611 93.493945,43.9152778 93.1049541,44.8631944 C91.6365138,48.475 89.9881651,52.0138889 88.5780734,55.65 C87.8778899,57.4631944 87.1144954,58.9701389 85.140367,59.6847222 C83.7545872,60.1854167 82.4952294,61.0506944 81.1921101,61.7701389 C80.4724771,62.16875 79.8452294,62.2902778 79.4319266,61.3715278 C78.8144037,60.1319444 78.2941284,58.8048611 78.9943119,57.5020833 C79.5243119,56.5104167 79.5923853,55.4847222 79.8063303,54.4590278 Z" id="Path" fill="#BE1E5D"></path>
                            <path d="M85.140367,31.9715278 C89.7401835,31.3590278 94.4129358,32.1951389 99.0078899,31.2909722 C99.9706422,31.1013889 100.651376,30.8340278 101.016055,29.8277778 C101.361284,28.8652778 102.192752,28.4131944 103.165229,28.65625 C104.200917,28.9138889 104.692018,29.7111111 104.687156,30.8145833 C104.682294,32.9777778 102.815138,34.9416667 100.340183,35.3111111 C96.6642202,35.8604167 92.9688073,35.5736111 89.2782569,35.5881944 C87.4791743,35.5979167 86.0107339,36.1083333 85.0042202,37.6736111 C84.9312844,37.5131944 84.9069725,37.2895833 84.7854128,37.2118056 C84.1970642,36.8180556 84.4888073,37.4451389 84.4888073,37.5375 C84.4693578,38.8208333 84.4790826,40.1090278 84.4790826,41.3923611 C84.4790826,41.3923611 84.4790826,41.3923611 84.4790826,41.3923611 C82.3882569,41.0472222 81.7221101,40.4201389 82.4222936,39.0298611 C83.3315596,37.2263889 83.0398165,35.4326389 82.8890826,33.6243056 C82.8210092,32.8076389 82.8307339,31.9520833 83.3266972,31.4708333 C83.8177982,30.9993056 84.2408257,31.9958333 84.8048624,32.0833333 C84.9118349,32.0979167 85.0285321,32.0104167 85.140367,31.9715278 Z" id="Path" fill="#BE1E5D"></path>
                            <path d="M79.8063303,54.4590278 C79.5923853,55.4847222 79.5243119,56.5152778 78.9943119,57.5020833 C78.2941284,58.8048611 78.8144037,60.1319444 79.4319266,61.3715278 C78.692844,61.2888889 78.5566972,60.6861111 78.3281651,60.1222222 C77.0250459,56.9527778 75.386422,53.9777778 73.3053211,51.2506944 C71.1366972,48.4069444 71.9244037,44.0659722 74.9244954,42.1409722 C75.6878899,41.65 76.4707339,41.6013889 77.2000917,42.2916667 C77.8759633,42.9284722 78.1920183,43.6527778 77.7689908,44.5423611 C77.5890826,44.9118056 77.3070642,45.2375 77.0542202,45.5680556 C75.6587156,47.425 75.6392661,47.9743056 77.0979817,49.8361111 C78.2114679,51.2555556 79.1207339,52.7868056 79.8063303,54.4590278 Z" id="Path" fill="#A02273"></path>
                            <path d="M85.140367,31.9715278 C85.0285321,32.0104167 84.9069725,32.0979167 84.8048624,32.0833333 C84.2408257,32.0006944 83.8177982,31.0041667 83.3266972,31.4708333 C82.8258716,31.9472222 82.8210092,32.8076389 82.8890826,33.6243056 C83.0398165,35.4326389 83.3315596,37.2263889 82.4222936,39.0298611 C81.7221101,40.4201389 82.3882569,41.0472222 84.4790826,41.3923611 C84.3526606,42.4277778 83.6427523,42.6270833 82.7966972,42.5298611 C81.6491743,42.4034722 81.2212844,41.4847222 81.0608257,40.5368056 C80.7885321,38.9131944 80.9976147,37.2847222 81.7172477,35.8020833 C82.2375229,34.7229167 81.9020183,34.0861111 81.1143119,33.3180556 C79.6312844,31.8645833 77.8370642,30.7465278 76.6020183,29.0354167 C76.6263303,27.8298611 75.4885321,27.4555556 74.9293578,26.6680556 C74.6327523,26.2451389 73.5289908,26.3229167 73.9714679,25.5013889 C74.389633,24.7138889 74.4722936,23.3965278 75.9066972,23.6104167 C79.159633,26.20625 82.3007339,28.9138889 85.140367,31.9715278 Z" id="Path" fill="#A02273"></path>
                            <path d="M75.9066972,23.6104167 C74.4722936,23.3916667 74.389633,24.7138889 73.9714679,25.5013889 C73.5338532,26.3229167 74.6327523,26.2451389 74.9293578,26.6680556 C75.4885321,27.4555556 76.6263303,27.825 76.6020183,29.0354167 C75.0898165,27.8006944 73.5581651,26.5854167 72.0654128,25.3215278 C70.3538532,23.8680556 68.4137615,22.925 66.25,22.4194444 C66.8286239,22.0791667 67.0814679,21.5298611 66.8918349,20.9222222 C66.6098165,20.0326389 67.1787156,19.5416667 67.6017431,18.9631944 C71.0783486,19.2256944 73.5338532,21.3402778 75.9066972,23.6104167 Z" id="Path" fill="#8D267E"></path>
                            <path d="M84.4790826,41.3923611 C84.4742202,40.1090278 84.4644954,38.8208333 84.4888073,37.5375 C84.4888073,37.4451389 84.1970642,36.8180556 84.7854128,37.2118056 C84.9069725,37.2944444 84.9361468,37.5180556 85.0042202,37.6736111 C84.7270642,38.8986111 85.3834862,40.2597222 84.4790826,41.3923611 Z" id="Path" fill="#A02273"></path>
                            <path d="M65.4233945,18.7104167 C65.2143119,18.9534722 65.0100917,18.9534722 64.8204587,18.6909722 C65.0295413,18.4333333 65.2288991,18.4479167 65.4233945,18.7104167 Z" id="Path" fill="#8D267E"></path>
                            <path d="M80.5356881,55.7277778 C80.4627523,55.9076389 80.3946789,56.0826389 80.3217431,56.2625 C80.0105505,55.9951389 80.243945,55.6597222 80.2099083,55.3583333 C80.3217431,55.4847222 80.4287156,55.60625 80.5356881,55.7277778 Z" id="Path" fill="#A02273"></path>
                            <path d="M36.0983486,4.24861111 C37.6251376,4.34097222 38.4663303,5.32777778 39.0741284,6.43125 C42.1082569,11.9583333 45.0694495,17.5243056 48.0792661,23.0659722 C48.6481651,24.1111111 48.4682569,24.7576389 47.4763303,25.4673611 C38.6170642,31.7868056 29.7334862,38.0527778 20.3490826,43.5604167 C18.1901835,44.8243056 16.2257798,46.4284722 13.8577982,47.3180556 C13.3326606,47.5173611 12.7394495,48.1298611 12.2629358,47.5027778 C11.8788073,46.9972222 12.2969725,46.3409722 12.5644037,45.8159722 C14.1738532,42.6611111 15.7687156,39.5013889 17.4316514,36.3756944 C22.6149541,26.6291667 27.8177064,16.8875 33.0301835,7.15555556 C33.7400917,5.83333333 34.4743119,4.48680556 36.0983486,4.24861111 Z" id="Path" fill="#FFFFFF"></path>
                        </g>
                    </g>
                    <g id="Group-20-Copy-3" transform="translate(141.000000, 25.000000)">
                        <text id="Aliquam-egestas-null-Copy" font-family="Helvetica" font-size="12" font-weight="normal" letter-spacing="0.6666667" fill="#7A7A7A">
                            <tspan x="1.5" y="45">Aliquam egestas </tspan>
                            <tspan x="1.5" y="59">nulla et lectus </tspan>
                            <tspan x="1.5" y="73">imperdiet </tspan>
                            <tspan x="1.5" y="87">ullamcorper.</tspan>
                        </text>
                        <text id="NiuAce" font-family="Helvetica-Bold, Helvetica" font-size="22" font-weight="bold" fill="#C00B6C">
                            <tspan x="0.1015625" y="21">NiuAce</tspan>
                        </text>
                    </g>
                </g>
                <g id="selection" transform="translate(765.000000, 231.000000)" fill-rule="nonzero">
                    <path d="M27,84.8181818 L27,93 L2.86092715,93 C1.35876159,93 0,91.7998182 0,90.2727273 L0,84.8181818 C0,77.2909091 6.18675497,71 13.589404,71 C17.2907285,71 20.6701987,72.5270909 23.0842848,74.9816364 C25.4978344,77.4363636 27,81.0545455 27,84.8181818 Z" id="Path" fill="#CC3E99"></path>
                    <path d="M28,84.8181818 L28,93 L14,93 L14,71 C17.864,71 21.392,72.5270909 23.9121867,74.9816364 C26.4318133,77.4363636 28,81.0545455 28,84.8181818 Z" id="Path" fill="#7B2A86"></path>
                    <path d="M58,84.9536424 L58,90.3178808 C58,91.8196887 56.7744714,93 55.2142857,93 L21.7857143,93 C20.2255286,93 19,91.8196887 19,90.3178808 L19,84.9536424 C19,74.6006623 27.7471429,66 38.5,66 C43.8487571,66 48.7516143,68.092053 52.2612429,71.5249868 C55.8271429,74.904457 58,79.8037947 58,84.9536424 Z" id="Path" fill="#CC3E99"></path>
                    <g id="Group" transform="translate(5.000000, 49.000000)" fill="#EA7DC9">
                        <path d="M8.25,10.889404 C3.68481667,10.889404 0,14.4832649 0,18.9357616 C0,23.3879007 3.68481667,26.9821192 8.25,26.9821192 C12.8151833,26.9821192 16.5,23.3879007 16.5,18.9357616 C16.5,14.4834437 12.8151833,10.889404 8.25,10.889404 Z" id="Path"></path>
                        <path d="M33,0.160927152 C26.9501833,0.160927152 22,4.98856291 22,10.889404 C22,16.7898874 26.9501833,21.6178808 33,21.6178808 C39.0498167,21.6178808 44,16.7898874 44,10.889404 C44,4.98856291 39.0498167,0.160927152 33,0.160927152 Z" id="Path"></path>
                    </g>
                    <path d="M12.7889085,49 C12.0752841,49 11.3616597,48.7362487 10.8170516,48.2087461 C9.72764946,47.1539208 9.72764946,45.4448483 10.8170516,44.3900231 L33.1294355,22.7858199 C33.7205277,22.2134886 34.5403219,21.9497373 35.3764785,22.0078886 C36.2072429,22.0869239 36.9589843,22.5247691 37.4219663,23.1972 L46.6907165,36.6602192 L58.2390486,25.4784238 C59.3284507,24.4235986 61.0935462,24.4235986 62.1829484,25.4784238 C63.2723505,26.533249 63.2723505,28.2423215 62.1829484,29.2971467 L48.2295272,42.8076953 C47.6412241,43.3800266 46.8431845,43.670063 45.9824843,43.5856266 C45.1517198,43.5065912 44.3999784,43.068746 43.9369965,42.3963152 L34.6682463,28.9332959 L14.7607655,48.2089261 C14.2161574,48.7362487 13.5025329,49 12.7889085,49 Z" id="Path" fill="#E62753"></path>
                    <path d="M22,67.5 C22,72.2031444 18.4268444,76 14,76 L14,59 C18.4268444,59 22,62.7966667 22,67.5 Z" id="Path" fill="#CC3E99"></path>
                    <path d="M58,84.9536424 L58,90.3178808 C58,91.8196887 56.8058952,93 55.2857143,93 L39,93 L39,66 C44.2116095,66 48.9887524,68.092053 52.4083905,71.5249868 C55.8828571,74.904457 58,79.8037947 58,84.9536424 Z" id="Path" fill="#7B2A86"></path>
                    <g id="Group" transform="translate(39.000000, 49.000000)" fill="#CC3E99">
                        <path d="M10.9634551,11.0727273 C10.9634551,17.0725455 6.02971761,21.9818182 0,21.9818182 L0,0.163636364 C6.02971761,0.163636364 10.9634551,5.07254545 10.9634551,11.0727273 Z" id="Path"></path>
                        <path d="M30.1495017,11.0727273 C16.555,11.0727273 5.48172757,22.2725455 5.48172757,35.8 L5.48172757,41.2545455 C5.48172757,42.7816364 6.68752492,43.9818182 8.22259136,43.9818182 L52.2591362,43.9818182 C53.7942027,43.9818182 55,42.7816364 55,41.2545455 L55,35.8 C55,22.2725455 43.7440033,11.0727273 30.1495017,11.0727273 Z" id="Path"></path>
                    </g>
                    <path d="M94,85.0441989 L94,90.3480663 C94,91.8329724 92.7869485,93 91.2426471,93 L69,93 L69,61 C82.6762868,61 94,71.8904309 94,85.0441989 Z" id="Path" fill="#7B2A86"></path>
                    <path d="M68.5,39 C61.048,39 55,45.048 55,52.5 C55,59.952 61.048,66 68.5,66 C75.952,66 82,59.952 82,52.5 C82,45.048 75.952,39 68.5,39 Z" id="Path" fill="#EA7DC9"></path>
                    <path d="M83,52.5 C83,59.952 76.728,66 69,66 L69,39 C76.728,39 83,45.048 83,52.5 Z" id="Path" fill="#CC3E99"></path>
                    <path d="M85.8622824,11.755003 C85.5317275,10.7335923 84.6504315,10.0350908 83.6036744,9.9273947 L75.559989,8.7445295 L71.9791615,1.39771983 C71.4833292,0.483646901 70.4916646,0 69.5,0 C68.5083354,0 67.5166708,0.483646901 67.0208385,1.39771983 L63.440011,8.7445295 L55.3963256,9.9273947 C54.3495685,10.0350908 53.4682725,10.7335923 53.1377176,11.755003 C52.8067955,12.7230136 53.0826251,13.7978243 53.8535526,14.4966842 L59.6933552,20.0339843 L58.3160433,27.828781 C58.1509495,28.8501917 58.5365968,29.8716023 59.4178929,30.4633037 C60.2444637,31.1084052 61.4014057,31.1618053 62.2828854,30.6781584 L69.5,26.968825 L76.7171146,30.6781584 C77.5984107,31.1618053 78.7555363,31.1084052 79.5821071,30.4633037 C80.4634032,29.8717815 80.8490505,28.8503709 80.6839567,27.828781 L79.3066448,20.0339843 L85.1464474,14.4968634 C85.9173749,13.7978243 86.1932045,12.7230136 85.8622824,11.755003 Z" id="Path" fill="#FEDB41"></path>
                    <path d="M85.1205822,14.4967796 L79.1038158,20.0340476 L80.5228645,27.8287994 C80.6929611,28.8502041 80.2956275,29.8716089 79.3876255,30.4633068 C78.5360071,31.1084046 77.3440062,31.1618043 76.4358151,30.6781602 L69,26.9686691 L69,0 C70.021715,0 71.0434301,0.483644105 71.5542876,1.39771175 L75.243625,8.74447895 L83.5310585,9.92733732 C84.6095355,10.0350328 85.5175374,10.7335303 85.8581091,11.754935 C86.1990592,12.72294 85.9148711,13.7977445 85.1205822,14.4967796 Z" id="Path" fill="#FCBF29"></path>
                </g>
                <g id="Group-22" transform="translate(593.000000, 76.000000)">
                    <text id="Aliquam-egestas-null" font-family="Helvetica" font-size="12" font-weight="normal" letter-spacing="0.6666667" fill="#7A7A7A">
                        <tspan x="0" y="45">Aliquam egestas </tspan>
                        <tspan x="0" y="59">nulla et lectus </tspan>
                        <tspan x="0" y="73">imperdiet </tspan>
                        <tspan x="0" y="87">ullamcorper.</tspan>
                    </text>
                    <text id="Meet" font-family="Helvetica-Bold, Helvetica" font-size="22" font-weight="bold" fill="#C00B6C">
                        <tspan x="0.438476562" y="21">Meet</tspan>
                    </text>
                </g>
                <g id="Group-20" transform="translate(880.000000, 76.000000)">
                    <text id="Aliquam-egestas-null-Copy" font-family="Helvetica" font-size="12" font-weight="normal" letter-spacing="0.6666667" fill="#7A7A7A">
                        <tspan x="4.5" y="45">Aliquam egestas </tspan>
                        <tspan x="4.5" y="59">nulla et lectus </tspan>
                        <tspan x="4.5" y="73">imperdiet </tspan>
                        <tspan x="4.5" y="87">ullamcorper.</tspan>
                    </text>
                    <text id="Trade" font-family="Helvetica-Bold, Helvetica" font-size="22" font-weight="bold" fill="#C00B6C">
                        <tspan x="0.0454101562" y="21">Trade</tspan>
                    </text>
                </g>
                <g id="Group-20-Copy-2" transform="translate(880.000000, 240.000000)">
                    <text id="Aliquam-egestas-null-Copy" font-family="Helvetica" font-size="12" font-weight="normal" letter-spacing="0.6666667" fill="#7A7A7A">
                        <tspan x="3.5" y="45">Aliquam egestas </tspan>
                        <tspan x="3.5" y="59">nulla et lectus </tspan>
                        <tspan x="3.5" y="73">imperdiet </tspan>
                        <tspan x="3.5" y="87">ullamcorper.</tspan>
                    </text>
                    <text id="Growth" font-family="Helvetica-Bold, Helvetica" font-size="22" font-weight="bold" fill="#C00B6C">
                        <tspan x="0.505371094" y="21">Growth</tspan>
                    </text>
                </g>
                <g id="Group-20-Copy" transform="translate(593.000000, 240.000000)">
                    <text id="Aliquam-egestas-null-Copy" font-family="Helvetica" font-size="12" font-weight="normal" letter-spacing="0.6666667" fill="#7A7A7A">
                        <tspan x="0.5" y="45">Aliquam egestas </tspan>
                        <tspan x="0.5" y="59">nulla et lectus </tspan>
                        <tspan x="0.5" y="73">imperdiet </tspan>
                        <tspan x="0.5" y="87">ullamcorper.</tspan>
                    </text>
                    <text id="Manage" font-family="Helvetica-Bold, Helvetica" font-size="22" font-weight="bold" fill="#C00B6C">
                        <tspan x="0.0454101562" y="21">Manage</tspan>
                    </text>
                </g>
                <g id="meeting" transform="translate(478.000000, 69.000000)" fill-rule="nonzero">
                    <path d="M42.5,22 C48.289764,22 53,17.0651559 53,11 C53,4.93484411 48.289764,0 42.5,0 C36.710236,0 32,4.93484411 32,11 C32,17.0651559 36.710236,22 42.5,22 Z" id="Path" fill="#FF2C5C"></path>
                    <path d="M44.6860123,25.413862 C44.4548217,25.1385971 44.1168598,25 43.7750742,25 L41.2249181,25 C40.8831325,25 40.5451707,25.1385971 40.31398,25.413862 C39.956017,25.8402653 39.9042491,26.456074 40.1580881,26.9374659 L41.5211127,29.1842832 L40.8828384,35.0696776 L42.1393859,38.7243332 C42.2620404,39.0918889 42.7373636,39.0918889 42.8600182,38.7243332 L44.1165657,35.0696776 L43.4782913,29.1842832 L44.8413159,26.9374659 C45.0960374,26.456074 45.0439754,25.8399437 44.6860123,25.413862 Z" id="Path" fill="#FF7816"></path>
                    <path d="M26.4814721,50 L58.5182336,50 C59.3351916,50 60,49.3179018 60,48.4796971 L60,34.7854969 C60,30.7955698 57.4790842,27.2525243 53.7268454,25.9695517 L50.8015707,25.0483115 C50.2662513,24.8786173 49.695911,25.1702981 49.5037375,25.7107831 L42.5001471,45.4267114 L35.4965568,25.7104812 C35.3411699,25.2738659 34.9394597,25 34.5089087,25 C34.4064946,25 34.3023148,25.0153993 34.1999008,25.0480096 L31.2969923,25.961701 C27.5209158,27.2528262 25,30.7955698 25,34.7854969 L25,48.4796971 C25,49.3179018 25.6648084,50 26.4814721,50 Z" id="Path" fill="#E62753"></path>
                    <path d="M10.4998515,27 C16.2896974,27 21,22.0653973 21,16.0001556 C21,9.93460271 16.2894003,5 10.4998515,5 C4.71030258,5 0,9.93491392 0,16.0001556 C0,22.0657085 4.71030258,27 10.4998515,27 Z" id="Path" fill="#7B2A86"></path>
                    <path d="M27.478532,57.2007917 L19.3917474,57.2007917 L19.3917474,40.5731764 C19.3917474,35.2860104 15.2745307,31 10.1958737,31 C5.11721667,31 1,35.2860104 1,40.5728774 L1,63.1601792 C1,68.2362294 4.95290718,72.3511941 9.82904986,72.3511941 L20.3215897,72.3511941 L20.3215897,87.4023183 C20.3215897,88.8370687 21.4387219,90 22.8169683,90 L32.5046214,90 C33.8828678,90 35,88.8370687 35,87.4023183 L35,65.0306177 C35,60.7063313 31.6325172,57.2007917 27.478532,57.2007917 Z" id="Path" fill="#7B2A86"></path>
                    <path d="M75.5001485,27 C81.2899945,27 86,22.0653973 86,16.0001556 C86,9.93460271 81.2896974,5 75.5001485,5 C69.7105997,5 65,9.93491392 65,16.0001556 C64.9997029,22.0657085 69.7103026,27 75.5001485,27 Z" id="Path" fill="#7B2A86"></path>
                    <path d="M75.8038391,31 C70.7248948,31 66.6079654,35.2860321 66.6079654,40.5729259 L66.6079654,57.2006254 L58.521468,57.2006254 C54.3674828,57.2006254 51,60.7061829 51,65.0304912 L51,87.4023051 C51,88.8370628 52.1171322,90 53.4953786,90 L63.1830317,90 C64.5612781,90 65.6784103,88.8370628 65.6784103,87.4023051 L65.6784103,72.3511046 L76.1709501,72.3511046 C81.0470928,72.3511046 85,68.2361191 85,63.1600432 L85,40.5726269 C85,35.2860321 80.8827833,31 75.8038391,31 Z" id="Path" fill="#7B2A86"></path>
                </g>
                <g id="trade" transform="translate(769.000000, 69.000000)" fill-rule="nonzero">
                    <path d="M53.7857504,0 L45,12.5 L53.7857504,25 L86,25 L86,0 L53.7857504,0 Z M55.2500422,15.625 C53.6320319,15.625 52.3214587,14.2265283 52.3214587,12.5 C52.3214587,10.7734717 53.6320319,9.375 55.2500422,9.375 C56.8680525,9.375 58.1786257,10.7734717 58.1786257,12.5 C58.1786257,14.2265283 56.8680525,15.625 55.2500422,15.625 Z" id="Shape" fill="#CC3E99"></path>
                    <polygon id="Path" fill="#7B2A86" points="86 6 60 25 86 25"></polygon>
                    <rect id="Rectangle" fill="#F9B44D" x="23" y="37" width="41" height="39"></rect>
                    <rect id="Rectangle" fill="#F77219" x="39" y="37" width="9" height="9"></rect>
                    <path d="M73.3547037,8.80011063 L78.9976568,8.80011063 L78.9976568,5.60003688 L75.9992765,5.60003688 L75.9992765,4 L73.0008962,4 L73.0008962,5.63838761 C71.1658654,5.83843831 69.8301039,7.58874369 70.0175459,9.54721243 C70.1345027,10.7648482 70.8286426,11.8336906 71.8555136,12.3776072 L75.8012964,14.48321 C75.9766453,14.5744774 76.05024,14.8016317 75.9631702,14.988776 C75.9047781,15.1167347 75.7833296,15.1984143 75.6513428,15.1998894 L70.0023432,15.1998894 L70.0023432,18.3999631 L73.0007235,18.3999631 L73.0007235,20 L75.9991038,20 L75.9991038,18.3616124 C77.8341346,18.1615617 79.1698961,16.4112563 78.9824541,14.4527876 C78.8654973,13.2351518 78.1713574,12.1663094 77.1444864,11.6223928 L73.1987036,9.51678997 C73.0233547,9.4255226 72.94976,9.19836825 73.0368298,9.01122404 C73.0952219,8.88326534 73.2166704,8.80158566 73.3486572,8.80011063 L73.3547037,8.80011063 Z" id="Path" fill="#EA7DC9"></path>
                    <path d="M70.9117373,47 L64.2940678,47 L64.2940678,43.8695652 L70.9117373,43.8695652 C73.7544662,43.8695652 76.0588136,41.4169464 76.0588136,38.3913043 C76.0588136,35.3656623 73.7544662,32.9130435 70.9117373,32.9130435 L39.2941525,32.9130435 C33.6088642,32.9130435 29,28.0076255 29,21.9565217 C29,15.905418 33.6088642,11 39.2941525,11 L52.5294915,11 L52.5294915,14.1304348 L39.2941525,14.1304348 C35.2338375,14.1304348 31.9411864,17.6349489 31.9411864,21.9565217 C31.9411864,26.2780945 35.2338375,29.7826087 39.2941525,29.7826087 L70.9117373,29.7826087 C75.3794395,29.7826087 79,33.6361313 79,38.3913043 C79,43.1464773 75.3794395,47 70.9117373,47 Z" id="Path" fill="#CC3E99"></path>
                    <polygon id="Path" fill="#F7AA36" points="23 75.232554 23 76 64 76 64 43"></polygon>
                    <path d="M56.8696601,74.6230304 L53.9566093,74.6230304 C56.7721444,74.6230304 59.0544482,72.213507 59.0544482,69.241029 L59.0544482,69.241029 L59.0544482,69.241029 C59.0544482,66.2685511 56.7721444,63.8590276 53.9566093,63.8590276 L39.3913554,63.8590276 C33.0744864,60.0469908 25.3170369,60.0469908 19,63.8590276 L19,63.8590276 L19,90 L56.8694922,90 L83.2907084,73.2635758 C84.9716374,72.1996856 86,70.2820608 86,68.212401 L86,68.212401 C86,64.9585344 83.5020204,62.3214902 80.4201214,62.3214902 L80.4201214,62.3214902 L80.1128043,62.3214902 C79.1980701,62.3230849 78.2979381,62.55982 77.4911257,63.0150388 L56.8696601,74.6230304 Z" id="Path" fill="#FEC9A3"></path>
                    <rect id="Rectangle" fill="#FF2C5C" x="0" y="64" width="19" height="26"></rect>
                    <path d="M57.5384615,76 L41.4615385,76 C40.6548123,76 40,75.3279558 40,74.5 C40,73.6720442 40.6548123,73 41.4615385,73 L57.5384615,73 C58.3451877,73 59,73.6720442 59,74.5 C59,75.3279558 58.3451877,76 57.5384615,76 Z" id="Path" fill="#F5B789"></path>
                    <rect id="Rectangle" fill="#E62753" x="0" y="74" width="19" height="16"></rect>
                    <circle id="Oval" fill="#BE193F" cx="10" cy="81" r="3"></circle>
                </g>
                <g id="project-management" transform="translate(472.000000, 233.000000)" fill-rule="nonzero">
                    <path d="M41,85.3333333 C41,87.9104817 43.1484374,90 45.8,90 L52.2,90 C54.8507812,90 57,87.9104817 57,85.3333333 L57,76 L41,76 L41,85.3333333 Z" id="Path" fill="#EBEBEB"></path>
                    <path d="M32.6741801,59.3666381 C31.2126552,58.4979452 29.8343663,57.5133261 28.5564499,56.4255779 C27.4654066,60.2955526 23.3419643,62.7495728 19.0700028,62.0720826 C14.7972254,61.3945923 11.7991002,57.8121745 12.1703976,53.8277792 C12.5416951,49.8433839 16.1591936,46.7856445 20.4948061,46.7916667 C20.7502261,46.7916667 20.9958536,46.8405965 21.2398492,46.8609212 C19.6559186,43.4260457 18.8390641,39.7322185 18.8398801,36 L16.7124678,36 L15.5577733,41.0668742 C15.4427119,41.5719807 15.0616219,41.9905193 14.5426214,42.181722 C14.022805,42.3736776 13.4344413,42.3127034 12.9741956,42.0198771 L8.35623388,39.0833333 L3.34249355,43.7083333 L6.51769927,47.9674885 C6.83513818,48.392802 6.90123725,48.9355469 6.69314739,49.4143066 C6.48587372,49.8938191 6.03215634,50.2453613 5.48541046,50.3507487 L0,51.4166667 L0,57.5833333 L5.49193877,58.6484986 C6.03868464,58.7546387 6.49240203,59.1061809 6.70049189,59.5849406 C6.90776556,60.0637004 6.84166649,60.607198 6.52422758,61.0317586 L3.34249355,65.2916667 L8.35623388,69.9166667 L12.9741956,66.9868978 C13.4344413,66.6940715 14.023621,66.6323445 14.5434376,66.8243001 C15.0632541,67.0155028 15.4443441,67.4347942 15.5594055,67.9399008 L16.7124678,73 L23.3974549,73 L24.5505172,67.932373 C24.6655785,67.4265137 25.0466686,67.0079753 25.566485,66.8167724 C26.0863017,66.6248169 26.6754813,66.685791 27.135727,66.97937 L31.7536888,69.9166667 L37,65.0771281 C36.4499902,62.7141927 34.8905406,60.6553751 32.6741801,59.3666381 Z" id="Path" fill="#E62753"></path>
                    <path d="M78.9999953,35.0001071 C78.9983677,21.5751195 68.7881935,10.0398841 54.6638611,7.50603642 C40.539529,4.97218871 26.4754145,12.1514241 21.1420694,24.6193826 C15.808724,37.0873413 20.7058971,51.3341583 32.8153738,58.5771953 C35.5902756,60.1828771 37.2950908,63.0000357 37.3357786,66.0473369 L37.3357786,72.3333452 C37.3357786,74.910487 39.5736026,77 42.3354846,77 L55.6680339,77 C58.429102,77 60.6677399,74.910487 60.6677399,72.3333452 L60.6677399,66.17646 C60.7100552,63.0570017 62.4490479,60.1722434 65.2841677,58.5194698 C73.8399798,53.363667 79.0056914,44.5058337 78.9999953,35.0001071 L78.9999953,35.0001071 Z" id="Path" fill="#FFB41F"></path>
                    <path d="M89.0194849,19.5561061 L94.2390416,15.9315469 L88.2623693,8.55257815 L83.0428124,12.1771373 C81.9687462,12.9224649 80.5153116,12.9952713 79.3601836,12.3617803 C78.2050557,11.7282894 77.5760177,10.5130977 77.7648912,9.28289428 L78.6865618,3.3045109 L68.8254174,2 L67.9037467,7.97763266 C67.7148733,9.20933718 66.7429445,10.2136156 65.4419058,10.5221045 C64.1408671,10.8313444 62.7668728,10.3839975 61.9611203,9.38872626 L58.0474661,4.55573064 L50.0791101,10.0897695 L53.9919539,14.9227651 C54.7968956,15.9180365 54.8755253,17.2630789 54.1913653,18.3326578 C53.5072054,19.4022367 52.1948179,19.9846881 50.8662183,19.8098026 L44.4096614,18.9563912 L43,28.0872176 L49.4581781,28.9406289 C50.7875884,29.1162651 51.8721928,30.0162126 52.2053561,31.2208962 C52.5385191,32.4255798 52.0553921,33.6978158 50.9805151,34.4438939 L45.7625796,38.0684531 L51.7392518,45.4466711 L56.9571874,41.8236132 C58.0312536,41.0775351 59.4854989,41.003978 60.6414375,41.637469 C61.7965654,42.2709599 62.426414,43.4869023 62.23673,44.7178562 L61.3069533,50.6947384 L71.1680977,52 L72.0978744,46.0201155 C72.2875584,44.7891616 73.2594872,43.7856339 74.5605259,43.4771447 C75.8615648,43.1679051 77.2355589,43.6160023 78.0405008,44.610523 L81.9557763,49.4420176 L89.9241322,43.9079785 L86.0080461,39.0764842 C85.2022936,38.0819635 85.1228534,36.73542 85.8070133,35.6650904 C86.4911733,34.5955115 87.8043713,34.0123094 89.1337817,34.1886962 L95.5903386,35.0428582 L97,25.9120317 L90.5434431,25.0578698 C89.2148433,24.8814831 88.1310496,23.9822863 87.7970756,22.7776025 C87.4639126,21.5736697 87.946229,20.3021842 89.0194849,19.5561061 L89.0194849,19.5561061 Z M70.0008106,37.7592133 C63.5823524,37.7592133 58.3798186,32.94198 58.3798186,26.998874 C58.3798186,21.0565187 63.5823524,16.2385348 70.0008106,16.2385348 C76.4192687,16.2385348 81.6218025,21.0565187 81.6218025,26.998874 C81.6218025,32.94198 76.4192687,37.7592133 70.0008106,37.7592133 Z" id="Shape" fill="#CC3E99"></path>
                    <polygon id="Path" fill="#9E9E9E" points="41 80 57 80 57 83 41 83"></polygon>
                    <g id="Group" fill="#FFAA00">
                        <polygon id="Path" points="46.854532 68.4348022 50.1848488 68.4348022 50.1848488 73.0966727 46.854532 73.0966727"></polygon>
                        <path d="M50.1848522,65.3268885 L46.854532,65.3268885 C46.8529058,61.2181598 44.1380799,57.5351001 40.0272201,56.0646076 C31.8323318,53.0743031 26.1392463,46.0329362 25.3082933,37.85797 C24.4773402,29.6830036 28.6491799,21.7682947 36.0952346,17.3932386 L37.8620264,20.0223696 C31.4778352,23.7714422 27.8995333,30.5563456 28.611779,37.5650854 C29.3232112,44.5730665 34.2032311,50.6098246 41.228931,53.172943 C46.6260604,55.0994548 50.188914,59.9343244 50.1848522,65.3268885 L50.1848522,65.3268885 Z" id="Path"></path>
                        <path d="M81.8228578,57.5571043 L90.1486497,57.5571043 C91.0682269,57.5571043 91.813808,58.2521358 91.813808,59.1110612 C91.813808,59.9692278 91.0682269,60.665018 90.1486497,60.665018 L81.8228578,60.665018 C80.9032805,60.665018 80.1576994,59.9692278 80.1576994,59.1110612 C80.1576994,58.2521358 80.9032805,57.5571043 81.8228578,57.5571043 Z" id="Path"></path>
                        <path d="M78.4925411,66.881604 C79.0812006,66.2222347 80.1308681,66.1327002 80.8374223,66.682048 L88.270468,72.4615839 C88.977022,73.0109319 89.0729638,73.9905013 88.4843043,74.6498708 C87.8948318,75.3092401 86.845164,75.3987746 86.1386101,74.8494268 L78.7055641,69.0698909 C77.9990102,68.5205429 77.9038816,67.5409736 78.4925411,66.881604 L78.4925411,66.881604 Z" id="Path"></path>
                        <path d="M71.8319076,69.988759 C72.7514848,69.988759 73.4970659,70.6837905 73.4970659,71.5427158 L73.4970659,79.3125 C73.4970659,80.1706666 72.7514848,80.8664568 71.8319076,80.8664568 C70.9123303,80.8664568 70.1667492,80.1706666 70.1667492,79.3125 L70.1667492,71.5427158 C70.1667492,70.6837905 70.9123303,69.988759 71.8319076,69.988759 Z" id="Path"></path>
                        <path d="M1.4423785,26.1456272 L11.5325226,23.7934466 C12.4252686,23.5855441 13.3285845,24.0916424 13.5513646,24.9240108 C13.7741445,25.7563792 13.2318296,26.5993705 12.3390837,26.8072728 L2.24893958,29.1594538 C1.35619344,29.3673561 0.452877493,28.8612578 0.23009762,28.0288894 C0.00731753846,27.196521 0.549632353,26.3535297 1.4423785,26.1456272 Z" id="Path"></path>
                        <path d="M3.55960114,9.38520117 C4.0937854,8.68713462 5.13369616,8.52627581 5.88171652,9.02478652 L14.8270645,14.987944 C15.5758979,15.4864545 15.7490808,16.4569188 15.2148967,17.1549853 C14.6807127,17.8530519 13.6408017,18.0146696 12.8927813,17.5154002 L3.94743359,11.5522425 C3.19860022,11.053732 3.02541709,10.0832677 3.55960114,9.38520117 Z" id="Path"></path>
                        <path d="M18.4728507,0.059184 C19.3639706,-0.153271036 20.2705388,0.348274554 20.4981972,1.17988427 L23.0788673,10.5999887 C23.3065257,11.4315984 22.7690894,12.2783836 21.8779695,12.4908387 C20.9868495,12.7032937 20.0802813,12.2009892 19.852623,11.3701382 L17.2719528,1.95003363 C17.0442945,1.11842391 17.5817308,0.271639036 18.4728507,0.059184 Z" id="Path"></path>
                    </g>
                </g>
                <g id="Group-23" transform="translate(1211.000000, 164.000000)">
                    <text id="Aliquam-egestas-null" font-family="Helvetica" font-size="12" font-weight="normal" letter-spacing="0.6666667" fill="#7A7A7A">
                        <tspan x="2" y="45">Aliquam egestas </tspan>
                        <tspan x="2" y="59">nulla et lectus </tspan>
                        <tspan x="2" y="73">imperdiet </tspan>
                        <tspan x="2" y="87">ullamcorper.</tspan>
                    </text>
                    <text id="Success" font-family="Helvetica-Bold, Helvetica" font-size="22" font-weight="bold" fill="#C00B6C">
                        <tspan x="0.35546875" y="21">Success</tspan>
                    </text>
                </g>
            </g>
        </g>
    </g>
</svg>