<?xml version="1.0" encoding="UTF-8"?>
<svg width="18px" height="19px" viewBox="0 0 18 19" version="1.1" xmlns="http://www.w3.org/2000/svg" xmlns:xlink="http://www.w3.org/1999/xlink">
    <!-- Generator: Sketch 53 (72520) - https://sketchapp.com -->
    <title>BQ icon off</title>
    <desc>Created with Sketch.</desc>
    <g id="Project" stroke="none" stroke-width="1" fill="none" fill-rule="evenodd">
        <path d="M12.2727273,12.5337273 L0,12.5337273 L0,14.1700909 L12.2727273,14.1700909 L12.2727273,12.5337273 L12.2727273,12.5337273 Z M12.2727273,4.35190909 L0,4.35190909 L0,5.98827273 L12.2727273,5.98827273 L12.2727273,4.35190909 L12.2727273,4.35190909 Z M0,10.0791818 L18,10.0791818 L18,8.44281818 L0,8.44281818 L0,10.0791818 L0,10.0791818 Z M0,18.261 L18,18.261 L18,16.6246364 L0,16.6246364 L0,18.261 L0,18.261 Z M0,0.261 L0,1.89736364 L18,1.89736364 L18,0.261 L0,0.261 L0,0.261 Z" id="BQ-icon-off" fill="#ABABAB"></path>
    </g>
</svg>