<svg id="Capa_1" enable-background="new 0 0 512 512" height="512" viewBox="0 0 512 512" width="512" xmlns="http://www.w3.org/2000/svg"><g><g><g><g><path d="m491.531 504.105h-197.25c-11.304 0-20.468-9.164-20.468-20.468v-359.692c0-11.304 9.164-20.468 20.468-20.468h197.25c11.304 0 20.468 9.164 20.468 20.468v359.692c.001 11.304-9.163 20.468-20.468 20.468z" fill="#d8ecfe"/></g><g><path d="m512 123.949v359.693c0 11.302-9.159 20.461-20.472 20.461h-20.606c11.313 0 20.472-9.159 20.472-20.461v-359.693c0-11.313-9.159-20.472-20.472-20.472h20.606c11.313 0 20.472 9.159 20.472 20.472z" fill="#c4e2ff"/></g><g><path d="m491.531 504.105h-197.25c-11.304 0-20.468-9.164-20.468-20.468v-29.873h238.187v29.873c0 11.304-9.164 20.468-20.469 20.468z" fill="#5a5a5a"/></g><g><path d="m512 453.763v29.878c0 11.302-9.159 20.461-20.472 20.461h-20.606c11.313 0 20.472-9.159 20.472-20.461v-29.878z" fill="#444"/></g><g><path d="m340.57 103.477 5.09 22.474c1.051 4.639 5.173 7.933 9.93 7.933h74.634c4.757 0 8.88-3.294 9.93-7.933l5.09-22.474z" fill="#5a5a5a"/></g><g><path d="m445.248 103.477-5.09 22.47c-1.051 4.647-5.182 7.933-9.932 7.933h-22.141c4.76 0 8.881-3.287 9.932-7.933l5.09-22.47z" fill="#444"/></g><g><path d="m401.255 486.435h-16.696c-4.142 0-7.5-3.358-7.5-7.5s3.358-7.5 7.5-7.5h16.696c4.142 0 7.5 3.358 7.5 7.5s-3.358 7.5-7.5 7.5z" fill="#333"/></g></g><g><g><circle cx="392.907" cy="278.621" fill="#e94444" r="84.798"/></g><g><path d="m477.701 278.625c0 46.826-37.966 84.792-84.792 84.792-18.154 0-34.978-5.708-48.774-15.423 9.582 3.75 20.008 5.811 30.919 5.811 46.826 0 84.792-37.966 84.792-84.803 0-28.673-14.239-54.028-36.029-69.369 31.547 12.364 53.884 43.066 53.884 78.992z" fill="#d83131"/></g></g><g><path d="m418.912 282.31-3.563-3.563 15.661-15.34c6.242-6.242 6.242-16.361 0-22.603-6.242-6.242-16.361-6.242-22.603 0l-15.501 15.5-15.501-15.5c-6.242-6.242-16.361-6.242-22.603 0-6.242 6.242-6.242 16.361 0 22.603l15.661 15.34-3.563 3.563-12.194 12.159c-6.084 6.067-6.118 15.911-.077 22.019 6.039 6.106 15.876 6.184 22.011.175l16.265-15.932 16.265 15.932c6.135 6.009 15.972 5.931 22.011-.175 6.042-6.109 6.008-15.953-.077-22.019z" fill="#e2e2e2"/></g><g><path d="m431.179 316.488c-5.234 5.296-13.322 6.058-19.369 2.256.093-.072.185-.165.278-.258 6.357-6.429 6.326-16.794-.082-23.181l-12.837-12.796c-2.066-2.071-2.046-5.43.044-7.477l12.69-12.428c6.573-6.573 6.573-17.226 0-23.8-.134-.134-.278-.278-.422-.402 2.524-1.525 5.378-2.287 8.232-2.287 4.09 0 8.18 1.566 11.302 4.688 6.233 6.243 6.233 16.361 0 22.604l-15.66 15.341 3.554 3.565 12.199 12.157c6.078 6.069 6.119 15.909.071 22.018z" fill="#cecece"/></g><path d="m415.679 9.259c-3.471-2.259-8.117-1.277-10.377 2.194l-12.328 18.937-12.468-19.094c-2.265-3.469-6.912-4.444-10.38-2.179s-4.444 6.912-2.179 10.38l17.532 26.849-.068 27.755c-.01 4.142 3.339 7.508 7.481 7.518h.019c4.133 0 7.489-3.346 7.5-7.481l.068-27.781 17.394-26.72c2.259-3.473 1.277-8.119-2.194-10.378z" fill="#5a5a5a"/></g><g><g><g><path d="m217.718 504.105h-197.25c-11.304 0-20.468-9.164-20.468-20.468v-359.692c0-11.304 9.164-20.468 20.468-20.468h197.25c11.304 0 20.468 9.164 20.468 20.468v359.692c0 11.304-9.164 20.468-20.468 20.468z" fill="#d8ecfe"/></g><g><path d="m238.186 123.949v359.693c0 11.302-9.159 20.461-20.472 20.461h-20.606c11.313 0 20.472-9.159 20.472-20.461v-359.693c0-11.313-9.159-20.472-20.472-20.472h20.606c11.313 0 20.472 9.159 20.472 20.472z" fill="#c4e2ff"/></g><g><path d="m217.718 504.105h-197.25c-11.304 0-20.468-9.164-20.468-20.468v-29.873h238.186v29.873c0 11.304-9.164 20.468-20.468 20.468z" fill="#5a5a5a"/></g><g><path d="m238.186 453.763v29.878c0 11.302-9.159 20.461-20.472 20.461h-20.606c11.313 0 20.472-9.159 20.472-20.461v-29.878z" fill="#444"/></g><g><path d="m66.756 103.477 5.09 22.474c1.051 4.639 5.174 7.933 9.93 7.933h74.634c4.757 0 8.88-3.294 9.93-7.933l5.09-22.474z" fill="#5a5a5a"/></g><g><path d="m171.434 103.477-5.09 22.47c-1.051 4.647-5.182 7.933-9.932 7.933h-22.141c4.76 0 8.881-3.287 9.932-7.933l5.09-22.47z" fill="#444"/></g><g><path d="m127.441 486.435h-16.697c-4.142 0-7.5-3.358-7.5-7.5s3.358-7.5 7.5-7.5h16.697c4.142 0 7.5 3.358 7.5 7.5s-3.358 7.5-7.5 7.5z" fill="#333"/></g></g><g><circle cx="125.214" cy="278.621" fill="#97d729" r="84.798"/></g><g><path d="m210.008 278.625c0 46.826-37.966 84.792-84.792 84.792-18.154 0-34.978-5.708-48.774-15.423 9.582 3.75 20.008 5.811 30.919 5.811 46.826 0 84.792-37.966 84.792-84.803 0-28.673-14.239-54.028-36.029-69.369 31.547 12.364 53.884 43.066 53.884 78.992z" fill="#8bc727"/></g><g><path d="m149.668 242.772-37.64 37.639c-.326.326-.855.326-1.182 0l-10.086-10.086c-5.66-5.66-14.837-5.66-20.497 0-5.66 5.66-5.66 14.837 0 20.497l25.571 25.571c3.094 3.094 8.11 3.094 11.204 0l53.127-53.124c5.66-5.66 5.66-14.837 0-20.497-5.66-5.66-14.837-5.66-20.497 0z" fill="#e2e2e2"/></g><g><path d="m170.167 263.274-53.132 53.121c-3.091 3.091-8.108 3.091-11.199 0l-7.13-7.13c2.658.546 5.522-.216 7.583-2.277l55.944-56.13c2.926-2.936 4.42-6.779 4.471-10.643 1.247.659 2.411 1.514 3.462 2.555 5.657 5.658 5.657 14.837.001 20.504z" fill="#cecece"/></g><path d="m147.365 69.803-19.084-27.128 16.174-22.959c2.385-3.386 1.574-8.065-1.812-10.451-3.386-2.385-8.065-1.574-10.451 1.812l-13.079 18.566-13.058-18.562c-2.383-3.388-7.062-4.201-10.45-1.819-3.388 2.383-4.202 7.062-1.819 10.45l16.15 22.958-19.113 27.13c-2.386 3.386-1.574 8.065 1.812 10.451 1.313.925 2.82 1.369 4.313 1.369 2.357 0 4.677-1.108 6.138-3.181l16.018-22.737 15.992 22.733c1.46 2.076 3.782 3.185 6.141 3.185 1.491 0 2.997-.443 4.309-1.366 3.388-2.384 4.202-7.063 1.819-10.451z" fill="#5a5a5a"/></g></g></svg>