<?xml version="1.0" encoding="UTF-8"?>
<svg width="53px" height="54px" viewBox="0 0 53 54" version="1.1" xmlns="http://www.w3.org/2000/svg" xmlns:xlink="http://www.w3.org/1999/xlink">
    <!-- Generator: Sketch 53 (72520) - https://sketchapp.com -->
    <title>Inventory Icon</title>
    <desc>Created with Sketch.</desc>
    <g id="Menu-Drawer" stroke="none" stroke-width="1" fill="none" fill-rule="evenodd">
        <g id="MENU" transform="translate(-1125.000000, -1139.000000)" fill-rule="nonzero">
            <g id="Inventory-Icon" transform="translate(1125.000000, 1139.000000)">
                <path d="M35.89,1.08 L35.59,20.82 L17.37,20.54 L17.67,0.8 L22.23,0.87 C23.07,0.88 23.74,1.57 23.73,2.41 L23.64,8.48 L29.71,8.57 L29.8,2.5 C29.81,1.66 30.5,0.99 31.34,1 L35.89,1.08 Z" id="Path" fill="#EA7DC9"></path>
                <path d="M35.89,1.08 L35.59,20.82 L26.48,20.68 L26.67,8.53 L29.71,8.58 L29.8,2.51 C29.81,1.67 30.5,1 31.34,1.01 L35.89,1.08 Z" id="Path" fill="#B2328B"></path>
                <polygon id="Path" fill="#D85BB8" points="22.22 0.87 31.33 1.01 31.19 10.12 22.08 9.98"></polygon>
                <polygon id="Path" fill="#C441AB" points="26.78 0.94 31.34 1.01 31.2 10.12 26.64 10.05"></polygon>
                <path d="M40.93,19.39 C40.09,19.38 39.4,20.05 39.39,20.89 L39.3,26.96 L33.23,26.87 L33.32,20.8 C33.33,19.96 32.66,19.27 31.82,19.26 L21.19,19.1 C20.35,19.09 19.66,19.76 19.65,20.6 L19.56,26.67 L13.49,26.58 L13.58,20.51 C13.59,19.67 12.92,18.98 12.08,18.97 L5.25,18.86 L4.95,38.6 L47.47,39.25 L47.77,19.51 L40.93,19.39 Z" id="Path" fill="#CC3E99"></path>
                <path d="M47.76,19.49 L47.46,39.23 L26.2,38.9 L26.5,19.16 L31.82,19.24 C32.66,19.25 33.33,19.94 33.32,20.78 L33.23,26.85 L39.3,26.94 L39.39,20.87 C39.4,20.03 40.09,19.36 40.93,19.37 L47.76,19.49 Z" id="Path" fill="#7B2A86"></path>
                <polygon id="Path" fill="#EA7DC9" points="12.02 18.94 21.13 19.08 20.99 28.19 11.88 28.05"></polygon>
                <polygon id="Path" fill="#CC3E99" points="31.76 19.25 40.87 19.39 40.73 28.5 31.62 28.36"></polygon>
                <polygon id="Path" fill="#FF2C5C" points="4.96 37.06 47.48 37.71 47.39 43.78 4.87 43.13"></polygon>
                <polygon id="Path" fill="#E62753" points="26.22 37.39 47.48 37.72 47.39 43.79 26.13 43.46"></polygon>
                <polygon id="Path" fill="#FFB64C" points="6.24 52.47 0.06 52.37 0.86 0.54 7.04 0.64"></polygon>
                <polygon id="Path" fill="#FFB64C" points="51.9 53.18 45.72 53.08 46.52 1.25 52.7 1.35"></polygon>
            </g>
        </g>
    </g>
</svg>