<?xml version="1.0" encoding="UTF-8"?>
<svg width="25px" height="18px" viewBox="0 0 25 18" version="1.1" xmlns="http://www.w3.org/2000/svg" xmlns:xlink="http://www.w3.org/1999/xlink">
    <!-- Generator: Sketch 53 (72520) - https://sketchapp.com -->
    <title>Ongoing Budget icon ON</title>
    <desc>Created with Sketch.</desc>
    <g id="Project" stroke="none" stroke-width="1" fill="none" fill-rule="evenodd">
        <path d="M15.6363636,1 C11.0154545,1 7.27272727,4.58 7.27272727,9 C7.27272727,13.42 11.0154545,17 15.6363636,17 C20.2572727,17 24,13.42 24,9 C24,4.58 20.2572727,1 15.6363636,1 L15.6363636,1 Z M15.6363636,15 C12.1759091,15 9.36363636,12.31 9.36363636,9 C9.36363636,5.69 12.1759091,3 15.6363636,3 C19.0968182,3 21.9090909,5.69 21.9090909,9 C21.9090909,12.31 19.0968182,15 15.6363636,15 L15.6363636,15 Z M3.09090909,9 C3.09090909,6.39 4.83681818,4.17 7.27272727,3.35 L7.27272727,1.26 C3.66590909,2.15 1,5.27 1,9 C1,12.73 3.66590909,15.85 7.27272727,16.74 L7.27272727,14.65 C4.83681818,13.83 3.09090909,11.61 3.09090909,9 L3.09090909,9 Z" id="Ongoing-Budget-icon-ON" stroke="#DA3B40" fill="#FF5A5F"></path>
    </g>
</svg>