<?xml version="1.0" encoding="UTF-8"?>
<svg width="57px" height="59px" viewBox="0 0 57 59" version="1.1" xmlns="http://www.w3.org/2000/svg" xmlns:xlink="http://www.w3.org/1999/xlink">
    <!-- Generator: Sketch 53 (72520) - https://sketchapp.com -->
    <title>Payment Certificate Icon</title>
    <desc>Created with Sketch.</desc>
    <g id="Menu-Drawer" stroke="none" stroke-width="1" fill="none" fill-rule="evenodd">
        <g id="MENU" transform="translate(-1359.000000, -995.000000)" fill-rule="nonzero">
            <g id="Payment-Certificate-Icon" transform="translate(1359.000000, 995.000000)">
                <path d="M4.42,0.76 L40.42,0.76 C42.63,0.76 44.42,2.55 44.42,4.76 L44.42,54.76 C44.42,56.97 42.63,58.76 40.42,58.76 L4.42,58.76 C2.21,58.76 0.42,56.97 0.42,54.76 L0.42,4.76 C0.42,2.55 2.21,0.76 4.42,0.76 Z" id="Path" fill="#EDEEF2"></path>
                <polygon id="Path" fill="#7B2A86" points="56.15 11.65 54.15 15.12 50.69 13.12 52.69 9.65"></polygon>
                <polygon id="Path" fill="#CC3E99" points="50.42 17.58 53.88 19.58 44.42 35.97 39.88 43.83 32.96 39.83 44.42 19.99 46.96 15.58"></polygon>
                <path d="M50.69,13.12 L54.15,15.12 L55.02,15.62 C55.25,15.75 55.42,15.97 55.48,16.23 C55.55,16.49 55.51,16.76 55.38,16.99 L53.88,19.58 L46.96,15.58 L48.46,12.99 C48.59,12.76 48.81,12.59 49.06,12.52 C49.32,12.45 49.59,12.49 49.82,12.62 L50.69,13.12 Z" id="Path" fill="#B2328B"></path>
                <polygon id="Path" fill="#FFC477" points="10.42 38.76 18.42 38.76 18.42 45.76 10.42 45.76"></polygon>
                <polygon id="Path" fill="#CC3E99" points="20.42 38.76 8.42 38.76 14.42 33.76"></polygon>
                <polygon id="Path" fill="#FF6243" points="37.42 0.76 37.42 10.76 34.42 7.76 31.42 10.76 31.42 0.76"></polygon>
                <polygon id="Path" fill="#CAD3D5" points="7.42 8.76 11.42 8.76 11.42 10.76 7.42 10.76"></polygon>
                <polygon id="Path" fill="#CAD3D5" points="13.42 8.76 23.42 8.76 23.42 10.76 13.42 10.76"></polygon>
                <polygon id="Path" fill="#CAD3D5" points="7.42 12.76 23.42 12.76 23.42 14.76 7.42 14.76"></polygon>
                <polygon id="Path" fill="#CAD3D5" points="7.42 20.76 25.42 20.76 25.42 22.76 7.42 22.76"></polygon>
                <g id="Group" transform="translate(7.000000, 20.000000)" fill="#CAD3D5">
                    <polygon id="Path" points="20.42 0.76 24.42 0.76 24.42 2.76 20.42 2.76"></polygon>
                    <polygon id="Path" points="26.42 0.76 30.42 0.76 30.42 2.76 26.42 2.76"></polygon>
                    <polygon id="Path" points="0.42 4.76 30.42 4.76 30.42 6.76 0.42 6.76"></polygon>
                </g>
                <polygon id="Path" fill="#CAD3D5" points="7.42 28.76 19.42 28.76 19.42 30.76 7.42 30.76"></polygon>
                <path d="M32.42,49.76 C32.06,49.76 31.73,49.57 31.55,49.26 C31.37,48.95 31.37,48.57 31.55,48.26 L33.55,44.8 C33.73,44.49 34.06,44.3 34.42,44.29 C34.78,44.28 35.11,44.48 35.29,44.79 C35.47,45.1 35.47,45.48 35.29,45.79 L33.29,49.25 C33.1,49.57 32.77,49.76 32.42,49.76 Z" id="Path" fill="#57565C"></path>
                <polygon id="Path" fill="#C6C5CA" points="45.55 24.01 49.55 17.08 51.28 18.08 47.28 25.01"></polygon>
                <path d="M29.42,51.12 C28.75,51.13 28.08,50.98 27.49,50.66 C26.82,50.31 26.02,50.31 25.36,50.66 C24.14,51.27 22.71,51.27 21.49,50.66 C21.17,50.48 20.8,50.39 20.43,50.4 L20.43,48.4 C21.1,48.39 21.77,48.54 22.36,48.86 C23.03,49.21 23.83,49.21 24.49,48.86 C25.71,48.25 27.14,48.25 28.36,48.86 C28.69,49.04 29.05,49.13 29.43,49.12 L29.43,51.12 L29.42,51.12 Z" id="Path" fill="#CAD3D5"></path>
                <polygon id="Path" fill="#B2328B" points="39.88 43.83 35.29 45.8 33.55 44.8 32.96 39.83"></polygon>
                <polygon id="Path" fill="#898890" points="46.45 16.45 47.45 14.72 54.38 18.72 53.38 20.45"></polygon>
            </g>
        </g>
    </g>
</svg>