<?xml version="1.0" encoding="UTF-8"?>
<svg width="57px" height="57px" viewBox="0 0 57 57" version="1.1" xmlns="http://www.w3.org/2000/svg" xmlns:xlink="http://www.w3.org/1999/xlink">
    <!-- Generator: Sketch 53 (72520) - https://sketchapp.com -->
    <title>OnGoing Budget Icon</title>
    <desc>Created with Sketch.</desc>
    <g id="Menu-Drawer" stroke="none" stroke-width="1" fill="none" fill-rule="evenodd">
        <g id="MENU" transform="translate(-1123.000000, -591.000000)">
            <g id="OnGoing-Budget-Icon" transform="translate(1123.000000, 591.000000)">
                <path d="M56,11.61 L46.94,2.08 C46.78,1.91 46.56,1.82 46.34,1.82 L11.91,1.82 C11.44,1.82 11.06,2.22 11.06,2.71 L11.06,55.15 C11.06,55.64 11.44,56.04 11.91,56.04 L55.4,56.04 C55.87,56.04 56.25,55.64 56.25,55.15 L56.25,12.25 C56.25,12.01 56.16,11.78 56,11.61 Z" id="Path_6_" fill="#EDEEF2"></path>
                <path d="M56.24,12.26 C56.23,12.04 56.14,11.83 55.99,11.67 L46.94,2.15 C46.78,1.98 46.57,1.89 46.34,1.89 L46.3,1.89 L46.3,11.37 C46.3,11.86 46.68,12.26 47.15,12.26 L56.24,12.26 L56.24,12.26 Z" id="Path" fill="#CAD3D5"></path>
                <path d="M11.96,1.89 C11.49,1.89 11.11,2.29 11.11,2.78 L11.11,55.14 C11.11,55.63 11.49,56.03 11.96,56.03 L51.74,56.03 L16.47,1.88 L11.96,1.88 L11.96,1.89 Z" id="Path" fill="#CAD3D5"></path>
                <path d="M23.54,0.31 L3.1,0.31 C1.68,0.31 0.52,1.48 0.52,2.91 L0.52,30.85 C0.52,32.28 1.68,33.45 3.1,33.45 L23.54,33.45 C24.96,33.45 26.12,32.28 26.12,30.85 L26.12,2.91 C26.12,1.47 24.96,0.31 23.54,0.31 Z" id="Path" fill="#CBEBF9"></path>
                <path d="M40.43,28.93 C33.37,28.93 27.63,34.67 27.63,41.73 C27.63,48.79 33.37,54.53 40.43,54.53 C47.49,54.53 53.23,48.79 53.23,41.73 C53.23,34.67 47.49,28.93 40.43,28.93 Z" id="Path" fill="#F6CF4A"></path>
                <path d="M42.67,50.55 C35.74,50.55 30.11,44.91 30.11,37.99 C30.11,35.16 31.05,32.54 32.64,30.44 C29.6,32.73 27.63,36.38 27.63,40.47 C27.63,47.4 33.27,53.03 40.19,53.03 C44.28,53.03 47.93,51.06 50.22,48.02 C48.12,49.6 45.5,50.55 42.67,50.55 Z" id="Path" fill="#F1B31C"></path>
                <path d="M42.72,40.93 L41.17,40.89 L41.17,35.76 L44.71,35.76 C45.26,35.76 45.71,35.35 45.71,34.84 C45.71,34.33 45.26,33.92 44.71,33.92 L41.17,33.92 L41.17,32.87 C41.17,32.36 40.72,31.95 40.17,31.95 C39.62,31.95 39.17,32.36 39.17,32.87 L39.17,33.92 L38.17,33.92 C36.51,33.92 35.17,35.16 35.17,36.69 L35.17,39.89 C35.17,41.41 36.51,42.65 38.16,42.66 L39.18,42.69 L39.18,47.71 L36.18,47.71 C35.63,47.71 35.18,48.12 35.18,48.63 C35.18,49.14 35.63,49.55 36.18,49.55 L39.18,49.55 L39.18,50.6 C39.18,51.11 39.63,51.52 40.18,51.52 C40.73,51.52 41.18,51.11 41.18,50.6 L41.18,49.55 L42.71,49.55 C44.37,49.55 45.71,48.31 45.71,46.78 L45.71,43.7 C45.7,42.18 44.36,40.94 42.72,40.93 Z M38.19,40.81 C38.18,40.81 38.17,40.81 38.16,40.81 C37.61,40.81 37.16,40.4 37.16,39.89 L37.16,36.69 C37.16,36.18 37.61,35.77 38.16,35.77 L39.16,35.77 L39.16,40.85 L38.19,40.81 Z M43.7,46.78 C43.7,47.29 43.25,47.7 42.7,47.7 L41.17,47.7 L41.17,42.73 L42.68,42.77 C42.69,42.77 42.7,42.77 42.71,42.77 C43.26,42.77 43.71,43.18 43.71,43.69 L43.71,46.78 L43.7,46.78 Z" id="Shape_6_" fill="#8E2785" fill-rule="nonzero"></path>
                <path d="M22.27,3.32 L4.37,3.32 C3.91,3.32 3.53,3.69 3.53,4.14 L3.53,8.52 C3.53,8.97 3.91,9.34 4.37,9.34 L22.27,9.34 C22.73,9.34 23.11,8.97 23.11,8.52 L23.11,4.14 C23.11,3.69 22.73,3.32 22.27,3.32 Z" id="Path" fill="#F2F2F2"></path>
                <g id="Group" transform="translate(3.000000, 3.000000)" fill="#5BC5ED">
                    <path d="M1.43,0.39 C0.97,0.39 0.6,0.75 0.6,1.2 L0.6,5.49 C0.6,5.93 0.97,6.3 1.43,6.3 L5.05,6.3 L11.17,0.4 L1.43,0.39 L1.43,0.39 Z" id="Path"></path>
                    <path d="M19.24,0.39 L16.12,0.39 L10,6.29 L19.24,6.29 C19.7,6.29 20.07,5.93 20.07,5.49 L20.07,1.2 C20.08,0.75 19.71,0.39 19.24,0.39 Z" id="Path"></path>
                </g>
                <g id="Group" transform="translate(3.000000, 12.000000)" fill="#F9C14F">
                    <path d="M4.99,0.37 L1.43,0.37 C0.97,0.37 0.6,0.74 0.6,1.2 L0.6,4.76 C0.6,5.22 0.97,5.59 1.43,5.59 L4.99,5.59 C5.45,5.59 5.82,5.22 5.82,4.76 L5.82,1.2 C5.83,0.74 5.46,0.37 4.99,0.37 Z" id="Path"></path>
                    <path d="M12.06,0.37 L8.5,0.37 C8.04,0.37 7.67,0.74 7.67,1.2 L7.67,4.76 C7.67,5.22 8.04,5.59 8.5,5.59 L12.06,5.59 C12.52,5.59 12.89,5.22 12.89,4.76 L12.89,1.2 C12.9,0.74 12.53,0.37 12.06,0.37 Z" id="Path"></path>
                    <path d="M4.99,7.49 L1.43,7.49 C0.97,7.49 0.6,7.86 0.6,8.32 L0.6,11.88 C0.6,12.34 0.97,12.71 1.43,12.71 L4.99,12.71 C5.45,12.71 5.82,12.34 5.82,11.88 L5.82,8.32 C5.83,7.86 5.46,7.49 4.99,7.49 Z" id="Path"></path>
                    <path d="M12.06,7.49 L8.5,7.49 C8.04,7.49 7.67,7.86 7.67,8.32 L7.67,11.88 C7.67,12.34 8.04,12.71 8.5,12.71 L12.06,12.71 C12.52,12.71 12.89,12.34 12.89,11.88 L12.89,8.32 C12.9,7.86 12.53,7.49 12.06,7.49 Z" id="Path"></path>
                    <path d="M4.99,14.61 L1.43,14.61 C0.97,14.61 0.6,14.98 0.6,15.44 L0.6,19 C0.6,19.46 0.97,19.83 1.43,19.83 L4.99,19.83 C5.45,19.83 5.82,19.46 5.82,19 L5.82,15.44 C5.83,14.99 5.46,14.61 4.99,14.61 Z" id="Path"></path>
                    <path d="M12.06,14.61 L8.5,14.61 C8.04,14.61 7.67,14.98 7.67,15.44 L7.67,19 C7.67,19.46 8.04,19.83 8.5,19.83 L12.06,19.83 C12.52,19.83 12.89,19.46 12.89,19 L12.89,15.44 C12.9,14.99 12.53,14.61 12.06,14.61 Z" id="Path"></path>
                    <path d="M19.19,0.37 L15.63,0.37 C15.17,0.37 14.8,0.74 14.8,1.2 L14.8,4.76 C14.8,5.22 15.17,5.59 15.63,5.59 L19.19,5.59 C19.65,5.59 20.02,5.22 20.02,4.76 L20.02,1.2 C20.02,0.74 19.65,0.37 19.19,0.37 Z" id="Path"></path>
                </g>
                <path d="M23.65,18.38 L19.55,18.38 C19.02,18.38 18.59,18.79 18.59,19.3 L18.59,31.02 C18.59,31.53 19.02,31.94 19.55,31.94 L23.65,31.94 C24.18,31.94 24.61,31.53 24.61,31.02 L24.61,19.3 C24.62,18.79 24.19,18.38 23.65,18.38 Z" id="Path" fill="#EA6347"></path>
                <path d="M32.89,9.35 C32.68,9.35 32.47,9.27 32.32,9.11 L30.84,7.56 C30.56,7.26 30.58,6.8 30.89,6.53 C31.2,6.26 31.69,6.28 31.97,6.58 L33.45,8.13 C33.73,8.43 33.71,8.89 33.4,9.16 C33.26,9.28 33.07,9.35 32.89,9.35 Z" id="Path" fill="#676767"></path>
                <g id="Group" transform="translate(33.000000, 7.000000)" fill="#64C7CA">
                    <path d="M19.38,15.76 L5.49,1.86 C5.37,1.74 5.21,1.66 5.04,1.62 L1.75,0.96 C1.46,0.9 1.17,0.99 0.96,1.2 C0.75,1.41 0.66,1.7 0.72,1.99 L1.38,5.28 C1.41,5.45 1.5,5.6 1.62,5.73 L15.52,19.63 C16.08,20.19 16.87,20.46 17.65,20.38 C18.35,20.3 18.9,19.95 19.38,19.47 C20.4,18.44 20.4,16.78 19.38,15.76 Z" id="Path"></path>
                    <polygon id="Rectangle_3_" points="11.15 15.26 1.62 5.73 5.48 1.86 15.01 11.4"></polygon>
                </g>
                <path d="M33.13,9.36 C32.56,9.25 32.05,9.76 32.16,10.33 L32.78,13.44 C32.81,13.6 32.89,13.75 33.01,13.86 L36.67,10.2 C36.55,10.08 36.41,10.01 36.25,9.97 L33.13,9.36 Z" id="Path" fill="#F6CF4A"></path>
                <path d="M50.83,23.5 L45.72,18.38 L41.19,22.92 L46.3,28.04 C46.94,28.68 47.86,29 48.76,28.91 C49.6,28.83 50.25,28.43 50.84,27.84 C52.03,26.65 52.03,24.7 50.83,23.5 Z" id="Path" fill="#4FA8A8"></path>
                <path d="M50.59,22.9 C50.38,22.9 50.18,22.82 50.02,22.67 C49.7,22.36 49.7,21.85 50.02,21.54 L51.26,20.31 L47.46,16.75 C47.14,16.45 47.12,15.94 47.43,15.62 C47.74,15.3 48.25,15.29 48.57,15.59 L52.98,19.72 C53.14,19.87 53.23,20.07 53.23,20.29 C53.23,20.51 53.15,20.71 52.99,20.86 L51.16,22.67 C51.01,22.82 50.8,22.9 50.59,22.9 Z" id="Path" fill="#676767"></path>
                <g id="Group" transform="translate(15.000000, 39.000000)" fill="#FFFFFF">
                    <path d="M7.18,2.15 L1.51,2.15 C1.04,2.15 0.66,1.79 0.66,1.34 C0.66,0.9 1.04,0.54 1.51,0.54 L7.18,0.54 C7.65,0.54 8.03,0.9 8.03,1.34 C8.04,1.79 7.65,2.15 7.18,2.15 Z" id="Path"></path>
                    <path d="M7.18,6.44 L1.51,6.44 C1.04,6.44 0.66,6.08 0.66,5.63 C0.66,5.18 1.04,4.83 1.51,4.83 L7.18,4.83 C7.65,4.83 8.03,5.19 8.03,5.63 C8.03,6.07 7.65,6.44 7.18,6.44 Z" id="Path"></path>
                </g>
            </g>
        </g>
    </g>
</svg>