<?xml version="1.0" encoding="UTF-8"?>
<svg width="57px" height="58px" viewBox="0 0 57 58" version="1.1" xmlns="http://www.w3.org/2000/svg" xmlns:xlink="http://www.w3.org/1999/xlink">
    <!-- Generator: Sketch 53 (72520) - https://sketchapp.com -->
    <title>Project icon</title>
    <desc>Created with Sketch.</desc>
    <g id="Menu-Drawer" stroke="none" stroke-width="1" fill="none" fill-rule="evenodd">
        <g id="MENU" transform="translate(-1359.000000, -334.000000)">
            <g id="Project-icon" transform="translate(1359.000000, 334.000000)">
                <g id="Profile-Edit_7_">
                    <g id="Group-7_7_">
                        <g id="Group">
                            <g id="Path_7_" transform="translate(1.000000, 22.000000)" fill="#D33D27">
                                <polygon id="Path" points="0.63 0.32 6.1 0.32 6.1 7.15 0.63 7.15"></polygon>
                            </g>
                            <g transform="translate(49.000000, 23.000000)" fill="#A5ADB9" id="Path">
                                <polygon points="0.46 0.68 3.2 0.68 3.2 17.08 0.46 17.08"></polygon>
                            </g>
                            <g transform="translate(42.000000, 23.000000)" fill="#A5ADB9" id="Path">
                                <polygon points="0.63 0.68 3.36 0.68 3.36 17.08 0.63 17.08"></polygon>
                            </g>
                            <g transform="translate(42.000000, 20.000000)" fill="#A02484" id="Path">
                                <polygon points="0.63 0.95 12.93 0.95 12.93 5.05 0.63 5.05"></polygon>
                            </g>
                            <g fill="#A5ADB9" id="Path">
                                <path d="M54.32,14.12 L20.37,2.37 L1.24,14.03 L0.26,12.47 L19.76,0.58 C20,0.43 20.29,0.4 20.56,0.49 L54.93,12.38 L54.32,14.12 Z"></path>
                            </g>
                            <g transform="translate(18.000000, 0.000000)" fill="#4D4C4D" id="Path">
                                <path d="M5.19,12.75 L3.45,5.16 L1.71,12.75 L0.03,12.36 L2.61,1.12 C2.7,0.73 3.05,0.45 3.45,0.45 C3.85,0.45 4.2,0.73 4.29,1.12 L6.87,12.36 L5.19,12.75 Z"></path>
                            </g>
                            <g transform="translate(45.000000, 37.000000)" fill="#DA9D42" id="Path">
                                <polygon points="2.07 9.92 5.49 9.92 7.2 4.18 3.78 0.35 0.36 4.18"></polygon>
                            </g>
                            <g transform="translate(46.000000, 40.000000)" fill="#FDD891" id="Path">
                                <path d="M2.1,2.82 C2.01,2.82 1.93,2.81 1.84,2.79 C1.75,2.78 1.66,2.75 1.58,2.71 C1.49,2.68 1.41,2.64 1.33,2.59 L1.13,2.43 C0.6,1.89 0.6,1.02 1.13,0.48 L1.33,0.32 C1.41,0.27 1.49,0.23 1.58,0.2 C1.66,0.16 1.75,0.13 1.84,0.12 C2.01,0.09 2.19,0.09 2.36,0.12 C2.45,0.13 2.54,0.16 2.62,0.2 C2.7,0.23 2.78,0.27 2.85,0.32 C2.93,0.37 3,0.43 3.07,0.48 C3.6,1.02 3.6,1.88 3.07,2.43 C3,2.48 2.93,2.54 2.85,2.59 C2.78,2.64 2.7,2.69 2.62,2.71 C2.54,2.75 2.45,2.78 2.36,2.79 C2.27,2.81 2.18,2.81 2.1,2.82 Z"></path>
                            </g>
                            <g id="Group_7_" transform="translate(0.000000, 12.000000)" fill="#4D4C4D">
                                <g id="Shape_7_" fill-rule="nonzero">
                                    <path d="M55.25,10.04 L1.2,10.04 C0.69,10.04 0.27,9.62 0.27,9.11 L0.27,1.68 C0.27,1.17 0.69,0.75 1.2,0.75 L55.25,0.75 C55.76,0.75 56.18,1.17 56.18,1.68 L56.18,9.11 C56.18,9.63 55.77,10.04 55.25,10.04 Z M2.13,8.19 L54.32,8.19 L54.32,2.61 L2.13,2.61 L2.13,8.19 Z" id="Shape"></path>
                                </g>
                                <g id="Group" transform="translate(17.000000, 10.000000)" fill-rule="nonzero">
                                    <path d="M8.43,31.64 L0.97,31.64 C0.46,31.64 0.04,31.22 0.04,30.71 L0.04,0.98 C0.04,0.47 0.46,0.05 0.97,0.05 L8.43,0.05 C8.94,0.05 9.36,0.47 9.36,0.98 L9.36,30.71 C9.36,31.22 8.94,31.64 8.43,31.64 Z M1.9,29.78 L7.49,29.78 L7.49,1.9 L1.9,1.9 L1.9,29.78 Z" id="Shape"></path>
                                </g>
                                <g id="Group" transform="translate(17.000000, 10.000000)">
                                    <path d="M1.63,31.36 L0.31,30.05 L6.17,24.2 L0.96,24.2 C0.58,24.2 0.24,23.97 0.1,23.63 C-0.04,23.28 0.04,22.88 0.3,22.62 L6.16,16.77 L0.95,16.77 C0.57,16.77 0.23,16.54 0.09,16.2 C-0.05,15.85 0.03,15.45 0.29,15.19 L6.15,9.34 L0.94,9.34 C0.56,9.34 0.22,9.11 0.08,8.77 C-0.06,8.42 0.02,8.02 0.28,7.76 L7.74,0.33 L9.06,1.64 L3.2,7.49 L8.41,7.49 C8.79,7.49 9.13,7.72 9.27,8.06 C9.41,8.41 9.33,8.81 9.07,9.07 L3.21,14.92 L8.42,14.92 C8.8,14.92 9.14,15.15 9.28,15.49 C9.42,15.84 9.34,16.24 9.08,16.5 L3.22,22.35 L8.43,22.35 C8.81,22.35 9.15,22.58 9.29,22.92 C9.43,23.27 9.35,23.67 9.09,23.93 L1.63,31.36 Z" id="Path"></path>
                                </g>
                            </g>
                            <g transform="translate(45.000000, 46.000000)" fill="#F9C14F" id="Path">
                                <path d="M3.1,7.75 C1.77,7.75 0.63,6.85 0.41,5.62 C0.18,4.39 0.94,3.19 2.19,2.77 L2.19,0.92 L4.01,0.92 L4.01,3.48 C4.01,3.95 3.6,4.33 3.1,4.33 C2.6,4.33 2.19,4.71 2.19,5.18 C2.19,5.65 2.6,6.03 3.1,6.03 C3.6,6.03 4.01,5.65 4.01,5.18 L5.83,5.18 C5.83,6.6 4.61,7.75 3.1,7.75 Z"></path>
                            </g>
                            <g transform="translate(15.000000, 52.000000)" fill="#D33D27" id="Path">
                                <polygon points="0.3 0.38 12.6 0.38 12.6 4.48 0.3 4.48"></polygon>
                            </g>
                            <g transform="translate(0.000000, 55.000000)" fill="#A02484" id="Path">
                                <polygon points="0.26 0.12 56.3 0.12 56.3 2.85 0.26 2.85"></polygon>
                            </g>
                            <g transform="translate(0.000000, 12.000000)" fill="#4D4C4D" id="Path">
                                <path d="M8.33,10.32 C7.82,10.32 7.4,9.89 7.4,9.36 L7.4,4.02 L1.57,10.04 L0.26,8.69 L7.67,1.04 C7.94,0.77 8.33,0.68 8.68,0.83 C9.03,0.98 9.25,1.33 9.25,1.71 L9.25,7.05 L15.08,1.03 C15.35,0.76 15.74,0.67 16.09,0.82 C16.44,0.97 16.66,1.32 16.66,1.7 L16.66,9.35 L14.81,9.35 L14.81,4.01 L8.98,10.03 C8.81,10.22 8.57,10.32 8.33,10.32 Z"></path>
                            </g>
                            <g transform="translate(24.000000, 12.000000)" fill="#4D4C4D" id="Path">
                                <path d="M24.18,10.32 C23.67,10.32 23.25,9.89 23.25,9.36 L23.25,4.02 L17.38,10.04 C17.11,10.31 16.71,10.4 16.36,10.25 C16.01,10.1 15.78,9.75 15.78,9.37 L15.78,4.03 L9.91,10.05 C9.64,10.32 9.24,10.41 8.89,10.26 C8.54,10.11 8.31,9.76 8.31,9.38 L8.31,4.04 L2.44,10.06 C2.17,10.33 1.77,10.42 1.42,10.27 C1.07,10.12 0.84,9.77 0.84,9.39 L0.84,1.74 L2.71,1.74 L2.71,7.08 L8.58,1.06 C8.85,0.79 9.25,0.7 9.6,0.85 C9.95,1 10.18,1.35 10.18,1.73 L10.18,7.07 L16.05,1.05 C16.32,0.78 16.72,0.69 17.07,0.84 C17.42,0.99 17.65,1.34 17.65,1.72 L17.65,7.06 L23.52,1.04 C23.79,0.77 24.19,0.68 24.54,0.83 C24.89,0.98 25.12,1.33 25.12,1.71 L25.12,7.05 L30.99,1.03 L32.31,2.38 L24.85,10.03 C24.66,10.22 24.43,10.32 24.18,10.32 Z"></path>
                            </g>
                            <g transform="translate(15.000000, 11.000000)" fill="#F9C14F" id="Path">
                                <path d="M0.3,12.68 L12.6,12.68 L12.6,8.58 C12.6,4.05 8.93,0.38 4.4,0.38 L0.3,0.38 L0.3,12.68 Z"></path>
                            </g>
                            <g transform="translate(20.000000, 12.000000)" fill="#69C8CA" id="Path">
                                <path d="M7.6,7.58 L0.77,7.58 L0.77,0.75 C4.54,0.75 7.6,3.81 7.6,7.58 Z"></path>
                            </g>
                        </g>
                    </g>
                </g>
            </g>
        </g>
    </g>
</svg>