<?xml version="1.0" encoding="UTF-8"?>
<svg width="52px" height="52px" viewBox="0 0 52 52" version="1.1" xmlns="http://www.w3.org/2000/svg" xmlns:xlink="http://www.w3.org/1999/xlink">
    <!-- Generator: Sketch 53 (72520) - https://sketchapp.com -->
    <title>Reports Icon</title>
    <desc>Created with Sketch.</desc>
    <g id="Menu-Drawer" stroke="none" stroke-width="1" fill="none" fill-rule="evenodd">
        <g id="MENU" transform="translate(-1249.000000, -1140.000000)" fill-rule="nonzero">
            <g id="Reports-Icon" transform="translate(1249.000000, 1140.000000)">
                <path d="M50.92,37.88 L50.92,37.88 C50.32,38.48 49.34,38.48 48.73,37.88 L38.6,27.75 L40.79,25.56 L50.92,35.69 C51.52,36.29 51.52,37.27 50.92,37.88 Z" id="Path" fill="#484B63"></path>
                <path d="M32.22,51.46 L0.57,51.46 C0.35,51.46 0.17,51.28 0.17,51.06 L0.17,6.33 C0.17,6.11 0.35,5.93 0.57,5.93 L32.22,5.93 C32.44,5.93 32.62,6.11 32.62,6.33 L32.62,51.06 C32.62,51.28 32.44,51.46 32.22,51.46 Z" id="Path" fill="#EDEEF2"></path>
                <path d="M9.3,47.88 L3.92,47.88 C3.7,47.88 3.52,47.7 3.52,47.48 L3.52,31.59 C3.52,31.37 3.7,31.19 3.92,31.19 L9.3,31.19 C9.52,31.19 9.7,31.37 9.7,31.59 L9.7,47.48 C9.7,47.7 9.52,47.88 9.3,47.88 Z" id="Path" fill="#FF2C5C"></path>
                <path d="M18.98,47.88 L13.6,47.88 C13.38,47.88 13.2,47.7 13.2,47.48 L13.2,25.41 C13.2,25.19 13.38,25.01 13.6,25.01 L18.98,25.01 C19.2,25.01 19.38,25.19 19.38,25.41 L19.38,47.48 C19.38,47.7 19.2,47.88 18.98,47.88 Z" id="Path" fill="#CC3E99"></path>
                <path d="M28.87,47.88 L23.49,47.88 C23.27,47.88 23.09,47.7 23.09,47.48 L23.09,27.68 C23.09,27.46 23.27,27.28 23.49,27.28 L28.87,27.28 C29.09,27.28 29.27,27.46 29.27,27.68 L29.27,47.48 C29.27,47.7 29.09,47.88 28.87,47.88 Z" id="Path" fill="#FFB64C"></path>
                <path d="M6.61,31.19 L6.61,47.88 L9.3,47.88 C9.52,47.88 9.7,47.7 9.7,47.48 L9.7,31.59 C9.7,31.37 9.52,31.19 9.3,31.19 L6.61,31.19 L6.61,31.19 Z" id="Path" fill="#E62753"></path>
                <path d="M16.29,25.01 L16.29,47.88 L18.98,47.88 C19.2,47.88 19.38,47.7 19.38,47.48 L19.38,25.41 C19.38,25.19 19.2,25.01 18.98,25.01 L16.29,25.01 Z" id="Path" fill="#7B2A86"></path>
                <path d="M26.18,27.28 L26.18,47.88 L28.87,47.88 C29.09,47.88 29.27,47.7 29.27,47.48 L29.27,27.68 C29.27,27.46 29.09,27.28 28.87,27.28 L26.18,27.28 L26.18,27.28 Z" id="Path" fill="#FF9100"></path>
                <g id="Group" transform="translate(4.000000, 9.000000)" fill="#50536E">
                    <path d="M0.75,1.82 L23.41,1.82 C23.82,1.82 24.16,1.48 24.16,1.07 C24.16,0.66 23.82,0.32 23.41,0.32 L0.75,0.32 C0.34,0.32 2.84217094e-14,0.66 2.84217094e-14,1.07 C0,1.49 0.34,1.82 0.75,1.82 Z" id="Path"></path>
                    <path d="M23.42,3.75 L0.76,3.75 C0.35,3.75 0.01,4.09 0.01,4.5 C0.01,4.91 0.35,5.25 0.76,5.25 L23.42,5.25 C23.83,5.25 24.17,4.91 24.17,4.5 C24.17,4.09 23.83,3.75 23.42,3.75 Z" id="Path"></path>
                    <path d="M23.42,7.19 L0.76,7.19 C0.35,7.19 0.01,7.53 0.01,7.94 C0.01,8.35 0.35,8.69 0.76,8.69 L23.42,8.69 C23.83,8.69 24.17,8.35 24.17,7.94 C24.17,7.53 23.83,7.19 23.42,7.19 Z" id="Path"></path>
                    <path d="M6.53,10.62 L0.75,10.62 C0.34,10.62 -2.84217094e-14,10.96 -2.84217094e-14,11.37 C-2.84217094e-14,11.78 0.34,12.12 0.75,12.12 L6.53,12.12 C6.94,12.12 7.28,11.78 7.28,11.37 C7.28,10.96 6.94,10.62 6.53,10.62 Z" id="Path"></path>
                </g>
                <circle id="Oval" fill="#50536E" cx="29.88" cy="16.64" r="16.38"></circle>
                <path d="M39.28,26.04 C34.1,31.22 25.67,31.22 20.49,26.04 C15.31,20.86 15.31,12.43 20.49,7.25 C25.67,2.07 34.1,2.07 39.28,7.25 C44.46,12.43 44.46,20.86 39.28,26.04 Z" id="Path" fill="#B5FCFF"></path>
                <path d="M39.28,7.24 C36.3,4.26 32.24,2.99 28.34,3.44 C31.21,3.77 33.99,5.04 36.19,7.24 C41.37,12.42 41.37,20.85 36.19,26.03 C33.99,28.23 31.21,29.49 28.34,29.83 C32.24,30.28 36.3,29.02 39.28,26.03 C44.46,20.86 44.46,12.43 39.28,7.24 Z" id="Path" fill="#71F6FC"></path>
            </g>
        </g>
    </g>
</svg>