<?xml version="1.0" encoding="UTF-8"?>
<svg width="50px" height="47px" viewBox="0 0 50 47" version="1.1" xmlns="http://www.w3.org/2000/svg" xmlns:xlink="http://www.w3.org/1999/xlink">
    <!-- Generator: Sketch 53 (72520) - https://sketchapp.com -->
    <title>Service Order Icon</title>
    <desc>Created with Sketch.</desc>
    <g id="Menu-Drawer" stroke="none" stroke-width="1" fill="none" fill-rule="evenodd">
        <g id="MENU" transform="translate(-1362.000000, -869.000000)" fill-rule="nonzero">
            <g id="Service-Order-Icon" transform="translate(1362.000000, 869.000000)">
                <path d="M45.12,13.56 C45.08,13.73 41.55,29.78 41.52,29.94 C41.37,30.6 40.78,31.07 40.08,31.07 L15.85,31.07 L14.13,23.27 L13.47,20.26 L12,13.56 L45.12,13.56 Z" id="Path" fill="#EA7DC9"></path>
                <path d="M45.12,13.56 C45.08,13.73 41.55,29.78 41.52,29.94 C41.37,30.6 40.78,31.07 40.08,31.07 L28.56,31.07 L28.56,13.55 L45.12,13.55 L45.12,13.56 Z" id="Path" fill="#CC3E99"></path>
                <polygon id="Path" fill="#7B2A86" points="33.24 13.56 32.08 31.08 35.17 31.08 36.33 13.56"></polygon>
                <path d="M40.7,17.94 C35.69,17.94 31.62,13.97 31.62,9.09 C31.62,4.21 35.69,0.24 40.7,0.24 C45.71,0.24 49.78,4.21 49.78,9.09 C49.78,13.97 45.71,17.94 40.7,17.94 Z" id="Path" fill="#FDBF00"></path>
                <path d="M40.7,0.25 L40.7,17.94 C45.7,17.94 49.78,13.97 49.78,9.09 C49.78,4.22 45.71,0.25 40.7,0.25 Z" id="Path" fill="#FF9100"></path>
                <polygon id="Path" fill="#C441AB" points="20.79 13.56 21.95 31.08 25.04 31.08 23.88 13.56"></polygon>
                <polygon id="Path" fill="#C441AB" points="43.65 20.26 43.32 21.77 42.99 23.27 14.14 23.27 13.48 20.26"></polygon>
                <polygon id="Path" fill="#7B2A86" points="43.65 20.26 43.32 21.77 42.99 23.27 28.56 23.27 28.56 20.26"></polygon>
                <path d="M36.02,38.59 L19.01,38.59 L12.69,9.85 C12.07,7.04 9.49,5.01 6.54,5.01 L2.25,5.01 C1.44,5.01 0.78,5.65 0.78,6.44 C0.78,7.23 1.44,7.87 2.25,7.87 L6.54,7.87 C8.11,7.87 9.48,8.95 9.81,10.45 L16.38,40.32 C16.53,40.98 17.12,41.45 17.82,41.45 L36.02,41.45 C36.83,41.45 37.49,40.81 37.49,40.02 C37.49,39.23 36.83,38.59 36.02,38.59 Z" id="Path" fill="#CC3E99"></path>
                <path d="M46.84,9.1 C46.84,12.4 44.09,15.08 40.7,15.08 C37.31,15.08 34.56,12.4 34.56,9.1 C34.56,5.8 37.31,3.12 40.7,3.12 C44.09,3.12 46.84,5.8 46.84,9.1 Z" id="Path" fill="#FFF5CC"></path>
                <path d="M46.84,9.1 C46.84,12.4 44.09,15.08 40.7,15.08 L40.7,3.12 C44.09,3.12 46.84,5.8 46.84,9.1 Z" id="Path" fill="#FFEB99"></path>
                <path d="M43.96,7.66 L42.18,7.66 L42.18,5.92 C42.18,5.13 41.52,4.49 40.71,4.49 C39.9,4.49 39.24,5.13 39.24,5.92 L39.24,7.66 L37.46,7.66 C36.65,7.66 35.99,8.3 35.99,9.09 C35.99,9.88 36.65,10.52 37.46,10.52 L39.24,10.52 L39.24,12.26 C39.24,13.05 39.9,13.69 40.71,13.69 C41.52,13.69 42.18,13.05 42.18,12.26 L42.18,10.52 L43.96,10.52 C44.77,10.52 45.43,9.88 45.43,9.09 C45.43,8.3 44.77,7.66 43.96,7.66 Z" id="Path" fill="#FDBF00"></path>
                <path d="M45.43,9.1 C45.43,9.89 44.77,10.53 43.96,10.53 L42.18,10.53 L42.18,12.27 C42.18,13.06 41.52,13.7 40.71,13.7 L40.71,4.49 C41.52,4.49 42.18,5.13 42.18,5.92 L42.18,7.66 L43.96,7.66 C44.77,7.66 45.43,8.31 45.43,9.1 Z" id="Path" fill="#FF9100"></path>
                <path d="M35.96,33.53 C32.27,33.53 29.27,36.45 29.27,40.05 C29.27,43.64 32.27,46.57 35.96,46.57 C39.65,46.57 42.65,43.65 42.65,40.05 C42.65,36.45 39.65,33.53 35.96,33.53 Z" id="Path" fill="#EA7DC9"></path>
                <path d="M39.83,40.05 C39.83,42.13 38.09,43.82 35.96,43.82 C33.83,43.82 32.09,42.13 32.09,40.05 C32.09,37.97 33.83,36.28 35.96,36.28 C38.1,36.28 39.83,37.97 39.83,40.05 Z" id="Path" fill="#CC3E99"></path>
                <path d="M37.55,40.05 C37.55,40.94 36.81,41.65 35.9,41.65 C34.99,41.65 34.25,40.93 34.25,40.05 C34.25,39.17 34.99,38.45 35.9,38.45 C36.82,38.45 37.55,39.16 37.55,40.05 Z" id="Path" fill="#EA7DC9"></path>
                <path d="M42.65,40.05 C42.65,43.64 39.65,46.57 35.96,46.57 C35.94,46.57 35.92,46.57 35.9,46.57 L35.9,33.53 C35.92,33.53 35.94,33.53 35.96,33.53 C39.65,33.53 42.65,36.45 42.65,40.05 Z" id="Path" fill="#CC3E99"></path>
                <path d="M39.83,40.05 C39.83,42.13 38.09,43.82 35.96,43.82 C35.94,43.82 35.92,43.82 35.9,43.82 L35.9,36.28 C35.92,36.28 35.94,36.28 35.96,36.28 C38.1,36.28 39.83,37.97 39.83,40.05 Z" id="Path" fill="#7B2A86"></path>
                <path d="M37.55,40.05 C37.55,40.93 36.81,41.65 35.9,41.65 L35.9,38.44 C36.82,38.45 37.55,39.16 37.55,40.05 Z" id="Path" fill="#CC3E99"></path>
                <path d="M19.14,33.53 C15.45,33.53 12.45,36.45 12.45,40.05 C12.45,43.64 15.45,46.57 19.14,46.57 C22.83,46.57 25.83,43.65 25.83,40.05 C25.83,36.45 22.83,33.53 19.14,33.53 Z" id="Path" fill="#C441AB"></path>
                <path d="M23.01,40.05 C23.01,42.13 21.27,43.82 19.14,43.82 C17.01,43.82 15.27,42.13 15.27,40.05 C15.27,37.97 17.01,36.28 19.14,36.28 C21.27,36.28 23.01,37.97 23.01,40.05 Z" id="Path" fill="#EA7DC9"></path>
                <path d="M20.73,40.05 C20.73,40.94 19.99,41.65 19.08,41.65 C18.17,41.65 17.43,40.93 17.43,40.05 C17.43,39.17 18.17,38.45 19.08,38.45 C19.99,38.45 20.73,39.16 20.73,40.05 Z" id="Path" fill="#C441AB"></path>
                <path d="M25.83,40.05 C25.83,43.64 22.83,46.57 19.14,46.57 C19.12,46.57 19.1,46.57 19.08,46.57 L19.08,33.53 C19.1,33.53 19.12,33.53 19.14,33.53 C22.83,33.53 25.83,36.45 25.83,40.05 Z" id="Path" fill="#7B2A86"></path>
                <path d="M23.01,40.05 C23.01,42.13 21.27,43.82 19.14,43.82 C19.12,43.82 19.1,43.82 19.08,43.82 L19.08,36.28 C19.1,36.28 19.12,36.28 19.14,36.28 C21.27,36.28 23.01,37.97 23.01,40.05 Z" id="Path" fill="#C441AB"></path>
                <path d="M20.73,40.05 C20.73,40.93 19.99,41.65 19.08,41.65 L19.08,38.44 C19.99,38.45 20.73,39.16 20.73,40.05 Z" id="Path" fill="#7B2A86"></path>
            </g>
        </g>
    </g>
</svg>