<?xml version="1.0" encoding="UTF-8"?>
<svg width="53px" height="64px" viewBox="0 0 53 64" version="1.1" xmlns="http://www.w3.org/2000/svg" xmlns:xlink="http://www.w3.org/1999/xlink">
    <!-- Generator: Sketch 53 (72520) - https://sketchapp.com -->
    <title>Tender Icon</title>
    <desc>Created with Sketch.</desc>
    <g id="Menu-Drawer" stroke="none" stroke-width="1" fill="none" fill-rule="evenodd">
        <g id="MENU" transform="translate(-1361.000000, -587.000000)" fill-rule="nonzero">
            <g id="Tender-Icon" transform="translate(1361.000000, 587.000000)">
                <path d="M43.76,63.85 L52.5,63.85 L52.5,57.3 C52.5,50.35 49.74,43.68 44.82,38.76 C44.47,38.42 44.12,38.08 43.76,37.77 L43.76,63.85 Z" id="Path" fill="#EA6347"></path>
                <path d="M8.8,37.77 C3.23,42.74 0.05,49.84 0.06,57.3 L0.0599764859,63.85 L8.8,63.85 L8.8,37.77 Z" id="Path" fill="#D1493B"></path>
                <path d="M8.8,37.77 L8.8,47.47 L15.35,47.47 L15.35,33.48 C12.97,34.57 10.76,36.02 8.8,37.77 Z" id="Path" fill="#7B2A86"></path>
                <path d="M37.21,33.48 L37.21,47.46 L43.76,47.46 L43.76,37.76 C41.8,36.02 39.59,34.58 37.21,33.48 Z" id="Path" fill="#CC3E99"></path>
                <path d="M26.28,9.23 L26.28,12.51 L37.85,12.51 C36.6,8.11 32.96,4.8 28.47,3.97 L28.47,9.24 L26.28,9.23 L26.28,9.23 Z" id="Path" fill="#FFDD4E"></path>
                <path d="M26.28,9.23 L24.1,9.23 L24.1,3.96 C19.6,4.79 15.97,8.1 14.72,12.5 L26.29,12.5 L26.29,9.23 L26.28,9.23 Z" id="Path" fill="#FFD422"></path>
                <path d="M38.3,15.79 L26.28,15.79 L26.28,27.81 C32.91,27.81 38.29,22.44 38.3,15.81 C38.3,15.8 38.3,15.79 38.3,15.79 Z" id="Path" fill="#EFEAE4"></path>
                <path d="M14.26,15.79 C14.26,22.42 19.63,27.8 26.26,27.81 C26.26,27.81 26.27,27.81 26.27,27.81 L26.27,15.79 L14.26,15.79 Z" id="Path" fill="#EBE5DD"></path>
                <path d="M28.47,9.23 L28.47,2.68 C28.46,1.48 27.49,0.5 26.29,0.5 L26.29,9.24 L28.47,9.24 L28.47,9.23 Z" id="Path" fill="#CCB248"></path>
                <path d="M26.28,9.23 L26.28,0.49 C25.07,0.49 24.1,1.47 24.1,2.67 L24.1,9.22 L26.28,9.22 L26.28,9.23 Z" id="Path" fill="#BF9F1A"></path>
                <path d="M26.28,15.79 L39.94,15.79 C40.84,15.79 41.58,15.06 41.58,14.15 C41.58,13.24 40.85,12.51 39.94,12.51 L26.28,12.51 L26.28,15.79 Z" id="Path" fill="#DDB200"></path>
                <path d="M26.28,12.51 L12.62,12.51 C11.72,12.51 10.98,13.24 10.98,14.15 C10.98,15.06 11.71,15.79 12.62,15.79 L26.28,15.79 L26.28,12.51 Z" id="Path" fill="#DDB200"></path>
                <polygon id="Path" fill="#CC3E99" points="43.76 47.47 37.21 47.47 26.28 47.47 26.28 63.85 43.76 63.85"></polygon>
                <polygon id="Path" fill="#7B2A86" points="15.36 47.47 8.8 47.47 8.8 63.85 26.28 63.85 26.28 47.47"></polygon>
                <path d="M37.21,47.47 L37.21,33.49 C33.79,31.9 30.06,31.08 26.29,31.0899096 L26.29,47.48 L37.21,47.48 L37.21,47.47 Z" id="Path" fill="#EA6347"></path>
                <path d="M26.28,31.08 C23.75,31.08 21.23,31.45 18.81,32.17 C17.63,32.52 16.48,32.96 15.36,33.47 L15.36,47.46 L26.28,47.46 L26.28,31.08 Z" id="Path" fill="#D1493B"></path>
            </g>
        </g>
    </g>
</svg>