<?xml version="1.0" encoding="UTF-8"?>
<svg width="56px" height="55px" viewBox="0 0 56 55" version="1.1" xmlns="http://www.w3.org/2000/svg" xmlns:xlink="http://www.w3.org/1999/xlink">
    <!-- Generator: Sketch 53 (72520) - https://sketchapp.com -->
    <title>Work Order</title>
    <desc>Created with Sketch.</desc>
    <g id="Menu-Drawer" stroke="none" stroke-width="1" fill="none" fill-rule="evenodd">
        <g id="MENU" transform="translate(-1359.000000, -731.000000)" fill-rule="nonzero">
            <g id="Work-Order" transform="translate(1359.000000, 731.000000)">
                <path d="M37.33,36.62 L36,37.95 L32.67,41.28 L44.66,53.27 C46.87,55.48 50.44,55.48 52.65,53.27 L53.32,52.6 L37.33,36.62 Z" id="Path" fill="#EA6347"></path>
                <path d="M37.33,36.62 L53.31,52.6 L53.98,51.93 C56.19,49.72 56.19,46.15 53.98,43.94 L41.99,31.95 L38.66,35.28 L37.33,36.62 Z" id="Path" fill="#F6CF4A"></path>
                <polygon id="Path" fill="#D1D3D4" points="2.7 1.99 1.37 3.32 4.69 10.65 9.09 11.06 22.01 23.97 23.34 22.64"></polygon>
                <polygon id="Path" fill="#E6E7E8" points="24.67 21.31 11.76 8.39 11.35 3.99 4.02 0.67 2.69 2 23.34 22.64"></polygon>
                <polygon id="Path" fill="#E6E7E8" points="32.67 31.96 34 30.63 38.66 35.29 37.33 36.62"></polygon>
                <polygon id="Path" fill="#D1D3D4" points="31.34 33.29 32.67 31.96 37.33 36.62 36 37.95"></polygon>
                <polygon id="Path" fill="#78B9EB" points="37.33 36.62 38.66 35.29 38.66 35.29"></polygon>
                <polygon id="Path" fill="#78B9EB" points="36 37.95 37.33 36.62 37.33 36.62"></polygon>
                <path d="M54.3,9 L47.2,16.09 L41.21,14.09 L3.25,52.05 L3.91,52.71 C6.12,54.91 9.7,54.91 11.91,52.71 L38.47,26.15 C43.2,27.42 48.25,25.96 51.57,22.35 C54.89,18.76 55.94,13.62 54.3,9 Z" id="Path" fill="#CC3E99"></path>
                <path d="M46.3,1 C41.68,-0.64 36.54,0.41 32.94,3.73 C29.34,7.05 27.88,12.1 29.14,16.83 L2.58,43.39 C0.38,45.6 0.38,49.18 2.58,51.39 L3.24,52.05 L28,27.3 L41.2,14.1 L39.2,8.11 L46.3,1 Z" id="Path" fill="#7B2A86"></path>
            </g>
        </g>
    </g>
</svg>