<?xml version="1.0" encoding="utf-8"?>
<!-- Generator: Adobe Illustrator 19.0.0, SVG Export Plug-In . SVG Version: 6.00 Build 0)  -->
<svg version="1.1" id="Layer_1" xmlns="http://www.w3.org/2000/svg" xmlns:xlink="http://www.w3.org/1999/xlink" x="0px" y="0px"
	 viewBox="0 0 142.2 142.2" style="enable-background:new 0 0 142.2 142.2;" xml:space="preserve">
<style type="text/css">
	.st0{opacity:0.8;}
	.st1{fill:#FFFFFF;}
</style>
<g id="XMLID_53_" class="st0">
	<path id="XMLID_341_" class="st1" d="M142.9,79.8c-1.1,3.7-3.5,6-7.1,7.3c-1.1,0.4-2.1,0.9-3.1,1.3c-2.6,1.2-5.3,1.2-7.9,0
		c-6.3-2.8-12.5-5.6-18.8-8.5c-1.5-0.7-2.5-1.8-2.5-3.6c0-1.7,0.9-2.9,2.5-3.5c6-2.6,12-5.2,18-7.8c1.1-0.5,1.2-0.9,0.7-1.9
		c-5.4-10.2-10.7-20.4-16-30.7c-0.6-1.1-1.1-1.1-2-0.6c-7.9,4.3-15.9,8.5-23.8,12.8c-0.4,0.2-0.9,0.3-0.9,0.9c0,0.6,0.6,0.6,0.9,0.7
		c1.4,0.5,2.3,1.5,3,2.8c2,4.2,4.1,8.4,6.1,12.6c0.6,1.2,0.8,2.5,0.8,3.8c0,8.1,0,16.3,0,24.4c0,3.7-2,5.7-5.7,5.9
		c-0.6,0-1.5-0.3-1.8,0.4c-0.4,1-0.3,2.2,0,3.3c0.2,0.6,1,0.4,1.5,0.4c7.8,0,15.6,0,23.4,0c7.1,0,13.1,4.6,14.8,11.1
		c2.5,9.4-4.3,18.6-14.1,18.9c-0.4,0-0.7,0-1.1,0c-30.3,0-60.6,0-90.9,0c-6.1,0-10.9-2.5-13.9-7.9c-5.5-10,1.7-22.1,13.3-22.2
		c7-0.1,13.9,0,20.9,0c0.6,0,1.6,0.4,1.8-0.5c0.2-1.1,0.4-2.3-0.1-3.3c-0.3-0.6-1-0.3-1.6-0.3c-6.6,0-13.3,0-19.9,0
		c-4.7,0-9.4,0-14.1,0c-2.7,0-4.8-1-5.9-3.6c0-3.7,0-7.5,0-11.2c0.8-0.8,1.7-1.5,3-0.9c1.2,0.6,1.4,1.6,1.3,2.8c0,2.2,0,4.4,0,6.6
		c0,1.7,0.1,1.8,1.8,1.8c26.9,0,53.9,0,80.8,0c1.7,0,1.9-0.1,1.9-1.8c0-7.9,0-15.8,0-23.7c0-1-0.2-1.8-0.6-2.7
		c-1.8-3.7-3.7-7.5-5.4-11.2c-0.5-1-1.2-1.4-2.3-1.4c-9.4,0-18.9,0-28.3,0c-1.4,0-1.8,0.5-1.8,1.8c0.1,3.4,0.1,6.7,0,10.1
		c-0.1,3.4-1.9,5.4-5.3,5.7c-0.6,0.1-1.2,0-1.8,0c-12.1,0-24.2,0-36.3,0c-0.4,0-0.8,0-1.3,0c-1-0.1-1.6,0.4-1.5,1.5
		c0.1,1.2,0,2.3,0,3.5c0,1.2-0.2,2.2-1.4,2.6C1,76,0.1,75.5-0.6,74.4c0-2.5,0-5,0-7.6c1.2-2.6,3.2-3.5,5.9-3.5c12.7,0.1,25.3,0,38,0
		c2,0,2,0,2-1.9c0-3.4,0-6.7,0-10.1c0-3.2,1.7-5.1,4.8-5.4c1.3-0.1,2.7-0.1,4.1-0.1c1.1,0,1.6-0.4,1.6-1.5c-0.1-2.1,0-4.3,0-6.4
		c0-4.2,2.3-6.4,6.4-6.4c2.3,0,4.6-0.1,6.9,0c1.9,0.1,3.6-0.3,5.3-1c9.2-3.8,18.4-7.6,27.6-11.4c1-0.4,1.6-0.9,2-1.9
		c1.3-3.2,3.8-4.9,7.1-5c3.3,0,5.8,1.5,7.1,4.5c2.3,5.2,4.4,10.5,6.6,15.7c0.6,1.4,0.1,2.6-1.1,3.2c-1.2,0.5-2.4,0-3-1.5
		c-2.1-5-4.2-10-6.3-15c-0.5-1.3-1.4-2.2-2.8-2.4c-1.3-0.2-2.3,0.3-3.1,1.3c-0.8,1.2-0.8,2.5-0.1,3.7c1.3,2.5,2.6,5,3.9,7.5
		c5.6,10.7,11.1,21.4,16.7,32c0.4,0.7,0.6,1.4,1.8,0.9c1.1-0.5,1.4-0.9,0.9-2.1c-2.3-5.4-4.6-10.8-6.8-16.3c-0.1-0.3-0.3-0.7-0.4-1
		c-0.7-1.7-0.3-3,1-3.5c1.3-0.5,2.4,0.1,3.1,1.8c4.7,11,9.3,22,14,33c0.2,0.5,0.4,1,0.5,1.4C142.9,77,142.9,78.4,142.9,79.8z
		 M64.2,125.4c15.5,0,30.9,0,46.4,0c5.9,0,10.4-4.6,10.4-10.4c0-5.8-4.5-10.4-10.3-10.4c-30.9,0-61.7,0-92.6,0
		c-7,0-11.9,6.6-10,13.3c1.2,4.4,5.2,7.5,10,7.5C33.4,125.4,48.8,125.4,64.2,125.4z M109.4,76.4c0.3,0.3,0.3,0.3,0.4,0.4
		c5.6,2.6,11.3,5.1,17,7.6c1.2,0.6,2.6,0.5,3.8,0c1.6-0.7,3.3-1.4,4.9-2.1c2.7-1.3,3.7-3.9,2.6-6.7c-1.2-2.8-2.5-5.6-3.6-8.5
		c-0.4-1-0.9-1.3-2-0.8c-6.5,2.9-13,5.6-19.5,8.4C111.8,75.3,110.7,75.8,109.4,76.4z M81.9,40c0.3-0.1,0.7-0.3,1-0.5
		c6.7-3.6,13.5-7.2,20.2-10.8c2.8-1.5,2.8-1.5,1.4-4.3c-0.5-0.9-0.9-1.2-1.9-0.7c-2.8,1.2-5.6,2.3-8.4,3.5
		c-5.2,2.1-10.3,4.3-15.5,6.4c-0.5,0.2-1.4,0.4-0.6,1.2c1.4,1.4,2.4,3,3.1,4.8C81.3,39.8,81.4,40.1,81.9,40z M68.6,45.9
		c2.4,0,4.8,0,7.3,0c0.6,0,1.2,0,1.3-0.9c0.9-4.4-2.4-8.8-6.9-8.9c-2.8-0.1-5.7,0-8.5,0c-1.1,0-1.6,0.5-1.6,1.6c0,2.3,0,4.6,0,6.8
		c0,1,0.4,1.4,1.4,1.4C64,45.8,66.3,45.9,68.6,45.9z M63.1,99.9c5.3,0,10.5,0,15.8,0c0.5,0,1.2,0.2,1.4-0.3c0.4-1,0.4-2.2,0.1-3.3
		c-0.2-0.9-1.2-0.5-1.8-0.5c-10.4,0-20.7,0-31.1,0c-0.3,0-0.6,0-0.8,0c-0.8,0-1.1,0.4-1.1,1.1c0,0.4,0,0.8,0,1.3
		c-0.2,1.4,0.4,1.8,1.8,1.8C52.7,99.9,57.9,99.9,63.1,99.9z"/>
	<path id="XMLID_338_" class="st1" d="M66.6,52.8c3.3,0,6.6,0,9.9,0c1.7,0,2.9,0.7,3.6,2.3c0.5,1.2,1.2,2.4,1.8,3.6
		c3.3,6.6,3.3,6.6,3,14c-0.1,1.8-0.9,2.7-2.7,3c-0.5,0.1-1.1,0.1-1.7,0.1c-5.2,0-10.4,0-15.7,0c-1.9,0-3.4-0.5-4.7-1.9
		c-1.8-2-3.8-3.8-5.8-5.7c-1-1-1.5-2.1-1.5-3.5c0-2.8,0-5.6,0-8.4c0.1-2.6,1.2-3.6,3.8-3.6C60,52.8,63.3,52.8,66.6,52.8z M67,57.4
		c-2.6,0-5.2,0-7.8,0c-1.2,0-1.8,0.3-1.7,1.6c0.1,1.6,0.1,3.2,0,4.8c0,0.8,0.2,1.3,0.8,1.9c1.7,1.6,3.3,3.3,5,4.9
		c0.4,0.4,0.9,0.7,1.6,0.7c4.9,0,9.7,0,14.6,0c0.8,0,1.2-0.3,1.2-1.1c0.1-2.4,0-4.7-1.4-6.9c-0.9-1.4-1.5-2.9-2.2-4.4
		c-0.5-1.1-1.1-1.5-2.3-1.5C72.1,57.5,69.6,57.4,67,57.4z"/>
	<path id="XMLID_337_" class="st1" d="M38.4,73.3c0,1-0.2,1.5-0.5,2.1c-1.5,3-2.9,5.9-4.4,8.9c-0.8,1.6-2,2.1-3.2,1.5
		c-1.3-0.6-1.5-1.9-0.8-3.5c1.5-3.2,3-6.3,4.6-9.4c0.5-1.1,1.4-1.6,2.6-1.3C37.8,71.8,38.3,72.6,38.4,73.3z"/>
	<path id="XMLID_336_" class="st1" d="M28.5,73.8c-0.1,0.4-0.3,0.9-0.5,1.4c-1.5,3.1-3,6.1-4.5,9.2c-0.8,1.5-1.9,2-3.2,1.4
		c-1.2-0.6-1.6-1.8-0.9-3.3c1.5-3.2,3.1-6.4,4.7-9.6c0.5-1.1,1.4-1.7,2.6-1.4C27.8,71.8,28.3,72.5,28.5,73.8z"/>
	<path id="XMLID_335_" class="st1" d="M18.5,73.7c0,0.6-0.2,1.1-0.5,1.6c-1.5,3-2.9,6-4.4,9c-0.8,1.6-2,2.1-3.3,1.5
		c-1.2-0.6-1.5-1.9-0.8-3.4c1.5-3.2,3.1-6.3,4.6-9.4c0.6-1.1,1.4-1.8,2.7-1.4C17.9,71.8,18.4,72.6,18.5,73.7z"/>
	<path id="XMLID_334_" class="st1" d="M58.1,78.3c0.8,0,1.7-0.1,2.5,0c1.2,0.1,2,0.9,2.1,2.1c0,1.2-0.6,2.1-1.8,2.3
		c-1.8,0.3-3.7,0.3-5.6,0c-1.3-0.2-2-1.2-1.9-2.3c0.1-1.2,0.9-2,2.2-2.1C56.4,78.3,57.3,78.3,58.1,78.3
		C58.1,78.3,58.1,78.3,58.1,78.3z"/>
	<path id="XMLID_331_" class="st1" d="M64.4,109.1c10.8,0,21.6,0,32.4,0c2.7,0,3.4,1,2.9,3.6c-0.3,1.6-0.3,3.1,0,4.7
		c0.5,2.4-0.3,3.4-2.6,3.4c-21.9,0-43.7,0-65.6,0c-2.2,0-3.1-1-2.6-3.2c0.4-1.7,0.4-3.3,0.1-5c-0.6-2.6,0.2-3.5,2.9-3.5
		C42.7,109.1,53.6,109.1,64.4,109.1z M64.4,113.5c-9.6,0-19.2,0-28.8,0c-0.4,0-0.7,0-1.1,0c-0.3,0-0.6,0.1-0.7,0.5
		c-0.5,1.5,0.1,2.4,1.7,2.4c13.3,0,26.6,0,39.9,0c6,0,12,0,18.1,0c1.2,0,1.5-0.4,1.5-1.5c0-1.3-0.6-1.4-1.7-1.4
		C83.6,113.5,74,113.5,64.4,113.5z"/>
	<path id="XMLID_328_" class="st1" d="M116.6,115c0,4.5-3.5,8-8.1,8c-4.5,0-8.1-3.6-8-8.1c0-4.5,3.7-8.1,8.1-8
		C113.1,106.9,116.6,110.5,116.6,115z M108.5,111.4c-2.1,0-3.5,1.5-3.5,3.6c0,2,1.5,3.5,3.6,3.5c2,0,3.6-1.7,3.6-3.6
		C112.1,112.9,110.6,111.4,108.5,111.4z"/>
	<path id="XMLID_325_" class="st1" d="M28.1,115.1c0,4.5-3.6,8-8.2,8c-4.5,0-8.1-3.7-8-8.2c0.1-4.4,3.7-8,8.2-8
		C24.6,106.9,28.1,110.5,28.1,115.1z M20.1,111.5c-2.1,0-3.6,1.4-3.6,3.4c0,2,1.5,3.6,3.5,3.6c2,0,3.6-1.6,3.6-3.5
		C23.7,113.1,22.1,111.5,20.1,111.5z"/>
</g>
</svg>
