<?xml version="1.0" encoding="utf-8"?>
<!-- Generator: Adobe Illustrator 23.0.2, SVG Export Plug-In . SVG Version: 6.00 Build 0)  -->
<svg version="1.1" id="Layer_1" xmlns="http://www.w3.org/2000/svg" xmlns:xlink="http://www.w3.org/1999/xlink" x="0px" y="0px"
	 viewBox="0 0 338.3 1026.5" style="enable-background:new 0 0 338.3 1026.5;" xml:space="preserve">
<style type="text/css">
	.st0{fill-rule:evenodd;clip-rule:evenodd;fill:#F7F7F7;}
	.st1{fill-rule:evenodd;clip-rule:evenodd;fill:url(#Rectangle_1_);}
	.st2{fill-rule:evenodd;clip-rule:evenodd;fill:#FFFFFF;}
	.st3{opacity:0.3081;}
	.st4{filter:url(#Adobe_OpacityMaskFilter);}
	.st5{mask:url(#mask-3_1_);fill-rule:evenodd;clip-rule:evenodd;fill:#FFFFFF;}
	.st6{filter:url(#Adobe_OpacityMaskFilter_1_);}
	.st7{mask:url(#mask-5_1_);fill-rule:evenodd;clip-rule:evenodd;fill:#FFFFFF;}
	.st8{filter:url(#Adobe_OpacityMaskFilter_2_);}
	.st9{mask:url(#mask-7_1_);fill-rule:evenodd;clip-rule:evenodd;fill:#FFFFFF;}
	.st10{filter:url(#Adobe_OpacityMaskFilter_3_);}
	.st11{mask:url(#mask-7_2_);fill-rule:evenodd;clip-rule:evenodd;fill:#FFFFFF;}
	.st12{filter:url(#Adobe_OpacityMaskFilter_4_);}
	.st13{mask:url(#mask-7_3_);fill-rule:evenodd;clip-rule:evenodd;fill:#FFFFFF;}
	.st14{filter:url(#Adobe_OpacityMaskFilter_5_);}
	.st15{mask:url(#mask-7_4_);fill-rule:evenodd;clip-rule:evenodd;fill:#FFFFFF;}
	.st16{filter:url(#Adobe_OpacityMaskFilter_6_);}
	.st17{mask:url(#mask-7_5_);fill-rule:evenodd;clip-rule:evenodd;fill:#FFFFFF;}
	.st18{filter:url(#Adobe_OpacityMaskFilter_7_);}
	.st19{mask:url(#mask-7_6_);fill-rule:evenodd;clip-rule:evenodd;fill:#FFFFFF;}
	.st20{fill:none;stroke:#FFFFFF;stroke-linecap:round;}
	.st21{fill-rule:evenodd;clip-rule:evenodd;}
	.st22{fill-rule:evenodd;clip-rule:evenodd;fill:#F0F0F0;}
	.st23{fill-rule:evenodd;clip-rule:evenodd;fill:#FF5A5F;}
	.st24{filter:url(#Adobe_OpacityMaskFilter_8_);}
	.st25{mask:url(#mask-9_1_);fill-rule:evenodd;clip-rule:evenodd;fill:url(#SVGID_1_);}
	.st26{fill:none;}
	.st27{fill-rule:evenodd;clip-rule:evenodd;fill:url(#SVGID_2_);}
	.st28{fill-rule:evenodd;clip-rule:evenodd;fill:url(#Fill-7_1_);}
	.st29{fill-rule:evenodd;clip-rule:evenodd;fill:#7A2B86;}
	.st30{fill-rule:evenodd;clip-rule:evenodd;fill:#F51638;}
	.st31{fill-rule:evenodd;clip-rule:evenodd;fill:#666666;}
	.st32{fill-rule:evenodd;clip-rule:evenodd;fill:#8C1896;}
	.st33{fill-rule:evenodd;clip-rule:evenodd;fill:#57A4FF;}
	.st34{fill:none;stroke:#FFFFFF;stroke-width:2;}
	.st35{fill:#FFB742;}
	.st36{fill:#FE8100;}
	.st37{fill:#FFE2BA;}
	.st38{fill:#FFC474;}
	.st39{fill:#CC3E99;}
	.st40{fill:#7B2A86;}
	.st41{opacity:0.5252;}
	.st42{fill:none;stroke:#CC3E99;stroke-width:4;stroke-linecap:square;}
	.st43{opacity:0.5252;fill:none;stroke:#CC3E99;stroke-width:4;stroke-linecap:square;enable-background:new    ;}
	.st44{fill:#FFFFFF;}
	.st45{fill:#BE1E5D;}
	.st46{fill:#A02273;}
	.st47{fill:#8D267E;}
	.st48{fill:#EA7DC9;}
	.st49{fill:#E62753;}
	.st50{fill:#FEDB41;}
	.st51{fill:#FCBF29;}
	.st52{fill:#FF2C5C;}
	.st53{fill:#FF7816;}
	.st54{fill:#F9B44D;}
	.st55{fill:#F77219;}
	.st56{fill:#F7AA36;}
	.st57{fill:#FEC9A3;}
	.st58{fill:#F5B789;}
	.st59{fill:#BE193F;}
	.st60{fill:#EBEBEB;}
	.st61{fill:#FFB41F;}
	.st62{fill:#9E9E9E;}
	.st63{fill:#FFAA00;}
	.st64{fill:#7A7A7A;}
	.st65{font-family:'Helvetica';}
	.st66{font-size:12px;}
	.st67{fill:#C00B6C;}
	.st68{font-family:'Helvetica-Bold';}
	.st69{font-size:22px;}
	.st70{fill-rule:evenodd;clip-rule:evenodd;fill:#FFFFFF;stroke:#979797;stroke-opacity:0.3072;}
	.st71{fill-rule:evenodd;clip-rule:evenodd;fill:#551842;}
	.st72{fill-rule:evenodd;clip-rule:evenodd;fill:#C20A6A;}
</style>
<g id="Group-24_1_" transform="translate(397.000000, 1785.000000)" class="st41">
	<path id="Line_1_" class="st42" d="M-153.5-1599.5h-154"/>
	<path id="Line-2_1_" class="st42" d="M-149.5-1599.7v27.7"/>
	<path id="Line-2-Copy_1_" class="st42" d="M-311.5-1599.7v27.7"/>
	<path id="Line-2-Copy-2_1_" class="st42" d="M-224.5-1629.3v26.1"/>
</g>
<g id="Group-25_1_" transform="translate(1004.000000, 1785.000000)" class="st41">
	<path id="Line-Copy_1_" class="st42" d="M-760.5-990.4h-154"/>
	<path id="Line-2-Copy-5_1_" class="st42" d="M-756.5-1017.6v27.4"/>
	<path id="Line-2-Copy-6_1_" class="st42" d="M-918.5-1017.6v27.2"/>
	<path id="Line-2-Copy-7_1_" class="st42" d="M-830.5-986.2v25.1"/>
</g>
<g>
	<g id="NiuAce_favicon-07_1_">
		<path class="st44" d="M153.9,152.2H59c-8.3,0-15-6.7-15-15v-94c0-8.3,6.7-15,15-15h94.9c8.3,0,15,6.7,15,15v94
			C169,145.5,162.2,152.2,153.9,152.2z"/>
		<g id="Group_1_" transform="translate(10.000000, 27.000000)">
			<path class="st40" d="M109.4,46.9c0.7-0.1,1.5-0.1,2.2,0.2c-0.4,0.6-1,1.1-0.7,2c0.2,0.6-0.1,1.2-0.6,1.5
				c-7.8-0.7-13.4,4-19.1,8.1C83,64.5,74.9,70,66.5,75.1c-2.8,1.6-5.4,3.5-8.4,4.7c-2.9,1.1-4.9,0.6-6-1.6c-0.6-1.1-0.5-2.1-0.1-3.1
				c1.6-4.4,4-8.5,6.2-12.6c5.1-9.8,10.4-19.5,15.6-29.2c1.3-2.4,3-4.5,6-4.8c2.7-0.2,4.8,1.1,6.1,3.3c2.3,3.9,4.3,7.9,6.5,11.9
				c1,1.8,2.1,3.5,2.9,5.4c0.7,1.5,1.5,1.1,2.6,0.6c3.1-1.7,6.3-2.9,9.9-2.8c0.4,0,0.7,0.1,1.1,0.1C109,47.2,109.2,47.2,109.4,46.9z
				 M80.1,32.5c-1.6,0.2-2.4,1.6-3.1,2.9c-5.2,9.7-10.4,19.5-15.6,29.2c-1.7,3.1-3.3,6.3-4.9,9.4c-0.3,0.5-0.7,1.2-0.3,1.7
				c0.5,0.6,1.1,0,1.6-0.2c2.4-0.9,4.3-2.5,6.5-3.8c9.4-5.5,18.3-11.8,27.1-18.1c1-0.7,1.2-1.4,0.6-2.4c-3-5.5-6-11.1-9-16.6
				C82.4,33.5,81.6,32.5,80.1,32.5z"/>
			<path class="st40" d="M92.8,75.2c5.8-0.1,11,0.5,15.7,3.5c2.6,1.7,4.5,3.9,4.5,7.3c0,2.5-1,4.3-3,5.6c-3.4,2-6.9,4-10.4,5.9
				c-1.1,0.6-2.5,1-3.3-0.5c-0.7-1.4,0.2-2.3,1.5-3c2.9-1.6,5.8-3.2,8.8-4.9c3.4-1.9,3.5-4.6,0.3-6.9c-2.5-1.8-5.3-2.5-8.2-2.8
				c-7.4-0.9-14.6,0.3-21.7,2.5c-10.4,3.2-20,8.3-28.9,14.6c-0.2,0.2-0.6,0.2-0.8,0.4c-1.1,0.8-2.1,0.7-2.8-0.4
				c-0.7-1.1-0.4-2.2,0.8-2.9c2.9-1.8,5.7-3.7,8.6-5.5c8.2-4.9,16.8-8.8,26.1-11.1C84.3,75.7,88.7,75.1,92.8,75.2z"/>
			<path class="st45" d="M123.8,82.7c0.4,0.2,0.3,0.6,0.4,0.9c0,0.3-0.2,0.6,0.1,0.9c0.1-0.2,0.1-0.4,0.2-0.5
				c1.2,1.5,3.1,1.2,4.1-0.9c1.4-3.2,2.7-6.4,4.1-9.6c0.5-1.2,1-2.3,1.6-3.4c0.9-1.6,2.3-2.5,4.3-2.4c1.7,0.1,3.3,0,5,0
				c1.3,0,2.2-0.4,2.6-1.8c0.3-1.1,1.3-1.7,2.4-1.4c1.1,0.3,1.5,1.2,1.4,2.4c-0.3,2.6-2.9,4.7-5.9,4.9c-1.7,0.1-3.3,0.1-5,0
				c-1,0-1.5,0.3-1.9,1.3c-1.5,3.6-3.1,7.2-4.5,10.8c-0.7,1.8-1.5,3.3-3.4,4c-1.4,0.5-2.6,1.4-3.9,2.1c-0.7,0.4-1.3,0.5-1.8-0.4
				c-0.6-1.2-1.1-2.6-0.4-3.9C123.5,84.7,123.6,83.7,123.8,82.7z"/>
			<path class="st45" d="M129.1,60.2c4.6-0.6,9.3,0.2,13.9-0.7c1-0.2,1.6-0.5,2-1.5c0.3-1,1.2-1.4,2.1-1.2c1,0.3,1.5,1.1,1.5,2.2
				c0,2.2-1.9,4.1-4.3,4.5c-3.7,0.5-7.4,0.3-11.1,0.3c-1.8,0-3.3,0.5-4.3,2.1c-0.1-0.2-0.1-0.4-0.2-0.5c-0.6-0.4-0.3,0.2-0.3,0.3
				c0,1.3,0,2.6,0,3.9l0,0c-2.1-0.3-2.8-1-2.1-2.4c0.9-1.8,0.6-3.6,0.5-5.4c-0.1-0.8-0.1-1.7,0.4-2.2c0.5-0.5,0.9,0.5,1.5,0.6
				C128.9,60.3,129,60.2,129.1,60.2z"/>
			<path class="st46" d="M123.8,82.7c-0.2,1-0.3,2.1-0.8,3c-0.7,1.3-0.2,2.6,0.4,3.9c-0.7-0.1-0.9-0.7-1.1-1.2
				c-1.3-3.2-2.9-6.1-5-8.9c-2.2-2.8-1.4-7.2,1.6-9.1c0.8-0.5,1.5-0.5,2.3,0.2c0.7,0.6,1,1.4,0.6,2.3c-0.2,0.4-0.5,0.7-0.7,1
				c-1.4,1.9-1.4,2.4,0,4.3C122.2,79.5,123.1,81,123.8,82.7z"/>
			<path class="st46" d="M129.1,60.2c-0.1,0-0.2,0.1-0.3,0.1c-0.6-0.1-1-1.1-1.5-0.6c-0.5,0.5-0.5,1.3-0.4,2.2
				c0.2,1.8,0.4,3.6-0.5,5.4c-0.7,1.4,0,2,2.1,2.4c-0.1,1-0.8,1.2-1.7,1.1c-1.1-0.1-1.6-1-1.7-2c-0.3-1.6-0.1-3.3,0.7-4.7
				c0.5-1.1,0.2-1.7-0.6-2.5c-1.5-1.5-3.3-2.6-4.5-4.3c0-1.2-1.1-1.6-1.7-2.4c-0.3-0.4-1.4-0.3-1-1.2c0.4-0.8,0.5-2.1,1.9-1.9
				C123.1,54.4,126.3,57.1,129.1,60.2z"/>
			<path class="st47" d="M119.9,51.8c-1.4-0.2-1.5,1.1-1.9,1.9c-0.4,0.8,0.7,0.7,1,1.2c0.6,0.8,1.7,1.2,1.7,2.4
				c-1.5-1.2-3-2.5-4.5-3.7c-1.7-1.5-3.7-2.4-5.8-2.9c0.6-0.3,0.8-0.9,0.6-1.5c-0.3-0.9,0.3-1.4,0.7-2
				C115,47.4,117.5,49.5,119.9,51.8z"/>
			<path class="st46" d="M128.4,69.6c0-1.3,0-2.6,0-3.9c0-0.1-0.3-0.7,0.3-0.3c0.1,0.1,0.2,0.3,0.2,0.5
				C128.7,67.1,129.3,68.5,128.4,69.6z"/>
			<path class="st47" d="M109.4,46.9c-0.2,0.2-0.4,0.2-0.6,0C109,46.6,109.2,46.7,109.4,46.9z"/>
			<path class="st46" d="M124.5,83.9c-0.1,0.2-0.1,0.4-0.2,0.5c-0.3-0.3-0.1-0.6-0.1-0.9C124.3,83.7,124.4,83.8,124.5,83.9z"/>
			<path class="st44" d="M80.1,32.5c1.5,0.1,2.4,1.1,3,2.2c3,5.5,6,11.1,9,16.6c0.6,1,0.4,1.7-0.6,2.4C82.6,60,73.7,66.3,64.3,71.8
				c-2.2,1.3-4.1,2.9-6.5,3.8c-0.5,0.2-1.1,0.8-1.6,0.2c-0.4-0.5,0-1.2,0.3-1.7c1.6-3.2,3.2-6.3,4.9-9.4
				c5.2-9.7,10.4-19.5,15.6-29.2C77.7,34,78.4,32.7,80.1,32.5z"/>
		</g>
	</g>
	<text transform="matrix(1 0 0 1 186.4599 98.2049)" class="st64 st65 st66">Aliquam egestas </text>
	<text transform="matrix(1 0 0 1 186.4599 112.2049)" class="st64 st65 st66">nulla et lectus </text>
	<text transform="matrix(1 0 0 1 186.4599 126.2049)" class="st64 st65 st66">imperdiet </text>
	<text transform="matrix(1 0 0 1 186.4599 140.2049)" class="st64 st65 st66">ullamcorper.</text>
	<text transform="matrix(1 0 0 1 185.0614 74.2049)" class="st67 st68 st69">NiuAce</text>
</g>
<g>
	<g id="Group-22_1_" transform="translate(592.000000, 1747.000000)">
		<text transform="matrix(1 0 0 1 -419.2898 -1463.2911)" class="st64 st65 st66">Aliquam egestas </text>
		<text transform="matrix(1 0 0 1 -419.2898 -1449.2911)" class="st64 st65 st66">nulla et lectus </text>
		<text transform="matrix(1 0 0 1 -419.2898 -1435.2911)" class="st64 st65 st66">imperdiet </text>
		<text transform="matrix(1 0 0 1 -419.2898 -1421.2911)" class="st64 st65 st66">ullamcorper.</text>
		<text transform="matrix(1 0 0 1 -418.8513 -1487.2911)" class="st67 st68 st69">Meet</text>
	</g>
	<g id="meeting_1_" transform="translate(477.000000, 1740.000000)">
		<path class="st52" d="M-376.8-1486.3c5.8,0,10.5-4.9,10.5-11s-4.7-11-10.5-11s-10.5,4.9-10.5,11S-382.6-1486.3-376.8-1486.3z"/>
		<path class="st53" d="M-374.6-1482.9c-0.2-0.3-0.6-0.4-0.9-0.4h-2.6c-0.3,0-0.7,0.1-0.9,0.4c-0.4,0.4-0.4,1-0.2,1.5l1.4,2.2
			l-0.6,5.9l1.3,3.7c0.1,0.4,0.6,0.4,0.7,0l1.3-3.7l-0.6-5.9l1.4-2.2C-374.2-1481.8-374.2-1482.5-374.6-1482.9z"/>
		<path class="st49" d="M-392.8-1458.3h32c0.8,0,1.5-0.7,1.5-1.5v-13.7c0-4-2.5-7.5-6.3-8.8l-2.9-0.9c-0.5-0.2-1.1,0.1-1.3,0.7
			l-7,19.7l-7-19.7c-0.2-0.4-0.6-0.7-1-0.7c-0.1,0-0.2,0-0.3,0l-2.9,0.9c-3.8,1.3-6.3,4.8-6.3,8.8v13.7
			C-394.3-1459-393.6-1458.3-392.8-1458.3z"/>
		<path class="st40" d="M-408.8-1481.3c5.8,0,10.5-4.9,10.5-11c0-6.1-4.7-11-10.5-11s-10.5,4.9-10.5,11
			C-419.3-1486.2-414.6-1481.3-408.8-1481.3z"/>
		<path class="st40" d="M-391.8-1451.1h-8.1v-16.6c0-5.3-4.1-9.6-9.2-9.6c-5.1,0-9.2,4.3-9.2,9.6v22.6c0,5.1,4,9.2,8.8,9.2h10.5
			v15.1c0,1.4,1.1,2.6,2.5,2.6h9.7c1.4,0,2.5-1.2,2.5-2.6v-22.4C-384.3-1447.6-387.7-1451.1-391.8-1451.1z"/>
		<path class="st40" d="M-343.8-1481.3c5.8,0,10.5-4.9,10.5-11c0-6.1-4.7-11-10.5-11s-10.5,4.9-10.5,11
			C-354.3-1486.2-349.6-1481.3-343.8-1481.3z"/>
		<path class="st40" d="M-343.5-1477.3c-5.1,0-9.2,4.3-9.2,9.6v16.6h-8.1c-4.2,0-7.5,3.5-7.5,7.8v22.4c0,1.4,1.1,2.6,2.5,2.6h9.7
			c1.4,0,2.5-1.2,2.5-2.6v-15.1h10.5c4.9,0,8.8-4.1,8.8-9.2v-22.6C-334.3-1473-338.4-1477.3-343.5-1477.3z"/>
	</g>
</g>
<g>
	<g id="Group-20_1_" transform="translate(879.000000, 1747.000000)">
		<text transform="matrix(1 0 0 1 -706.0397 -1329.26)" class="st64 st65 st66">Aliquam egestas </text>
		<text transform="matrix(1 0 0 1 -706.0397 -1315.26)" class="st64 st65 st66">nulla et lectus </text>
		<text transform="matrix(1 0 0 1 -706.0397 -1301.26)" class="st64 st65 st66">imperdiet </text>
		<text transform="matrix(1 0 0 1 -706.0397 -1287.26)" class="st64 st65 st66">ullamcorper.</text>
		<text transform="matrix(1 0 0 1 -710.4943 -1353.26)" class="st67 st68 st69">Trade</text>
	</g>
	<g id="trade_1_" transform="translate(768.000000, 1740.000000)">
		<path class="st39" d="M-656.8-1374.3l-8.8,12.5l8.8,12.5h32.2v-25H-656.8z M-655.3-1358.6c-1.6,0-2.9-1.4-2.9-3.1
			c0-1.7,1.3-3.1,2.9-3.1c1.6,0,2.9,1.4,2.9,3.1C-652.4-1360-653.7-1358.6-655.3-1358.6z"/>
		<polygon class="st40" points="-624.5,-1368.3 -650.5,-1349.3 -624.5,-1349.3 		"/>
		<rect x="-687.5" y="-1337.3" class="st54" width="41" height="39"/>
		<rect x="-671.5" y="-1337.3" class="st55" width="9" height="9"/>
		<path class="st48" d="M-637.2-1365.5h5.6v-3.2h-3v-1.6h-3v1.6c-1.8,0.2-3.2,2-3,3.9c0.1,1.2,0.8,2.3,1.8,2.8l3.9,2.1
			c0.2,0.1,0.2,0.3,0.2,0.5c-0.1,0.1-0.2,0.2-0.3,0.2h-5.6v3.2h3v1.6h3v-1.6c1.8-0.2,3.2-2,3-3.9c-0.1-1.2-0.8-2.3-1.8-2.8l-3.9-2.1
			c-0.2-0.1-0.2-0.3-0.2-0.5C-637.4-1365.4-637.3-1365.5-637.2-1365.5L-637.2-1365.5z"/>
		<path class="st39" d="M-639.6-1327.3h-6.6v-3.1h6.6c2.8,0,5.1-2.5,5.1-5.5s-2.3-5.5-5.1-5.5h-31.6c-5.7,0-10.3-4.9-10.3-11
			c0-6.1,4.6-11,10.3-11h13.2v3.1h-13.2c-4.1,0-7.4,3.5-7.4,7.8c0,4.3,3.3,7.8,7.4,7.8h31.6c4.5,0,8.1,3.9,8.1,8.6
			C-631.5-1331.1-635.2-1327.3-639.6-1327.3z"/>
		<polygon class="st56" points="-687.5,-1299 -687.5,-1298.3 -646.5,-1298.3 -646.5,-1331.3 		"/>
		<path class="st57" d="M-653.7-1299.6h-2.9c2.8,0,5.1-2.4,5.1-5.4l0,0l0,0c0-3-2.3-5.4-5.1-5.4h-14.6c-6.3-3.8-14.1-3.8-20.4,0l0,0
			v26.1h37.9l26.4-16.7c1.7-1.1,2.7-3,2.7-5.1l0,0c0-3.3-2.5-5.9-5.6-5.9l0,0h-0.3c-0.9,0-1.8,0.2-2.6,0.7L-653.7-1299.6z"/>
		<rect x="-710.5" y="-1310.3" class="st52" width="19" height="26"/>
		<path class="st58" d="M-653-1298.3h-16.1c-0.8,0-1.5-0.7-1.5-1.5c0-0.8,0.7-1.5,1.5-1.5h16.1c0.8,0,1.5,0.7,1.5,1.5
			C-651.5-1298.9-652.2-1298.3-653-1298.3z"/>
		<rect x="-710.5" y="-1300.3" class="st49" width="19" height="16"/>
		<circle id="Oval_1_" class="st59" cx="-700.5" cy="-1293.3" r="3"/>
	</g>
</g>
<g>
	<g id="selection_1_" transform="translate(764.000000, 1902.000000)">
		<path class="st39" d="M-681-1166.1v8.2h-24.1c-1.5,0-2.9-1.2-2.9-2.7v-5.5c0-7.5,6.2-13.8,13.6-13.8c3.7,0,7.1,1.5,9.5,4
			C-682.5-1173.5-681-1169.9-681-1166.1z"/>
		<path class="st40" d="M-680-1166.1v8.2h-14v-22c3.9,0,7.4,1.5,9.9,4C-681.6-1173.5-680-1169.9-680-1166.1z"/>
		<path class="st39" d="M-650-1166v5.4c0,1.5-1.2,2.7-2.8,2.7h-33.4c-1.6,0-2.8-1.2-2.8-2.7v-5.4c0-10.4,8.7-19,19.5-19
			c5.3,0,10.3,2.1,13.8,5.5C-652.2-1176-650-1171.1-650-1166z"/>
		<g transform="translate(5.000000, 49.000000)">
			<path class="st48" d="M-699.8-1240c-4.6,0-8.2,3.6-8.2,8c0,4.5,3.7,8,8.2,8s8.2-3.6,8.2-8C-691.5-1236.4-695.2-1240-699.8-1240z"
				/>
			<path class="st48" d="M-675-1250.8c-6,0-11,4.8-11,10.7c0,5.9,5,10.7,11,10.7s11-4.8,11-10.7C-664-1245.9-669-1250.8-675-1250.8z
				"/>
		</g>
		<path class="st49" d="M-695.3-1201.9c-0.7,0-1.4-0.3-2-0.8c-1.1-1.1-1.1-2.8,0-3.8l22.3-21.6c0.6-0.6,1.4-0.8,2.2-0.8
			c0.8,0.1,1.6,0.5,2,1.2l9.3,13.5l11.5-11.2c1.1-1.1,2.9-1.1,3.9,0c1.1,1.1,1.1,2.8,0,3.8l-14,13.5c-0.6,0.6-1.4,0.9-2.2,0.8
			c-0.8-0.1-1.6-0.5-2-1.2l-9.3-13.5l-19.9,19.3C-693.8-1202.2-694.5-1201.9-695.3-1201.9z"/>
		<path class="st39" d="M-686-1183.4c0,4.7-3.6,8.5-8,8.5v-17C-689.6-1191.9-686-1188.1-686-1183.4z"/>
		<path class="st40" d="M-650-1166v5.4c0,1.5-1.2,2.7-2.7,2.7H-669v-27c5.2,0,10,2.1,13.4,5.5C-652.2-1176-650-1171.1-650-1166z"/>
		<g transform="translate(39.000000, 49.000000)">
			<path class="st39" d="M-697.1-1239.9c0,6-4.9,10.9-11,10.9v-21.8C-702-1250.8-697.1-1245.9-697.1-1239.9z"/>
			<path class="st39" d="M-677.9-1239.9c-13.6,0-24.7,11.2-24.7,24.7v5.5c0,1.5,1.2,2.7,2.7,2.7h44c1.5,0,2.7-1.2,2.7-2.7v-5.5
				C-653-1228.7-664.3-1239.9-677.9-1239.9z"/>
		</g>
		<path class="st40" d="M-614-1165.9v5.3c0,1.5-1.2,2.7-2.8,2.7H-639v-32C-625.4-1189.9-614-1179-614-1165.9z"/>
		<path class="st48" d="M-639.5-1211.9c-7.5,0-13.5,6-13.5,13.5s6,13.5,13.5,13.5c7.5,0,13.5-6,13.5-13.5
			S-632.1-1211.9-639.5-1211.9z"/>
		<path class="st39" d="M-625-1198.4c0,7.5-6.3,13.5-14,13.5v-27C-631.3-1211.9-625-1205.9-625-1198.4z"/>
		<path class="st50" d="M-622.2-1239.2c-0.3-1-1.2-1.7-2.3-1.8l-8-1.2l-3.6-7.3c-0.5-0.9-1.5-1.4-2.5-1.4c-1,0-2,0.5-2.5,1.4
			l-3.6,7.3l-8,1.2c-1,0.1-1.9,0.8-2.3,1.8c-0.3,1-0.1,2,0.7,2.7l5.8,5.5l-1.4,7.8c-0.2,1,0.2,2,1.1,2.6c0.8,0.6,2,0.7,2.9,0.2
			l7.2-3.7l7.2,3.7c0.9,0.5,2,0.4,2.9-0.2c0.9-0.6,1.3-1.6,1.1-2.6l-1.4-7.8l5.8-5.5C-622.1-1237.1-621.8-1238.2-622.2-1239.2z"/>
		<path class="st51" d="M-622.9-1236.4l-6,5.5l1.4,7.8c0.2,1-0.2,2-1.1,2.6c-0.9,0.6-2,0.7-3,0.2l-7.4-3.7v-27c1,0,2,0.5,2.6,1.4
			l3.7,7.3l8.3,1.2c1.1,0.1,2,0.8,2.3,1.8C-621.8-1238.2-622.1-1237.1-622.9-1236.4z"/>
	</g>
	<g id="Group-20-Copy-2_1_" transform="translate(879.000000, 1911.000000)">
		<text transform="matrix(1 0 0 1 -704.5395 -1205.931)" class="st64 st65 st66">Aliquam egestas </text>
		<text transform="matrix(1 0 0 1 -704.5395 -1191.931)" class="st64 st65 st66">nulla et lectus </text>
		<text transform="matrix(1 0 0 1 -704.5395 -1177.931)" class="st64 st65 st66">imperdiet </text>
		<text transform="matrix(1 0 0 1 -704.5395 -1163.931)" class="st64 st65 st66">ullamcorper.</text>
		<text transform="matrix(1 0 0 1 -707.5342 -1229.931)" class="st67 st68 st69">Growth</text>
	</g>
</g>
<g>
	<g id="Group-20-Copy_1_" transform="translate(592.000000, 1911.000000)">
		<text transform="matrix(1 0 0 1 -416.04 -1353.9891)" class="st64 st65 st66">Aliquam egestas </text>
		<text transform="matrix(1 0 0 1 -416.04 -1339.9891)" class="st64 st65 st66">nulla et lectus </text>
		<text transform="matrix(1 0 0 1 -416.04 -1325.9891)" class="st64 st65 st66">imperdiet </text>
		<text transform="matrix(1 0 0 1 -416.04 -1311.9891)" class="st64 st65 st66">ullamcorper.</text>
		<text transform="matrix(1 0 0 1 -416.4946 -1377.9891)" class="st67 st68 st69">Manage</text>
	</g>
	<g id="project-management_1_" transform="translate(471.000000, 1904.000000)">
		<path class="st60" d="M-375.5-1313.7c0,2.6,2.1,4.7,4.8,4.7h6.4c2.7,0,4.8-2.1,4.8-4.7v-9.3h-16V-1313.7z"/>
		<path class="st49" d="M-383.9-1339.6c-1.5-0.9-2.8-1.9-4.1-2.9c-1.1,3.9-5.2,6.3-9.5,5.6c-4.3-0.7-7.3-4.3-6.9-8.2
			c0.4-4,4-7,8.3-7c0.3,0,0.5,0,0.7,0.1c-1.6-3.4-2.4-7.1-2.4-10.9h-2.1l-1.2,5.1c-0.1,0.5-0.5,0.9-1,1.1c-0.5,0.2-1.1,0.1-1.6-0.2
			l-4.6-2.9l-5,4.6l3.2,4.3c0.3,0.4,0.4,1,0.2,1.4c-0.2,0.5-0.7,0.8-1.2,0.9l-5.5,1.1v6.2l5.5,1.1c0.5,0.1,1,0.5,1.2,0.9
			c0.2,0.5,0.1,1-0.2,1.4l-3.2,4.3l5,4.6l4.6-2.9c0.5-0.3,1-0.4,1.6-0.2c0.5,0.2,0.9,0.6,1,1.1l1.2,5.1h6.7l1.2-5.1
			c0.1-0.5,0.5-0.9,1-1.1c0.5-0.2,1.1-0.1,1.6,0.2l4.6,2.9l5.2-4.8C-380.1-1336.3-381.6-1338.3-383.9-1339.6z"/>
		<path class="st61" d="M-337.5-1364c0-13.4-10.2-25-24.3-27.5c-14.1-2.5-28.2,4.6-33.5,17.1c-5.3,12.5-0.4,26.7,11.7,34
			c2.8,1.6,4.5,4.4,4.5,7.5v6.3c0,2.6,2.2,4.7,5,4.7h13.3c2.8,0,5-2.1,5-4.7v-6.2c0-3.1,1.8-6,4.6-7.7
			C-342.7-1345.6-337.5-1354.5-337.5-1364L-337.5-1364z"/>
		<path class="st39" d="M-327.5-1379.4l5.2-3.6l-6-7.4l-5.2,3.6c-1.1,0.7-2.5,0.8-3.7,0.2c-1.2-0.6-1.8-1.8-1.6-3.1l0.9-6l-9.9-1.3
			l-0.9,6c-0.2,1.2-1.2,2.2-2.5,2.5c-1.3,0.3-2.7-0.1-3.5-1.1l-3.9-4.8l-8,5.5l3.9,4.8c0.8,1,0.9,2.3,0.2,3.4
			c-0.7,1.1-2,1.7-3.3,1.5l-6.5-0.9l-1.4,9.1l6.5,0.9c1.3,0.2,2.4,1.1,2.7,2.3c0.3,1.2-0.1,2.5-1.2,3.2l-5.2,3.6l6,7.4l5.2-3.6
			c1.1-0.7,2.5-0.8,3.7-0.2c1.2,0.6,1.8,1.8,1.6,3.1l-0.9,6l9.9,1.3l0.9-6c0.2-1.2,1.2-2.2,2.5-2.5c1.3-0.3,2.7,0.1,3.5,1.1l3.9,4.8
			l8-5.5l-3.9-4.8c-0.8-1-0.9-2.3-0.2-3.4c0.7-1.1,2-1.7,3.3-1.5l6.5,0.9l1.4-9.1l-6.5-0.9c-1.3-0.2-2.4-1.1-2.7-2.3
			C-329.1-1377.4-328.6-1378.7-327.5-1379.4L-327.5-1379.4z M-346.5-1361.2c-6.4,0-11.6-4.8-11.6-10.8c0-5.9,5.2-10.8,11.6-10.8
			s11.6,4.8,11.6,10.8C-334.9-1366-340.1-1361.2-346.5-1361.2z"/>
		<polygon class="st62" points="-375.5,-1319 -359.5,-1319 -359.5,-1316 -375.5,-1316 		"/>
		<g>
			<polygon class="st63" points="-369.7,-1330.6 -366.4,-1330.6 -366.4,-1325.9 -369.7,-1325.9 			"/>
			<path class="st63" d="M-366.4-1333.7h-3.3c0-4.1-2.7-7.8-6.8-9.3c-8.2-3-13.9-10-14.7-18.2c-0.8-8.2,3.3-16.1,10.8-20.5l1.8,2.6
				c-6.4,3.7-10,10.5-9.3,17.5c0.7,7,5.6,13,12.6,15.6C-369.9-1343.9-366.4-1339.1-366.4-1333.7L-366.4-1333.7z"/>
			<path class="st63" d="M-334.7-1341.4h8.3c0.9,0,1.7,0.7,1.7,1.6c0,0.9-0.7,1.6-1.7,1.6h-8.3c-0.9,0-1.7-0.7-1.7-1.6
				C-336.4-1340.7-335.6-1341.4-334.7-1341.4z"/>
			<path class="st63" d="M-338-1332.1c0.6-0.7,1.6-0.7,2.3-0.2l7.4,5.8c0.7,0.5,0.8,1.5,0.2,2.2c-0.6,0.7-1.6,0.7-2.3,0.2l-7.4-5.8
				C-338.5-1330.5-338.6-1331.4-338-1332.1L-338-1332.1z"/>
			<path class="st63" d="M-344.7-1329c0.9,0,1.7,0.7,1.7,1.6v7.8c0,0.9-0.7,1.6-1.7,1.6s-1.7-0.7-1.7-1.6v-7.8
				C-346.4-1328.3-345.6-1329-344.7-1329z"/>
			<path class="st63" d="M-415.1-1372.8l10.1-2.4c0.9-0.2,1.8,0.3,2,1.1c0.2,0.8-0.3,1.7-1.2,1.9l-10.1,2.4c-0.9,0.2-1.8-0.3-2-1.1
				C-416.5-1371.8-416-1372.6-415.1-1372.8z"/>
			<path class="st63" d="M-413-1389.6c0.5-0.7,1.6-0.9,2.3-0.4l8.9,6c0.7,0.5,0.9,1.5,0.4,2.2c-0.5,0.7-1.6,0.9-2.3,0.4l-8.9-6
				C-413.3-1387.9-413.5-1388.9-413-1389.6z"/>
			<path class="st63" d="M-398.1-1398.9c0.9-0.2,1.8,0.3,2,1.1l2.6,9.4c0.2,0.8-0.3,1.7-1.2,1.9c-0.9,0.2-1.8-0.3-2-1.1l-2.6-9.4
				C-399.5-1397.9-399-1398.7-398.1-1398.9z"/>
		</g>
	</g>
</g>
<g>
	<g id="Group-4_1_" transform="translate(1102.000000, 1822.000000)">
		<polygon id="Path_1_" class="st35" points="-986.8,-889.9 -1004.8,-889.9 -1004.8,-911.9 -986.8,-911.9 		"/>
		<polygon class="st36" points="-986.8,-889.9 -995.8,-889.9 -995.8,-911.9 -986.8,-911.9 		"/>
		<path id="Shape_1_" class="st35" d="M-1016.8-935.9h-12.5c-6.9,0-12.5-5.4-12.5-12.1v-0.8c0-6.7,5.6-12.1,12.5-12.1
			c6.9,0,12.5,5.4,12.5,12.1V-935.9z M-1029.3-955.9c-4,0-7.3,3.2-7.3,7.1v0.8c0,3.9,3.3,7.1,7.3,7.1h7.3v-7.9
			C-1022-952.7-1025.2-955.9-1029.3-955.9z"/>
		<path class="st36" d="M-963.3-935.9h-12.5v-12.9c0-6.7,5.6-12.1,12.5-12.1c6.9,0,12.5,5.4,12.5,12.1v0.8
			C-950.8-941.3-956.4-935.9-963.3-935.9z M-970.6-940.9h7.3c4,0,7.3-3.2,7.3-7.1v-0.8c0-3.9-3.3-7.1-7.3-7.1c-4,0-7.3,3.2-7.3,7.1
			V-940.9z"/>
		<path class="st37" d="M-996.3-907.9c-14.1,0-25.5-10.5-25.5-23.4v-34.6h51v34.6C-970.8-918.4-982.2-907.9-996.3-907.9z"/>
		<path class="st38" d="M-995.8-965.9v58c13.8,0,25-10.5,25-23.4v-34.6H-995.8z"/>
		<path class="st38" d="M-975.8-879.9h-40v-5.2c0-5.4,4.6-9.8,10.3-9.8h19.5c5.7,0,10.3,4.4,10.3,9.8V-879.9z"/>
		<path class="st35" d="M-986.1-894.9h-9.7v15h20v-5.2C-975.8-890.5-980.4-894.9-986.1-894.9z"/>
		<path class="st39" d="M-982.9-943.8c-0.3-0.8-1-1.3-1.8-1.4l-6.3-0.9l-2.8-5.7c-0.4-0.7-1.2-1.1-2-1.1s-1.6,0.4-2,1.1l-2.8,5.7
			l-6.3,0.9c-0.8,0.1-1.5,0.6-1.8,1.4c-0.3,0.7,0,1.6,0.6,2.1l4.6,4.3l-1.1,6c-0.1,0.8,0.2,1.6,0.9,2c0.7,0.5,1.6,0.5,2.3,0.2
			l5.7-2.9l5.7,2.9c0.7,0.4,1.6,0.3,2.3-0.2c0.7-0.5,1-1.2,0.9-2l-1.1-6l4.6-4.3C-982.9-942.2-982.6-943-982.9-943.8z"/>
		<path class="st40" d="M-983.5-941.7l-4.6,4.3l1.1,6c0.1,0.8-0.2,1.6-0.9,2c-0.7,0.5-1.6,0.5-2.3,0.2l-5.7-2.9v-20.9
			c0.8,0,1.6,0.4,2,1.1l2.8,5.7l6.3,0.9c0.8,0.1,1.5,0.6,1.8,1.4C-982.6-943-982.9-942.2-983.5-941.7z"/>
	</g>
	<g id="Group-23_1_" transform="translate(1210.000000, 1835.000000)">
		<text transform="matrix(1 0 0 1 -1039.7898 -938.3235)" class="st64 st65 st66">Aliquam egestas </text>
		<text transform="matrix(1 0 0 1 -1039.7898 -924.3235)" class="st64 st65 st66">nulla et lectus </text>
		<text transform="matrix(1 0 0 1 -1039.7898 -910.3235)" class="st64 st65 st66">imperdiet </text>
		<text transform="matrix(1 0 0 1 -1039.7898 -896.3235)" class="st64 st65 st66">ullamcorper.</text>
		<text transform="matrix(1 0 0 1 -1041.4343 -962.3235)" class="st67 st68 st69">Success</text>
	</g>
</g>
</svg>
