<?xml version="1.0" encoding="UTF-8"?>
<svg width="120px" height="120px" viewBox="0 0 120 120" version="1.1" xmlns="http://www.w3.org/2000/svg" xmlns:xlink="http://www.w3.org/1999/xlink">
    <!-- Generator: Sketch 55.2 (78181) - https://sketchapp.com -->
    <title>icon</title>
    <desc>Created with Sketch.</desc>
    <defs>
        <linearGradient x1="102.803458%" y1="56.4627956%" x2="0%" y2="56.4627956%" id="linearGradient-1">
            <stop stop-color="#bbb" offset="0%"></stop>
            <stop stop-color="#bbb" offset="100%"></stop>
        </linearGradient>
    </defs>
    <g id="icon" stroke="none" stroke-width="1" fill="none" fill-rule="evenodd">
        <g id="baseline-apps-24px" fill="url(#linearGradient-1)" fill-rule="nonzero">
            <path d="M0,30 L30,30 L30,0 L0,0 L0,30 Z M45,120 L75,120 L75,90 L45,90 L45,120 Z M0,120 L30,120 L30,90 L0,90 L0,120 Z M0,75 L30,75 L30,45 L0,45 L0,75 Z M45,75 L75,75 L75,45 L45,45 L45,75 Z M90,0 L90,30 L120,30 L120,0 L90,0 Z M45,30 L75,30 L75,0 L45,0 L45,30 Z M90,75 L120,75 L120,45 L90,45 L90,75 Z M90,120 L120,120 L120,90 L90,90 L90,120 Z" id="Shape"></path>
        </g>
    </g>
</svg>