<?xml version="1.0" encoding="UTF-8"?>
<svg xmlns="http://www.w3.org/2000/svg" xmlns:xlink="http://www.w3.org/1999/xlink" width="79pt" height="79pt" viewBox="0 0 79 79" version="1.1">
<g id="surface5286058">
<path style=" stroke:none;fill-rule:nonzero;fill:rgb(57.254902%,0.784314%,66.27451%);fill-opacity:1;" d="M 46.085938 3.160156 L 11.058594 3.160156 L 11.058594 75.839844 L 67.941406 75.839844 L 67.941406 24.386719 Z M 45.035156 55.492188 L 21.539062 55.492188 L 33.363281 39.5 L 45.035156 55.492188 L 40.394531 49.089844 L 45.035156 42.695312 L 54.46875 55.492188 Z M 52.972656 39.5 C 51.320312 39.5 49.980469 38.199219 49.980469 36.59375 C 49.980469 34.988281 51.320312 33.6875 52.972656 33.6875 C 54.621094 33.6875 55.964844 34.988281 55.964844 36.59375 C 55.964844 38.199219 54.621094 39.5 52.972656 39.5 Z M 45.820312 25.28125 L 45.820312 6.320312 L 64.78125 25.28125 Z M 45.820312 25.28125 "/>
</g>
</svg>
