<?xml version="1.0" encoding="UTF-8"?>
<svg width="58px" height="54px" viewBox="0 0 58 54" version="1.1" xmlns="http://www.w3.org/2000/svg" xmlns:xlink="http://www.w3.org/1999/xlink">
    <!-- Generator: Sketch 53 (72520) - https://sketchapp.com -->
    <title>Administration icon</title>
    <desc>Created with Sketch.</desc>
    <g id="Menu-Drawer" stroke="none" stroke-width="1" fill="none" fill-rule="evenodd">
        <g id="MENU" transform="translate(-1123.000000, -336.000000)" fill-rule="nonzero">
            <g id="Administration-icon" transform="translate(1123.000000, 336.000000)">
                <g id="Group" transform="translate(18.000000, 0.000000)">
                    <path d="M20.69,48.19 L1.86,48.19 C1.36,48.19 0.96,47.79 0.96,47.29 L0.96,1.34 C0.96,0.84 1.36,0.44 1.86,0.44 L20.69,0.44 C21.19,0.44 21.59,0.84 21.59,1.34 L21.59,47.3 C21.59,47.79 21.18,48.19 20.69,48.19 Z" id="Path" fill="#8E2785"></path>
                    <path d="M16.88,19.75 L21.57,35.06 C21.58,35.11 21.59,35.15 21.59,35.2 L21.59,47.8 C21.59,48.02 21.45,48.19 21.28,48.19 L9.51,48.19 C9.4,48.19 9.3,48.12 9.25,48 L5.81,40.95 C5.78,40.89 5.76,40.82 5.76,40.75 L5.53,19.9 C5.53,19.68 5.67,19.5 5.84,19.5 L16.59,19.5 C16.71,19.5 16.83,19.6 16.88,19.75 Z" id="Path" fill="#662771"></path>
                    <path d="M17.42,9 L13.31,9 C13.01,9 12.78,8.76 12.78,8.47 L12.78,5.05 C12.78,4.75 13.02,4.52 13.31,4.52 L17.42,4.52 C17.72,4.52 17.95,4.76 17.95,5.05 L17.95,8.47 C17.95,8.76 17.71,9 17.42,9 Z" id="Path" fill="#FFFFFF"></path>
                    <path d="M16.58,21.5 L5.74,21.5 C5.62,21.5 5.52,21.38 5.52,21.22 L5.52,19.5 C5.52,19.35 5.62,19.22 5.74,19.22 L16.58,19.22 C16.7,19.22 16.8,19.34 16.8,19.5 L16.8,21.22 C16.8,21.37 16.7,21.5 16.58,21.5 Z" id="Path" fill="#FFFFFF"></path>
                    <path d="M16.62,26.39 L5.7,26.39 C5.6,26.39 5.52,26.29 5.52,26.17 L5.52,24.34 C5.52,24.22 5.6,24.12 5.7,24.12 L16.62,24.12 C16.72,24.12 16.8,24.22 16.8,24.34 L16.8,26.17 C16.8,26.29 16.72,26.39 16.62,26.39 Z" id="Path" fill="#FFFFFF"></path>
                    <path d="M16.68,31.38 L5.65,31.38 C5.58,31.38 5.53,31.31 5.53,31.22 L5.53,29.26 C5.53,29.17 5.59,29.1 5.65,29.1 L16.68,29.1 C16.75,29.1 16.8,29.17 16.8,29.26 L16.8,31.22 C16.8,31.31 16.74,31.38 16.68,31.38 Z" id="Path" fill="#FFFFFF"></path>
                    <path d="M16.64,36.23 L5.68,36.23 C5.59,36.23 5.52,36.14 5.52,36.03 L5.52,34.16 C5.52,34.05 5.59,33.96 5.68,33.96 L16.64,33.96 C16.73,33.96 16.8,34.05 16.8,34.16 L16.8,36.03 C16.8,36.14 16.73,36.23 16.64,36.23 Z" id="Path" fill="#FFFFFF"></path>
                    <path d="M16.61,40.76 L5.72,40.76 C5.61,40.76 5.53,40.65 5.53,40.52 L5.53,38.73 C5.53,38.6 5.62,38.49 5.72,38.49 L16.61,38.49 C16.72,38.49 16.8,38.6 16.8,38.73 L16.8,40.52 C16.8,40.65 16.71,40.76 16.61,40.76 Z" id="Path" fill="#FFFFFF"></path>
                </g>
                <g id="Group" transform="translate(42.000000, 4.000000)">
                    <path d="M15.02,39.99 L1.1,39.99 C0.6,39.99 0.2,39.59 0.2,39.09 L0.2,1.55 C0.2,1.05 0.6,0.65 1.1,0.65 L15.02,0.65 C15.52,0.65 15.92,1.05 15.92,1.55 L15.92,39.09 C15.93,39.58 15.52,39.99 15.02,39.99 Z" id="Path" fill="#B01F84"></path>
                    <path d="M12.34,16.56 L15.91,29.17 C15.92,29.21 15.93,29.25 15.93,29.29 L15.93,39.67 C15.93,39.85 15.82,39.99 15.69,39.99 L6.72,39.99 C6.64,39.99 6.56,39.93 6.52,39.84 L3.9,34.03 C3.88,33.98 3.87,33.92 3.86,33.87 L3.69,16.69 C3.69,16.51 3.79,16.36 3.93,16.36 L12.12,16.36 C12.21,16.35 12.3,16.43 12.34,16.56 Z" id="Path" fill="#662771"></path>
                    <path d="M12.62,7.7 L9.74,7.7 C9.44,7.7 9.21,7.46 9.21,7.17 L9.21,4.54 C9.21,4.24 9.45,4.01 9.74,4.01 L12.62,4.01 C12.92,4.01 13.15,4.25 13.15,4.54 L13.15,7.17 C13.16,7.46 12.92,7.7 12.62,7.7 Z" id="Path" fill="#FFFFFF"></path>
                    <path d="M12.11,17.99 L3.86,17.99 C3.77,17.99 3.69,17.89 3.69,17.76 L3.69,16.34 C3.69,16.21 3.77,16.11 3.86,16.11 L12.11,16.11 C12.2,16.11 12.28,16.21 12.28,16.34 L12.28,17.76 C12.28,17.89 12.2,17.99 12.11,17.99 Z" id="Path" fill="#FFFFFF"></path>
                    <path d="M12.14,21.45 L3.82,21.45 C3.75,21.45 3.69,21.37 3.69,21.27 L3.69,19.76 C3.69,19.66 3.75,19.58 3.82,19.58 L12.14,19.58 C12.21,19.58 12.27,19.66 12.27,19.76 L12.27,21.27 C12.28,21.37 12.22,21.45 12.14,21.45 Z" id="Path" fill="#FFFFFF"></path>
                    <path d="M12.18,25.1 L3.78,25.1 C3.73,25.1 3.69,25.04 3.69,24.97 L3.69,23.35 C3.69,23.28 3.73,23.22 3.78,23.22 L12.18,23.22 C12.23,23.22 12.27,23.28 12.27,23.35 L12.27,24.97 C12.28,25.05 12.24,25.1 12.18,25.1 Z" id="Path" fill="#FFFFFF"></path>
                    <path d="M12.16,28.69 L3.81,28.69 C3.74,28.69 3.69,28.62 3.69,28.52 L3.69,26.98 C3.69,26.89 3.74,26.81 3.81,26.81 L12.16,26.81 C12.23,26.81 12.28,26.88 12.28,26.98 L12.28,28.52 C12.28,28.62 12.22,28.69 12.16,28.69 Z" id="Path" fill="#FFFFFF"></path>
                    <path d="M12.13,32.96 L3.83,32.96 C3.75,32.96 3.68,32.87 3.68,32.76 L3.68,31.29 C3.68,31.18 3.75,31.09 3.83,31.09 L12.13,31.09 C12.21,31.09 12.28,31.18 12.28,31.29 L12.28,32.76 C12.28,32.87 12.21,32.96 12.13,32.96 Z" id="Path" fill="#FFFFFF"></path>
                </g>
                <g id="Group" transform="translate(0.000000, 4.000000)">
                    <path d="M15.66,39.99 L1.74,39.99 C1.24,39.99 0.84,39.59 0.84,39.09 L0.84,1.55 C0.84,1.05 1.24,0.65 1.74,0.65 L15.66,0.65 C16.16,0.65 16.56,1.05 16.56,1.55 L16.56,39.09 C16.56,39.58 16.16,39.99 15.66,39.99 Z" id="Path" fill="#C01882"></path>
                    <path d="M12.97,16.56 L16.54,29.17 C16.55,29.21 16.56,29.25 16.56,29.29 L16.56,39.67 C16.56,39.85 16.45,39.99 16.32,39.99 L7.35,39.99 C7.27,39.99 7.19,39.93 7.15,39.84 L4.53,34.03 C4.51,33.98 4.5,33.92 4.49,33.87 L4.32,16.69 C4.32,16.51 4.42,16.36 4.56,16.36 L12.75,16.36 C12.85,16.35 12.93,16.43 12.97,16.56 Z" id="Path" fill="#662771"></path>
                    <path d="M13.25,7.7 L10.37,7.7 C10.07,7.7 9.84,7.46 9.84,7.17 L9.84,4.54 C9.84,4.24 10.08,4.01 10.37,4.01 L13.25,4.01 C13.55,4.01 13.78,4.25 13.78,4.54 L13.78,7.17 C13.79,7.46 13.55,7.7 13.25,7.7 Z" id="Path" fill="#FFFFFF"></path>
                    <path d="M12.74,17.99 L4.49,17.99 C4.4,17.99 4.32,17.89 4.32,17.76 L4.32,16.34 C4.32,16.21 4.4,16.11 4.49,16.11 L12.74,16.11 C12.83,16.11 12.91,16.21 12.91,16.34 L12.91,17.76 C12.91,17.89 12.84,17.99 12.74,17.99 Z" id="Path" fill="#FFFFFF"></path>
                    <path d="M12.78,21.99 L4.46,21.99 C4.39,21.99 4.33,21.91 4.33,21.81 L4.33,20.3 C4.33,20.2 4.39,20.12 4.46,20.12 L12.78,20.12 C12.85,20.12 12.91,20.2 12.91,20.3 L12.91,21.81 C12.91,21.91 12.85,21.99 12.78,21.99 Z" id="Path" fill="#FFFFFF"></path>
                    <path d="M12.82,26.04 L4.42,26.04 C4.37,26.04 4.33,25.98 4.33,25.91 L4.33,24.29 C4.33,24.22 4.37,24.16 4.42,24.16 L12.82,24.16 C12.87,24.16 12.91,24.22 12.91,24.29 L12.91,25.91 C12.91,25.98 12.87,26.04 12.82,26.04 Z" id="Path" fill="#FFFFFF"></path>
                    <path d="M12.79,29.63 L4.44,29.63 C4.37,29.63 4.32,29.56 4.32,29.46 L4.32,27.92 C4.32,27.83 4.37,27.75 4.44,27.75 L12.79,27.75 C12.86,27.75 12.91,27.82 12.91,27.92 L12.91,29.46 C12.91,29.56 12.86,29.63 12.79,29.63 Z" id="Path" fill="#FFFFFF"></path>
                    <path d="M12.74,33.48 L4.5,33.48 C4.4,33.48 4.32,33.37 4.32,33.24 L4.32,31.85 C4.32,31.72 4.4,31.61 4.5,31.61 L12.74,31.61 C12.84,31.61 12.92,31.72 12.92,31.85 L12.92,33.24 C12.91,33.38 12.83,33.48 12.74,33.48 Z" id="Path" fill="#FFFFFF"></path>
                </g>
                <path d="M51.64,53.87 L6.89,53.87 C6.78,53.87 6.68,53.76 6.69,53.62 L6.8,46.25 C6.8,46.12 6.89,46.01 7.01,46.01 L9.11,46.05 C9.22,46.05 9.31,46.16 9.31,46.3 L9.25,50.61 C9.25,50.75 9.34,50.86 9.45,50.86 L49.13,50.86 C49.24,50.86 49.33,50.75 49.33,50.62 L49.33,46.28 C49.33,46.15 49.42,46.04 49.53,46.04 L51.63,46.04 C51.74,46.04 51.83,46.15 51.83,46.28 L51.83,53.62 C51.85,53.76 51.75,53.87 51.64,53.87 Z" id="Path" fill="#404041"></path>
            </g>
        </g>
    </g>
</svg>