<?xml version="1.0" encoding="UTF-8"?>
<svg width="55px" height="58px" viewBox="0 0 55 58" version="1.1" xmlns="http://www.w3.org/2000/svg" xmlns:xlink="http://www.w3.org/1999/xlink">
    <!-- Generator: Sketch 53 (72520) - https://sketchapp.com -->
    <title>Build Up Icon</title>
    <desc>Created with Sketch.</desc>
    <g id="Menu-Drawer" stroke="none" stroke-width="1" fill="none" fill-rule="evenodd">
        <g id="MENU" transform="translate(-1124.000000, -470.000000)" fill-rule="nonzero">
            <g id="Build-Up-Icon" transform="translate(1124.000000, 470.000000)">
                <path d="M34.83,57.7 L19.93,57.7 C19.11,57.7 18.44,57.03 18.44,56.21 L18.44,1.59 C18.44,0.77 19.11,0.1 19.93,0.1 L34.83,0.1 C35.65,0.1 36.32,0.77 36.32,1.59 L36.32,56.21 C36.32,57.04 35.65,57.7 34.83,57.7 Z" id="Path" fill="#CC3E99"></path>
                <path d="M32.35,34.86 L22.42,34.86 C21.87,34.86 21.43,34.42 21.43,33.87 L21.43,9.04 C21.43,8.49 21.87,8.05 22.42,8.05 L32.35,8.05 C32.9,8.05 33.34,8.49 33.34,9.04 L33.34,33.87 C33.34,34.42 32.9,34.86 32.35,34.86 Z" id="Path" fill="#EFF2FA"></path>
                <g id="Group" transform="translate(23.000000, 15.000000)" fill="#D7DEED">
                    <path d="M7.36,1.99 L1.4,1.99 C0.85,1.99 0.41,1.55 0.41,1 C0.41,0.45 0.85,0.01 1.4,0.01 L7.36,0.01 C7.91,0.01 8.35,0.45 8.35,1 C8.35,1.55 7.91,1.99 7.36,1.99 Z" id="Path"></path>
                    <path d="M7.36,5.96 L1.4,5.96 C0.85,5.96 0.41,5.52 0.41,4.97 C0.41,4.42 0.85,3.98 1.4,3.98 L7.36,3.98 C7.91,3.98 8.35,4.42 8.35,4.97 C8.35,5.51 7.91,5.96 7.36,5.96 Z" id="Path"></path>
                    <path d="M7.36,9.93 L1.4,9.93 C0.85,9.93 0.41,9.49 0.41,8.94 C0.41,8.39 0.85,7.95 1.4,7.95 L7.36,7.95 C7.91,7.95 8.35,8.39 8.35,8.94 C8.35,9.49 7.91,9.93 7.36,9.93 Z" id="Path"></path>
                    <path d="M7.36,17.88 L1.4,17.88 C0.85,17.88 0.41,17.44 0.41,16.89 C0.41,16.34 0.85,15.9 1.4,15.9 L7.36,15.9 C7.91,15.9 8.35,16.34 8.35,16.89 C8.35,17.44 7.91,17.88 7.36,17.88 Z" id="Path"></path>
                </g>
                <g id="Group" transform="translate(21.000000, 7.000000)" fill="#C7CFE2">
                    <rect id="Rectangle" x="0.42" y="19.92" width="11.92" height="1.99"></rect>
                    <path d="M12.34,5.02 L0.42,5.02 L0.42,1.05 C0.42,0.5 0.86,0.06 1.41,0.06 L11.34,0.06 C11.89,0.06 12.33,0.5 12.33,1.05 L12.33,5.02 L12.34,5.02 Z" id="Path"></path>
                </g>
                <circle id="Oval" fill="#464655" cx="27.38" cy="43.8" r="2.48"></circle>
                <path d="M27.38,48.27 C24.92,48.27 22.91,46.27 22.91,43.8 C22.91,41.34 24.91,39.33 27.38,39.33 C29.84,39.33 31.85,41.33 31.85,43.8 C31.85,46.26 29.85,48.27 27.38,48.27 Z M27.38,41.32 C26.01,41.32 24.9,42.43 24.9,43.8 C24.9,45.17 26.01,46.28 27.38,46.28 C28.75,46.28 29.86,45.17 29.86,43.8 C29.86,42.43 28.75,41.32 27.38,41.32 Z" id="Shape" fill="#EFF2FA"></path>
                <path d="M52.71,57.7 L37.81,57.7 C36.99,57.7 36.32,57.03 36.32,56.21 L36.32,1.59 C36.32,0.77 36.99,0.1 37.81,0.1 L52.71,0.1 C53.53,0.1 54.2,0.77 54.2,1.59 L54.2,56.21 C54.2,57.04 53.53,57.7 52.71,57.7 Z" id="Path" fill="#EA6347"></path>
                <path d="M50.22,34.86 L40.29,34.86 C39.74,34.86 39.3,34.42 39.3,33.87 L39.3,9.04 C39.3,8.49 39.74,8.05 40.29,8.05 L50.22,8.05 C50.77,8.05 51.21,8.49 51.21,9.04 L51.21,33.87 C51.22,34.42 50.77,34.86 50.22,34.86 Z" id="Path" fill="#EFF2FA"></path>
                <g id="Group" transform="translate(41.000000, 15.000000)" fill="#D7DEED">
                    <path d="M7.24,1.99 L1.28,1.99 C0.73,1.99 0.29,1.55 0.29,1 C0.29,0.45 0.73,0.01 1.28,0.01 L7.24,0.01 C7.79,0.01 8.23,0.45 8.23,1 C8.23,1.55 7.78,1.99 7.24,1.99 Z" id="Path"></path>
                    <path d="M7.24,5.96 L1.28,5.96 C0.73,5.96 0.29,5.52 0.29,4.97 C0.29,4.42 0.73,3.98 1.28,3.98 L7.24,3.98 C7.79,3.98 8.23,4.42 8.23,4.97 C8.23,5.51 7.78,5.96 7.24,5.96 Z" id="Path"></path>
                    <path d="M7.24,9.93 L1.28,9.93 C0.73,9.93 0.29,9.49 0.29,8.94 C0.29,8.39 0.73,7.95 1.28,7.95 L7.24,7.95 C7.79,7.95 8.23,8.39 8.23,8.94 C8.23,9.49 7.78,9.93 7.24,9.93 Z" id="Path"></path>
                    <path d="M7.24,17.88 L1.28,17.88 C0.73,17.88 0.29,17.44 0.29,16.89 C0.29,16.34 0.73,15.9 1.28,15.9 L7.24,15.9 C7.79,15.9 8.23,16.34 8.23,16.89 C8.23,17.44 7.78,17.88 7.24,17.88 Z" id="Path"></path>
                </g>
                <g id="Group" transform="translate(39.000000, 7.000000)" fill="#C7CFE2">
                    <rect id="Rectangle" x="0.3" y="19.92" width="11.92" height="1.99"></rect>
                    <path d="M12.22,5.02 L0.3,5.02 L0.3,1.05 C0.3,0.5 0.74,0.06 1.29,0.06 L11.22,0.06 C11.77,0.06 12.21,0.5 12.21,1.05 L12.22,5.02 L12.22,5.02 Z" id="Path"></path>
                </g>
                <circle id="Oval" fill="#464655" cx="45.26" cy="43.8" r="2.48"></circle>
                <path d="M45.26,48.27 C42.8,48.27 40.79,46.27 40.79,43.8 C40.79,41.34 42.79,39.33 45.26,39.33 C47.73,39.33 49.73,41.33 49.73,43.8 C49.73,46.26 47.72,48.27 45.26,48.27 Z M45.26,41.32 C43.89,41.32 42.78,42.43 42.78,43.8 C42.78,45.17 43.89,46.28 45.26,46.28 C46.63,46.28 47.74,45.17 47.74,43.8 C47.74,42.43 46.63,41.32 45.26,41.32 Z" id="Shape" fill="#EFF2FA"></path>
                <path d="M16.95,57.7 L2.05,57.7 C1.23,57.7 0.56,57.03 0.56,56.21 L0.56,1.59 C0.56,0.77 1.23,0.1 2.05,0.1 L16.95,0.1 C17.77,0.1 18.44,0.77 18.44,1.59 L18.44,56.21 C18.44,57.04 17.78,57.7 16.95,57.7 Z" id="Path" fill="#7B2A86"></path>
                <path d="M14.47,34.86 L4.54,34.86 C3.99,34.86 3.55,34.42 3.55,33.87 L3.55,9.04 C3.55,8.49 3.99,8.05 4.54,8.05 L14.47,8.05 C15.02,8.05 15.46,8.49 15.46,9.04 L15.46,33.87 C15.46,34.42 15.02,34.86 14.47,34.86 Z" id="Path" fill="#EFF2FA"></path>
                <g id="Group" transform="translate(5.000000, 15.000000)" fill="#D7DEED">
                    <path d="M7.48,1.99 L1.52,1.99 C0.97,1.99 0.53,1.55 0.53,1 C0.53,0.45 0.97,0.01 1.52,0.01 L7.48,0.01 C8.03,0.01 8.47,0.45 8.47,1 C8.47,1.55 8.03,1.99 7.48,1.99 Z" id="Path"></path>
                    <path d="M7.48,5.96 L1.52,5.96 C0.97,5.96 0.53,5.52 0.53,4.97 C0.53,4.42 0.97,3.98 1.52,3.98 L7.48,3.98 C8.03,3.98 8.47,4.42 8.47,4.97 C8.48,5.51 8.03,5.96 7.48,5.96 Z" id="Path"></path>
                    <path d="M7.48,9.93 L1.52,9.93 C0.97,9.93 0.53,9.49 0.53,8.94 C0.53,8.39 0.97,7.95 1.52,7.95 L7.48,7.95 C8.03,7.95 8.47,8.39 8.47,8.94 C8.48,9.49 8.03,9.93 7.48,9.93 Z" id="Path"></path>
                    <path d="M7.48,17.88 L1.52,17.88 C0.97,17.88 0.53,17.44 0.53,16.89 C0.53,16.34 0.97,15.9 1.52,15.9 L7.48,15.9 C8.03,15.9 8.47,16.34 8.47,16.89 C8.47,17.44 8.03,17.88 7.48,17.88 Z" id="Path"></path>
                </g>
                <g id="Group" transform="translate(3.000000, 7.000000)" fill="#C7CFE2">
                    <rect id="Rectangle" x="0.55" y="19.92" width="11.92" height="1.99"></rect>
                    <path d="M12.46,5.02 L0.54,5.02 L0.54,1.05 C0.54,0.5 0.98,0.06 1.53,0.06 L11.46,0.06 C12.01,0.06 12.45,0.5 12.45,1.05 L12.46,5.02 L12.46,5.02 Z" id="Path"></path>
                </g>
                <circle id="Oval" fill="#464655" cx="9.51" cy="43.8" r="2.48"></circle>
                <path d="M9.51,48.27 C7.05,48.27 5.04,46.27 5.04,43.8 C5.04,41.34 7.04,39.33 9.51,39.33 C11.97,39.33 13.98,41.33 13.98,43.8 C13.97,46.26 11.97,48.27 9.51,48.27 Z M9.51,41.32 C8.14,41.32 7.03,42.43 7.03,43.8 C7.03,45.17 8.14,46.28 9.51,46.28 C10.88,46.28 11.99,45.17 11.99,43.8 C11.99,42.43 10.87,41.32 9.51,41.32 Z" id="Shape" fill="#EFF2FA"></path>
            </g>
        </g>
    </g>
</svg>