<?xml version="1.0" encoding="UTF-8"?>
<svg width="22px" height="17px" viewBox="0 0 22 17" version="1.1" xmlns="http://www.w3.org/2000/svg" xmlns:xlink="http://www.w3.org/1999/xlink">
    <!-- Generator: Sketch 53 (72520) - https://sketchapp.com -->
    <title>BUI Sidebar icon ON</title>
    <desc>Created with Sketch.</desc>
    <g id="Material-Request-&amp;-Tender" stroke="none" stroke-width="1" fill="none" fill-rule="evenodd">
        <path d="M0,7.84610367 L6.47032245,7.84610367 L6.47032245,0 L0,0 L0,7.84610367 Z M0,17 L6.47032245,17 L6.47032245,9.15389633 L0,9.15389633 L0,17 Z M7.76451603,17 L14.2348385,17 L14.2348385,9.15389633 L7.76451603,9.15389633 L7.76451603,17 Z M15.5296776,17 L22,17 L22,9.15389633 L15.5296776,9.15389633 L15.5296776,17 Z M7.76451603,7.84610367 L14.2348385,7.84610367 L14.2348385,0 L7.76451603,0 L7.76451603,7.84610367 Z M15.5296776,7.84610367 L22,7.84610367 L22,0 L15.5296776,0 L15.5296776,7.84610367 Z" id="BUI-Sidebar-icon-ON" fill="#FF5A5F"></path>
    </g>
</svg>