<?xml version="1.0" encoding="UTF-8"?>
<svg width="55px" height="58px" viewBox="0 0 55 58" version="1.1" xmlns="http://www.w3.org/2000/svg" xmlns:xlink="http://www.w3.org/1999/xlink">
    <!-- Generator: Sketch 53 (72520) - https://sketchapp.com -->
    <title>Business Network Icon</title>
    <desc>Created with Sketch.</desc>
    <g id="Menu-Drawer" stroke="none" stroke-width="1" fill="none" fill-rule="evenodd">
        <g id="MENU" transform="translate(-1247.000000, -334.000000)" fill-rule="nonzero">
            <g id="Business-Network-Icon" transform="translate(1247.000000, 334.000000)">
                <rect id="Rectangle" fill="#404041" transform="translate(40.570179, 15.910427) rotate(-40.384400) translate(-40.570179, -15.910427) " x="36.6902541" y="14.9104464" width="7.75984984" height="1.9999613"></rect>
                <rect id="Rectangle" fill="#404041" transform="translate(9.430809, 40.991984) rotate(-38.793137) translate(-9.430809, -40.991984) " x="7.04584882" y="39.9920012" width="4.76992036" height="1.99996661"></rect>
                <rect id="Rectangle" fill="#404041" transform="translate(13.619172, 12.854169) rotate(-45.000000) translate(-13.619172, -12.854169) " x="12.6191821" y="10.0991949" width="1.99998082" height="5.50994716"></rect>
                <rect id="Rectangle" fill="#404041" transform="translate(42.256536, 45.718420) rotate(-48.267021) translate(-42.256536, -45.718420) " x="41.2564754" y="36.9928962" width="2.00012018" height="17.4510485"></rect>
                <g id="Group" transform="translate(5.000000, 10.000000)">
                    <circle id="Oval" fill="#2DB0DF" cx="19.88" cy="19.36" r="18.06"></circle>
                    <path d="M19.88,1.3 C18.88,1.3 17.91,1.4 16.96,1.56 C25.54,2.96 32.1,10.39 32.1,19.37 C32.1,28.35 25.54,35.78 16.96,37.18 C17.91,37.33 18.88,37.44 19.88,37.44 C29.86,37.44 37.94,29.35 37.94,19.38 C37.95,9.38 29.86,1.3 19.88,1.3 Z" id="Path" fill="#7EC0E2"></path>
                    <path d="M38.71,20.24 L38.71,18.47 L30.67,18.47 C30.58,14.64 30.06,11.23 29.44,8.47 C30.55,7.62 31.66,6.64 32.76,5.51 L31.5,4.27 C30.66,5.13 29.82,5.87 28.98,6.56 C28.06,3.13 27.12,1.08 27.09,1.02 L25.49,1.78 C25.52,1.84 26.54,4.05 27.46,7.72 C25.1,9.36 22.75,10.33 20.43,10.6 L20.43,0.18 L18.66,0.18 L18.66,10.68 C18.46,10.67 18.25,10.69 18.04,10.67 C15.49,10.45 13.33,9.4 11.64,8.22 C12.59,4.26 13.7,1.85 13.73,1.79 L12.13,1.03 C12.1,1.09 11.07,3.32 10.12,7.03 C8.57,5.66 7.69,4.43 7.67,4.4 L6.21,5.41 C6.3,5.55 7.52,7.27 9.66,8.98 C9.09,11.65 8.62,14.88 8.53,18.49 L0.35,18.49 L0.35,20.26 L8.52,20.26 C8.56,23.34 8.89,26.65 9.68,30.1 C7.53,31.82 6.3,33.55 6.21,33.68 L7.67,34.68 C7.69,34.65 8.58,33.4 10.16,32.01 C10.67,33.87 11.31,35.76 12.11,37.67 L13.74,36.98 C12.86,34.9 12.19,32.84 11.68,30.82 C13.35,29.66 15.5,28.62 18.02,28.4 C18.23,28.38 18.44,28.4 18.65,28.39 L18.65,38.54 L20.42,38.54 L20.42,28.47 C22.72,28.74 25.05,29.7 27.4,31.32 C26.9,33.18 26.27,35.07 25.47,36.98 L27.1,37.67 C27.84,35.92 28.44,34.18 28.92,32.47 C29.78,33.17 30.64,33.92 31.49,34.8 L32.75,33.56 C31.64,32.43 30.52,31.45 29.41,30.6 C30.28,26.97 30.64,23.48 30.68,20.25 L38.71,20.25 L38.71,20.24 Z M27.87,9.57 C28.4,12.09 28.83,15.1 28.91,18.47 L20.41,18.47 L20.41,12.39 C22.89,12.13 25.39,11.19 27.87,9.57 Z M11.21,10.09 C13,11.24 15.23,12.2 17.85,12.43 C18.11,12.45 18.37,12.46 18.63,12.46 L18.63,18.47 L10.28,18.47 C10.36,15.34 10.73,12.5 11.21,10.09 Z M17.86,26.64 C15.25,26.87 13.03,27.83 11.24,28.97 C10.6,25.92 10.32,22.99 10.28,20.25 L18.64,20.25 L18.64,26.63 C18.38,26.63 18.12,26.61 17.86,26.64 Z M27.84,29.49 C25.37,27.88 22.88,26.95 20.41,26.69 L20.41,20.24 L28.92,20.24 C28.87,23.14 28.56,26.25 27.84,29.49 Z" id="Shape" fill="#FFFFFF"></path>
                </g>
                <circle id="Oval" fill="#A10B37" cx="48.75" cy="51.53" r="6.06"></circle>
                <path d="M50.59,56.54 C47.41,55.48 45.7,52.05 46.75,48.88 C47.25,47.38 48.28,46.23 49.56,45.52 C46.76,45.18 44.02,46.85 43.09,49.63 C42.03,52.81 43.75,56.24 46.93,57.29 C48.61,57.85 50.35,57.61 51.78,56.82 C51.39,56.76 50.99,56.67 50.59,56.54 Z" id="Path" fill="#72193B"></path>
                <circle id="Oval" fill="#7B2A86" cx="45.87" cy="10.9" r="4.62"></circle>
                <path d="M44.08,10.9 C44.08,8.85 45.43,7.13 47.29,6.53 C46.84,6.39 46.37,6.29 45.88,6.29 C43.33,6.29 41.26,8.36 41.26,10.91 C41.26,13.46 43.33,15.53 45.88,15.53 C46.38,15.53 46.84,15.43 47.29,15.29 C45.43,14.68 44.08,12.96 44.08,10.9 Z" id="Path" fill="#A02484"></path>
                <circle id="Oval" fill="#BE1E5D" cx="7.68" cy="6.8" r="6.09"></circle>
                <circle id="Oval" fill="#4F5479" cx="4.77" cy="44.73" r="4.04"></circle>
                <path d="M12.17,10.89 C13.16,9.81 13.78,8.38 13.78,6.8 C13.78,3.43 11.05,0.71 7.69,0.71 C6.11,0.71 4.67,1.31 3.58,2.3 L12.17,10.89 Z" id="Path" fill="#782C62"></path>
                <path d="M1.45,47.01 L7.67,41.91 C7.67,41.91 7.67,41.91 7.67,41.91 C6.12,40.31 3.56,40.27 1.96,41.82 C0.51,43.22 0.34,45.42 1.45,47.01 Z" id="Path" fill="#93697E"></path>
            </g>
        </g>
    </g>
</svg>