<?xml version="1.0" encoding="UTF-8"?>
<svg width="59px" height="51px" viewBox="0 0 59 51" version="1.1" xmlns="http://www.w3.org/2000/svg" xmlns:xlink="http://www.w3.org/1999/xlink">
    <!-- Generator: Sketch 53 (72520) - https://sketchapp.com -->
    <title>Invoice Icon</title>
    <desc>Created with Sketch.</desc>
    <g id="Menu-Drawer" stroke="none" stroke-width="1" fill="none" fill-rule="evenodd">
        <g id="MENU" transform="translate(-1245.000000, -999.000000)" fill-rule="nonzero">
            <g id="Invoice-Icon" transform="translate(1245.000000, 999.000000)">
                <polygon id="Path" fill="#F44336" points="0.97 0.44 58.57 0.44 58.57 20.69 0.97 20.69"></polygon>
                <polygon id="Path" fill="#7B2A86" points="29.77 0.44 58.57 0.44 58.57 20.69 29.77 20.69"></polygon>
                <polygon id="Path" fill="#EDEEF2" points="44.96 8.88 44.96 46 39.9 51.06 36.52 47.68 33.14 51.06 29.76 47.68 26.38 51.06 23 47.68 19.62 51.06 14.56 46 14.56 8.88"></polygon>
                <polygon id="Path" fill="#CAD3D5" points="44.96 8.88 44.96 46 39.9 51.06 36.52 47.68 33.14 51.06 29.76 47.68 29.76 8.87 44.96 8.87"></polygon>
                <polygon id="Path" fill="#575F64" points="51.71 7.19 51.71 13.94 48.33 13.94 48.33 10.56 11.21 10.56 11.21 13.94 7.83 13.94 7.83 7.19"></polygon>
                <polygon id="Path" fill="#32393F" points="51.71 7.19 51.71 13.94 48.33 13.94 48.33 10.56 29.77 10.56 29.77 7.18 51.71 7.18"></polygon>
                <polygon id="Path" fill="#FDBF00" points="28.08 20.69 28.08 24.07 34.83 24.07 34.83 34.19 31.45 34.19 31.45 37.57 28.07 37.57 28.07 34.19 24.69 34.19 24.69 30.81 31.44 30.81 31.44 27.43 24.69 27.43 24.69 17.31 28.07 17.31 28.07 13.93 31.45 13.93 31.45 17.31 34.83 17.31 34.83 20.69"></polygon>
                <g id="Group" transform="translate(29.000000, 13.000000)" fill="#FF9100">
                    <polygon id="Path" points="5.83 4.32 5.83 7.7 0.77 7.7 0.77 0.95 2.46 0.95 2.46 4.33 5.83 4.33"></polygon>
                    <polygon id="Path" points="5.83 11.07 5.83 21.19 2.45 21.19 2.45 24.57 0.76 24.57 0.76 17.82 2.45 17.82 2.45 14.44 0.76 14.44 0.76 11.06 5.83 11.06"></polygon>
                </g>
            </g>
        </g>
    </g>
</svg>