<?xml version="1.0" encoding="UTF-8"?>
<svg width="45px" height="61px" viewBox="0 0 45 61" version="1.1" xmlns="http://www.w3.org/2000/svg" xmlns:xlink="http://www.w3.org/1999/xlink">
    <!-- Generator: Sketch 53 (72520) - https://sketchapp.com -->
    <title>Purchase Order Icon</title>
    <desc>Created with Sketch.</desc>
    <g id="Menu-Drawer" stroke="none" stroke-width="1" fill="none" fill-rule="evenodd">
        <g id="MENU" transform="translate(-1129.000000, -728.000000)">
            <g id="Purchase-Order-Icon" transform="translate(1129.000000, 728.000000)">
                <g id="Profile-Edit">
                    <g id="Group-7">
                        <g id="Group">
                            <path d="M20.03,56.4 L20.03,48.72 C19.67,48.68 19.34,48.59 19.03,48.42 C17.86,47.77 17.52,46.23 16.85,45.12 C16.2,44.03 14.96,43 14.96,41.65 C14.96,40.31 16.19,39.27 16.85,38.18 C17.52,37.06 17.87,35.52 19.03,34.88 C20.16,34.25 21.7,34.72 23.1,34.72 L23.1,28.38 L10.81,28.38 L10.81,23.95 L23.1,23.95 L23.1,19.52 L10.81,19.52 L10.81,15.09 L23.1,15.09 L23.1,0.34 L10.81,0.34 L10.81,10.67 L0.06,10.67 L0.06,60.82 L23.1,60.82 L23.1,54.92 L20.03,56.4 Z" id="XMLID_1235_" fill="#EDEEF2"></path>
                            <path d="M21.66,0.34 L21.66,15.09 L33.95,15.09 L33.95,19.52 L21.66,19.52 L21.66,23.95 L33.95,23.95 L33.95,28.38 L21.66,28.38 L21.66,34.72 C23.06,34.72 24.6,34.25 25.73,34.88 C26.9,35.53 27.24,37.07 27.91,38.18 C28.56,39.26 29.8,40.3 29.8,41.65 C29.8,43 28.57,44.03 27.91,45.12 C27.24,46.24 26.89,47.78 25.73,48.42 C25.42,48.59 25.09,48.68 24.73,48.72 L24.73,56.4 L21.66,54.92 L21.66,60.82 L44.7,60.82 L44.7,0.34 L21.66,0.34 L21.66,0.34 Z" id="XMLID_1236_" fill="#CAD3D5"></path>
                            <polygon id="XMLID_1237_" fill="#FFFFFF" points="10.14 19.06 22.38 19.06 34.62 19.06 34.62 14.74 22.38 14.74 10.14 14.74"></polygon>
                            <polygon id="XMLID_1238_" fill="#FFFFFF" points="10.14 27.7 22.38 27.7 34.62 27.7 34.62 23.38 22.38 23.38 10.14 23.38"></polygon>
                            <polygon id="XMLID_1239_" fill="#CAD3D5" points="10.14 0.34 0.06 10.42 10.14 10.42"></polygon>
                            <path d="M23.1,49.3 C22.14,49.3 21.12,49.53 20.22,49.43 L20.22,56.5 L23.1,55.14 L25.98,56.5 L25.98,49.43 C25.08,49.53 24.06,49.3 23.1,49.3 Z" id="XMLID_1240_" fill="#CC3E99"></path>
                            <path d="M18.42,35.24 C17.29,35.9 16.95,37.46 16.3,38.59 C15.66,39.69 14.46,40.74 14.46,42.11 C14.46,43.47 15.66,44.53 16.3,45.63 C16.96,46.77 17.29,48.33 18.42,48.98 C18.72,49.15 19.05,49.24 19.39,49.28 C20.32,49.39 21.39,49.14 22.38,49.14 C23.37,49.14 24.44,49.39 25.37,49.28 C25.72,49.24 26.04,49.15 26.34,48.98 C27.47,48.32 27.81,46.76 28.46,45.63 C29.1,44.53 30.3,43.48 30.3,42.11 C30.3,40.75 29.1,39.69 28.46,38.59 C27.8,37.45 27.47,35.89 26.34,35.24 C25.24,34.6 23.74,35.08 22.38,35.08 C21.02,35.07 19.52,34.6 18.42,35.24 Z M26.86,42.1 C26.86,44.58 24.85,46.59 22.38,46.59 C19.9,46.59 17.9,44.58 17.9,42.1 C17.9,39.62 19.91,37.61 22.38,37.61 C24.86,37.62 26.86,39.63 26.86,42.1 Z" id="XMLID_1241_" fill="#A2001D" fill-rule="nonzero"></path>
                            <circle id="XMLID_1244_" fill="#CC3E99" cx="23.1" cy="42.1" r="4.32"></circle>
                        </g>
                    </g>
                </g>
            </g>
        </g>
    </g>
</svg>