<?xml version="1.0" encoding="UTF-8"?>
<svg width="23px" height="17px" viewBox="0 0 23 17" version="1.1" xmlns="http://www.w3.org/2000/svg" xmlns:xlink="http://www.w3.org/1999/xlink">
    <!-- Generator: Sketch 53 (72520) - https://sketchapp.com -->
    <title>Receive delivery icon_OFF</title>
    <desc>Created with Sketch.</desc>
    <g id="Delivery-Order/Service-Order" stroke="none" stroke-width="1" fill="none" fill-rule="evenodd">
        <path d="M19.8636364,4.25 L16.7272727,4.25 L16.7272727,0 L2.09090909,0 C0.940909091,0 0,0.95678125 0,2.12553125 L0,13.8125 L2.09090909,13.8125 C2.09090909,15.5767813 3.49181818,17 5.22727273,17 C6.96272727,17 8.36363636,15.5767813 8.36363636,13.8125 L14.6363636,13.8125 C14.6363636,15.5767813 16.0372727,17 17.7727273,17 C19.5081818,17 20.9090909,15.5767813 20.9090909,13.8125 L23,13.8125 L23,8.50053125 L19.8636364,4.25 L19.8636364,4.25 Z M5.5,15 C4.67,15 4,14.3305 4,13.5 C4,12.6705 4.67,12 5.5,12 C6.33,12 7,12.6705 7,13.5 C7,14.3305 6.33,15 5.5,15 L5.5,15 Z M19.8026906,6 L22,9 L17,9 L17,6 L19.8026906,6 L19.8026906,6 Z M17.5,15 C16.67,15 16,14.3305 16,13.5 C16,12.6705 16.67,12 17.5,12 C18.33,12 19,12.6705 19,13.5 C19,14.3305 18.33,15 17.5,15 L17.5,15 Z" id="Receive-delivery-icon_OFF" fill="#A5A5A5"></path>
    </g>
</svg>