<?xml version="1.0" encoding="UTF-8"?>
<svg width="25px" height="14px" viewBox="0 0 25 14" version="1.1" xmlns="http://www.w3.org/2000/svg" xmlns:xlink="http://www.w3.org/1999/xlink">
    <!-- Generator: Sketch 53.2 (72643) - https://sketchapp.com -->
    <title>Trade sidebar icon ON</title>
    <desc>Created with Sketch.</desc>
    <g id="Material-Request-&amp;-Tender" stroke="none" stroke-width="1" fill="none" fill-rule="evenodd">
        <path d="M7.77057245,1.37423313 L6.04874776,0 L0,7 L6.04874776,14 L7.77057245,12.6257669 L2.90697674,7 L7.77057245,1.37423313 L7.77057245,1.37423313 Z M6.90966011,8.07361963 L9.14579606,8.07361963 L9.14579606,5.92638037 L6.90966011,5.92638037 L6.90966011,8.07361963 Z M15.8542039,8.07361963 L18.0903399,8.07361963 L18.0903399,5.92638037 L15.8542039,5.92638037 L15.8542039,8.07361963 Z M11.381932,8.07361963 L13.618068,8.07361963 L13.618068,5.92638037 L11.381932,5.92638037 L11.381932,8.07361963 Z M18.9512522,0 L17.2294275,1.37423313 L22.0930233,7 L17.2294275,12.6257669 L18.9512522,14 L25,7 L18.9512522,0 L18.9512522,0 Z" id="Trade-sidebar-icon-ON" fill="#FF5A5F"></path>
    </g>
</svg>