<?xml version="1.0" encoding="UTF-8"?>
<svg width="59px" height="59px" viewBox="0 0 59 59" version="1.1" xmlns="http://www.w3.org/2000/svg" xmlns:xlink="http://www.w3.org/1999/xlink">
    <!-- Generator: Sketch 53 (72520) - https://sketchapp.com -->
    <title>Request Icon</title>
    <desc>Created with Sketch.</desc>
    <g id="Menu-Drawer" stroke="none" stroke-width="1" fill="none" fill-rule="evenodd">
        <g id="MENU" transform="translate(-1245.000000, -590.000000)" fill-rule="nonzero">
            <g id="Request-Icon" transform="translate(1245.000000, 590.000000)">
                <polygon id="Path" fill="#EA6347" points="52.77 20.59 52.77 29.48 29.77 42.16 6.77 29.48 6.77 20.59 0.77 26.17 0.77 58.17 58.77 58.17 58.77 26.17"></polygon>
                <path d="M40.51,9.17 L31.63,0.9 C30.58,-0.08 28.96,-0.08 27.91,0.9 L19.03,9.17 L40.51,9.17 Z" id="Path" fill="#EA6347"></path>
                <path d="M0.86,26.22 L58.37,57.93 C58.34,58.06 58.34,58.04 58.31,58.17 L0.9,58.17 C0.83,58.17 0.77,58.11 0.77,58.04 L0.77,26.27 C0.77,26.23 0.82,26.2 0.86,26.22 Z" id="Path" fill="#7B2A86"></path>
                <path d="M58.68,26.22 L29.77,42.16 L58.37,57.93 C58.34,58.06 58.34,58.04 58.31,58.17 L58.64,58.17 C58.71,58.17 58.77,58.11 58.77,58.04 L58.77,26.27 C58.77,26.23 58.72,26.2 58.68,26.22 Z" id="Path" fill="#CC3E99"></path>
                <polygon id="Path" fill="#EDEEF2" points="29.77 42.16 52.77 29.48 52.77 9.17 6.77 9.17 6.77 29.48"></polygon>
                <path d="M32.77,17.17 L26.77,17.17 C26.22,17.17 25.77,16.72 25.77,16.17 C25.77,15.62 26.22,15.17 26.77,15.17 L32.77,15.17 C33.32,15.17 33.77,15.62 33.77,16.17 C33.77,16.73 33.32,17.17 32.77,17.17 Z" id="Path" fill="#CAD3D5"></path>
                <path d="M41.77,32.17 L34.77,32.17 C34.22,32.17 33.77,31.72 33.77,31.17 C33.77,30.62 34.22,30.17 34.77,30.17 L41.77,30.17 C42.32,30.17 42.77,30.62 42.77,31.17 C42.77,31.73 42.32,32.17 41.77,32.17 Z" id="Path" fill="#CAD3D5"></path>
                <path d="M21.77,24.17 L16.77,24.17 C16.22,24.17 15.77,23.72 15.77,23.17 C15.77,22.62 16.22,22.17 16.77,22.17 L21.77,22.17 C22.32,22.17 22.77,22.62 22.77,23.17 C22.77,23.73 22.32,24.17 21.77,24.17 Z" id="Path" fill="#CAD3D5"></path>
                <path d="M37.77,24.17 L29.77,24.17 C29.22,24.17 28.77,23.72 28.77,23.17 C28.77,22.62 29.22,22.17 29.77,22.17 L37.77,22.17 C38.32,22.17 38.77,22.62 38.77,23.17 C38.77,23.73 38.32,24.17 37.77,24.17 Z" id="Path" fill="#CAD3D5"></path>
                <path d="M25.77,24.17 C25.51,24.17 25.25,24.06 25.06,23.88 C24.88,23.69 24.77,23.43 24.77,23.17 C24.77,22.9 24.88,22.65 25.06,22.46 C25.43,22.09 26.11,22.09 26.48,22.46 C26.66,22.65 26.77,22.9 26.77,23.17 C26.77,23.43 26.66,23.69 26.48,23.88 C26.29,24.06 26.03,24.17 25.77,24.17 Z" id="Path" fill="#CAD3D5"></path>
                <path d="M30.77,32.17 L20.77,32.17 C20.22,32.17 19.77,31.72 19.77,31.17 C19.77,30.62 20.22,30.17 20.77,30.17 L30.77,30.17 C31.32,30.17 31.77,30.62 31.77,31.17 C31.77,31.73 31.32,32.17 30.77,32.17 Z" id="Path" fill="#CAD3D5"></path>
                <path d="M16.77,32.17 C16.51,32.17 16.25,32.07 16.06,31.88 C15.88,31.69 15.77,31.43 15.77,31.17 C15.77,30.9 15.87,30.65 16.06,30.46 C16.44,30.09 17.11,30.09 17.48,30.46 C17.67,30.66 17.77,30.91 17.77,31.17 C17.77,31.43 17.66,31.69 17.48,31.88 C17.29,32.06 17.03,32.17 16.77,32.17 Z" id="Path" fill="#CAD3D5"></path>
                <path d="M41.77,24.17 C41.51,24.17 41.25,24.06 41.06,23.88 C40.88,23.69 40.77,23.43 40.77,23.17 C40.77,22.9 40.88,22.65 41.06,22.46 C41.43,22.09 42.1,22.09 42.48,22.46 C42.66,22.65 42.77,22.91 42.77,23.17 C42.77,23.43 42.66,23.69 42.48,23.88 C42.29,24.06 42.03,24.17 41.77,24.17 Z" id="Path" fill="#CAD3D5"></path>
            </g>
        </g>
    </g>
</svg>