<?xml version="1.0" encoding="UTF-8"?>
<svg width="25px" height="25px" viewBox="0 0 25 25" version="1.1" xmlns="http://www.w3.org/2000/svg" xmlns:xlink="http://www.w3.org/1999/xlink">
    <!-- Generator: Sketch 53.2 (72643) - https://sketchapp.com -->
    <title>Partners sidebar icon OFF</title>
    <desc>Created with Sketch.</desc>
    <g id="Business-Network" stroke="none" stroke-width="1" fill="none" fill-rule="evenodd">
        <g id="Partners-sidebar-icon-OFF">
            <rect id="Rectangle-Copy-2" fill="#FFFFFF" x="0" y="0" width="25" height="25"></rect>
            <path d="M16.0047575,11 C17.6678908,11 19,9.66 19,8 C19,6.3405 17.6678908,5 16.0047575,5 C14.3426258,5 13,6.3405 13,8 C13,9.66 14.3426258,11 16.0047575,11 L16.0047575,11 Z M8.00500835,11 C9.66777963,11 11,9.66 11,8 C11,6.3405 9.66777963,5 8.00500835,5 C6.34223706,5 5,6.3405 5,8 C5,9.66 6.34223706,11 8.00500835,11 L8.00500835,11 Z M8,13 C5.67,13 1,14.17 1,16.5005 L1,19 L15,19 L15,16.5005 C15,14.17 10.33,13 8,13 L8,13 Z M15.9731493,13 C15.6825596,13 15.3508156,13.0205 15,13.0505 C16.1643664,13.8905 16.9774153,15.02 16.9774153,16.5005 L16.9774153,19 L23,19 L23,16.5005 C23,14.17 18.3124216,13 15.9731493,13 L15.9731493,13 Z" id="Fill-105-Copy" fill="#A5A5A5"></path>
        </g>
    </g>
</svg>