<?xml version="1.0" encoding="iso-8859-1"?>
<!-- Generator: Adobe Illustrator 19.0.0, SVG Export Plug-In . SVG Version: 6.00 Build 0)  -->
<svg xmlns="http://www.w3.org/2000/svg" xmlns:xlink="http://www.w3.org/1999/xlink" version="1.1" id="Layer_1" x="0px" y="0px" viewBox="0 0 512 512" style="enable-background:new 0 0 512 512;" xml:space="preserve" width="48" height="48">
<g>
	<polygon style="fill:#293939;" points="451,0 451,347 421,347 421,31.8  "/>
	<polygon style="fill:#FF9100;" points="300,272 300,422 30,422 30,362 60,347 30,332 30,272  "/>
	<rect x="165" y="272" style="fill:#FF641A;" width="135" height="150"/>
	<rect x="60" y="392" style="fill:#3E5959;" width="210" height="120"/>
	<rect x="165" y="392" style="fill:#293939;" width="105" height="120"/>
	<rect x="60" y="422" style="fill:#D3D3D8;" width="210" height="60"/>
	<rect x="165" y="422" style="fill:#BABAC0;" width="105" height="60"/>
	<path style="fill:#537983;" d="M60,512c-33.091,0-60-26.909-60-60s26.909-60,60-60s60,26.909,60,60S93.091,512,60,512z"/>
	<rect x="30" y="332" style="fill:#FFB64C;" width="60" height="30"/>
	<path style="fill:#3E5959;" d="M436,482c-41.353,0-76-33.647-76-75s34.647-75,76-75s76,33.647,76,75S477.353,482,436,482z"/>
	<path style="fill:#3E5959;" d="M270,512c-33.091,0-60-26.909-60-60s26.909-60,60-60s60,26.909,60,60S303.091,512,270,512z"/>
	<polygon style="fill:#FF9100;" points="171.599,153.5 184.2,180.5 272.701,248.299 297.299,265.699 451,0  "/>
	<path style="fill:#ECECF1;" d="M60,482c-16.538,0-30-13.462-30-30s13.462-30,30-30s30,13.462,30,30S76.538,482,60,482z"/>
	<path style="fill:#D3D3D8;" d="M270,482c-16.538,0-30-13.462-30-30s13.462-30,30-30s30,13.462,30,30S286.538,482,270,482z"/>
	<path style="fill:#ECECF1;" d="M300,257v105H120V152h75C252.9,152,300,199.1,300,257z"/>
	<path style="fill:#D3D3D8;" d="M300,257v105H165V152h30C252.9,152,300,199.1,300,257z"/>
</g>















</svg>
