<?xml version="1.0" encoding="UTF-8"?>
<svg width="119px" height="30px" viewBox="0 0 119 30" version="1.1" xmlns="http://www.w3.org/2000/svg" xmlns:xlink="http://www.w3.org/1999/xlink">
    <!-- Generator: Sketch 51.3 (57544) - http://www.bohemiancoding.com/sketch -->
    <title>Group/NiuAce Logo</title>
    <desc>Created with Sketch.</desc>
    <defs>
        <path d="M12.593914,0.24886 C12.5629355,0.24932 12.5314946,0.25024 12.5000538,0.25162 C11.1134194,0.30682 10.3121398,1.17116 9.71383871,2.29264 C9.27227957,3.12064 8.86909677,3.9698 8.41551613,4.79136 C6.71031183,7.87612 4.96996774,10.94202 3.28695699,14.03828 C2.32246237,15.8125 1.41160215,17.61708 0.540967742,19.43776 C0.264935484,20.01552 0.103107527,20.6839 0.055483871,21.3233 C-0.0115591398,22.23134 0.718978495,22.90018 1.62752688,22.76356 C2.32477419,22.65822 3.07056989,22.4917 3.66239785,22.13428 C6.17812903,20.61536 8.65224731,19.02698 11.126828,17.4409 C13.1020538,16.1759 15.0837527,14.91688 17.0132043,13.58518 C19.250129,12.04188 21.4079892,10.39646 24.1502796,9.7727 C25.3977419,9.48888 26.6442796,9.6416 27.5828817,10.29112 C29.444828,11.58096 31.1241398,13.13116 32.8741935,14.5797 C33.268129,14.90584 33.2648925,15.2904 33.1349677,15.7803 C32.9666667,16.41096 32.8732688,17.089 32.9153441,17.73622 C32.9333763,18.00808 33.3800215,18.25142 33.6320108,18.50764 C33.8622688,18.25786 34.112871,18.02372 34.3112258,17.7514 C34.3847419,17.65158 34.3366559,17.46298 34.3412796,17.31486 C34.3722581,16.31022 34.738914,15.75132 35.719129,15.59032 C36.6142688,15.44312 37.5408495,15.4859 38.4540215,15.44496 C38.4554086,15.47578 38.4567957,15.50706 38.4586452,15.53788 C39.2756452,15.48038 40.0917204,15.41644 40.9096452,15.36676 C41.704914,15.31892 42.2218387,14.81062 42.6948387,14.27012 C43.0245054,13.89246 42.919086,12.98396 42.5565914,12.79168 C41.9786344,12.48486 41.6401828,12.7397 41.2693656,13.24156 C41.0312473,13.56356 40.5115484,13.83082 40.1037419,13.85244 C38.4438495,13.94306 36.7779462,13.94766 35.1143548,13.938 C34.7962473,13.93524 34.4147957,13.80046 34.1729785,13.59622 C32.9255161,12.54466 31.7252151,11.43928 30.4893118,10.37438 C29.2959462,9.34628 28.0272151,8.45342 26.3756452,8.32002 C24.3292151,8.15396 22.3572258,8.36188 20.548914,9.42816 C20.0754516,9.70784 19.6842903,9.58364 19.3911505,9.15492 C19.1266774,8.7699 18.8774624,8.37246 18.6527527,7.96398 C17.5856129,6.0191 16.5392796,4.06272 15.4642796,2.12152 C14.8553441,1.02258 14.0004301,0.26772 12.6942473,0.24886 L12.593914,0.24886 Z M2.07972043,19.65442 C2.64334409,18.50856 3.29158065,17.4041 3.8982043,16.2794 C5.99087097,12.40298 8.06643011,8.51736 10.177129,4.65106 C10.6223871,3.83594 11.1619677,3.06636 11.7158817,2.31748 C11.9183978,2.0447 12.2892151,1.8952 12.7358602,1.5824 C13.1968387,2.01434 13.7313333,2.33174 14.0027419,2.79956 C15.3015269,5.03654 16.5286452,7.31492 17.7807312,9.57812 C17.8634946,9.72854 17.9217527,9.89736 18.0248602,10.03168 C18.3956774,10.51606 18.285172,10.8951 17.796914,11.20882 C14.1437634,13.56034 10.4943118,15.91876 6.83422581,18.26062 C5.58768817,19.05872 4.32496774,19.83382 3.04190323,20.57166 C2.8675914,20.6724 2.63363441,20.6701 2.39967742,20.6678 C2.29194624,20.66642 2.18421505,20.66596 2.08249462,20.6747 C2.07463441,20.33108 1.94424731,19.92812 2.07972043,19.65442 Z" id="path-1"></path>
        <linearGradient x1="0.000748456392%" y1="49.999601%" x2="99.9996938%" y2="49.999601%" id="linearGradient-3">
            <stop stop-color="#792A85" offset="0%"></stop>
            <stop stop-color="#F41538" offset="100%"></stop>
        </linearGradient>
        <linearGradient x1="-0.000473210033%" y1="49.9990677%" x2="99.9998718%" y2="49.9990677%" id="linearGradient-4">
            <stop stop-color="#792A85" offset="0%"></stop>
            <stop stop-color="#F41538" offset="100%"></stop>
        </linearGradient>
        <linearGradient x1="-0.00108463776%" y1="50.0005831%" x2="100.001267%" y2="50.0005831%" id="linearGradient-5">
            <stop stop-color="#792A85" offset="0%"></stop>
            <stop stop-color="#F41538" offset="100%"></stop>
        </linearGradient>
    </defs>
    <g id="Login/Register/Onboarding" stroke="none" stroke-width="1" fill="none" fill-rule="evenodd">
        <g id="Setup-Company-&gt;-company-Details-(2)" transform="translate(-31.000000, -14.000000)">
            <g id="Group/NiuAce-Logo" transform="translate(31.000000, 13.739000)">
                <g id="NiuAce-Logo/logo" transform="translate(71.000000, 0.000000)">
                    <g id="Group-3" transform="translate(4.000000, 0.261000)">
                        <mask id="mask-2" fill="white">
                            <use xlink:href="#path-1"></use>
                        </mask>
                        <g id="Clip-2"></g>
                        <path d="M12.593914,0.24886 C12.5629355,0.24932 12.5314946,0.25024 12.5000538,0.25162 C11.1134194,0.30682 10.3121398,1.17116 9.71383871,2.29264 C9.27227957,3.12064 8.86909677,3.9698 8.41551613,4.79136 C6.71031183,7.87612 4.96996774,10.94202 3.28695699,14.03828 C2.32246237,15.8125 1.41160215,17.61708 0.540967742,19.43776 C0.264935484,20.01552 0.103107527,20.6839 0.055483871,21.3233 C-0.0115591398,22.23134 0.718978495,22.90018 1.62752688,22.76356 C2.32477419,22.65822 3.07056989,22.4917 3.66239785,22.13428 C6.17812903,20.61536 8.65224731,19.02698 11.126828,17.4409 C13.1020538,16.1759 15.0837527,14.91688 17.0132043,13.58518 C19.250129,12.04188 21.4079892,10.39646 24.1502796,9.7727 C25.3977419,9.48888 26.6442796,9.6416 27.5828817,10.29112 C29.444828,11.58096 31.1241398,13.13116 32.8741935,14.5797 C33.268129,14.90584 33.2648925,15.2904 33.1349677,15.7803 C32.9666667,16.41096 32.8732688,17.089 32.9153441,17.73622 C32.9333763,18.00808 33.3800215,18.25142 33.6320108,18.50764 C33.8622688,18.25786 34.112871,18.02372 34.3112258,17.7514 C34.3847419,17.65158 34.3366559,17.46298 34.3412796,17.31486 C34.3722581,16.31022 34.738914,15.75132 35.719129,15.59032 C36.6142688,15.44312 37.5408495,15.4859 38.4540215,15.44496 C38.4554086,15.47578 38.4567957,15.50706 38.4586452,15.53788 C39.2756452,15.48038 40.0917204,15.41644 40.9096452,15.36676 C41.704914,15.31892 42.2218387,14.81062 42.6948387,14.27012 C43.0245054,13.89246 42.919086,12.98396 42.5565914,12.79168 C41.9786344,12.48486 41.6401828,12.7397 41.2693656,13.24156 C41.0312473,13.56356 40.5115484,13.83082 40.1037419,13.85244 C38.4438495,13.94306 36.7779462,13.94766 35.1143548,13.938 C34.7962473,13.93524 34.4147957,13.80046 34.1729785,13.59622 C32.9255161,12.54466 31.7252151,11.43928 30.4893118,10.37438 C29.2959462,9.34628 28.0272151,8.45342 26.3756452,8.32002 C24.3292151,8.15396 22.3572258,8.36188 20.548914,9.42816 C20.0754516,9.70784 19.6842903,9.58364 19.3911505,9.15492 C19.1266774,8.7699 18.8774624,8.37246 18.6527527,7.96398 C17.5856129,6.0191 16.5392796,4.06272 15.4642796,2.12152 C14.8553441,1.02258 14.0004301,0.26772 12.6942473,0.24886 L12.593914,0.24886 Z M2.07972043,19.65442 C2.64334409,18.50856 3.29158065,17.4041 3.8982043,16.2794 C5.99087097,12.40298 8.06643011,8.51736 10.177129,4.65106 C10.6223871,3.83594 11.1619677,3.06636 11.7158817,2.31748 C11.9183978,2.0447 12.2892151,1.8952 12.7358602,1.5824 C13.1968387,2.01434 13.7313333,2.33174 14.0027419,2.79956 C15.3015269,5.03654 16.5286452,7.31492 17.7807312,9.57812 C17.8634946,9.72854 17.9217527,9.89736 18.0248602,10.03168 C18.3956774,10.51606 18.285172,10.8951 17.796914,11.20882 C14.1437634,13.56034 10.4943118,15.91876 6.83422581,18.26062 C5.58768817,19.05872 4.32496774,19.83382 3.04190323,20.57166 C2.8675914,20.6724 2.63363441,20.6701 2.39967742,20.6678 C2.29194624,20.66642 2.18421505,20.66596 2.08249462,20.6747 C2.07463441,20.33108 1.94424731,19.92812 2.07972043,19.65442 Z" id="Fill-1" fill="url(#linearGradient-3)" mask="url(#mask-2)"></path>
                    </g>
                    <g id="Group-6" transform="translate(0.000000, 20.261000)">
                        <path d="M21.3004058,0.489090909 C19.6558841,0.719545455 17.9881739,0.859090909 16.3793623,1.23727273 C14.9184928,1.58090909 13.5012174,2.13954545 12.1034203,2.69727273 C10.2418551,3.44045455 8.37055072,4.18590909 6.59107246,5.09409091 C4.768,6.02409091 3.04556522,7.14545455 1.2902029,8.20045455 C0.958144928,8.39954545 0.631188406,8.645 0.390492754,8.93863636 C0.257855072,9.10090909 0.207768116,9.46227273 0.304231884,9.63545455 C0.409043478,9.82409091 0.723014493,9.99 0.95257971,9.99909091 C1.22852174,10.0104545 1.55594203,9.90636364 1.78504348,9.74681818 C5.16962319,7.40272727 8.82272464,5.54181818 12.6613333,4.04681818 C15.8826667,2.79227273 19.1981449,1.86636364 22.7278841,2.08181818 C23.6753623,2.08181818 24.6325797,1.995 25.5666087,2.10272727 C26.8285217,2.24863636 28.044058,2.65363636 29.0629565,3.42636364 C30.3401739,4.39545455 30.2098551,5.64772727 28.7995362,6.39454545 C27.4221449,7.12454545 26.0289855,7.82636364 24.6585507,8.56954545 C24.4470725,8.68409091 24.2318841,8.93090909 24.1808696,9.15227273 C24.1293913,9.37590909 24.2597101,9.84954545 24.345971,9.85818182 C24.7948986,9.90181818 25.3282319,9.96818182 25.6997101,9.77772727 C27.1958261,9.01363636 28.6437101,8.15863636 30.1082899,7.33545455 C31.3530435,6.63590909 31.9494493,5.11363636 31.4124058,3.95363636 C30.7696232,2.56545455 29.6533333,1.64409091 28.2124058,1.17727273 C26.5910725,0.652272727 24.9349565,0.353636364 23.2496232,0.353636364 C22.604058,0.353636364 21.9538551,0.397272727 21.3004058,0.489090909" id="Clip-5"></path>
                        <path d="M21.3004058,0.489090909 C19.6558841,0.719545455 17.9881739,0.859090909 16.3793623,1.23727273 C14.9184928,1.58090909 13.5012174,2.13954545 12.1034203,2.69727273 C10.2418551,3.44045455 8.37055072,4.18590909 6.59107246,5.09409091 C4.768,6.02409091 3.04556522,7.14545455 1.2902029,8.20045455 C0.958144928,8.39954545 0.631188406,8.645 0.390492754,8.93863636 C0.257855072,9.10090909 0.207768116,9.46227273 0.304231884,9.63545455 C0.409043478,9.82409091 0.723014493,9.99 0.95257971,9.99909091 C1.22852174,10.0104545 1.55594203,9.90636364 1.78504348,9.74681818 C5.16962319,7.40272727 8.82272464,5.54181818 12.6613333,4.04681818 C15.8826667,2.79227273 19.1981449,1.86636364 22.7278841,2.08181818 C23.6753623,2.08181818 24.6325797,1.995 25.5666087,2.10272727 C26.8285217,2.24863636 28.044058,2.65363636 29.0629565,3.42636364 C30.3401739,4.39545455 30.2098551,5.64772727 28.7995362,6.39454545 C27.4221449,7.12454545 26.0289855,7.82636364 24.6585507,8.56954545 C24.4470725,8.68409091 24.2318841,8.93090909 24.1808696,9.15227273 C24.1293913,9.37590909 24.2597101,9.84954545 24.345971,9.85818182 C24.7948986,9.90181818 25.3282319,9.96818182 25.6997101,9.77772727 C27.1958261,9.01363636 28.6437101,8.15863636 30.1082899,7.33545455 C31.3530435,6.63590909 31.9494493,5.11363636 31.4124058,3.95363636 C30.7696232,2.56545455 29.6533333,1.64409091 28.2124058,1.17727273 C26.5910725,0.652272727 24.9349565,0.353636364 23.2496232,0.353636364 C22.604058,0.353636364 21.9538551,0.397272727 21.3004058,0.489090909" id="Fill-4" fill="url(#linearGradient-4)"></path>
                    </g>
                    <g id="Group-9" transform="translate(33.000000, 16.261000)">
                        <path d="M13.475625,0.72996 C13.0954688,1.30636 12.5629688,1.52416 11.9048437,1.56112 C11.6146875,1.57784 11.3235938,1.57784 11.0325,1.5774 C10.8196875,1.5774 10.606875,1.57696 10.3945312,1.58356 C9.2015625,1.61876 8.525625,2.1296 8.0634375,3.16536 C7.3275,4.81756 6.5521875,6.45524 5.7478125,8.07884 C5.3128125,8.95796 4.3003125,8.99976 3.75328125,8.19984 C3.1584375,7.32864 2.5190625,6.47636 2.02453125,5.55632 C1.84921875,5.23072 1.9940625,4.71944 2.08734375,4.31112 C2.16234375,3.97892 2.46375,3.68544 2.510625,3.35588 C2.58515625,2.83492 2.0409375,2.47192 1.5796875,2.69016 C0.6590625,3.12664 -0.40359375,5.0006 0.46265625,6.19432 C1.41984375,7.513 2.23734375,8.92232 3.08953125,10.30656 C3.40171875,10.81388 3.78609375,10.94764 4.34203125,10.70212 C4.5459375,10.61192 4.76203125,10.5446 4.963125,10.44956 C6.0403125,9.94004 7.074375,9.4688 7.5178125,8.22492 C8.041875,6.754 8.81203125,5.36184 9.4565625,3.92832 C9.68484375,3.42012 10.070625,3.2076 10.6364062,3.22476 C10.8876562,3.23224 11.139375,3.22608 11.3915625,3.22608 C11.401875,3.26832 11.413125,3.311 11.4239062,3.35368 C12.16875,3.16712 12.9384375,3.03952 13.6532812,2.77904 C14.4970313,2.47192 14.9934375,1.75076 14.8645312,1.0846 C14.8167187,0.8338 14.5617187,0.47916 14.34,0.43384 C14.3025,0.42636 14.26125,0.4224 14.2176563,0.4224 C13.9514062,0.4224 13.5904687,0.55616 13.475625,0.72996" id="Clip-8"></path>
                        <path d="M13.475625,0.72996 C13.0954688,1.30636 12.5629688,1.52416 11.9048437,1.56112 C11.6146875,1.57784 11.3235938,1.57784 11.0325,1.5774 C10.8196875,1.5774 10.606875,1.57696 10.3945312,1.58356 C9.2015625,1.61876 8.525625,2.1296 8.0634375,3.16536 C7.3275,4.81756 6.5521875,6.45524 5.7478125,8.07884 C5.3128125,8.95796 4.3003125,8.99976 3.75328125,8.19984 C3.1584375,7.32864 2.5190625,6.47636 2.02453125,5.55632 C1.84921875,5.23072 1.9940625,4.71944 2.08734375,4.31112 C2.16234375,3.97892 2.46375,3.68544 2.510625,3.35588 C2.58515625,2.83492 2.0409375,2.47192 1.5796875,2.69016 C0.6590625,3.12664 -0.40359375,5.0006 0.46265625,6.19432 C1.41984375,7.513 2.23734375,8.92232 3.08953125,10.30656 C3.40171875,10.81388 3.78609375,10.94764 4.34203125,10.70212 C4.5459375,10.61192 4.76203125,10.5446 4.963125,10.44956 C6.0403125,9.94004 7.074375,9.4688 7.5178125,8.22492 C8.041875,6.754 8.81203125,5.36184 9.4565625,3.92832 C9.68484375,3.42012 10.070625,3.2076 10.6364062,3.22476 C10.8876562,3.23224 11.139375,3.22608 11.3915625,3.22608 C11.401875,3.26832 11.413125,3.311 11.4239062,3.35368 C12.16875,3.16712 12.9384375,3.03952 13.6532812,2.77904 C14.4970313,2.47192 14.9934375,1.75076 14.8645312,1.0846 C14.8167187,0.8338 14.5617187,0.47916 14.34,0.43384 C14.3025,0.42636 14.26125,0.4224 14.2176563,0.4224 C13.9514062,0.4224 13.5904687,0.55616 13.475625,0.72996" id="Fill-7" fill="url(#linearGradient-5)"></path>
                    </g>
                </g>
                <g id="NiuAce-Logo/word" transform="translate(0.000000, 0.261000)">
                    <path d="M64.8090605,11.6271818 C65.9672349,11.6271818 67.1249481,11.6253636 68.2831225,11.6276364 C69.067231,11.629 69.2203628,11.7780909 69.2355837,12.5399091 C69.2586457,13.7885455 69.1345721,13.9176364 67.8767698,13.9058182 C66.1402,13.8899091 64.4036302,13.8644545 62.6670605,13.8494545 C61.4756767,13.8385455 60.9673899,14.2112727 60.8719132,15.1144545 C60.8087233,15.7108182 61.0232,16.0280909 61.666169,16.0262727 C63.2869674,16.0217273 64.9082271,16.0308182 66.5290256,16.0344545 C66.8998628,16.0353636 67.2707,16.0344545 67.641076,16.0408182 C68.0289791,16.0476364 68.247607,16.2253636 68.2374597,16.6299091 C68.2314636,16.8580909 68.2383822,17.0862727 68.2337698,17.3144545 C68.2213163,17.904 67.9261225,18.174 67.316824,18.169 C65.6259171,18.1535455 63.9345488,18.1580909 62.2441031,18.1608182 C61.1588047,18.1621818 60.8917465,18.3249091 60.856231,18.9817273 C60.808262,19.8635455 61.3220837,20.4435455 62.2925333,20.4576364 C64.1444132,20.4835455 65.9967543,20.449 67.8490953,20.4417273 C68.1041612,20.4408182 68.3956651,20.3735455 68.6036845,20.4730909 C68.8481419,20.5908182 69.1045915,20.8235455 69.199607,21.0662727 C69.3001574,21.3235455 69.2388124,21.6526364 69.2102155,21.9462727 C69.1659364,22.3912727 68.9159442,22.6644545 68.4417891,22.6644545 C66.7047581,22.6649091 64.9686496,22.664 63.2316186,22.649 C62.4940953,22.6421818 61.7473473,22.6649091 61.0218163,22.5594545 C59.7575566,22.3758182 59.1099752,21.7076364 59.0855295,20.4549091 C59.0403279,18.154 59.0633899,15.8508182 59.1099752,13.5494545 C59.1293473,12.5717273 60.1297775,11.6653636 61.1269791,11.6471818 C62.3538783,11.6244545 63.5817,11.6417273 64.8090605,11.6417273 L64.8090605,11.6271818 Z" id="NiuAce-Logo/word/E" fill="#7A2B86"></path>
                    <g id="NiuAce-Logo/word/N" transform="translate(0.000000, 11.363636)">
                        <polygon id="Clip-13" points="0 0.253544608 11.4041176 0.253544608 11.4041176 11.3133306 0 11.3133306"></polygon>
                        <path d="M11.4029213,6.83227273 C11.4029213,7.99681818 11.40615,9.16090909 11.4019988,10.3254545 C11.3992314,11.0772727 11.1833709,11.3063636 10.4933554,11.3131818 C9.74799109,11.3209091 9.42051047,11.0281818 9.4140531,10.2968182 C9.40113837,8.72181818 9.4140531,7.14636364 9.39929341,5.57181818 C9.39375853,4.97909091 9.36792907,4.38409091 9.30473915,3.795 C9.20649496,2.87318182 8.73833605,2.44454545 7.80155698,2.43363636 C6.45842519,2.41863636 5.11437093,2.41772727 3.77170039,2.44863636 C2.57985543,2.47681818 2.18318876,2.81863636 2.13199109,4.01181818 C2.06096008,5.67545455 2.08817326,7.34318182 2.07433605,9.00909091 C2.07110736,9.42 2.08356085,9.83136364 2.07110736,10.2418182 C2.04573915,11.0818182 1.84832829,11.3059091 1.15646783,11.3104545 C0.283339922,11.3163636 0.0199717054,11.0840909 0.0158205426,10.2359091 C0.00382829457,7.95318182 -0.010470155,5.66954545 0.0112081395,3.38727273 C0.0264290698,1.78318182 1.50101434,0.312727273 3.12411899,0.281363636 C4.81456473,0.249090909 6.50639419,0.243181818 8.19683992,0.272727273 C10.0205841,0.304545455 11.4015376,1.74090909 11.4024601,3.54545455 C11.4029213,4.64090909 11.4024601,5.73681818 11.4029213,6.83227273" id="NiuAce-Logo/word/N_N" fill="#F51638"></path>
                    </g>
                    <path d="M30.6452674,16.1007273 C30.5751589,17.5334545 30.5493295,18.9702727 30.4192597,20.3984545 C30.3270116,21.4134545 29.5908721,22.0052727 28.6831512,22.3357273 C28.1693295,22.523 27.5969302,22.6489091 27.0522054,22.6425455 C25.275969,22.6211818 23.4941977,22.5943636 21.727186,22.4366364 C20.396969,22.3184545 19.5464419,21.4593636 19.4569612,20.1607273 C19.3342713,18.3657273 19.3559496,16.5611818 19.3245853,14.7607273 C19.312593,14.0534545 19.3061357,13.3452727 19.3287364,12.6389091 C19.3541047,11.858 19.5930271,11.6307273 20.3185581,11.6257273 C21.1174264,11.6202727 21.3614225,11.8257273 21.370186,12.6348182 C21.3918643,14.7566364 21.383562,16.8789091 21.3923256,19.0007273 C21.396938,20.0907273 21.7797674,20.5066364 22.8724457,20.5284545 C24.2151163,20.5552727 25.5587093,20.5557273 26.9013798,20.5311818 C28.0120465,20.5111818 28.5005,20.0934545 28.5304806,19.0093636 C28.5904419,16.8889091 28.5793721,14.7666364 28.5839845,12.6448182 C28.5853682,12.0275455 28.7827791,11.6393636 29.4875543,11.6225455 C30.2675116,11.6043636 30.5387209,11.7984545 30.5613217,12.6066364 C30.5949922,13.7693636 30.5700853,14.9339091 30.5700853,16.0975455 C30.5954535,16.0984545 30.6198992,16.0993636 30.6452674,16.1007273" id="NiuAce-Logo/word/U" fill="#F51638"></path>
                    <path d="M51.6893566,11.621 C52.8249302,11.621 53.9618876,11.6491818 55.0960775,11.611 C55.7690271,11.5882727 56.0319341,11.8655455 55.9922674,12.4946364 C55.9890388,12.5396364 55.9950349,12.5855455 55.9964186,12.6314545 C56.0323953,13.7646364 55.9383023,13.8869091 54.7681357,13.8987273 C52.8922713,13.9173636 51.0159457,13.8678182 49.1410039,13.9078182 C48.1922326,13.9282727 47.9030349,14.2296364 47.8712093,15.1696364 C47.8269302,16.4691818 47.8393837,17.7719091 47.8693643,19.0732727 C47.8924264,20.0878182 48.300624,20.4473636 49.3476395,20.4491818 C51.1787636,20.4523636 53.0094264,20.4305455 54.8405504,20.4550909 C55.204469,20.4596364 55.8502054,20.5719091 55.8788023,20.7246364 C55.9853488,21.2864545 55.9101667,21.8878182 55.8419031,22.4669091 C55.8312946,22.5564545 55.4978178,22.6678182 55.3128605,22.6687273 C53.0647752,22.6791818 50.8157674,22.701 48.5686047,22.6582727 C46.9104457,22.6269091 46.0631473,21.8164545 46.0179457,20.2032727 C45.9630581,18.2405455 45.9824302,16.2750909 45.9976512,14.311 C46.0013411,13.8823636 46.0825194,13.4428182 46.2029031,13.0291818 C46.4293721,12.2532727 47.1618217,11.6846364 48.004969,11.6614545 C49.2323295,11.6278182 50.4610736,11.6523636 51.6893566,11.6523636 L51.6893566,11.621 Z" id="NiuAce-Logo/word/C" fill="#7A2B86"></path>
                    <path d="M38.1147775,17.9393636 L38.1147775,17.9439091 C38.3684597,17.9439091 38.6221419,17.9489091 38.8749016,17.9425455 C39.6756147,17.9220909 39.8684132,17.7375455 39.6410217,16.9948182 C39.4034829,16.2193636 39.0727736,15.4661818 38.7259209,14.7293636 C38.3772233,13.9893636 38.1705876,13.9775455 37.7656186,14.7193636 C37.3223667,15.5316364 36.948762,16.3839091 36.5963744,17.2398182 C36.4413977,17.6161818 36.6115953,17.918 37.0779093,17.9366364 C37.4229171,17.9502727 37.7688473,17.9393636 38.1147775,17.9393636 Z M38.2573008,19.9657273 C37.6313977,19.9657273 37.0054946,19.9866364 36.3809752,19.9602727 C35.6208512,19.9289091 35.1549984,20.2593636 34.9312969,20.9675455 C34.8487349,21.2275455 34.7306574,21.4775455 34.6162698,21.7266364 C34.259731,22.5020909 33.760669,22.7848182 32.9179829,22.6539091 C32.4553589,22.5816364 32.2030605,22.3657273 32.4452116,21.8457273 C33.2237853,20.1775455 33.9954403,18.5061818 34.7468008,16.8261818 C35.3703977,15.4320909 35.9741612,14.0298182 36.5613202,12.6211818 C36.9210876,11.7557273 37.0995876,11.6139091 38.0548163,11.6361818 C38.1475256,11.6384545 38.2425411,11.6539091 38.3324829,11.6393636 C39.0146574,11.5284545 39.4403822,11.7725455 39.7222,12.4248182 C40.4172891,14.0316364 41.175107,15.6125455 41.9001767,17.2070909 C42.5136264,18.5561818 43.1169287,19.9098182 43.7253047,21.2616364 C43.7442155,21.3025455 43.779731,21.3375455 43.7954132,21.3789091 C43.9499287,21.7952727 44.2751031,22.2375455 43.7843434,22.6184545 C43.4333395,22.8911818 42.3102194,22.6261818 42.0865178,22.2307273 C41.7608822,21.6548182 41.5214984,21.0270909 41.1566574,20.4789091 C40.9993744,20.2420909 40.6313047,20.0407273 40.3398008,20.0125455 C39.6516302,19.9448182 38.9519287,19.9907273 38.2573008,19.9907273 L38.2573008,19.9657273 Z" id="NiuAce-Logo/word/A_A" fill="#7A2B86"></path>
                    <path d="M16.3567345,17.1940455 C16.3567345,18.6558636 16.3636531,20.1181364 16.3539671,21.5795 C16.3488934,22.3667727 16.0283314,22.6772273 15.2691298,22.6763182 C14.5412926,22.6745 14.1695329,22.3290455 14.1663043,21.5690455 C14.154312,18.6226818 14.1524671,15.6758636 14.165843,12.7295 C14.1695329,11.9222273 14.4914787,11.6281364 15.250219,11.6267727 C16.1104322,11.6245 16.3470484,11.8422273 16.3571957,12.7399545 C16.3733391,14.2245 16.3618081,15.7090455 16.3618081,17.1940455 L16.3567345,17.1940455 Z" id="NiuAce-Logo/word/I" fill="#F51638"></path>
                    <path d="M38.1147775,17.9393636 C37.7688473,17.9393636 37.4229171,17.9502727 37.0779093,17.9366364 C36.6115953,17.918 36.4413977,17.6161818 36.5963744,17.2398182 C36.948762,16.3839091 37.3223667,15.5316364 37.7656186,14.7193636 C38.1705876,13.9775455 38.3772233,13.9893636 38.7259209,14.7293636 C39.0727736,15.4661818 39.4034829,16.2193636 39.6410217,16.9948182 C39.8684132,17.7375455 39.6756147,17.9220909 38.8749016,17.9425455 C38.6221419,17.9489091 38.3684597,17.9439091 38.1147775,17.9439091 L38.1147775,17.9393636 Z" id="NiuAce-Logo/word/A" fill="#FFFFFF"></path>
                    <polygon id="NiuAce-Logo/word/F" fill="#666666" points="28.4580198 25.4353636 26.0286671 25.4353636 26.0286671 26.8467273 28.1997252 26.8467273 28.1997252 27.2535455 26.0286671 27.2535455 26.0286671 28.9753636 25.5761903 28.9753636 25.5761903 25.0235455 28.4580198 25.0235455"></polygon>
                    <path d="M32.5744973,26.3670909 C32.4960864,26.1675455 32.3863112,25.9943636 32.2447105,25.8475455 C32.1035709,25.7007273 31.9366019,25.5839091 31.7438035,25.4975455 C31.5505438,25.4107273 31.3392957,25.3675455 31.1105205,25.3675455 C30.8812841,25.3675455 30.670036,25.4102727 30.4772376,25.4948182 C30.2844391,25.5793636 30.1197764,25.6948182 29.9818655,25.8420909 C29.8444159,25.9889091 29.7369469,26.1607273 29.658536,26.3584545 C29.5801252,26.5561818 29.5409198,26.768 29.5409198,26.9939091 C29.5409198,27.2193636 29.5801252,27.4320909 29.658536,27.6316364 C29.7369469,27.8311818 29.8462609,28.0043636 29.9878616,28.1511818 C30.1285399,28.298 30.2964314,28.4148182 30.4892298,28.5011818 C30.6815671,28.588 30.8928151,28.6307273 31.1225128,28.6307273 C31.351288,28.6307273 31.5620748,28.5889091 31.7553345,28.5039091 C31.9481329,28.4193636 32.113257,28.3034545 32.2507066,28.1570909 C32.3881562,28.0098182 32.4960864,27.8375455 32.5744973,27.6402727 C32.6529081,27.4425455 32.6916523,27.2307273 32.6916523,27.0048182 C32.6916523,26.7789091 32.6529081,26.5661818 32.5744973,26.3670909 M33.0126756,27.7757273 C32.9130477,28.0225455 32.7737531,28.2393636 32.5943306,28.4275455 C32.4149081,28.6157273 32.1990477,28.7652727 31.9472105,28.8766364 C31.6953733,28.9875455 31.4158616,29.0434545 31.1105205,29.0434545 C30.8051795,29.0434545 30.5270516,28.9889091 30.2775205,28.8793636 C30.0270671,28.7702727 29.8121291,28.6225455 29.6322453,28.4361818 C29.4528229,28.2502727 29.3144508,28.0334545 29.2171291,27.7870909 C29.1198074,27.5402727 29.0709159,27.2798182 29.0709159,27.0048182 C29.0709159,26.7302727 29.1207298,26.4698182 29.2198965,26.223 C29.3190632,25.9766364 29.4583578,25.7589091 29.6382415,25.5707273 C29.817664,25.3825455 30.0330632,25.233 30.2853616,25.1220909 C30.5376601,25.0111818 30.8162492,24.9557273 31.1225128,24.9557273 C31.4278539,24.9557273 31.7050593,25.0102727 31.9555128,25.1193636 C32.2059663,25.2284545 32.420443,25.3757273 32.6003267,25.5620909 C32.7797492,25.7489091 32.9181213,25.9652727 33.015443,26.2116364 C33.113226,26.458 33.1616562,26.7189091 33.1616562,26.9939091 C33.1616562,27.2684545 33.1118422,27.5293636 33.0126756,27.7757273" id="NiuAce-Logo/word/O" fill="#666666"></path>
                    <path d="M36.569807,25.6422273 C36.389462,25.5040455 36.1371636,25.4354091 35.8110667,25.4354091 L34.5707915,25.4354091 L34.5707915,27.0445 L35.805993,27.0445 C35.9549736,27.0445 36.0928845,27.0254091 36.2192643,26.9876818 C36.3456442,26.9499545 36.4544969,26.8963182 36.5462837,26.8263182 C36.6380705,26.7563182 36.7104853,26.6708636 36.7621442,26.5685909 C36.8138031,26.4663182 36.8396326,26.3517727 36.8396326,26.2226818 C36.8396326,25.9735909 36.7496907,25.7799545 36.569807,25.6422273 Z M36.8797605,28.9754091 L35.7165124,27.4395 L34.5707915,27.4395 L34.5707915,28.9754091 L34.1183147,28.9754091 L34.1183147,25.0235909 L35.8428922,25.0235909 C36.0642876,25.0235909 36.2635434,25.0513182 36.4415822,25.1081364 C36.6186984,25.1645 36.7709078,25.2445 36.8968264,25.3481364 C37.022745,25.4517727 37.1200667,25.5758636 37.1887915,25.7208636 C37.2579775,25.8658636 37.2921093,26.0272273 37.2921093,26.2035909 C37.2921093,26.3695 37.2653574,26.5176818 37.2123147,26.6472273 C37.1583496,26.7772273 37.0831674,26.8899545 36.9853845,26.9863182 C36.8880628,27.0822273 36.7722915,27.1622273 36.638993,27.2263182 C36.5052333,27.2904091 36.3599426,27.3358636 36.2035822,27.3617727 L37.435555,28.9754091 L36.8797605,28.9754091 Z" id="NiuAce-Logo/word/R" fill="#666666"></path>
                    <path d="M42.4947616,28.393 C42.6700329,28.2684545 42.7576686,28.0925455 42.7576686,27.8657273 C42.7576686,27.6466364 42.6677267,27.4775455 42.4887655,27.3589091 C42.3102655,27.2393636 42.0450523,27.1798182 41.6949709,27.1798182 L40.4316337,27.1798182 L40.4316337,28.5802727 L41.7743043,28.5802727 C42.0796453,28.5802727 42.3190291,28.5175455 42.4947616,28.393 M42.276595,26.603 C42.4481764,26.4825455 42.5344283,26.3048182 42.5344283,26.0707273 C42.5344283,25.8698182 42.4578624,25.7116364 42.3056531,25.5943636 C42.1534438,25.4770909 41.9343547,25.4184545 41.6488469,25.4184545 L40.4316337,25.4184545 L40.4316337,26.7848182 L41.6147151,26.7848182 C41.8850019,26.7848182 42.1054748,26.7243636 42.276595,26.603 M42.2203236,25.0939091 C42.380374,25.1411818 42.5178236,25.2066364 42.6322112,25.2916364 C42.7465988,25.3757273 42.8342345,25.4798182 42.8951182,25.6016364 C42.9560019,25.7243636 42.9864438,25.8607273 42.9864438,26.0111818 C42.9864438,26.143 42.9684554,26.258 42.9324787,26.3557273 C42.8965019,26.4534545 42.8480717,26.5402727 42.7867267,26.6152727 C42.725843,26.6907273 42.6580407,26.7539091 42.583781,26.8043636 C42.5095213,26.8552727 42.4324942,26.8975455 42.3522384,26.9316364 C42.4703159,26.9652727 42.581936,27.0098182 42.6866376,27.0643636 C42.7922616,27.1189091 42.8822035,27.1839091 42.9587694,27.2589091 C43.034874,27.3343636 43.0957578,27.4248182 43.1414205,27.5302727 C43.1875446,27.6352727 43.2101453,27.7561818 43.2101453,27.8911818 C43.2101453,28.0607273 43.1760136,28.213 43.1072888,28.3484545 C43.0390252,28.4839091 42.940781,28.598 42.8125562,28.6902727 C42.6847926,28.7825455 42.5316609,28.8534545 42.3522384,28.9020909 C42.1732771,28.9511818 41.9749438,28.9752727 41.7576996,28.9752727 L39.9786957,28.9752727 L39.9786957,25.0234545 L41.6829787,25.0234545 C41.881312,25.0234545 42.0607345,25.0470909 42.2203236,25.0939091" id="NiuAce-Logo/word/B" fill="#666666"></path>
                    <path d="M47.3927186,27.2872727 C47.3927186,27.5772727 47.3521295,27.8309091 47.2718736,28.0495455 C47.1916178,28.2677273 47.0781527,28.4504545 46.9314783,28.5972727 C46.7843426,28.7440909 46.6086101,28.8540909 46.4042806,28.9272727 C46.1999512,29.0009091 45.9716372,29.0377273 45.7198,29.0377273 C45.4711915,29.0377273 45.2451837,29.0009091 45.040393,28.9272727 C44.8360636,28.8540909 44.660331,28.745 44.5136566,28.6 C44.3665209,28.455 44.2530558,28.2754545 44.1732612,28.0604545 C44.0930054,27.8459091 44.0524163,27.5995455 44.0524163,27.3209091 L44.0524163,25.0236364 L44.504893,25.0236364 L44.504893,27.2931818 C44.504893,27.7218182 44.6128233,28.0513636 44.8286837,28.2813636 C45.0440829,28.5104545 45.3452729,28.625 45.7308698,28.625 C46.101707,28.625 46.3955171,28.5163636 46.6136837,28.2981818 C46.8309279,28.0795455 46.9402419,27.7536364 46.9402419,27.3209091 L46.9402419,25.0236364 L47.3927186,25.0236364 L47.3927186,27.2872727 Z" id="NiuAce-Logo/word/U" fill="#666666"></path>
                    <polygon id="NiuAce-Logo/word/-" points="0 30 118.886996 30 118.886996 0.245909091 0 0.245909091"></polygon>
                    <polygon id="NiuAce-Logo/word/i" fill="#666666" points="48.5035698 28.9754545 48.9565078 28.9754545 48.9565078 25.0236364 48.5035698 25.0236364"></polygon>
                    <polygon id="NiuAce-Logo/word/L" fill="#666666" points="50.1304566 25.0234091 50.5833946 25.0234091 50.5833946 28.5629545 52.8407047 28.5629545 52.8407047 28.9752273 50.1304566 28.9752273"></polygon>
                    <path d="M56.6134659,26.3897273 C56.535055,26.1974545 56.4243574,26.0310909 56.2809116,25.8897273 C56.1379271,25.7488182 55.9631171,25.6379091 55.7574039,25.5565455 C55.5507682,25.4756364 55.3210705,25.4351818 55.0692333,25.4351818 L54.1296868,25.4351818 L54.1296868,28.5629091 L55.0692333,28.5629091 C55.3210705,28.5629091 55.5507682,28.5233636 55.7574039,28.4447273 C55.9631171,28.3656364 56.1379271,28.2551818 56.2809116,28.1142727 C56.4243574,27.9729091 56.535055,27.8083636 56.6134659,27.6201818 C56.6914155,27.432 56.7310822,27.227 56.7310822,27.0051818 C56.7310822,26.7865455 56.6914155,26.5815455 56.6134659,26.3897273 M57.0456481,27.7756364 C56.9427915,28.0183636 56.7965783,28.2283636 56.6074698,28.4051818 C56.4183612,28.582 56.193276,28.7215455 55.9312915,28.8233636 C55.6697682,28.9247273 55.3824155,28.9751818 55.0692333,28.9751818 L53.6772101,28.9751818 L53.6772101,25.0233636 L55.0692333,25.0233636 C55.3824155,25.0233636 55.6697682,25.0733636 55.9312915,25.1729091 C56.193276,25.2724545 56.4183612,25.4110909 56.6074698,25.5874545 C56.7965783,25.7647273 56.9427915,25.9738182 57.0456481,26.2142727 C57.1489659,26.4556364 57.2001636,26.7151818 57.2001636,26.9938182 C57.2001636,27.272 57.1489659,27.5329091 57.0456481,27.7756364" id="NiuAce-Logo/word/D" fill="#666666"></path>
                    <polygon id="NiuAce-Logo/word/E" fill="#666666" points="61.0560864 25.4295909 58.6096678 25.4295909 58.6096678 26.7791364 60.7982531 26.7791364 60.7982531 27.1855 58.6096678 27.1855 58.6096678 28.5686818 61.0846833 28.5686818 61.0846833 28.9755 58.1571911 28.9755 58.1571911 25.0232273 61.0560864 25.0232273"></polygon>
                    <path d="M64.4468946,25.6422273 C64.2670109,25.5040455 64.0147124,25.4354091 63.6890767,25.4354091 L62.4483403,25.4354091 L62.4483403,27.0445 L63.6830806,27.0445 C63.8325225,27.0445 63.9704333,27.0254091 64.0963519,26.9876818 C64.223193,26.9499545 64.332507,26.8963182 64.4242938,26.8263182 C64.5160806,26.7563182 64.5880341,26.6708636 64.639693,26.5685909 C64.6908907,26.4663182 64.7171814,26.3517727 64.7171814,26.2226818 C64.7171814,25.9735909 64.6272395,25.7799545 64.4468946,25.6422273 Z M64.7573093,28.9754091 L63.5940612,27.4395 L62.4483403,27.4395 L62.4483403,28.9754091 L61.9958636,28.9754091 L61.9958636,25.0235909 L63.7199798,25.0235909 C63.9413752,25.0235909 64.1415535,25.0513182 64.319131,25.1081364 C64.4962473,25.1645 64.6484566,25.2445 64.7743752,25.3481364 C64.9002938,25.4517727 64.9976155,25.5758636 65.0668016,25.7208636 C65.1350651,25.8658636 65.1691969,26.0272273 65.1691969,26.2035909 C65.1691969,26.3695 65.1433674,26.5176818 65.0894023,26.6472273 C65.0358984,26.7772273 64.960255,26.8899545 64.8629333,26.9863182 C64.7656116,27.0822273 64.6503016,27.1622273 64.5160806,27.2263182 C64.3827822,27.2904091 64.2379527,27.3358636 64.081131,27.3617727 L65.3126426,28.9754091 L64.7573093,28.9754091 Z" id="NiuAce-Logo/word/R" fill="#666666"></path>
                    <path d="M66.5333151,26.261 C66.563757,26.3364545 66.6191058,26.4050909 66.6989004,26.4673636 C66.7796174,26.5296364 66.8898539,26.5864545 67.0314547,26.6369091 C67.1730554,26.6878182 67.3543229,26.736 67.5757182,26.7814545 C68.0226601,26.8791818 68.3519857,27.0150909 68.5641562,27.1882727 C68.7763267,27.3619091 68.8819508,27.601 68.8819508,27.9064545 C68.8819508,28.076 68.8482802,28.231 68.7800167,28.3705455 C68.7126756,28.5096364 68.6185826,28.6287273 68.5000438,28.7264545 C68.3801213,28.8246364 68.2366756,28.9000909 68.0683229,28.9528182 C67.9008926,29.0055455 67.7168578,29.0319091 67.5189857,29.0319091 C67.1979624,29.0319091 66.9046136,28.9805455 66.6389391,28.8787273 C66.373726,28.7769091 66.120505,28.6187273 65.8801988,28.4050909 L66.1606329,28.0778182 C66.3709585,28.266 66.5826678,28.4064545 66.7966833,28.4982727 C67.0106988,28.5905455 67.2565399,28.6369091 67.5360516,28.6369091 C67.8072609,28.6369091 68.0235826,28.5746364 68.1864004,28.4500909 C68.348757,28.3255455 68.429474,28.1619091 68.429474,27.9578182 C68.429474,27.8637273 68.4142531,27.7800909 68.3838112,27.7064545 C68.3529081,27.6332727 68.2994043,27.566 68.2228384,27.5055455 C68.1458112,27.4450909 68.0401872,27.3905455 67.9045826,27.3419091 C67.7685167,27.2928182 67.5950903,27.2455455 67.3847647,27.2000909 C67.1550671,27.1514545 66.9548888,27.0946364 66.7842298,27.0305455 C66.6135709,26.9669091 66.4728926,26.8896364 66.362195,26.7991818 C66.2514973,26.7082727 66.168474,26.6028182 66.1154314,26.4819091 C66.0614663,26.3619091 66.0351756,26.2182727 66.0351756,26.0523636 C66.0351756,25.8941818 66.0670012,25.7491818 66.1324973,25.6169091 C66.1970709,25.4850909 66.2888578,25.371 66.4073965,25.2750909 C66.5250128,25.1787273 66.6647686,25.1032727 66.8252802,25.0487273 C66.9853306,24.9941818 67.1610632,24.9664545 67.3520167,24.9664545 C67.6467492,24.9664545 67.9036601,25.0064545 68.1232105,25.0864545 C68.3427609,25.1664545 68.5558539,25.286 68.7620283,25.4464545 L68.4981988,25.791 C68.3109353,25.6405455 68.1232105,25.5314545 67.9341019,25.4637273 C67.7449934,25.396 67.5471213,25.3619091 67.3414081,25.3619091 C67.2113384,25.3619091 67.0937221,25.3791818 66.9885593,25.4128182 C66.8838578,25.4469091 66.7934547,25.4923636 66.719195,25.5487273 C66.6449353,25.6055455 66.5872802,25.6728182 66.5476136,25.7523636 C66.5070244,25.8314545 66.4871911,25.916 66.4871911,26.0064545 C66.4871911,26.1005455 66.5028733,26.1855455 66.5333151,26.261" id="NiuAce-Logo/word/S" fill="#666666"></path>
                </g>
            </g>
        </g>
    </g>
</svg>