<?xml version="1.0" encoding="UTF-8"?>
<svg width="200px" height="51px" viewBox="0 0 200 51" version="1.1" xmlns="http://www.w3.org/2000/svg" xmlns:xlink="http://www.w3.org/1999/xlink">
    <!-- Generator: Sketch 51.3 (57544) - http://www.bohemiancoding.com/sketch -->
    <title>logo/NiuAceLogo/white</title>
    <desc>Created with Sketch.</desc>
    <defs></defs>
    <g id="Landing" stroke="none" stroke-width="1" fill="none" fill-rule="evenodd">
        <g id="Landing-Page-New" transform="translate(-244.000000, -15.000000)">
            <g id="logo/NiuAceLogo/white" transform="translate(244.000000, 15.000000)">
                <g id="Group-3" transform="translate(127.000000, 0.000000)">
                    <polygon id="Clip-2" points="0.0861342142 0.42198 71.820785 0.42198 71.820785 38.6293361 0.0861342142 38.6293361"></polygon>
                    <path d="M21.3255484,2.683356 C20.5776774,3.213756 19.956,3.467256 19.6176774,3.930576 C18.6901935,5.199636 17.7867097,6.503796 17.0411613,7.886736 C13.5061935,14.442636 10.0308387,21.031296 6.5276129,27.604356 C5.51109677,29.512236 4.42567742,31.384236 3.48193548,33.327216 C3.25587097,33.791316 3.47341935,34.474596 3.48735484,35.056476 C4.02774194,35.008116 4.66645161,35.131356 5.09303226,34.882536 C7.24219355,33.632196 9.35574194,32.316336 11.4429677,30.963816 C17.5714839,26.992836 23.6821935,22.993776 29.7990968,19.006416 C30.6166452,18.473676 30.8016774,17.831736 30.1807742,17.010396 C30.0089032,16.781856 29.9113548,16.496376 29.772,16.241316 C27.6754839,12.402936 25.6207742,8.540376 23.4460645,4.747236 C22.9916129,3.953976 22.0974194,3.414996 21.3255484,2.683356 M64.3877419,26.189436 C62.8587097,26.258856 61.308,26.186316 59.8091613,26.435136 C58.1670968,26.708916 57.5531613,27.656616 57.5020645,29.360136 C57.4943226,29.611296 57.5740645,29.931096 57.4517419,30.099576 C57.1188387,30.561336 56.6992258,30.959136 56.3136774,31.382676 C55.8917419,30.947436 55.143871,30.534816 55.1144516,30.074616 C55.044,28.977156 55.2003871,27.827436 55.4814194,26.757276 C55.6989677,25.927356 55.7043871,25.275276 55.0455484,24.722256 C52.1152258,22.266036 49.3033548,19.636656 46.1849032,17.451096 C44.6132903,16.348956 42.5260645,16.089996 40.4380645,16.571256 C35.8463226,17.628936 32.2323871,20.418216 28.4876129,23.035896 C25.256129,25.293996 21.9387097,27.428856 18.6313548,29.573856 C14.4870968,32.262516 10.3443871,34.956636 6.132,37.532196 C5.14180645,38.137476 3.89225806,38.420616 2.72554839,38.599236 C1.20425806,38.830896 -0.0189677419,37.697556 0.0932903226,36.157056 C0.173032258,35.072856 0.443225806,33.938736 0.905419355,32.959836 C2.36322581,29.871816 3.88916129,26.812656 5.50335484,23.804196 C8.32219355,18.554016 11.2362581,13.355316 14.0907097,8.124636 C14.8509677,6.731556 15.5252903,5.291676 16.2654194,3.887676 C17.2664516,1.986036 18.608129,0.520416 20.9299355,0.426036 C23.3020645,0.330876 24.8249032,1.642836 25.8932903,3.597516 C27.6940645,6.889116 29.4452903,10.206456 31.2329032,13.503516 C31.6091613,14.196936 32.0264516,14.870856 32.4692903,15.523716 C32.960129,16.251456 33.6143226,16.460496 34.4070968,15.987036 C37.4357419,14.178216 40.7369032,13.825656 44.1642581,14.107236 C46.9296774,14.334996 49.0532903,15.848196 51.0514839,17.591496 C53.1209032,19.397196 55.1314839,21.271536 57.2194839,23.054616 C57.6243871,23.400936 58.2630968,23.629476 58.7957419,23.633376 C61.5812903,23.650536 64.3714839,23.641956 67.1500645,23.489076 C67.8336774,23.451636 68.703871,22.999236 69.1025806,22.453236 C69.7234839,21.602256 70.2894194,21.169356 71.2571613,21.689616 C71.864129,22.016436 72.0406452,23.556936 71.4886452,24.197316 C70.6966452,25.113816 69.8310968,25.975716 68.5002581,26.056836 C67.1307097,26.140296 65.7634839,26.249496 64.3954839,26.346996 C64.3931613,26.294736 64.3900645,26.241696 64.3877419,26.189436" id="Fill-1" fill="#FFFFFF"></path>
                </g>
                <path d="M158.269965,37.866518 C152.416435,37.5091491 146.918223,39.0449309 141.576136,41.1258135 C135.210393,43.605532 129.152285,46.6921745 123.539479,50.5802585 C123.159549,50.8448925 122.616573,51.0167915 122.158966,50.9986968 C121.778267,50.983618 121.256825,50.7084288 121.083011,50.3955424 C120.923041,50.1082902 121.006871,49.5089055 121.226831,49.2397479 C121.625988,48.7527007 122.168195,48.3455715 122.718093,48.0153445 C125.629861,46.2654428 128.485485,44.4054655 131.508771,42.8628981 C134.460532,41.3565201 137.563034,40.1200536 140.650923,38.8873568 C142.968186,37.9630227 145.318519,37.0356729 147.741916,36.4664459 C150.409114,35.8391654 153.175525,35.6069509 155.901942,35.2247018 C159.816602,34.6758313 163.646661,35.1613706 167.364433,36.3661715 C169.75476,37.1404709 171.605955,38.6687134 172.671911,40.9712552 C173.562515,42.8960716 172.573468,45.4210267 170.509235,46.5813449 C168.080455,47.9459817 165.679361,49.3641485 163.198282,50.6322805 C162.581474,50.9474287 161.697791,50.837353 160.952545,50.7642206 C160.809494,50.7506496 160.593381,49.965041 160.679519,49.594855 C160.764118,49.2269308 161.120206,48.8167858 161.47091,48.6267922 C163.743566,47.3956033 166.053907,46.2307614 168.338868,45.019929 C170.677665,43.7812007 170.89301,41.7040878 168.774941,40.0966814 C167.086023,38.8149783 165.070243,38.1432151 162.976785,37.9011994 C161.427841,37.7225149 159.840443,37.866518 158.269965,37.866518" id="Fill-4" fill="#FFFFFF"></path>
                <path d="M194.312794,32.8527381 C193.903031,32.8527381 193.493267,32.8641623 193.084267,32.8504532 C192.163254,32.8215119 191.534493,33.1886102 191.163646,34.0682753 C190.114439,36.5496163 188.859968,38.9601272 188.006868,41.5046823 C187.285776,43.6585289 185.602466,44.47498 183.848955,45.3561683 C183.520839,45.5206771 183.169068,45.6372042 182.837137,45.7933352 C181.932912,46.2183163 181.30644,45.9867854 180.798242,45.1086435 C179.411762,42.7126033 178.080986,40.2731511 176.522818,37.9905915 C175.11192,35.9243306 176.841777,32.6806131 178.341189,31.9250912 C179.09204,31.5473303 179.977952,32.1756625 179.856626,33.0774144 C179.779557,33.6478639 179.289673,34.155861 179.16682,34.7308802 C179.015734,35.4376587 178.779949,36.3226551 179.065333,36.8870117 C179.869598,38.4795483 180.911175,39.9540345 181.879497,41.4620318 C182.769988,42.8466476 184.417434,42.7735325 185.126317,41.2525878 C186.435727,38.4422291 187.697828,35.6074988 188.895832,32.7476352 C189.648209,30.954794 190.747778,30.0705592 192.690529,30.00963 C193.510055,29.9829735 194.33187,30.0202926 195.149107,29.9715492 C196.220443,29.906812 197.087279,29.5298127 197.705357,28.5320973 C197.92283,28.1809928 198.685126,27.9258519 199.11244,28.0195305 C199.47413,28.0987384 199.889235,28.7118384 199.967067,29.1459588 C200.176908,30.298282 199.368065,31.5473303 197.994557,32.0789374 C196.831654,32.5298134 195.57871,32.7506817 194.365445,33.0736064 C194.347894,32.9997297 194.329581,32.9266147 194.312794,32.8527381" id="Fill-6" fill="#FFFFFF"></path>
                <path d="M108.585601,20.0011852 C110.517039,20.0011852 112.447708,19.9980555 114.379145,20.0019676 C115.68677,20.0043149 115.942141,20.2609479 115.967524,21.5722803 C116.005984,23.7215822 115.799072,23.9437889 113.701488,23.923446 C110.805485,23.8960614 107.909482,23.852246 105.013479,23.8264262 C103.02666,23.8076482 102.179012,24.4492308 102.019789,26.0038952 C101.91441,27.0304274 102.272084,27.5765551 103.344336,27.5734254 C106.047272,27.5656013 108.750977,27.5812496 111.453913,27.587509 C112.072343,27.5890738 112.690772,27.587509 113.308432,27.5984628 C113.955321,27.6101991 114.319918,27.9161245 114.302996,28.6124764 C114.292996,29.0052502 114.304534,29.3980239 114.296842,29.7907977 C114.276074,30.8055937 113.783792,31.2703499 112.767691,31.2617433 C109.947838,31.2351411 107.127216,31.2429653 104.308132,31.2476598 C102.498226,31.2500071 102.052864,31.5301127 101.993637,32.6607065 C101.913641,34.1785972 102.770519,35.1769624 104.388897,35.2012174 C107.477197,35.2458152 110.566267,35.1863514 113.655337,35.1738327 C114.080699,35.1722679 114.566828,35.0564701 114.913733,35.2278196 C115.321404,35.4304658 115.749074,35.8310638 115.907527,36.2488749 C116.075211,36.6917234 115.972909,37.258194 115.925219,37.7636359 C115.851376,38.529623 115.434475,38.9998562 114.643747,38.9998562 C111.746975,39.0006386 108.851741,38.9990737 105.954969,38.973254 C104.725033,38.9615177 103.479713,39.0006386 102.269776,38.8191176 C100.161424,38.5030208 99.0814808,37.3528665 99.0407136,35.1965229 C98.965333,31.2359235 99.0037925,27.2714121 99.0814808,23.3100304 C99.1137868,21.6270496 100.782161,20.0669083 102.445152,20.0356116 C104.491199,19.9964907 106.538785,20.0262226 108.585601,20.0262226 L108.585601,20.0011852 Z" id="Fill-8" fill="#FFFFFF"></path>
                <g id="Group-12" transform="translate(0.000000, 20.000000)">
                    <polygon id="Clip-11" points="0 0.423926584 18.7909191 0.423926584 18.7909191 18.9158887 0 18.9158887"></polygon>
                    <path d="M18.788948,11.42356 C18.788948,13.37068 18.794268,15.31704 18.787428,17.26416 C18.782868,18.5212 18.427188,18.90424 17.290228,18.91564 C16.062068,18.92856 15.522468,18.43912 15.511828,17.21628 C15.490548,14.58288 15.511828,11.94872 15.487508,9.31608 C15.478388,8.32504 15.435828,7.3302 15.331708,6.34524 C15.169828,4.80396 14.398428,4.08728 12.854868,4.06904 C10.641748,4.04396 8.427108,4.04244 6.214748,4.09412 C4.250908,4.14124 3.597308,4.71276 3.512948,6.70776 C3.395908,9.48936 3.440748,12.2778 3.417948,15.0632 C3.412628,15.75024 3.433148,16.43804 3.412628,17.12432 C3.370828,18.5288 3.045548,18.90348 1.905548,18.91108 C0.466868,18.92096 0.032908,18.5326 0.026068,17.11444 C0.006308,13.29772 -0.017252,9.47948 0.018468,5.66352 C0.043548,2.98148 2.473268,0.52288 5.147708,0.47044 C7.933108,0.41648 10.720788,0.4066 13.506188,0.456 C16.511228,0.5092 18.786668,2.9108 18.788188,5.928 C18.788948,7.7596 18.788188,9.59196 18.788948,11.42356" id="Fill-10" fill="#FFFFFF"></path>
                </g>
                <path d="M51,27.7220064 C50.8824471,30.191919 50.8391381,32.6688841 50.6210465,35.1309607 C50.4663716,36.8807434 49.2320658,37.9009928 47.7100646,38.4706713 C46.8485254,38.7935152 45.8887676,39.0105729 44.9754122,38.9996024 C41.9971468,38.9627732 39.0096009,38.9165407 36.046803,38.6446309 C33.8163908,38.4408944 32.3902881,36.9598871 32.2402535,34.721137 C32.0345358,31.6266938 32.0708844,28.5157949 32.018295,25.4119485 C31.9981872,24.1926642 31.98736,22.9718127 32.0252553,21.7540956 C32.0677909,20.4078679 32.468399,20.016067 33.6849171,20.0074474 C35.0244019,19.9980442 35.433517,20.3522322 35.4482111,21.7470432 C35.4845597,25.4048961 35.470639,29.0635326 35.4853331,32.7213854 C35.4930668,34.6004624 36.1349677,35.3174579 37.967092,35.3550708 C40.2183854,35.4013033 42.4712254,35.4020869 44.7225188,35.3597724 C46.5848047,35.3252939 47.4038083,34.605164 47.4540777,32.7362738 C47.5546164,29.0807718 47.5360554,25.4221353 47.5437891,21.7642825 C47.5461092,20.7001513 47.8771136,20.0309555 49.0588299,20.0019622 C50.3666062,19.9706181 50.8213505,20.3052161 50.8592458,21.6984599 C50.9157022,23.7029131 50.8739399,25.7105008 50.8739399,27.7165212 C50.9164755,27.7180884 50.9574644,27.7196556 51,27.7220064" id="logo/U" fill="#FFFFFF"></path>
                <path d="M86.6831481,20.0193681 C88.6096051,20.0193681 90.5384096,20.0677208 92.4625192,20.0022108 C93.6041523,19.9632167 94.0501639,20.4389442 93.9828709,21.5182997 C93.9773936,21.5955079 93.9875658,21.6742759 93.9899132,21.7530439 C94.0509464,23.6972875 93.8913212,23.9070755 91.9061784,23.9273524 C88.7238467,23.9593275 85.5407325,23.8743205 82.3599657,23.94295 C80.7504116,23.9780447 80.2597989,24.4951059 80.205808,26.1079 C80.1306902,28.3375801 80.1518171,30.5727194 80.2026781,32.805519 C80.2418019,34.5462137 80.9342936,35.1630996 82.7105151,35.1662192 C85.8169466,35.1716783 88.9225957,35.134244 92.0290272,35.1763576 C92.6464012,35.1841564 93.7418682,35.3767871 93.7903817,35.6388271 C93.9711338,36.6027602 93.8435901,37.6345429 93.7277836,38.6281114 C93.7097867,38.781748 93.1440562,38.9728189 92.8302831,38.9743787 C89.0164929,38.9923159 85.2011377,39.0297502 81.3889124,38.9564414 C78.5759095,38.9026296 77.1385003,37.5121016 77.0618176,34.7443035 C76.9687029,31.3767768 77.0015669,28.0045709 77.0273886,24.6347046 C77.0336484,23.8992767 77.1713643,23.1451317 77.3755906,22.4354398 C77.7597866,21.1041828 79.0023592,20.1285515 80.4327261,20.0887776 C82.514896,20.0310664 84.5994133,20.0731799 86.6831481,20.0731799 L86.6831481,20.0193681 Z" id="logo/C" fill="#FFFFFF"></path>
                <path d="M63.8573478,30.811894 L63.8573478,30.819663 C64.2912448,30.819663 64.7251419,30.8282089 65.1574611,30.8173323 C66.5269979,30.7823719 66.8567597,30.466951 66.4678301,29.1974984 C66.0615447,27.872109 65.4959008,26.5847878 64.9026452,25.3254349 C64.306234,24.0606437 63.9528051,24.0404443 63.2601477,25.3083431 C62.5020112,26.6966612 61.8629992,28.1533464 61.2602768,29.6162468 C60.9952051,30.259519 61.2863106,30.7753798 62.0838923,30.8072326 C62.6739922,30.8305396 63.26567,30.811894 63.8573478,30.811894 Z M64.101119,34.2753088 C63.0305767,34.2753088 61.9600344,34.3110461 60.8918588,34.265986 C59.5917455,34.21238 58.7949527,34.7771854 58.4123344,35.9875937 C58.2711207,36.4319798 58.0691613,36.8592741 57.8735132,37.2850146 C57.2636906,38.6104039 56.4100968,39.093635 54.9687698,38.8698881 C54.1774993,38.7463612 53.745969,38.3773343 54.1601435,37.4885621 C55.4918129,34.6373436 56.8116488,31.7806868 58.0967729,28.9092689 C59.1633707,26.5265204 60.1960457,24.1297876 61.2003201,21.7221783 C61.815665,20.2429631 62.1209707,20.0005707 63.7547903,20.0386387 C63.9133599,20.0425232 64.0758741,20.0689377 64.2297103,20.044077 C65.3964989,19.8545137 66.124657,20.2717083 66.6066772,21.3865581 C67.7955551,24.1328952 69.0917238,26.8349492 70.3318805,29.5603101 C71.3811224,31.8661456 72.4130084,34.1797502 73.4535724,36.4902472 C73.4859175,36.5601681 73.5466631,36.6199893 73.5734858,36.690687 C73.8377685,37.4023263 74.3939456,38.1582488 73.5545521,38.80929 C72.9541964,39.2754293 71.0332159,38.8224973 70.6505976,38.1465953 C70.0936316,37.1622646 69.6841905,36.0893674 69.0601677,35.1524275 C68.7911515,34.7476632 68.1616064,34.403497 67.6630192,34.3553293 C66.4859749,34.2395714 65.289208,34.3180382 64.101119,34.3180382 L64.101119,34.2753088 Z" id="logo/A" fill="#FFFFFF"></path>
                <path d="M27.9835898,29.5730932 C27.9835898,32.0867257 27.9961163,34.6011397 27.9785791,37.1139906 C27.969393,38.4677255 27.3889951,39.0015598 26.0144126,38.9999966 C24.6966173,38.9968702 24.0235228,38.4028525 24.0176771,37.0960138 C23.9959643,32.0296687 23.9926239,26.962542 24.016842,21.896197 C24.0235228,20.5080716 24.606426,20.002375 25.9801733,20.0000302 C27.5376438,19.9961222 27.9660526,20.3705096 27.9844249,21.9141738 C28.0136535,24.4668864 27.9927759,27.019599 27.9927759,29.5730932 L27.9835898,29.5730932 Z" id="logo/I" fill="#FFFFFF"></path>
                <polygon id="logo/F" fill="#FFFFFF" points="48 43.7294686 43.7850512 43.7294686 43.7850512 46.2294686 47.5518566 46.2294686 47.5518566 46.9500805 43.7850512 46.9500805 43.7850512 50 43 50 43 43 48 43"></polygon>
                <path d="M54.9952644,45.4168798 C54.8610892,45.0751696 54.6732439,44.7786056 54.4309392,44.5271878 C54.1894238,44.27577 53.9037096,44.0757256 53.5737964,43.9278328 C53.2430939,43.7791616 52.8816101,43.7052152 52.4901342,43.7052152 C52.097869,43.7052152 51.7363852,43.7783832 51.406472,43.9231625 C51.0765588,44.0679417 50.7947908,44.2656511 50.5588003,44.5178472 C50.3235991,44.769265 50.1397001,45.0634938 50.0055249,45.4020905 C49.8713496,45.7406872 49.804262,46.1034138 49.804262,46.4902702 C49.804262,46.8763483 49.8713496,47.2406316 50.0055249,47.5823418 C50.1397001,47.924052 50.3267561,48.220616 50.5690608,48.4720338 C50.8097869,48.7234516 51.0970797,48.9234961 51.4269929,49.0713889 C51.7561168,49.22006 52.1176006,49.2932281 52.5106551,49.2932281 C52.902131,49.2932281 53.2628256,49.2216168 53.593528,49.0760592 C53.9234412,48.9312799 54.2059984,48.7327922 54.4411997,48.4821528 C54.6764009,48.2299566 54.8610892,47.9349494 54.9952644,47.5971311 C55.1294396,47.2585344 55.195738,46.8958079 55.195738,46.5089514 C55.195738,46.122095 55.1294396,45.7578116 54.9952644,45.4168798 M55.7450671,47.8290893 C55.5745856,48.2517514 55.3362273,48.6230401 55.0292028,48.9452908 C54.7221784,49.2675414 54.3528019,49.5236295 53.9218627,49.7143334 C53.4909234,49.9042589 53.0126283,50 52.4901342,50 C51.9676401,50 51.4917127,49.906594 51.0647198,49.7190037 C50.6361484,49.5321917 50.2683504,49.2792172 49.9605367,48.9600801 C49.6535122,48.6417213 49.4167324,48.2704326 49.2501973,47.8485489 C49.0836622,47.4258868 49,46.9798732 49,46.5089514 C49,46.038808 49.0852407,45.5927944 49.2549329,45.1701323 C49.4246251,44.7482486 49.6629834,44.3754031 49.9707972,44.0531525 C50.2778216,43.7309018 50.6464088,43.4748137 51.0781373,43.2848882 C51.5098658,43.0949627 51.9865825,43 52.5106551,43 C53.0331492,43 53.507498,43.093406 53.9360695,43.2802179 C54.3646409,43.4670299 54.7316496,43.7192261 55.0394633,44.0383632 C55.3464878,44.3582787 55.5832676,44.7287891 55.7498027,45.1506727 C55.9171271,45.5725564 56,46.0193484 56,46.4902702 C56,46.9604137 55.9147593,47.4072056 55.7450671,47.8290893" id="logo/O" fill="#FFFFFF"></path>
                <path d="M61.4340934,44.0958132 C61.1078977,43.8510467 60.6515573,43.7294686 60.0617353,43.7294686 L57.8184093,43.7294686 L57.8184093,46.5797101 L60.0525584,46.5797101 C60.3220245,46.5797101 60.5714683,46.5458937 60.8000556,46.479066 C61.0286429,46.4122383 61.2255284,46.3172303 61.3915462,46.1932367 C61.557564,46.0692432 61.6885428,45.9178744 61.78198,45.736715 C61.8754171,45.5555556 61.9221357,45.352657 61.9221357,45.1239936 C61.9221357,44.6827697 61.7594549,44.3397746 61.4340934,44.0958132 Z M61.9947164,50 L59.8907119,47.2793881 L57.8184093,47.2793881 L57.8184093,50 L57,50 L57,43 L60.1192992,43 C60.5197442,43 60.8801446,43.0491143 61.2021691,43.1497585 C61.522525,43.2495974 61.7978309,43.3913043 62.025584,43.5748792 C62.253337,43.7584541 62.429366,43.9782609 62.5536707,44.2351047 C62.6788098,44.4919485 62.7405451,44.7777778 62.7405451,45.0901771 C62.7405451,45.384058 62.692158,45.6465378 62.596218,45.8760064 C62.4986096,46.1062802 62.3626251,46.3059581 62.185762,46.4766506 C62.009733,46.6465378 61.8003337,46.7882448 61.5592325,46.9017713 C61.317297,47.0152979 61.054505,47.0958132 60.7716908,47.1417069 L63,50 L61.9947164,50 Z" id="logo/R" fill="#FFFFFF"></path>
                <path d="M70.8930916,48.968599 C71.1642878,48.7479871 71.2998858,48.4363929 71.2998858,48.0346216 C71.2998858,47.6465378 71.1607194,47.3470209 70.8838139,47.136876 C70.607622,46.9251208 70.1972595,46.8196457 69.6555809,46.8196457 L67.7008279,46.8196457 L67.7008279,49.3003221 L69.7783329,49.3003221 C70.250785,49.3003221 70.6211818,49.189211 70.8930916,48.968599 M70.5555238,45.7979066 C70.8210106,45.5845411 70.9544676,45.2697262 70.9544676,44.8550725 C70.9544676,44.4991948 70.8359977,44.2190016 70.6004853,44.0112721 C70.3649729,43.8035427 70.0259777,43.6996779 69.5842135,43.6996779 L67.7008279,43.6996779 L67.7008279,46.1199678 L69.5314017,46.1199678 C69.9496146,46.1199678 70.2907508,46.0128824 70.5555238,45.7979066 M70.4684556,43.1247987 C70.7161005,43.2085346 70.9287753,43.3244767 71.1057665,43.4750403 C71.2827576,43.6239936 71.4183557,43.8083736 71.5125607,44.0241546 C71.6067656,44.2415459 71.6538681,44.4830918 71.6538681,44.7495974 C71.6538681,44.9830918 71.6260348,45.1867955 71.5703683,45.3599034 C71.5147017,45.5330113 71.4397659,45.6867955 71.3448473,45.8196457 C71.2506423,45.9533011 71.1457322,46.0652174 71.0308307,46.1545894 C70.9159292,46.2447665 70.7967456,46.3196457 70.6725664,46.3800322 C70.8552669,46.4396135 71.027976,46.5185185 71.18998,46.6151369 C71.3534114,46.7117552 71.4925778,46.8268921 71.6110477,46.9597424 C71.7288039,47.0933977 71.8230088,47.2536232 71.8936626,47.4404187 C71.96503,47.626409 72,47.8405797 72,48.0797101 C72,48.3800322 71.9471881,48.6497585 71.8408507,48.889694 C71.7352269,49.1296296 71.5832144,49.331723 71.384813,49.4951691 C71.1871253,49.6586151 70.9501856,49.784219 70.6725664,49.8703704 C70.3956609,49.9573269 70.088781,50 69.7526406,50 L67,50 L67,43 L69.6370254,43 C69.9439052,43 70.2215244,43.041868 70.4684556,43.1247987" id="logo/B" fill="#FFFFFF"></path>
                <path d="M80,46.9474578 C80,47.4531763 79.927092,47.8954818 79.7829329,48.2767523 C79.6387738,48.6572302 79.4349627,48.9758804 79.1714996,49.2319103 C78.907208,49.4879402 78.5915493,49.6797645 78.2245236,49.8073831 C77.8574979,49.9357944 77.4473902,50 76.995029,50 C76.5484673,50 76.1425021,49.9357944 75.7746479,49.8073831 C75.4076222,49.6797645 75.0919635,49.4895255 74.8285004,49.2366663 C74.5642088,48.983807 74.3603977,48.6707055 74.2170671,48.2957762 C74.072908,47.9216397 74,47.4920168 74,47.0061148 L74,43 L74.8127589,43 L74.8127589,46.9577624 C74.8127589,47.7052429 75.006628,48.279923 75.3943662,48.6810101 C75.7812759,49.0805118 76.3222867,49.2802627 77.014913,49.2802627 C77.6810273,49.2802627 78.2087821,49.0908164 78.6006628,48.7103386 C78.9908865,48.3290681 79.1872411,47.7607292 79.1872411,47.0061148 L79.1872411,43 L80,43 L80,46.9474578 Z" id="logo/U" fill="#FFFFFF"></path>
                <polygon id="logo/-" points="0 52 200 52 200 1 0 1"></polygon>
                <polygon id="logo/l" points="81.009 50 81.991 50 81.991 43 81.009 43"></polygon>
                <polygon id="logo/L" fill="#FFFFFF" points="84 43 84.8356025 43 84.8356025 49.2697262 89 49.2697262 89 50 84 50"></polygon>
                <path d="M93.0007855,45.4202899 C92.8672427,45.0797101 92.6787117,44.7850242 92.4344069,44.5346216 C92.1908877,44.2850242 91.8931658,44.0885668 91.5428123,43.9444444 C91.1908877,43.8011272 90.7996858,43.7294686 90.3707777,43.7294686 L88.7706206,43.7294686 L88.7706206,49.2697262 L90.3707777,49.2697262 C90.7996858,49.2697262 91.1908877,49.1996779 91.5428123,49.0603865 C91.8931658,48.9202899 92.1908877,48.7246377 92.4344069,48.4750403 C92.6787117,48.2246377 92.8672427,47.9331723 93.0007855,47.599839 C93.1335428,47.2665056 93.2010998,46.9033816 93.2010998,46.510467 C93.2010998,46.1231884 93.1335428,45.7600644 93.0007855,45.4202899 M93.7368421,47.8752013 C93.5616654,48.305153 93.3126473,48.6771337 92.9905734,48.9903382 C92.6684996,49.3035427 92.2851532,49.5507246 91.8389631,49.7310789 C91.3935585,49.910628 90.9041634,50 90.3707777,50 L88,50 L88,43 L90.3707777,43 C90.9041634,43 91.3935585,43.0885668 91.8389631,43.2648953 C92.2851532,43.4412238 92.6684996,43.6867955 92.9905734,43.9991948 C93.3126473,44.3132045 93.5616654,44.6835749 93.7368421,45.1095008 C93.9128044,45.537037 94,45.9967794 94,46.4903382 C94,46.9830918 93.9128044,47.4452496 93.7368421,47.8752013" id="logo/D" fill="#FFFFFF"></path>
                <polygon id="logo/E" fill="#FFFFFF" points="102.951158 43.719724 98.7728061 43.719724 98.7728061 46.1099482 102.510793 46.1099482 102.510793 46.8296722 98.7728061 46.8296722 98.7728061 49.279471 103 49.279471 103 50 98 50 98 43 102.951158 43"></polygon>
                <path d="M108.433876,44.0958132 C108.108469,43.8510467 107.652065,43.7294686 107.062995,43.7294686 L104.818523,43.7294686 L104.818523,46.5797101 L107.052149,46.5797101 C107.322486,46.5797101 107.571965,46.5458937 107.79975,46.479066 C108.029203,46.4122383 108.22695,46.3172303 108.392991,46.1932367 C108.559032,46.0692432 108.689195,45.9178744 108.782645,45.736715 C108.875261,45.5555556 108.92282,45.352657 108.92282,45.1239936 C108.92282,44.6827697 108.760117,44.3397746 108.433876,44.0958132 Z M108.995411,50 L106.891114,47.2793881 L104.818523,47.2793881 L104.818523,50 L104,50 L104,43 L107.118899,43 C107.519399,43 107.881519,43.0491143 108.202753,43.1497585 C108.523154,43.2495974 108.798498,43.3913043 109.026283,43.5748792 C109.254068,43.7584541 109.430121,43.9782609 109.555277,44.2351047 C109.678765,44.4919485 109.740509,44.7777778 109.740509,45.0901771 C109.740509,45.384058 109.693784,45.6465378 109.596162,45.8760064 C109.499374,46.1062802 109.362537,46.3059581 109.186483,46.4766506 C109.01043,46.6465378 108.801836,46.7882448 108.559032,46.9017713 C108.317897,47.0152979 108.055903,47.0958132 107.772215,47.1417069 L110,50 L108.995411,50 Z" id="logo/R" fill="#FFFFFF"></path>
                <path d="M112.087892,45.2289803 C112.138599,45.3588998 112.230793,45.4770796 112.363706,45.5843023 C112.498156,45.691525 112.681776,45.789356 112.91764,45.8762299 C113.153503,45.9638864 113.455439,46.046847 113.824216,46.1251118 C114.568685,46.293381 115.11724,46.5273927 115.470652,46.8255814 C115.824063,47.1245528 116,47.5362254 116,48.0621646 C116,48.3540921 115.943915,48.620975 115.830209,48.8612478 C115.718039,49.1007379 115.561309,49.3057916 115.36386,49.4740608 C115.164106,49.6431127 114.925169,49.7730322 114.644745,49.8638193 C114.365857,49.9546064 114.059312,50 113.729717,50 C113.194991,50 112.706361,49.9115608 112.263829,49.7362478 C111.822065,49.5609347 111.400277,49.2885733 111,48.920729 L111.467117,48.3572227 C111.817455,48.6812388 112.170098,48.9230769 112.526583,49.0811717 C112.883067,49.2400492 113.292563,49.3198792 113.758144,49.3198792 C114.209896,49.3198792 114.570221,49.2126565 114.841426,48.9982111 C115.111862,48.7837657 115.246312,48.5020125 115.246312,48.1506038 C115.246312,47.9885957 115.220959,47.8445886 115.170252,47.7177996 C115.118777,47.5917934 115.029656,47.4759615 114.90212,47.3718694 C114.773817,47.2677773 114.59788,47.1738596 114.372004,47.0901163 C114.14536,47.0055903 113.856484,46.924195 113.506146,46.8459302 C113.12354,46.7621869 112.790104,46.664356 112.505839,46.5540027 C112.221573,46.444432 111.987246,46.3113819 111.802858,46.1556351 C111.61847,45.9991055 111.480178,45.8175313 111.391825,45.609347 C111.301936,45.4027281 111.258144,45.1554114 111.258144,44.8697451 C111.258144,44.5973837 111.311156,44.3477191 111.420252,44.1199687 C111.527812,43.8930009 111.680701,43.6965564 111.87815,43.5314177 C112.074063,43.3654964 112.306853,43.2355769 112.574216,43.1416592 C112.840811,43.0477415 113.133528,43 113.451598,43 C113.942532,43 114.370467,43.068873 114.736171,43.206619 C115.101875,43.3443649 115.456822,43.5502013 115.800246,43.8264758 L115.360787,44.4197227 C115.048863,44.1606664 114.736171,43.9728309 114.421174,43.8562165 C114.106177,43.739602 113.776583,43.6809034 113.433927,43.6809034 C113.217271,43.6809034 113.021358,43.710644 112.846189,43.7685599 C112.671789,43.8272585 112.521205,43.9055233 112.397511,44.0025716 C112.273817,44.1004025 112.177781,44.2162343 112.111709,44.3531977 C112.0441,44.4893784 112.011063,44.6349508 112.011063,44.7906977 C112.011063,44.9527057 112.037185,45.0990608 112.087892,45.2289803" id="logo/S" fill="#FFFFFF"></path>
            </g>
        </g>
    </g>
</svg>