<svg width="607" height="432" xmlns="http://www.w3.org/2000/svg" xmlns:xlink="http://www.w3.org/1999/xlink" overflow="hidden"><defs><clipPath id="clip0"><rect x="133" y="158" width="607" height="432"/></clipPath></defs><g clip-path="url(#clip0)" transform="translate(-133 -158)"><path d="M606.213 554.601C606.111 572.239 591.741 586.452 574.104 586.35L100.515 583.763C82.8774 583.661 68.664 569.298 68.7661 551.667L70.747 186.258C70.8559 168.634 85.2259 154.421 102.856 154.523L576.459 157.11C594.083 157.205 608.296 171.568 608.201 189.199L606.213 554.601" fill="#F68C1E" transform="matrix(1.00133 0 0 1 64.3008 3.60226)"/><path d="M575.921 586.364 98.6973 583.75 100.882 183.78 578.113 186.381 575.921 586.364" fill="#FFFFFF" transform="matrix(1.00133 0 0 1 64.3008 3.60226)"/><path d="M611.605 556.269C608.535 572.981 591.741 586.452 574.104 586.35L100.515 583.763C82.8774 583.661 70.8151 570.054 73.5584 553.335L117.764 284.329C120.494 267.624 137.206 254.153 155.054 254.248L308.542 255.085 357.003 198.137 644.871 199.716C662.747 199.818 674.748 213.439 671.678 230.158L611.605 556.269" fill="#F9B81C" transform="matrix(1.00133 0 0 1 64.3008 3.60226)"/></g></svg>