<?xml version="1.0" encoding="UTF-8"?>
<svg width="25px" height="25px" viewBox="0 0 25 25" version="1.1" xmlns="http://www.w3.org/2000/svg" xmlns:xlink="http://www.w3.org/1999/xlink">
    <!-- Generator: Sketch 53.2 (72643) - https://sketchapp.com -->
    <title>My Catalog  sidebar icon OFF</title>
    <desc>Created with Sketch.</desc>
    <g id="Company" stroke="none" stroke-width="1" fill="none" fill-rule="evenodd">
        <g id="My-Catalog--sidebar-icon-OFF">
            <rect id="Partners-Sidebar-icon-ON" fill="#FFFFFF" x="0" y="0" width="25" height="25"></rect>
            <path d="M22.3805,12.059 L12.9305,2.609 C12.5525,2.231 12.0275,2 11.45,2 L4.1,2 C2.945,2 2,2.945 2,4.1 L2,11.45 C2,12.0275 2.231,12.5525 2.6195,12.941 L12.0695,22.391 C12.4475,22.769 12.9725,23 13.55,23 C14.1275,23 14.6525,22.769 15.0305,22.3805 L22.3805,15.0305 C22.769,14.6525 23,14.1275 23,13.55 C23,12.9725 22.7585,12.437 22.3805,12.059 L22.3805,12.059 Z M7,8 C6.44666667,8 6,7.55333333 6,7 C6,6.44666667 6.44666667,6 7,6 C7.55333333,6 8,6.44666667 8,7 C8,7.55333333 7.55333333,8 7,8 L7,8 Z" id="Fill-240-Copy" fill="#B8B8B8"></path>
        </g>
    </g>
</svg>