<?xml version="1.0" encoding="UTF-8"?>
<svg width="71px" height="41px" viewBox="0 0 71 41" version="1.1" xmlns="http://www.w3.org/2000/svg" xmlns:xlink="http://www.w3.org/1999/xlink">
    <!-- Generator: Sketch 53 (72520) - https://sketchapp.com -->
    <title>Delivery Order Icon</title>
    <desc>Created with Sketch.</desc>
    <g id="Menu-Drawer" stroke="none" stroke-width="1" fill="none" fill-rule="evenodd">
        <g id="MENU" transform="translate(-1239.000000, -872.000000)" fill-rule="nonzero">
            <g id="Delivery-Order-Icon" transform="translate(1239.000000, 872.000000)">
                <g id="Group" transform="translate(0.000000, 5.000000)" fill="#7B2A86">
                    <path d="M18.17,2.21 C18.17,1 17.18,0.01 15.97,0.01 L2.77,0.01 C1.56,0.01 0.57,1 0.57,2.21 C0.57,3.42 1.56,4.41 2.77,4.41 L15.97,4.41 C17.18,4.41 18.17,3.42 18.17,2.21 Z" id="Path"></path>
                    <path d="M15.97,8.81 L7.17,8.81 C5.96,8.81 4.97,9.8 4.97,11.01 C4.97,12.22 5.96,13.21 7.17,13.21 L15.97,13.21 C17.18,13.21 18.17,12.22 18.17,11.01 C18.17,9.79 17.18,8.81 15.97,8.81 Z" id="Path"></path>
                    <path d="M15.97,17.61 L11.57,17.61 C10.36,17.61 9.37,18.6 9.37,19.81 C9.37,21.02 10.36,22.01 11.57,22.01 L15.97,22.01 C17.18,22.01 18.17,21.02 18.17,19.81 C18.17,18.59 17.18,17.61 15.97,17.61 Z" id="Path"></path>
                </g>
                <path d="M70.66,21.48 L64.06,10.48 C63.66,9.82 62.95,9.41 62.17,9.41 L46.77,9.41 C45.56,9.41 44.57,10.4 44.57,11.61 L44.57,33.61 C44.57,34.82 45.56,35.81 46.77,35.81 L68.77,35.81 C69.98,35.81 70.97,34.82 70.97,33.61 L70.97,22.61 C70.97,22.21 70.86,21.82 70.66,21.48 Z" id="Path" fill="#FFB64C"></path>
                <polygon id="Path" fill="#FAFAFA" points="53.37 13.81 60.92 13.81 66.2 22.61 53.37 22.61"></polygon>
                <path d="M46.77,0.61 L15.97,0.61 C14.76,0.61 13.77,1.6 13.77,2.81 L13.77,33.61 C13.77,34.82 14.76,35.81 15.97,35.81 L48.97,35.81 L48.97,2.81 C48.97,1.59 47.98,0.61 46.77,0.61 Z" id="Path" fill="#7B2A86"></path>
                <circle id="Oval" fill="#FAFAFA" cx="59.97" cy="33.61" r="4.4"></circle>
                <path d="M59.97,40.21 C56.33,40.21 53.37,37.25 53.37,33.61 C53.37,29.97 56.33,27.01 59.97,27.01 C63.61,27.01 66.57,29.97 66.57,33.61 C66.57,37.25 63.61,40.21 59.97,40.21 Z M59.97,31.41 C58.76,31.41 57.77,32.4 57.77,33.61 C57.77,34.82 58.76,35.81 59.97,35.81 C61.18,35.81 62.17,34.82 62.17,33.61 C62.17,32.4 61.18,31.41 59.97,31.41 Z" id="Shape" fill="#455A64"></path>
                <path d="M48.97,35.81 L15.97,35.81 C14.76,35.81 13.77,34.82 13.77,33.61 L13.77,27.01 L48.97,27.01 L48.97,35.81 Z" id="Path" fill="#F44336"></path>
                <circle id="Oval" fill="#FAFAFA" cx="29.17" cy="33.61" r="4.4"></circle>
                <path d="M29.17,40.21 C25.53,40.21 22.57,37.25 22.57,33.61 C22.57,29.97 25.53,27.01 29.17,27.01 C32.81,27.01 35.77,29.97 35.77,33.61 C35.77,37.25 32.81,40.21 29.17,40.21 Z M29.17,31.41 C27.96,31.41 26.97,32.4 26.97,33.61 C26.97,34.82 27.96,35.81 29.17,35.81 C30.38,35.81 31.37,34.82 31.37,33.61 C31.37,32.4 30.38,31.41 29.17,31.41 Z" id="Shape" fill="#455A64"></path>
            </g>
        </g>
    </g>
</svg>