<?xml version="1.0" encoding="UTF-8"?>
<svg width="49px" height="63px" viewBox="0 0 49 63" version="1.1" xmlns="http://www.w3.org/2000/svg" xmlns:xlink="http://www.w3.org/1999/xlink">
    <!-- Generator: Sketch 53 (72520) - https://sketchapp.com -->
    <title>Letter of Award Icon</title>
    <desc>Created with Sketch.</desc>
    <g id="Menu-Drawer" stroke="none" stroke-width="1" fill="none" fill-rule="evenodd">
        <g id="MENU" transform="translate(-1250.000000, -727.000000)">
            <g id="Letter-of-Award-Icon" transform="translate(1250.000000, 727.000000)">
                <g id="Group">
                    <g id="file">
                        <polygon id="Path" fill="#EDEEF2" points="45.64 14.27 31.61 0.37 0.56 0.37 0.56 57.97 45.64 57.97"></polygon>
                        <g id="Group" transform="translate(9.260870, 12.965517)" fill="#CAD3D5">
                            <path d="M1.32,10.24 L26.36,10.24 C26.91,10.24 27.36,9.8 27.36,9.25 C27.36,8.7 26.91,8.26 26.36,8.26 L1.32,8.26 C0.77,8.26 0.32,8.7 0.32,9.25 C0.32,9.8 0.76,10.24 1.32,10.24 Z" id="Path"></path>
                            <path d="M1.32,2.3 L11.34,2.3 C11.89,2.3 12.34,1.86 12.34,1.31 C12.34,0.76 11.89,0.32 11.34,0.32 L1.32,0.32 C0.77,0.32 0.32,0.76 0.32,1.31 C0.32,1.86 0.76,2.3 1.32,2.3 Z" id="Path"></path>
                            <path d="M26.36,16.2 L1.32,16.2 C0.77,16.2 0.32,16.64 0.32,17.19 C0.32,17.74 0.77,18.18 1.32,18.18 L26.36,18.18 C26.91,18.18 27.36,17.74 27.36,17.19 C27.36,16.65 26.91,16.2 26.36,16.2 Z" id="Path"></path>
                            <path d="M26.36,24.15 L1.32,24.15 C0.77,24.15 0.32,24.59 0.32,25.14 C0.32,25.69 0.77,26.13 1.32,26.13 L26.36,26.13 C26.91,26.13 27.36,25.69 27.36,25.14 C27.36,24.59 26.91,24.15 26.36,24.15 Z" id="Path"></path>
                            <path d="M26.36,32.09 L1.32,32.09 C0.77,32.09 0.32,32.53 0.32,33.08 C0.32,33.63 0.77,34.07 1.32,34.07 L26.36,34.07 C26.91,34.07 27.36,33.63 27.36,33.08 C27.36,32.54 26.91,32.09 26.36,32.09 Z" id="Path"></path>
                        </g>
                        <polygon id="Path" fill="#CAD3D5" points="31.61 0.37 31.61 14.27 45.64 14.27"></polygon>
                    </g>
                    <g id="medal" transform="translate(23.000000, 34.000000)">
                        <ellipse id="Oval" fill="#CC3E99" cx="13.06" cy="11.88" rx="10.97" ry="10.95"></ellipse>
                        <g id="Group" transform="translate(0.000000, 18.442006)" fill="#EA6347">
                            <path d="M3.98,0.44 L0.14,6.78 L4.63,6.55 L6.67,10.36 L10.23,4.5 C7.67,3.87 5.49,2.41 3.98,0.44 Z" id="Path"></path>
                            <path d="M22.11,0.41 C20.62,2.38 18.43,3.85 15.89,4.49 L19.46,10.36 L21.5,6.55 L25.99,6.78 L22.11,0.41 Z" id="Path"></path>
                        </g>
                        <ellipse id="Oval" fill="#7B2A86" transform="translate(13.114788, 11.874674) rotate(-1.002774) translate(-13.114788, -11.874674) " cx="13.114788" cy="11.874674" rx="7.97962609" ry="7.95962703"></ellipse>
                        <path d="M17.92,11.49 C18.16,11.24 18.03,10.81 17.7,10.76 L14.61,10.29 C14.48,10.27 14.36,10.18 14.31,10.06 L12.93,7.14 C12.78,6.82 12.35,6.82 12.2,7.14 L10.83,10.06 C10.77,10.18 10.65,10.27 10.53,10.29 L7.44,10.76 C7.11,10.81 6.97,11.24 7.22,11.49 L9.45,13.76 C9.55,13.86 9.59,14 9.57,14.13 L9.05,17.34 C8.99,17.69 9.34,17.95 9.64,17.79 L12.4,16.28 C12.52,16.21 12.66,16.21 12.78,16.28 L15.54,17.79 C15.84,17.95 16.19,17.69 16.13,17.34 L15.6,14.13 C15.58,13.99 15.62,13.85 15.72,13.76 L17.92,11.49 Z" id="Path" fill="#FFFFFF"></path>
                    </g>
                </g>
            </g>
        </g>
    </g>
</svg>