<?xml version="1.0" encoding="UTF-8"?>
<svg width="52px" height="52px" viewBox="0 0 52 52" version="1.1" xmlns="http://www.w3.org/2000/svg" xmlns:xlink="http://www.w3.org/1999/xlink">
    <!-- Generator: Sketch 53 (72520) - https://sketchapp.com -->
    <title>Progressive Claim Icon</title>
    <desc>Created with Sketch.</desc>
    <g id="Menu-Drawer" stroke="none" stroke-width="1" fill="none" fill-rule="evenodd">
        <g id="MENU" transform="translate(-1126.000000, -999.000000)" fill-rule="nonzero">
            <g id="Progressive-Claim-Icon" transform="translate(1126.000000, 999.000000)">
                <polygon id="Path" fill="#EA6347" points="42.88 15.26 44.38 7.01 42.88 0.16 25.76 0.16 33.26 7.76 25.76 15.26"></polygon>
                <polygon id="Path" fill="#6E6E6E" points="42.88 0.16 45.88 0.16 45.88 27.26 42.88 27.26"></polygon>
                <polygon id="Path" fill="#444444" points="44.38 0.16 45.88 0.16 45.88 27.26 44.38 27.26"></polygon>
                <polygon id="Path" fill="#7B2A86" points="36.88 24.26 36.88 30.26 24.88 30.26 24.88 36.26 12.88 36.26 12.88 42.26 0.78 42.26 0.78 51.36 51.98 51.36 51.98 24.26"></polygon>
                <polygon id="Path" fill="#CC3E99" points="44.38 24.26 51.98 24.26 51.98 51.36 44.38 51.36"></polygon>
            </g>
        </g>
    </g>
</svg>