<svg height="512" viewBox="0 0 512 512" width="512" xmlns="http://www.w3.org/2000/svg" xmlns:xlink="http://www.w3.org/1999/xlink"><linearGradient id="New_Gradient_Swatch_3" gradientUnits="userSpaceOnUse" x1="-.486" x2="293.444" y1="296.486" y2="2.556"><stop offset=".011" stop-color="#606082"/><stop offset="1" stop-color="#83839e"/></linearGradient><linearGradient id="New_Gradient_Swatch_5" gradientUnits="userSpaceOnUse" x1="224.135" x2="456.268" y1="432.3" y2="200.167"><stop offset=".011" stop-color="#f8c73f"/><stop offset="1" stop-color="#fada7f"/></linearGradient><g id="_03-QA" data-name="03-QA"><g id="gradient"><path d="m280 4h-240a36.04 36.04 0 0 0 -36 36v256a12 12 0 0 0 19.777 9.139l43.638-37.139h212.585a36.04 36.04 0 0 0 36-36v-192a36.04 36.04 0 0 0 -36-36z" fill="url(#New_Gradient_Swatch_3)"/><path d="m227.1 203.431-56-136a12 12 0 0 0 -22.192 0l-56 136a12 12 0 1 0 22.192 9.138l13.407-32.569h62.986l13.407 32.569a12 12 0 1 0 22.192-9.138zm-88.711-47.431 21.611-52.483 21.611 52.483z" fill="#ededf1"/><path d="m336 156c-94.841 0-172 69.981-172 156 0 81.471 69.282 149.175 158.371 155.507l54.747 38.324a12 12 0 0 0 18.649-12.185l-6.648-33.241c31.868-9.406 60.49-27.35 81.507-51.286 24.45-27.846 37.374-61.429 37.374-97.119 0-86.019-77.159-156-172-156z" fill="url(#New_Gradient_Swatch_5)"/><path d="m407.5 374.629-16.459-13.167c8.402-14.27 12.959-31.462 12.959-49.462 0-21.887-6.723-42.584-18.93-58.279-12.9-16.586-30.327-25.721-49.07-25.721s-36.17 9.135-49.07 25.721c-12.207 15.695-18.93 36.392-18.93 58.279s6.723 42.584 18.93 58.279c12.9 16.586 30.327 25.721 49.07 25.721 14.619 0 28.426-5.58 39.921-15.9l16.579 13.271a12 12 0 0 0 15-18.742zm-71.5-2.629c-24.262 0-44-26.916-44-60s19.738-60 44-60 44 26.916 44 60a75.477 75.477 0 0 1 -7.926 34.292l-4.578-3.663a12 12 0 0 0 -14.996 18.742l4.329 3.463a34.939 34.939 0 0 1 -20.829 7.166z" fill="#fef9ea"/><path d="m439.061 116.906h-.007a12 12 0 0 1 -11.993-12.006 19.942 19.942 0 0 0 -19.95-19.96h-.017a12 12 0 0 1 -.007-24h.024a43.944 43.944 0 0 1 43.95 43.975 12 12 0 0 1 -12 11.991z" fill="#90d7d1"/><path d="m487.036 116.881h-.006a12 12 0 0 1 -11.994-12.006 67.859 67.859 0 0 0 -67.877-67.911c-.014 0-.028 0-.041 0a12 12 0 0 1 -.006-24h.047a91.859 91.859 0 0 1 91.877 91.924 12 12 0 0 1 -12 11.993z" fill="#afe2de"/><ellipse cx="400.006" cy="111.994" fill="#70ccc4" rx="12.006" ry="11.994" transform="matrix(.707 -.707 .707 .707 37.968 315.649)"/></g></g></svg>