<?xml version="1.0" encoding="UTF-8"?>
<svg width="18px" height="18px" viewBox="0 0 18 18" version="1.1" xmlns="http://www.w3.org/2000/svg" xmlns:xlink="http://www.w3.org/1999/xlink">
    <!-- Generator: Sketch 53.2 (72643) - https://sketchapp.com -->
    <title>Received Tender sidebar icon_ON</title>
    <desc>Created with Sketch.</desc>
    <g id="Tender-&gt;&gt;-Create-PO/RO/WO" stroke="none" stroke-width="1" fill="none" fill-rule="evenodd">
        <path d="M16,0 L1.99,0 C0.89,0 0.01,0.9 0.01,2 L0,16 C0,17.1 0.89,18 1.99,18 L16,18 C17.1,18 18,17.1 18,16 L18,2 C18,0.9 17.1,0 16,0 L16,0 Z M15.6521739,12.5819398 L11.8536449,12.5819398 C11.8536449,14.2808027 10.5811377,15.6521739 9.00474816,15.6521739 C7.42835863,15.6521739 6.15585141,14.2808027 6.15585141,12.5819398 L2.34782609,12.5819398 L2.34782609,2.34782609 L15.6521739,2.34782609 L15.6521739,12.5819398 L15.6521739,12.5819398 Z M12.5217391,6.93167702 L10.5652174,6.93167702 L10.5652174,3.91304348 L6.65217391,3.91304348 L6.65217391,6.93167702 L4.69565217,6.93167702 L8.60869565,10.9565217 L12.5217391,6.93167702 L12.5217391,6.93167702 Z" id="Received-Tender-sidebar-icon_ON" fill="#FF5A5F"></path>
    </g>
</svg>