<?xml version="1.0" encoding="UTF-8"?>
<svg width="58px" height="45px" viewBox="0 0 58 45" version="1.1" xmlns="http://www.w3.org/2000/svg" xmlns:xlink="http://www.w3.org/1999/xlink">
    <!-- Generator: Sketch 53 (72520) - https://sketchapp.com -->
    <title>Rental Order Icon</title>
    <desc>Created with Sketch.</desc>
    <g id="Menu-Drawer" stroke="none" stroke-width="1" fill="none" fill-rule="evenodd">
        <g id="MENU" transform="translate(-1123.000000, -870.000000)" fill-rule="nonzero">
            <g id="Rental-Order-Icon" transform="translate(1123.000000, 870.000000)">
                <polygon id="Path" fill="#32393F" points="10.85 14.04 7.5 14.04 7.5 7.34 10.85 7.34"></polygon>
                <polygon id="Path" fill="#FFD396" points="46.01 7.34 47.68 10.69 49.35 7.34 54.37 7.34 54.37 20.74 52.7 22.41 39.3 22.41 39.3 7.34 46.01 7.34"></polygon>
                <polygon id="Path" fill="#FFB64C" points="46.01 7.34 47.68 10.69 47.68 22.41 39.31 22.41 39.31 7.34"></polygon>
                <polygon id="Path" fill="#FFB64C" points="49.36 14.04 46.01 14.04 46.01 7.34 49.36 7.34"></polygon>
                <polygon id="Path" fill="#FF9100" points="47.69 14.04 46.02 14.04 46.02 7.34 47.69 7.34"></polygon>
                <polygon id="Path" fill="#FFB64C" points="46.01 20.73 47.68 24.08 49.35 20.73 54.37 20.73 54.37 35.8 39.3 35.8 39.3 20.73"></polygon>
                <polygon id="Path" fill="#FF9100" points="46.01 20.73 47.68 24.08 47.68 35.8 39.31 35.8 39.31 20.73"></polygon>
                <polygon id="Path" fill="#32393F" points="39.32 20.73 32.62 20.73 32.62 17.38 39.32 17.38"></polygon>
                <polygon id="Path" fill="#32393F" points="39.32 14.04 32.62 14.04 32.62 10.69 39.32 10.69"></polygon>
                <polygon id="Path" fill="#7C8388" points="40.99 0.64 40.99 34.13 57.96 34.13 57.96 37.48 37.64 37.48 37.64 0.64"></polygon>
                <polygon id="Path" fill="#FFD396" points="49.36 27.43 46.01 27.43 46.01 20.73 49.36 20.73"></polygon>
                <polygon id="Path" fill="#FFB64C" points="47.69 27.43 46.02 27.43 46.02 20.73 47.69 20.73"></polygon>
                <polygon id="Path" fill="#575F64" points="40.99 0.64 40.99 34.13 47.69 34.13 47.69 37.48 37.64 37.48 37.64 0.64"></polygon>
                <path d="M4.15,40.83 L32.62,40.83 C33.54,40.83 34.29,40.08 34.29,39.16 L34.29,0.65 L27.59,0.65 L27.59,4 L30.94,4 L30.94,20.74 L25.55,20.74 L20.53,0.65 L0.8,0.65 L0.8,37.49 C0.8,39.33 2.3,40.83 4.15,40.83 Z M4.15,3.99 L17.91,3.99 L21.66,19.06 L17.54,19.06 L10.84,12.36 C10.81,12.36 10.69,12.36 10.54,12.36 L4.14,12.36 L4.14,3.99 L4.15,3.99 Z" id="Shape" fill="#CC3E99"></path>
                <path d="M24.25,39.15 C24.25,36.38 26.5,34.13 29.27,34.13 C32.04,34.13 34.29,36.38 34.29,39.15 C34.29,41.92 32.04,44.17 29.27,44.17 C26.5,44.17 24.25,41.92 24.25,39.15 Z" id="Path" fill="#575F64"></path>
                <path d="M27.6,39.15 C27.6,38.23 28.35,37.48 29.27,37.48 C30.19,37.48 30.94,38.23 30.94,39.15 C30.94,40.07 30.19,40.82 29.27,40.82 C28.35,40.82 27.6,40.08 27.6,39.15 Z" id="Path" fill="#FFF5F5"></path>
                <path d="M4.15,40.83 L17.55,40.83 L17.55,19.06 L10.85,12.36 C11.19,12.36 4.5,12.36 4.15,12.36 L4.15,3.99 L17.55,3.99 L17.55,0.64 L0.8,0.64 L0.8,37.48 C0.8,39.33 2.3,40.83 4.15,40.83 Z" id="Path" fill="#7B2A86"></path>
                <path d="M0.8,37.48 C0.8,33.79 3.8,30.78 7.5,30.78 C11.19,30.78 14.2,33.78 14.2,37.48 C14.2,41.17 11.2,44.18 7.5,44.18 C3.81,44.18 0.8,41.17 0.8,37.48 Z" id="Path" fill="#32393F"></path>
                <path d="M4.15,37.48 C4.15,35.63 5.65,34.13 7.5,34.13 C9.35,34.13 10.85,35.63 10.85,37.48 C10.85,39.33 9.35,40.83 7.5,40.83 C5.66,40.83 4.15,39.33 4.15,37.48 Z" id="Path" fill="#EFE2DD"></path>
            </g>
        </g>
    </g>
</svg>