<?xml version="1.0" encoding="UTF-8"?>
<svg width="22px" height="16px" viewBox="0 0 22 16" version="1.1" xmlns="http://www.w3.org/2000/svg" xmlns:xlink="http://www.w3.org/1999/xlink">
    <!-- Generator: Sketch 53.2 (72643) - https://sketchapp.com -->
    <title>Machine &amp; Equipment sidebar icon ON</title>
    <desc>Created with Sketch.</desc>
    <g id="Material-Request-&amp;-Tender" stroke="none" stroke-width="1" fill="none" fill-rule="evenodd">
        <path d="M19,4 L16,4 L16,0 L2,0 C0.9,0 0,0.9005 0,2.0005 L0,13 L2,13 C2,14.6605 3.34,16 5,16 C6.66,16 8,14.6605 8,13 L14,13 C14,14.6605 15.34,16 17,16 C18.66,16 20,14.6605 20,13 L22,13 L22,8.0005 L19,4 L19,4 Z M5.5,14 C4.67,14 4,13.3305 4,12.5 C4,11.6705 4.67,11 5.5,11 C6.33,11 7,11.6705 7,12.5 C7,13.3305 6.33,14 5.5,14 L5.5,14 Z M18.2421525,5 L20,8 L16,8 L16,5 L18.2421525,5 L18.2421525,5 Z M17.5,14 C16.67,14 16,13.3305 16,12.5 C16,11.6705 16.67,11 17.5,11 C18.33,11 19,11.6705 19,12.5 C19,13.3305 18.33,14 17.5,14 L17.5,14 Z" id="Machine-&amp;-Equipment-sidebar-icon-ON" fill="#FF5A5F"></path>
    </g>
</svg>